<?xml version="1.0" encoding="utf-8"?>
<!-- Generator: Adobe Illustrator 17.1.0, SVG Export Plug-In . SVG Version: 6.00 Build 0)  -->
<!DOCTYPE svg PUBLIC "-//W3C//DTD SVG 1.1//EN" "http://www.w3.org/Graphics/SVG/1.1/DTD/svg11.dtd">
<svg version="1.1" id="Layer_1" xmlns="http://www.w3.org/2000/svg" xmlns:xlink="http://www.w3.org/1999/xlink" x="0px" y="0px"
	 viewBox="385 185 189.9 189.9" enable-background="new 385 185 189.9 189.9" xml:space="preserve">
<g>
	<path fill="#010101" d="M409.8,291.9h-24H385v59.3l17.6-16.2c17.2,24.1,45.5,39.9,77.4,39.9c48.4,0,88.4-36.2,94.2-83.1h-24
		c-5.7,33.7-34.9,59.4-70.2,59.4c-25,0-47-12.9-59.7-32.4l29.3-27L409.8,291.9L409.8,291.9z"/>
	<path fill="#010101" d="M480,185c-48.4,0-88.4,36.2-94.2,83.1h24c5.7-33.7,34.9-59.3,70.2-59.3c25.7,0,48.3,13.7,60.8,34.1
		l-25.2,25.2h23.7h10.9h24h0.7v-59.4l-17,17C540.8,201.1,512.3,185,480,185z"/>
</g>
</svg>
