<?xml version="1.0" encoding="utf-8"?>
<!-- Generator: Adobe Illustrator 16.2.1, SVG Export Plug-In . SVG Version: 6.00 Build 0)  -->
<!DOCTYPE svg PUBLIC "-//W3C//DTD SVG 1.1//EN" "http://www.w3.org/Graphics/SVG/1.1/DTD/svg11.dtd">
<svg version="1.1" id="Layer_1" xmlns="http://www.w3.org/2000/svg" xmlns:xlink="http://www.w3.org/1999/xlink" x="0px" y="0px"
	 width="538.56px" height="538.561px" viewBox="36.72 126.72 538.56 538.561" enable-background="new 36.72 126.72 538.56 538.561"
	 xml:space="preserve">
<path d="M306,126.72C157.284,126.72,36.72,247.278,36.72,396c0,148.722,120.564,269.28,269.28,269.28S575.28,544.722,575.28,396
	C575.28,247.278,454.716,126.72,306,126.72z M463.192,323.062L278.852,501.821c-3.133,3.041-7.197,4.553-11.242,4.553
	c-4.131,0-8.268-1.579-11.42-4.736l-71.831-71.818c-6.31-6.31-6.31-16.536,0-22.847c6.31-6.31,16.536-6.31,22.846,0l60.576,60.57
	l172.92-167.682c6.396-6.206,16.609-6.059,22.846,0.355C469.753,306.624,469.6,316.844,463.192,323.062z"/>
</svg>
