<?xml version="1.0" encoding="utf-8"?>
<!-- Generator: Adobe Illustrator 17.1.0, SVG Export Plug-In . SVG Version: 6.00 Build 0)  -->
<!DOCTYPE svg PUBLIC "-//W3C//DTD SVG 1.1//EN" "http://www.w3.org/Graphics/SVG/1.1/DTD/svg11.dtd">
<svg version="1.1" id="Layer_1" xmlns="http://www.w3.org/2000/svg" xmlns:xlink="http://www.w3.org/1999/xlink" x="0px" y="0px"
	 viewBox="0 0 933.3 560" enable-background="new 0 0 933.3 560" xml:space="preserve">
<g>
	<path d="M466.7,0C296.1,0,163.1,106.8,0,279.9C140.5,427.9,258.4,560,466.7,560s361.2-167.2,466.6-277C825.4,154.4,672.3,0,466.7,0
		z M466.7,466.6c-102.9,0-186.7-83.7-186.7-186.7S363.7,93.3,466.7,93.3S653.3,177.1,653.3,280S569.4,466.6,466.7,466.6z"/>
	<path d="M466.7,171.1c-60,0-108.9,48.8-108.9,108.9s48.9,108.9,108.9,108.9S575.4,340,575.4,280S526.5,171.1,466.7,171.1z"/>
</g>
</svg>
