<?xml version="1.0" encoding="utf-8"?>
<!-- Generator: Adobe Illustrator 15.0.2, SVG Export Plug-In . SVG Version: 6.00 Build 0)  -->
<!DOCTYPE svg PUBLIC "-//W3C//DTD SVG 1.1//EN" "http://www.w3.org/Graphics/SVG/1.1/DTD/svg11.dtd">
<svg version="1.1" id="Layer_1" xmlns="http://www.w3.org/2000/svg" xmlns:xlink="http://www.w3.org/1999/xlink" x="0px" y="0px"
	 width="175px" height="175px" viewBox="0 0 175 175" enable-background="new 0 0 175 175" xml:space="preserve">
<g>
	<path fill="#DBDCDE" d="M87.499,173.062c-47.178,0-85.561-38.383-85.561-85.562c0-47.179,38.383-85.562,85.561-85.562
		c47.179,0,85.563,38.383,85.563,85.562C173.062,134.68,134.678,173.062,87.499,173.062z M87.499,7.938
		c-43.87,0-79.561,35.691-79.561,79.562s35.69,79.562,79.561,79.562c43.873,0,79.563-35.691,79.563-79.562
		S131.371,7.938,87.499,7.938z"/>
	<g>
		<path class="c4-fill" fill="#3883AE" d="M128.383,91.352H33.164c-1.747,0-3.165-1.416-3.165-3.164c0-1.748,1.418-3.165,3.165-3.165h95.219
			c5.674,0,10.287-4.617,10.287-10.287c0-5.674-4.613-10.288-10.287-10.288c-5.672,0-10.287,4.614-10.287,10.288
			c0,1.397,0.277,2.752,0.82,4.027c0.684,1.607-0.064,3.467-1.672,4.152c-1.611,0.684-3.469-0.065-4.154-1.672
			c-0.877-2.063-1.322-4.254-1.322-6.508c0-9.164,7.453-16.618,16.615-16.618c9.164,0,16.619,7.454,16.619,16.618
			C145.002,83.896,137.547,91.352,128.383,91.352z"/>
		<path class="c3-fill" fill="#69C4EF" d="M96.953,81.593h-63.79c-1.163,0-2.108-0.946-2.108-2.111c0-1.164,0.945-2.109,2.108-2.109h63.79
			c3.805,0,6.9-3.096,6.9-6.902c0-3.805-3.097-6.901-6.9-6.901c-3.807,0-6.902,3.097-6.902,6.901c0,0.938,0.184,1.848,0.549,2.703
			c0.457,1.071-0.041,2.312-1.115,2.768c-1.071,0.455-2.312-0.043-2.769-1.113c-0.586-1.382-0.884-2.848-0.884-4.357
			c0-6.131,4.986-11.121,11.122-11.121c6.133,0,11.121,4.99,11.121,11.121C108.074,76.603,103.086,81.593,96.953,81.593z"/>
		<path class="c3-fill" fill="#69C4EF" d="M96.953,116.883c-6.135,0-11.122-4.99-11.122-11.123c0-1.508,0.298-2.975,0.884-4.355
			c0.457-1.069,1.697-1.569,2.77-1.114c1.074,0.458,1.572,1.696,1.115,2.771c-0.365,0.855-0.55,1.765-0.55,2.7
			c0,3.806,3.097,6.903,6.902,6.903c3.805,0,6.899-3.098,6.899-6.903c0-3.805-3.096-6.901-6.899-6.901h-63.79
			c-1.163,0-2.108-0.943-2.108-2.107c0-1.165,0.945-2.111,2.108-2.111h63.79c6.133,0,11.121,4.989,11.121,11.121
			C108.074,111.893,103.086,116.883,96.953,116.883z"/>
	</g>
</g>
</svg>
