<?xml version="1.0" encoding="utf-8"?>
<!-- Generator: Adobe Illustrator 15.0.2, SVG Export Plug-In . SVG Version: 6.00 Build 0)  -->
<!DOCTYPE svg PUBLIC "-//W3C//DTD SVG 1.1//EN" "http://www.w3.org/Graphics/SVG/1.1/DTD/svg11.dtd">
<svg version="1.1" id="Layer_1" xmlns="http://www.w3.org/2000/svg" xmlns:xlink="http://www.w3.org/1999/xlink" x="0px" y="0px"
	 width="175px" height="175px" viewBox="0 0 175 175" enable-background="new 0 0 175 175" xml:space="preserve">
<path fill="#DBDCDE" d="M87.499,173.062c-47.178,0-85.561-38.383-85.561-85.562c0-47.179,38.383-85.562,85.561-85.562
	c47.181,0,85.562,38.383,85.562,85.562C173.061,134.68,134.68,173.062,87.499,173.062z M87.499,7.938
	c-43.87,0-79.561,35.691-79.561,79.562c0,43.87,35.69,79.562,79.561,79.562s79.562-35.691,79.562-79.562
	C167.062,43.629,131.37,7.938,87.499,7.938z"/>
<g>
	<g>
		<path fill="none" d="M114.532,69.473c-0.47-11.153-1.345-31.912-26.762-31.912l-0.469,0.002l-0.509-0.002
			c-25.419,0-26.292,20.757-26.761,31.909c-0.057,1.339-0.105,2.495-0.191,3.48c-0.641,7.307-0.225,20.048-0.057,24.345
			c3.418,0.844,13.159,2.881,27.498,2.881c14.337,0,24.078-2.037,27.496-2.881c0.168-4.297,0.586-17.041-0.055-24.345
			C114.639,71.966,114.589,70.811,114.532,69.473z"/>
		<path fill="none" d="M56.036,69.302c0.217-5.16,0.585-13.658,4.183-21.075c-4.102,2.056-12.392,7.975-12.266,22.208
			c0.742,0.862,3.062,2.761,7.99,0.873C55.977,70.698,56.005,70.032,56.036,69.302z"/>
		<path fill="none" d="M114.21,47.953c3.726,7.481,4.099,16.127,4.317,21.352c0.027,0.654,0.055,1.262,0.082,1.82
			c5.211,2.17,7.651,0.214,8.438-0.695C127.18,55.502,118.052,49.723,114.21,47.953z"/>
		<path class="c4-fill" fill="#3883AE" d="M113.691,43.461c-0.186-0.054-0.375-0.082-0.565-0.082h-1.771c-4.424-5.656-11.66-9.819-23.584-9.819
			l-0.469,0.002l-0.509-0.002c-11.926,0-19.163,4.164-23.585,9.819h-1.334c-0.191,0-0.382,0.027-0.565,0.082
			c-0.179,0.053-17.907,5.53-17.345,27.685c0.008,0.335,0.102,0.664,0.27,0.954c0.988,1.702,3.63,4.001,7.871,4.001
			c1.08,0,2.268-0.154,3.555-0.5c-0.453,9.32,0.162,22.711,0.191,23.34c0.039,0.844,0.604,1.572,1.412,1.816
			c0.455,0.143,11.372,3.416,30.02,3.416c18.646,0,29.562-3.273,30.019-3.416c0.807-0.244,1.373-0.975,1.412-1.816
			c0.029-0.631,0.65-14.143,0.186-23.466c1.459,0.436,2.793,0.626,3.996,0.626c4.24,0,6.883-2.3,7.871-4.001
			c0.168-0.291,0.262-0.619,0.271-0.954C131.6,48.992,113.87,43.514,113.691,43.461z M47.953,70.435
			c-0.126-14.233,8.164-20.152,12.266-22.208c-3.598,7.417-3.966,15.915-4.183,21.075c-0.03,0.73-0.06,1.396-0.093,2.006
			C51.016,73.196,48.694,71.297,47.953,70.435z M114.777,97.295c-3.418,0.844-13.157,2.881-27.495,2.881
			c-14.339,0-24.08-2.037-27.498-2.881c-0.168-4.297-0.584-17.038,0.057-24.345c0.086-0.985,0.135-2.142,0.191-3.48
			c0.469-11.151,1.342-31.909,26.761-31.909l0.509,0.002l0.469-0.002c25.418,0,26.291,20.759,26.762,31.912
			c0.057,1.337,0.105,2.493,0.191,3.477C115.363,80.254,114.947,92.998,114.777,97.295z M118.609,71.125
			c-0.027-0.558-0.055-1.166-0.082-1.82c-0.219-5.225-0.594-13.871-4.317-21.352c3.842,1.771,12.97,7.549,12.838,22.477
			C126.264,71.339,123.82,73.295,118.609,71.125z"/>
	</g>
</g>
<g>
	<path class="c3-fill" fill="#69C3EE" d="M59.535,136.096c3.961,1.957,8.262,2.948,12.798,2.948c0.001,0,0.001,0,0.001,0
		c6.514,0,11.777-2.068,13.703-2.938v-30.54c-13.658-0.13-22.9-2.005-26.589-2.91C58.302,117.277,59.268,132.441,59.535,136.096z"/>
	<path class="c3-fill" fill="#69C3EE" d="M88.967,105.565v30.54c1.926,0.87,7.189,2.938,13.703,2.938c0,0,0,0,0.001,0
		c4.536,0,8.837-0.991,12.798-2.948c0.267-3.654,1.232-18.818,0.087-33.44C111.867,103.561,102.625,105.436,88.967,105.565z"/>
	<path class="c4-stroke c4-fill" fill="#3882AD" d="M118.394,100.608c-0.04-0.449-0.282-0.857-0.657-1.109s-0.846-0.322-1.275-0.189
		c-0.106,0.033-10.854,3.259-28.959,3.263c-18.105-0.004-28.853-3.229-28.959-3.263c-0.43-0.133-0.9-0.062-1.275,0.189
		s-0.617,0.66-0.657,1.109c-1.585,17.477-0.017,36.377-0.001,36.566c0.043,0.508,0.342,0.96,0.793,1.198
		c4.598,2.436,9.621,3.671,14.931,3.671c0.001,0,0.001,0,0.001,0c7.412,0,13.197-2.382,15.168-3.308
		c1.971,0.926,7.756,3.308,15.168,3.308c0,0,0,0,0.001,0c5.31,0,10.333-1.235,14.931-3.671c0.451-0.238,0.75-0.69,0.793-1.198
		C118.41,136.985,119.979,118.085,118.394,100.608z M86.037,136.105c-1.926,0.87-7.189,2.938-13.703,2.938c0,0,0,0-0.001,0
		c-4.536,0-8.837-0.991-12.798-2.948c-0.267-3.654-1.232-18.818-0.087-33.44c3.688,0.905,12.931,2.78,26.589,2.91V136.105z
		 M115.469,136.096c-3.961,1.957-8.262,2.948-12.798,2.948c-0.001,0-0.001,0-0.001,0c-6.514,0-11.777-2.068-13.703-2.938v-30.54
		c13.658-0.13,22.9-2.005,26.589-2.91C116.701,117.277,115.735,132.441,115.469,136.096z"/>
</g>
</svg>
