<?xml version="1.0" encoding="utf-8"?>
<!-- Generator: Adobe Illustrator 15.0.2, SVG Export Plug-In . SVG Version: 6.00 Build 0)  -->
<!DOCTYPE svg PUBLIC "-//W3C//DTD SVG 1.1//EN" "http://www.w3.org/Graphics/SVG/1.1/DTD/svg11.dtd">
<svg version="1.1" id="Layer_1" xmlns="http://www.w3.org/2000/svg" xmlns:xlink="http://www.w3.org/1999/xlink" x="0px" y="0px"
	 width="175px" height="175px" viewBox="0 0 175 175" enable-background="new 0 0 175 175" xml:space="preserve">
<g>
	<path fill="#DBDCDE" d="M87.5,173.062c-47.179,0-85.562-38.385-85.562-85.563C1.938,40.32,40.321,1.938,87.5,1.938
		c47.18,0,85.562,38.383,85.562,85.562C173.062,134.68,134.68,173.062,87.5,173.062z M87.5,7.938
		C43.629,7.938,7.938,43.629,7.938,87.5s35.691,79.562,79.562,79.562s79.562-35.691,79.562-79.562S131.371,7.938,87.5,7.938z"/>
	<g>
		<path class="c3-fill" fill="#69C4EF" d="M130.98,76.271c-0.279-41.219-40.201-40.5-44.732-40.286c-4.529-0.214-44.452-0.933-44.732,40.286
			c-0.291,42.79,30.832,61.965,44.309,62.745v0.037c0.135,0,0.285-0.014,0.424-0.019c0.139,0.005,0.289,0.019,0.424,0.019v-0.037
			C100.148,138.236,131.271,119.061,130.98,76.271z"/>
		<g>
			<path class="c4-fill" fill="#3883AE" d="M87.924,141.509c-0.125,0-0.26-0.006-0.393-0.015l-0.031-0.001l-0.029,0.001
				c-0.135,0.009-0.268,0.015-0.395,0.015h-2.455v-0.312c-7.316-1.252-17.76-6.463-26.668-16.137
				c-8.139-8.838-17.806-24.48-17.641-48.806c0.215-31.529,23.564-42.764,45.344-42.764c0.807,0,1.434,0.019,1.844,0.037
				c0.411-0.019,1.037-0.037,1.846-0.037c21.779,0,45.127,11.234,45.342,42.764c0.166,24.324-9.5,39.968-17.639,48.806
				c-8.908,9.674-19.352,14.885-26.67,16.137v0.275L87.924,141.509z M87.5,136.58h0.033l0.25-0.014
				c12.475-0.725,42.275-19.094,41.994-60.278c-0.238-35.155-31.008-37.887-40.434-37.887c-0.781,0-1.371,0.02-1.728,0.036
				L87.5,38.443l-0.115-0.006c-0.357-0.017-0.947-0.036-1.729-0.036c-9.425,0-40.193,2.731-40.434,37.887
				c-0.28,41.185,29.521,59.555,41.996,60.278l0.25,0.014H87.5z"/>
			<g>
				<g>
					<path class="c4-fill" fill="#3883AE" d="M95.939,87.654c0.668,0.549,1.658,0.45,2.211-0.218c0.033-0.039,3.356-4,8.51-4
						c0.146,0,0.288-0.022,0.424-0.061c0.134,0.038,0.275,0.061,0.42,0.061c5.146,0,8.471,3.952,8.512,4
						c0.549,0.669,1.537,0.771,2.209,0.223c0.676-0.547,0.777-1.538,0.229-2.213c-0.169-0.211-4.268-5.158-10.948-5.158
						c-0.146,0-0.286,0.022-0.42,0.059c-0.136-0.036-0.276-0.059-0.424-0.059c-6.681,0-10.777,4.947-10.947,5.158
						C95.164,86.121,95.268,87.107,95.939,87.654z"/>
					<path class="c4-fill" fill="#3883AE" d="M56.773,87.654c0.672,0.549,1.661,0.45,2.213-0.218c0.032-0.039,3.357-4,8.51-4
						c0.146,0,0.287-0.022,0.422-0.061c0.135,0.038,0.274,0.061,0.422,0.061c5.145,0,8.473,3.952,8.51,4
						c0.551,0.669,1.537,0.771,2.21,0.223c0.677-0.547,0.778-1.538,0.229-2.213c-0.171-0.211-4.268-5.158-10.949-5.158
						c-0.147,0-0.287,0.022-0.422,0.059c-0.135-0.036-0.275-0.059-0.422-0.059c-6.68,0-10.777,4.947-10.951,5.158
						C56.002,86.121,56.102,87.107,56.773,87.654z"/>
				</g>
			</g>
			<path class="c4-fill" fill="#3883AE" d="M102.363,106.124c-0.896-0.731-2.215-0.601-2.951,0.288c-0.042,0.059-4.477,5.338-11.348,5.338
				c-0.195,0-0.385,0.027-0.564,0.077c-0.178-0.05-0.367-0.077-0.561-0.077c-6.865,0-11.297-5.271-11.35-5.338
				c-0.732-0.893-2.051-1.027-2.947-0.297c-0.9,0.729-1.036,2.054-0.305,2.951c0.229,0.281,5.689,6.879,14.602,6.879
				c0.193,0,0.383-0.027,0.561-0.08c0.18,0.053,0.369,0.08,0.564,0.08c8.908,0,14.373-6.598,14.602-6.879
				C103.393,108.171,103.257,106.854,102.363,106.124z"/>
		</g>
	</g>
</g>
</svg>
