<?xml version="1.0" encoding="utf-8"?>
<!-- Generator: Adobe Illustrator 15.0.2, SVG Export Plug-In . SVG Version: 6.00 Build 0)  -->
<!DOCTYPE svg PUBLIC "-//W3C//DTD SVG 1.1//EN" "http://www.w3.org/Graphics/SVG/1.1/DTD/svg11.dtd">
<svg version="1.1" id="Layer_1" xmlns="http://www.w3.org/2000/svg" xmlns:xlink="http://www.w3.org/1999/xlink" x="0px" y="0px"
	 width="175px" height="175px" viewBox="0 0 175 175" enable-background="new 0 0 175 175" xml:space="preserve">
<g>
	<path fill="#DBDCDE" d="M87.5,173.062c-47.18,0-85.562-38.383-85.562-85.562c0-47.179,38.383-85.562,85.562-85.562
		c47.18,0,85.562,38.383,85.562,85.562C173.062,134.68,134.68,173.062,87.5,173.062z M87.5,7.938
		C43.629,7.938,7.938,43.629,7.938,87.5s35.691,79.562,79.562,79.562s79.562-35.691,79.562-79.562S131.371,7.938,87.5,7.938z"/>
	<g>
		<path class="c3-fill" fill="#69C4EF" d="M134.619,48.04c-5.188-5.066-12.357-7.598-21.508-7.598c-2.531,0-5.115,0.438-7.75,1.316
			c-2.635,0.879-5.086,2.062-7.354,3.554c-2.266,1.49-4.217,2.891-5.854,4.197c-1.633,1.308-3.184,2.697-4.653,4.166
			c-1.471-1.469-3.023-2.858-4.658-4.166c-1.633-1.307-3.584-2.707-5.85-4.197c-2.268-1.491-4.721-2.675-7.354-3.554
			c-2.635-0.878-5.217-1.316-7.752-1.316c-9.148,0-16.318,2.531-21.506,7.598c-5.188,5.064-7.783,12.09-7.783,21.077
			c0,2.737,0.48,5.556,1.439,8.455c0.961,2.901,2.055,5.375,3.277,7.414c1.227,2.044,2.615,4.036,4.168,5.977
			c1.553,1.939,2.686,3.277,3.4,4.012c0.717,0.736,1.277,1.269,1.686,1.596L84.8,133.457c0.736,0.734,1.635,1.102,2.697,1.102
			c1.062,0,1.958-0.367,2.694-1.102l38.175-36.766c9.354-9.354,14.032-18.545,14.032-27.573
			C142.402,60.13,139.807,53.104,134.619,48.04z M133.006,69.759c-0.072,0-0.148-0.005-0.223-0.016
			c-0.799-0.124-1.346-0.869-1.225-1.667c0.096-0.627,2.174-15.39-10.734-17.399c-0.799-0.123-1.346-0.871-1.221-1.669
			c0.123-0.799,0.873-1.339,1.67-1.221c12.643,1.97,14.147,14.422,13.176,20.731C134.338,69.242,133.717,69.759,133.006,69.759z"/>
		<path class="c4-fill" fill="#3883AE" d="M87.5,137.059c-1.717,0-3.26-0.634-4.463-1.832L44.911,98.441c-0.48-0.396-1.078-0.961-1.82-1.726
			c-0.771-0.791-1.936-2.163-3.559-4.192c-1.613-2.015-3.08-4.117-4.359-6.251c-1.314-2.189-2.494-4.852-3.508-7.914
			c-1.039-3.141-1.566-6.25-1.566-9.241c0-9.643,2.871-17.336,8.535-22.866c5.646-5.513,13.471-8.309,23.254-8.309
			c2.793,0,5.668,0.486,8.543,1.445c2.834,0.945,5.502,2.236,7.936,3.836c2.312,1.521,4.346,2.979,6.039,4.333
			c1.059,0.848,2.094,1.736,3.096,2.657c1.001-0.921,2.035-1.81,3.091-2.655c1.695-1.354,3.728-2.812,6.041-4.335
			c2.439-1.603,5.109-2.893,7.938-3.836c2.877-0.959,5.752-1.445,8.541-1.445c9.785,0,17.609,2.796,23.254,8.31
			c5.664,5.528,8.537,13.222,8.537,22.865c0,9.672-4.969,19.544-14.766,29.341L91.93,135.257
			C90.76,136.425,89.217,137.059,87.5,137.059z M61.887,42.942c-8.432,0-15.08,2.316-19.76,6.887
			c-4.73,4.618-7.029,10.927-7.029,19.288c0,2.456,0.441,5.037,1.314,7.67c0.896,2.713,1.922,5.039,3.047,6.912
			c1.166,1.942,2.504,3.86,3.977,5.701c1.498,1.873,2.588,3.162,3.238,3.828c0.797,0.821,1.232,1.209,1.459,1.39l0.172,0.151
			l38.234,36.888c0.299,0.296,0.559,0.399,0.961,0.399s0.662-0.104,0.932-0.371l38.202-36.797
			c8.791-8.792,13.269-17.475,13.269-25.771c0-8.362-2.299-14.671-7.029-19.288c-4.68-4.57-11.328-6.887-19.762-6.887
			c-2.252,0-4.594,0.399-6.959,1.188c-2.418,0.807-4.695,1.906-6.771,3.271c-2.186,1.438-4.092,2.805-5.666,4.062
			c-1.545,1.238-3.043,2.578-4.447,3.981L87.5,57.208l-1.766-1.763c-1.404-1.401-2.902-2.742-4.455-3.984
			c-1.57-1.257-3.477-2.623-5.662-4.06c-2.07-1.362-4.348-2.462-6.77-3.271C66.483,43.342,64.141,42.942,61.887,42.942z"/>
	</g>
</g>
</svg>
