<?xml version="1.0" encoding="utf-8"?>
<!-- Generator: Adobe Illustrator 15.0.2, SVG Export Plug-In . SVG Version: 6.00 Build 0)  -->
<!DOCTYPE svg PUBLIC "-//W3C//DTD SVG 1.1//EN" "http://www.w3.org/Graphics/SVG/1.1/DTD/svg11.dtd">
<svg version="1.1" id="Layer_1" xmlns="http://www.w3.org/2000/svg" xmlns:xlink="http://www.w3.org/1999/xlink" x="0px" y="0px"
	 width="175px" height="175px" viewBox="0 0 175 175" enable-background="new 0 0 175 175" xml:space="preserve">
<g>
	<g>
		<path fill="#DBDCDE" d="M87.501,173.062c-47.18,0-85.564-38.383-85.564-85.562c0-47.179,38.384-85.562,85.564-85.562
			c47.179,0,85.562,38.383,85.562,85.562C173.062,134.68,134.68,173.062,87.501,173.062z M87.501,7.938
			C43.629,7.938,7.937,43.629,7.937,87.5c0,43.87,35.692,79.562,79.564,79.562c43.871,0,79.562-35.691,79.562-79.562
			S131.372,7.938,87.501,7.938z"/>
	</g>
	<g>
		<path class="c3-fill" fill="#69C4EF" d="M67.854,121.279c0,0,1.473,10.803,13.912,11.13s10.623-12.865,13.332-17.234
			c2.707-4.368,29.219-22.215,28.896-29.822c-0.324-7.606,5.036-29.272-8.185-37.724s-29.458-7.201-35.68,0
			c-6.219,7.201-12.662,21.29-12.275,23.895c0.385,2.605-0.023-0.537-0.268,2.531c-0.213,2.655,13.309,22.63-0.947,45.843
			C66.64,119.898,66.128,116.717,67.854,121.279z"/>
		<path class="c4-fill" fill="#3883AE" d="M81.714,136.215c-3.848,0-7.768-1.236-10.752-3.395c-3.693-2.67-5.727-6.582-5.727-11.014
			c0-1.66,1.346-3.008,3.004-3.008c1.66,0,3.006,1.348,3.006,3.008c0,5.791,6.121,8.396,10.469,8.396
			c4.676,0,8.562-4.252,9.027-9.89c0.311-3.705,0.76-6.595,3.747-10.028c2.507-2.88,6.656-6.13,14.929-12.604l1.332-1.041
			c15.563-12.189,13.233-24.797,13.209-24.923c-0.037-0.195-0.06-0.394-0.06-0.594c0-14.516-11.811-26.326-26.328-26.326
			c-14.515,0-26.325,11.81-26.325,26.326c0,1.661-1.346,3.008-3.006,3.008c-1.658,0-3.004-1.347-3.004-3.008
			c0-17.831,14.506-32.336,32.335-32.336c17.748,0,32.201,14.368,32.341,32.083c0.373,2.454,1.743,17.033-15.457,30.503
			l-1.332,1.043c-15.894,12.442-15.901,12.554-16.39,18.397C96.003,129.594,89.544,136.215,81.714,136.215z"/>
		<path class="c4-fill" fill="#3883AE" d="M97.262,56.612c-8.744,0-15.858,7.113-15.858,15.857c0,1.351,0.17,2.691,0.506,3.986
			c0.027,0.109,0.074,0.209,0.123,0.303c0,0.022-0.004,0.043-0.004,0.064c0,0.746,0.605,1.346,1.35,1.346
			c5.314,0,9.639,4.325,9.639,9.641c0,5.314-4.324,9.64-9.639,9.64c-1.531,0-2.992-0.348-4.348-1.033
			c-0.662-0.336-1.475-0.07-1.811,0.598c-0.334,0.66-0.068,1.471,0.596,1.809c1.732,0.878,3.605,1.322,5.562,1.322
			c6.802,0,12.334-5.533,12.334-12.334c0-6.438-4.959-11.735-11.256-12.285c-0.236-0.995-0.357-2.022-0.357-3.056
			c0-7.257,5.904-13.163,13.163-13.163c7.258,0,13.163,5.906,13.163,13.163c0,0.745,0.604,1.348,1.349,1.348
			s1.348-0.603,1.348-1.348C113.12,63.726,106.005,56.612,97.262,56.612z"/>
		<path class="c4-fill" fill="#3883AE" d="M45.671,106.145c-0.303,0-0.59-0.182-0.709-0.478c-0.164-0.394,0.025-0.842,0.416-1.003
			c3.637-1.488,5.984-4.988,5.984-8.915c0-3.924-2.348-7.426-5.984-8.916c-0.391-0.161-0.58-0.61-0.416-1.003
			c0.158-0.394,0.607-0.581,1.002-0.419c4.215,1.727,6.938,5.782,6.938,10.338c0,4.552-2.723,8.612-6.938,10.336
			C45.866,106.126,45.769,106.145,45.671,106.145z"/>
		<path class="c4-fill" fill="#3883AE" d="M49.991,110.995c-0.455,0-0.887-0.269-1.068-0.716c-0.24-0.588,0.043-1.262,0.631-1.504
			c5.311-2.176,8.742-7.287,8.742-13.026c0-5.737-3.432-10.852-8.742-13.029c-0.588-0.241-0.871-0.914-0.631-1.502
			c0.242-0.591,0.914-0.872,1.504-0.631c6.182,2.534,10.178,8.483,10.178,15.162c0,6.677-3.996,12.626-10.178,15.16
			C50.284,110.969,50.138,110.995,49.991,110.995z"/>
		<path class="c4-fill" fill="#3883AE" d="M54.31,115.175c-0.604,0-1.18-0.36-1.424-0.952c-0.32-0.787,0.057-1.686,0.842-2.008
			c6.713-2.75,11.051-9.214,11.051-16.466c0-7.253-4.338-13.715-11.051-16.466c-0.785-0.324-1.162-1.221-0.842-2.005
			c0.322-0.786,1.221-1.161,2.006-0.839c7.873,3.225,12.963,10.805,12.963,19.311c0,8.505-5.09,16.086-12.963,19.311
			C54.7,115.141,54.505,115.175,54.31,115.175z"/>
	</g>
</g>
</svg>
