<?xml version="1.0" encoding="utf-8"?>
<!-- Generator: Adobe Illustrator 15.0.2, SVG Export Plug-In . SVG Version: 6.00 Build 0)  -->
<!DOCTYPE svg PUBLIC "-//W3C//DTD SVG 1.1//EN" "http://www.w3.org/Graphics/SVG/1.1/DTD/svg11.dtd">
<svg version="1.1" id="Layer_1" xmlns="http://www.w3.org/2000/svg" xmlns:xlink="http://www.w3.org/1999/xlink" x="0px" y="0px"
	 width="175px" height="175px" viewBox="0 0 175 175" enable-background="new 0 0 175 175" xml:space="preserve">
<path fill="#69C4EF" d="M87.55,87.5h-0.099H87.55z"/>
<g>
	<path fill="#DBDCDE" d="M87.499,173.062c-47.178,0-85.561-38.383-85.561-85.562c0-47.179,38.383-85.562,85.561-85.562
		c47.179,0,85.563,38.383,85.563,85.562C173.062,134.68,134.678,173.062,87.499,173.062z M87.499,7.938
		c-43.87,0-79.561,35.691-79.561,79.562s35.69,79.562,79.561,79.562c43.873,0,79.563-35.691,79.563-79.562
		S131.371,7.938,87.499,7.938z"/>
	<g>
		<g>
			<path fill="none" d="M87.502,84.282c4.367,0,8.466-1.696,11.542-4.774c6.358-6.364,6.354-16.719-0.01-23.081
				c-3.074-3.073-7.173-4.765-11.535-4.765c-4.367,0-8.467,1.695-11.543,4.773c-3.075,3.077-4.768,7.177-4.766,11.542
				c0.002,4.366,1.697,8.463,4.774,11.539C79.042,82.588,83.139,84.282,87.502,84.282z"/>
			<path class="c4-fill" fill="#3883AE" d="M112.428,92.879c13.734-13.743,13.727-36.099-0.018-49.834c-6.646-6.641-15.492-10.298-24.91-10.298
				c-9.426,0-18.277,3.663-24.924,10.313c-6.645,6.648-10.302,15.5-10.299,24.922c0.002,9.422,3.665,18.271,10.312,24.915
				c3.66,3.658,8.139,6.489,13.008,8.233l0.002,3.818h-6.033c-2.166,0-3.928,1.762-3.928,3.928v15.742
				c0,2.166,1.762,3.928,3.928,3.928h6.135v9.779c0,2.166,1.763,3.928,3.928,3.928h15.742c2.166,0,3.928-1.762,3.928-3.928v-9.779
				h6.137c2.166,0,3.928-1.762,3.928-3.928v-15.742c0-2.166-1.762-3.928-3.928-3.928h-6.137v-3.783
				C104.217,99.422,108.736,96.572,112.428,92.879z M75.958,56.435c3.076-3.079,7.176-4.773,11.543-4.773
				c4.362,0,8.46,1.692,11.535,4.765c6.364,6.362,6.368,16.717,0.01,23.081c-3.075,3.078-7.176,4.774-11.542,4.774
				c-4.363,0-8.461-1.693-11.536-4.767c-3.077-3.075-4.772-7.173-4.774-11.539C71.19,63.611,72.882,59.512,75.958,56.435z"/>
		</g>
		<path class="c3-fill" fill="#69C4EF" d="M109.648,90.104c12.203-12.21,12.197-32.075-0.015-44.278c-12.213-12.204-32.076-12.198-44.279,0.013
			C53.15,58.051,53.157,77.916,65.368,90.119c4.061,4.059,8.97,6.762,14.157,8.121l0.006,10.637h0.099l0,0h-0.099h-9.964v15.744
			h10.062v13.705h15.742v-13.705h10.064v-15.744H95.371V98.262C100.607,96.912,105.559,94.195,109.648,90.104z M73.19,82.294
			c-7.898-7.892-7.903-20.738-0.012-28.636c7.893-7.896,20.738-7.899,28.634-0.01c7.896,7.895,7.899,20.741,0.012,28.636
			C93.932,90.182,81.086,90.186,73.19,82.294z"/>
	</g>
</g>
</svg>
