<?xml version="1.0" encoding="utf-8"?>
<!-- Generator: Adobe Illustrator 15.0.2, SVG Export Plug-In . SVG Version: 6.00 Build 0)  -->
<!DOCTYPE svg PUBLIC "-//W3C//DTD SVG 1.1//EN" "http://www.w3.org/Graphics/SVG/1.1/DTD/svg11.dtd">
<svg version="1.1" id="Layer_1" xmlns="http://www.w3.org/2000/svg" xmlns:xlink="http://www.w3.org/1999/xlink" x="0px" y="0px"
	 width="175px" height="175px" viewBox="0 0 175 175" enable-background="new 0 0 175 175" xml:space="preserve">
<g>
	<path fill="#DBDCDE" d="M87.5,173.062c-47.18,0-85.562-38.383-85.562-85.562C1.938,40.321,40.32,1.938,87.5,1.938
		c47.18,0,85.562,38.383,85.562,85.562C173.062,134.68,134.68,173.062,87.5,173.062z M87.5,7.938
		C43.629,7.938,7.938,43.629,7.938,87.5c0,43.87,35.691,79.562,79.562,79.562s79.562-35.691,79.562-79.562S131.371,7.938,87.5,7.938
		z"/>
	<g>
		<g>
			<path class="c4-fill" fill="#3883AE" d="M144.859,111.812c-0.096-0.428-0.099-0.438-4.351-12.168c-3.465-9.566-8.211-22.665-8.786-24.479
				c-0.095-0.292-9.428-29.17-21.666-29.17c-5.496,0-9.755,4.705-12.89,14.314c-1.26-4.033-2.194-9.062-2.231-15.146
				c-0.021-3.956-3.254-7.174-7.28-7.173c-0.057,0-0.113,0.002-0.169,0.004c-0.065-0.002-0.136-0.004-0.209-0.005
				c-3.952,0-7.188,3.213-7.216,7.167c-0.037,6.129-0.994,11.17-2.232,15.142c-3.137-9.602-7.393-14.304-12.887-14.304
				c-12.247,0-21.572,28.879-21.666,29.17c-0.574,1.808-5.303,14.858-8.756,24.388c-4.284,11.825-4.285,11.834-4.383,12.27
				c-1.43,6.438,0.484,10.55,2.342,12.865c4.207,5.244,12.299,7.237,24.918,6.133c21.902-1.918,25.576-15.323,27.145-21.047
				l0.13-0.471c1.261-4.533-0.188-14.136-2.214-26.219c-0.062-0.371-0.123-0.735-0.183-1.089c1.409-1.611,3.329-4.125,5.233-7.625
				c1.923,3.513,3.851,6.036,5.216,7.611c-0.062,0.36-0.121,0.729-0.186,1.106c-2.023,12.08-3.475,21.681-2.214,26.216l0.129,0.469
				c1.569,5.725,5.243,19.131,27.146,21.049c2.213,0.195,4.316,0.293,6.252,0.293c0,0,0,0,0.002,0c9.09,0,15.195-2.103,18.664-6.424
				C144.377,122.374,146.292,118.264,144.859,111.812z"/>
			<path class="c3-fill" fill="#69C4EF" d="M76.4,73.329c-1.532-8.579-5.064-22.882-11.457-22.882c-7.793,0-16.436,22.953-17.428,26.07
				c-0.992,3.118-12.943,35.859-13.035,36.272c-1.984,8.928,3.117,15.305,22.528,13.604c19.411-1.701,21.961-13.178,23.378-18.276
				c1.254-4.517-1.6-19.802-2.86-27.574"/>
			<path class="c3-fill" fill="#69C4EF" d="M97.471,80.542c-1.26,7.774-4.113,23.058-2.859,27.574c1.416,5.1,3.968,16.575,23.379,18.276
				c19.41,1.701,24.513-4.676,22.529-13.604c-0.094-0.413-12.045-33.155-13.037-36.272c-0.991-3.117-9.635-26.07-17.428-26.07
				c-6.396,0-9.927,14.316-11.459,22.895"/>
		</g>
		<g>
			<path class="c4-fill" fill="#3883AE" d="M72.048,74.716c-0.661,0-1.302,0.193-1.864,0.562c-0.291,0.194-2.805,1.938-5.371,5.945
				c-9.123,1.903-15.334,6.781-15.387,6.823c-0.711,0.556-1.161,1.353-1.271,2.248c-0.108,0.896,0.138,1.78,0.697,2.492
				c0.646,0.819,1.612,1.29,2.652,1.29c0.751,0,1.491-0.256,2.079-0.719c0.035-0.027,2.939-2.254,7.49-4.018
				c-0.678,2.141-1.203,4.415-1.57,6.805c-0.281,1.834,0.986,3.561,2.85,3.846c0.163,0.023,0.326,0.037,0.488,0.037
				c1.676,0,3.076-1.205,3.333-2.865c1.825-11.936,7.72-16.247,7.747-16.267c1.539-1.028,1.962-3.121,0.943-4.664
				C74.238,75.283,73.186,74.716,72.048,74.716z"/>
			<path class="c4-fill" fill="#3883AE" d="M126.844,90.294c-0.107-0.896-0.559-1.692-1.257-2.239c-0.063-0.051-6.276-4.928-15.399-6.832
				c-2.564-4.007-5.08-5.75-5.381-5.95c-0.553-0.364-1.193-0.557-1.854-0.557c-1.139,0-2.191,0.567-2.816,1.515
				c-1.02,1.543-0.598,3.636,0.911,4.643c0.06,0.042,5.952,4.353,7.779,16.291c0.255,1.658,1.655,2.862,3.332,2.862
				c0.161,0,0.323-0.014,0.515-0.041c1.838-0.28,3.104-2.006,2.823-3.842c-0.367-2.389-0.894-4.662-1.571-6.804
				c4.553,1.763,7.454,3.987,7.487,4.015c0.591,0.465,1.332,0.722,2.082,0.722c1.041,0,2.008-0.47,2.655-1.291
				C126.706,92.074,126.953,91.188,126.844,90.294z"/>
		</g>
	</g>
</g>
</svg>
