<?xml version="1.0" encoding="utf-8"?>
<!-- Generator: Adobe Illustrator 15.0.2, SVG Export Plug-In . SVG Version: 6.00 Build 0)  -->
<!DOCTYPE svg PUBLIC "-//W3C//DTD SVG 1.1//EN" "http://www.w3.org/Graphics/SVG/1.1/DTD/svg11.dtd">
<svg version="1.1" id="Layer_1" xmlns="http://www.w3.org/2000/svg" xmlns:xlink="http://www.w3.org/1999/xlink" x="0px" y="0px"
	 width="175px" height="175px" viewBox="0 0 175 175" enable-background="new 0 0 175 175" xml:space="preserve">
<g>
	<path fill="#DBDCDE" d="M87.5,173.062c-47.18,0-85.562-38.383-85.562-85.563c0-47.18,38.383-85.562,85.562-85.562
		c47.18,0,85.562,38.383,85.562,85.562C173.062,134.68,134.68,173.062,87.5,173.062z M87.5,7.937
		c-43.871,0-79.562,35.691-79.562,79.562c0,43.872,35.691,79.563,79.562,79.563c43.872,0,79.562-35.691,79.562-79.563
		C167.062,43.628,131.371,7.937,87.5,7.937z"/>
	<g>
		<rect class="c3-fill" x="59.246" y="83.308" fill="#69C4EF" width="56.51" height="8.385"/>
		<rect class="c4-fill"  x="59.246" y="78.011" fill="#3883AE" width="56.51" height="5.297"/>
		<rect class="c4-fill"  x="59.246" y="91.691" fill="#3883AE" width="56.51" height="5.299"/>
		<path class="c4-fill" fill="#3883AE" d="M59.246,83.308v-5.297V67.845c0-2.963-2.4-5.361-5.361-5.361h-3.797c-2.961,0-5.359,2.398-5.359,5.361
			v4.808c-0.652-0.88-1.709-1.458-2.908-1.458h-2.539c-1.982,0-3.59,1.564-3.59,3.493v5.981c-0.064-0.004-0.127-0.01-0.193-0.01
			h-2.965c-2.959,0-5.359,2.401-5.359,5.36v2.959c0,2.963,2.4,5.362,5.359,5.362h2.965c0.066,0,0.129-0.007,0.193-0.011v5.979
			c0,1.934,1.607,3.496,3.59,3.496h2.539c1.199,0,2.256-0.578,2.908-1.459v4.809c0,2.963,2.398,5.361,5.359,5.361h3.797
			c2.961,0,5.361-2.398,5.361-5.361V96.99v-5.299V83.308z"/>
		<path class="c4-fill" fill="#3883AE" d="M142.467,80.659h-2.961c-0.066,0-0.129,0.008-0.197,0.01V74.69c0-1.931-1.604-3.495-3.586-3.495h-2.543
			c-1.199,0-2.254,0.578-2.904,1.46v-4.81c0-2.963-2.399-5.359-5.36-5.359h-3.799c-2.957,0-5.359,2.396-5.359,5.359v10.166v5.297
			v8.385v5.298v10.163c0,2.964,2.402,5.363,5.359,5.363h3.799c2.961,0,5.36-2.399,5.36-5.363v-4.807
			c0.65,0.881,1.705,1.457,2.904,1.457h2.543c1.98,0,3.586-1.562,3.586-3.492v-5.979c0.068,0.002,0.131,0.009,0.197,0.009h2.961
			c2.959,0,5.359-2.4,5.359-5.361v-2.958C147.826,83.061,145.426,80.659,142.467,80.659z"/>
	</g>
</g>
</svg>
