<?xml version="1.0" encoding="utf-8"?>
<!-- Generator: Adobe Illustrator 15.0.2, SVG Export Plug-In . SVG Version: 6.00 Build 0)  -->
<!DOCTYPE svg PUBLIC "-//W3C//DTD SVG 1.1//EN" "http://www.w3.org/Graphics/SVG/1.1/DTD/svg11.dtd">
<svg version="1.1" id="Layer_1" xmlns="http://www.w3.org/2000/svg" xmlns:xlink="http://www.w3.org/1999/xlink" x="0px" y="0px"
	 width="175px" height="175px" viewBox="0 0 175 175" enable-background="new 0 0 175 175" xml:space="preserve">
<g>
	<path fill="#DBDCDE" d="M87.499,173.062c-47.179,0-85.562-38.383-85.562-85.562c0-47.179,38.383-85.562,85.562-85.562
		c47.181,0,85.562,38.383,85.562,85.562C173.061,134.68,134.68,173.062,87.499,173.062z M87.499,7.938
		c-43.87,0-79.562,35.691-79.562,79.562s35.691,79.562,79.562,79.562s79.562-35.691,79.562-79.562S131.37,7.938,87.499,7.938z"/>
	<g>
		<g>
			<path fill="none" d="M78.229,115.802c10.525,0,19.087-8.562,19.087-19.086c0-10.523-8.562-19.085-19.087-19.085
				c-10.523,0-19.084,8.562-19.084,19.085C59.146,107.24,67.706,115.802,78.229,115.802z"/>
			<path class="c4-fill" fill="#3883AE" d="M132.986,42.061c-2.312-2.312-5.354-3.533-8.207-3.254l-24.043,2.396
				c-3.506,0.348-6.092,2.933-6.438,6.432c-0.282,2.818,0.935,5.889,3.254,8.212l1.802,1.801l-3.64,3.641
				c-5.407-2.675-11.438-4.086-17.484-4.086c-21.788,0-39.514,17.727-39.514,39.515c0,21.79,17.726,39.519,39.514,39.519
				c21.79,0,39.516-17.729,39.516-39.519c0-5.929-1.359-11.853-3.939-17.185l3.717-3.717l1.681,1.679
				c2.313,2.316,5.409,3.537,8.209,3.256c3.5-0.35,6.086-2.936,6.435-6.435l2.399-24.055
				C136.521,47.439,135.305,44.374,132.986,42.061z M78.229,77.631c10.525,0,19.087,8.562,19.087,19.085
				c0,10.524-8.562,19.086-19.087,19.086c-10.523,0-19.084-8.562-19.084-19.086C59.146,86.192,67.706,77.631,78.229,77.631z"/>
		</g>
		<g>
			<path class="c3-fill" fill="#69C4EF" d="M130.21,44.839L130.21,44.839c-1.479-1.478-3.397-2.286-5.039-2.123l-24.047,2.396
				c-1.644,0.162-2.756,1.275-2.918,2.915c-0.164,1.643,0.646,3.562,2.123,5.042l4.578,4.578l-8.49,8.493
				c-5.326-3.181-11.547-5.01-18.188-5.01c-19.623,0-35.586,15.965-35.586,35.586c0,19.626,15.963,35.591,35.586,35.591
				c19.625,0,35.587-15.965,35.587-35.591c0-6.522-1.768-12.643-4.846-17.905l8.551-8.551l4.459,4.457
				c1.478,1.479,3.398,2.288,5.037,2.124c1.644-0.164,2.754-1.274,2.918-2.916l2.4-24.046
				C132.497,48.237,131.688,46.315,130.21,44.839z M78.229,119.729c-12.688,0-23.012-10.321-23.012-23.014
				c0-12.688,10.324-23.013,23.012-23.013c12.689,0,23.016,10.324,23.016,23.013C101.245,109.407,90.919,119.729,78.229,119.729z"/>
		</g>
	</g>
</g>
</svg>
