<?xml version="1.0" encoding="utf-8"?>
<!-- Generator: Adobe Illustrator 15.0.2, SVG Export Plug-In . SVG Version: 6.00 Build 0)  -->
<!DOCTYPE svg PUBLIC "-//W3C//DTD SVG 1.1//EN" "http://www.w3.org/Graphics/SVG/1.1/DTD/svg11.dtd">
<svg version="1.1" id="Layer_1" xmlns="http://www.w3.org/2000/svg" xmlns:xlink="http://www.w3.org/1999/xlink" x="0px" y="0px"
	 width="175px" height="175px" viewBox="0 0 175 175" enable-background="new 0 0 175 175" xml:space="preserve">
<g>
	<path fill="#DBDCDE" d="M87.5,173.062c-47.18,0-85.562-38.383-85.562-85.563C1.938,40.321,40.32,1.938,87.5,1.938
		c47.18,0,85.562,38.383,85.562,85.562C173.062,134.68,134.68,173.062,87.5,173.062z M87.5,7.938
		C43.629,7.938,7.938,43.629,7.938,87.5c0,43.872,35.691,79.562,79.562,79.562s79.562-35.69,79.562-79.562
		C167.062,43.629,131.371,7.938,87.5,7.938z"/>
	<g>
		<path class="c3-fill" fill="#69C4EF" d="M106.289,53.134c-6.178,0-12.025,1.836-15.508,3.196c1.121-7.522-0.611-12.197-2.586-14.972
			c-2.562-3.605-6.074-4.891-8.506-4.891c-0.377,0-0.744,0.031-1.09,0.091c-2.344,0.417-3.162,1.663-3.436,2.634
			c-0.678,2.41,1.658,4.712,2.357,5.332c3.59,3.312,5.334,7.783,6.18,11.61c-3.527-1.335-9.102-3-14.99-3
			c-9.807,0-26.162,10.609-26.162,27.768s7.354,21.258,10.631,31.063c0,0,2.59,10.393,3.66,13.963
			c1.072,3.568,6.357,17.131,30.66,11.064c24.304,6.066,29.59-7.496,30.66-11.064c1.069-3.57,3.659-13.963,3.659-13.963
			c3.277-9.805,10.632-13.904,10.632-31.063S116.096,53.134,106.289,53.134z M124.764,86.247c-0.082,0-0.164-0.007-0.248-0.021
			c-0.893-0.136-1.504-0.969-1.369-1.859c0.107-0.701,2.431-17.191-11.989-19.435c-0.892-0.139-1.503-0.973-1.363-1.864
			c0.14-0.893,0.978-1.497,1.865-1.363c14.123,2.199,15.803,16.108,14.717,23.156C126.252,85.669,125.557,86.247,124.764,86.247z"/>
		<path class="c4-fill" fill="#3883AE" d="M98.789,141.033c-0.002,0-0.002,0-0.002,0c-3.428,0-7.223-0.494-11.287-1.469
			c-4.064,0.975-7.859,1.469-11.287,1.469c-15.748,0-20.469-10.062-21.768-14.387c-1.033-3.441-3.385-12.851-3.668-13.98
			c-1-2.957-2.426-5.396-3.934-7.979c-3.186-5.449-6.795-11.627-6.795-23.787c0-18.196,17.252-30.268,28.662-30.268
			c4.023,0,7.893,0.721,11.156,1.621c-1.012-2.373-2.363-4.345-4.041-5.893c-0.961-0.851-4.141-4.037-3.068-7.847
			c0.383-1.358,1.594-3.739,5.404-4.418c0.498-0.086,1.008-0.13,1.527-0.13c3.057,0,7.432,1.561,10.544,5.943
			c1.736,2.44,3.564,6.524,3.384,12.784c3.59-1.107,8.028-2.06,12.672-2.06c11.41,0,28.662,12.072,28.662,30.268
			c0,12.16-3.609,18.335-6.796,23.789c-1.508,2.58-2.934,5.02-3.934,7.977c-0.283,1.131-2.635,10.539-3.668,13.979
			C119.258,130.971,114.539,141.033,98.789,141.033z M87.5,134.492c0.203,0,0.406,0.023,0.605,0.074
			c3.897,0.973,7.492,1.467,10.682,1.467c11.949,0,15.768-6.781,16.979-10.824c1.041-3.473,3.604-13.746,3.629-13.85
			c0.017-0.062,0.035-0.125,0.056-0.188c1.166-3.487,2.805-6.293,4.391-9.006c3.144-5.379,6.111-10.459,6.111-21.264
			c0-15.675-15.32-25.268-23.662-25.268c-5.66,0-11.063,1.645-14.601,3.025c-0.832,0.323-1.771,0.181-2.469-0.375
			c-0.697-0.556-1.045-1.441-0.912-2.323c0.816-5.48,0.074-10.029-2.149-13.154c-2.014-2.834-4.744-3.84-6.469-3.84
			c-0.232,0-0.453,0.018-0.66,0.054c-0.85,0.151-1.342,0.438-1.459,0.849c-0.199,0.707,0.682,1.961,1.609,2.783
			c3.432,3.167,5.762,7.509,6.963,12.942c0.197,0.896-0.111,1.829-0.805,2.43c-0.693,0.601-1.66,0.772-2.521,0.448
			c-3.422-1.295-8.646-2.838-14.105-2.838c-8.342,0-23.662,9.593-23.662,25.268c0,10.805,2.969,15.885,6.111,21.264
			c1.586,2.711,3.225,5.518,4.391,9.006c0.02,0.062,0.039,0.125,0.055,0.188c0.025,0.104,2.588,10.377,3.629,13.851
			c1.213,4.043,5.033,10.824,16.979,10.824c3.189,0,6.783-0.494,10.682-1.468C87.094,134.516,87.297,134.492,87.5,134.492z"/>
	</g>
</g>
</svg>
