<?xml version="1.0" standalone="no"?>
<!DOCTYPE svg PUBLIC "-//W3C//DTD SVG 1.1//EN" "http://www.w3.org/Graphics/SVG/1.1/DTD/svg11.dtd" >
<svg xmlns="http://www.w3.org/2000/svg">
<metadata>Generated by IcoMoon</metadata>
<defs>
<font id="mhra-icons" horiz-adv-x="512">
<font-face units-per-em="512" ascent="480" descent="-32" />
<missing-glyph horiz-adv-x="512" />
<glyph unicode="&#x20;" horiz-adv-x="256" d="" />
<glyph unicode="&#xe600;" glyph-name="forward" horiz-adv-x="296" d="M5.298 431.679c2.69-4.161 6.241-7.628 9.708-10.985l1.221-1.193c76.364-74.339 138.138-134.421 194.448-189.066l0.388-0.361c2.080-1.525 3.135-3.19 3.273-5.021 0.167-2.801-1.858-5.825-3.273-7.184-63.966-62.052-128.486-124.824-194.42-189.039l-0.278-0.25c-3.772-3.634-7.628-7.406-10.735-11.789-8.932-12.843-6.63-30.873 5.242-40.998 5.936-5.021 13.453-7.795 21.109-7.795 7.545 0 14.979 2.691 21.026 7.572 2.025 1.665 3.884 3.523 5.714 5.298 0.582 0.583 1.193 1.193 1.803 1.776l219.274 213.227c10.846 10.596 15.7 19.279 15.7 28.154 0 8.793-4.716 17.337-15.339 27.683l-32.204 31.317c-61.802 60.138-125.712 122.327-188.817 183.269-3.911 3.8-11.844 10.457-21.387 12.816-2.468 0.582-4.965 0.887-7.378 0.887-9.875 0-18.723-4.993-24.882-14.119-7.351-10.818-7.406-22.967-0.194-34.202z" />
<glyph unicode="&#xe601;" glyph-name="bio" horiz-adv-x="364" d="M329.13 382.967h-51.527v11.235c0 12.732-10.365 23.075-23.096 23.075h-37.924c3.149 5.697 4.933 12.758 4.933 19.913 0.005 23.579-19.239 42.81-42.831 42.81-23.613 0-42.81-19.231-42.81-42.814 0-7.151 1.788-14.213 4.933-19.913h-31.106c-12.762 0-23.122-10.343-23.122-23.075v-11.235h-51.523c-19.389 0.005-35.056-15.663-35.056-34.988v-344.986c0-19.299 15.668-34.988 35.056-34.988h294.074c19.333 0 35.056 15.69 35.056 34.988v344.986c0 19.325-15.724 34.993-35.057 34.993zM178.663 462.702c14.077 0 25.516-11.469 25.516-25.516 0-8.043-3.738-14.939-9.635-19.935h-31.767c-5.85 5.018-9.609 11.892-9.609 19.935 0 14.051 11.444 25.516 25.494 25.516zM329.13 23.815c0-11.866-9.66-21.505-21.548-21.505h-250.957c-11.934 0-21.569 9.639-21.569 21.505v302.654c0 11.892 9.635 21.51 21.569 21.51h29.932c0-9.476 7.684-17.144 17.174-17.144h156.697c9.494 0 17.174 7.667 17.174 17.144h29.958c11.887 0 21.574-9.639 21.574-21.51v-302.654zM282.851 273.901h-201.516c-7.587 0-13.739-6.14-13.739-13.714s6.153-13.714 13.739-13.714h201.516c7.587 0 13.743 6.14 13.743 13.714-0.005 7.573-6.157 13.714-13.743 13.714zM282.851 182.338h-201.516c-7.587 0-13.739-6.14-13.739-13.718 0-7.57 6.153-13.709 13.739-13.709h201.516c7.587 0 13.743 6.136 13.743 13.709-0.005 7.578-6.157 13.718-13.743 13.718zM282.851 90.775h-201.516c-7.587 0-13.739-6.136-13.739-13.714 0-7.57 6.153-13.714 13.739-13.714h201.516c7.587 0 13.743 6.14 13.743 13.714-0.005 7.578-6.157 13.714-13.743 13.714z" />
<glyph unicode="&#xe602;" glyph-name="skip" horiz-adv-x="513" d="M275.601 196.32c10.411 10.329 15.074 18.841 15.074 27.652 0 8.892-4.772 17.567-15.452 28.167l-215.661 213.194c-0.596 0.596-1.193 1.193-1.762 1.789-1.789 1.762-3.605 3.606-5.639 5.314-5.91 4.853-13.23 7.563-20.658 7.563-7.537 0-14.91-2.792-20.767-7.808-11.684-10.139-13.961-28.14-5.151-40.964 3.010-4.419 6.832-8.186 10.573-11.82l0.216-0.244c64.901-64.224 128.339-127.010 191.262-189.065 1.382-1.356 3.389-4.392 3.198-7.184-0.108-1.817-1.166-3.442-3.226-4.988l-0.352-0.353c-55.358-54.627-116.139-114.702-191.262-189.065l-1.194-1.22c-3.389-3.334-6.886-6.832-9.543-10.979-7.075-11.224-6.995-23.368 0.218-34.214 6.072-9.108 14.774-14.124 24.48-14.124 2.385 0 4.826 0.298 7.265 0.894 9.38 2.358 17.188 9.027 21.011 12.822 61.838 60.726 124.462 122.673 185.026 182.586l32.343 32.044zM497.74 252.14l-215.634 213.193c-0.596 0.597-1.192 1.194-1.789 1.762-1.762 1.789-3.606 3.632-5.639 5.313-5.882 4.88-13.229 7.591-20.658 7.591-7.536 0-14.911-2.793-20.738-7.808-11.712-10.112-13.962-28.113-5.151-40.964 2.982-4.392 6.832-8.16 10.518-11.766l0.27-0.272c67.558-66.88 128.583-127.255 191.262-189.066 1.382-1.356 3.361-4.392 3.172-7.184-0.108-1.844-1.166-3.497-3.199-5.043l-0.38-0.325c-55.358-54.627-116.139-114.702-191.262-189.065l-1.194-1.22c-3.416-3.334-6.886-6.805-9.57-10.979-7.076-11.224-6.994-23.368 0.216-34.214 6.072-9.108 14.775-14.125 24.507-14.125 2.386 0 4.826 0.298 7.239 0.894 9.38 2.358 17.188 9.027 21.010 12.824 61.838 60.726 124.462 122.673 185.026 182.586l32.343 32.017c10.411 10.329 15.072 18.841 15.072 27.652 0.028 8.919-4.745 17.595-15.425 28.195z" />
<glyph unicode="&#xe603;" glyph-name="norgie" horiz-adv-x="385" d="M53.325 64.329v320.99c-0.069 0.929-0.069 1.88 0 2.809v0.208c0.535 5.804 3.947 11.446 10.007 15.416 5.595 3.645 12.653 5.642 19.896 5.642 7.105 0 14.139-1.95 19.803-5.478 1.927-1.207 3.668-2.553 5.386-3.853 0.581-0.418 1.137-0.859 1.719-1.301l206.696-154.389c10.214-7.661 14.789-13.953 14.789-20.385 0-6.361-4.434-12.536-14.464-20.013l-30.344-22.706c-58.25-43.554-118.496-88.57-177.976-132.704-3.668-2.74-11.168-7.569-20.153-9.286-2.322-0.44-4.666-0.65-6.942-0.65-9.334 0-17.668 3.645-23.495 10.214-4.319 4.945-5.966 10.192-4.922 15.486z" />
<glyph unicode="&#xe604;" glyph-name="menu" horiz-adv-x="649" d="M0 480v-102.4h648.534v102.4h-648.534zM0 172.8h648.534v102.4h-648.534v-102.4zM0-32h648.534v102.4h-648.534v-102.4z" />
<glyph unicode="&#xe605;" glyph-name="home-button" horiz-adv-x="478" d="M0 275.2h187.733v204.8h-187.733v-204.8zM290.134 480v-204.8h187.733v204.8h-187.733zM0-32h187.733v204.8h-187.733v-204.8zM290.134-32h187.733v204.8h-187.733v-204.8z" />
<glyph unicode="&#xe606;" glyph-name="body" horiz-adv-x="333" d="M162.412 367.903c31.038 0 56.219 25.096 56.219 56.050 0 30.942-25.184 56.048-56.219 56.048-31.047 0-56.219-25.106-56.219-56.048-0.003-30.954 25.168-56.050 56.219-56.050zM327.12 234.571l-20.232 33.804c0 0-44.492 70.813-49.915 77.65-3.6 4.537-11.215 13.966-24.65 15.090-10.3 0.858-12.105 0.671-18.209 0.275-5.083-0.331-11.149-2.426-13.091-3.085-6.679-2.257-16.767-9.092-34.738-10.106-17.978 1.012-28.063 7.849-34.744 10.103-1.939 0.656-8.008 2.754-13.091 3.085-6.104 0.394-7.906 0.534-18.206-0.275-14.25-1.121-21.053-10.553-24.65-15.090-5.424-6.838-49.919-77.65-49.919-77.65l-20.232-33.804c-6.878-14.169-9.223-29.58 5.014-36.446l0.518-0.256c14.231-6.866 27.329 1.458 35.703 14.456l39.806 60.275 1.826 2.348c2.479 3.837 4.474 6.498 5.998 8.324 2.564 3.072 6.347 3.319 9.17-2.045 0.856-1.627 0.447-76.942 0.447-76.942l-47.177-203.127-0.996-4.63c-2.81-14.974 12.814-28.528 28.603-28.528h0.597c15.796 0 25.593 13.204 28.615 28.528l37.582 150.866c0 0 2.217 6.598 10.597 6.598h9.092c8.38 0 10.597-6.598 10.597-6.598l37.579-150.866c3.023-15.324 12.817-28.528 28.615-28.528h0.593c15.789 0 31.413 13.553 28.603 28.528l-0.996 4.63-47.186 203.126c0 0-0.412 75.315 0.446 76.942 2.82 5.364 6.603 5.12 9.17 2.045 1.524-1.827 3.516-4.486 5.994-8.324l1.829-2.348 39.805-60.275c8.374-12.998 21.471-21.322 35.703-14.456l0.519 0.256c14.231 6.869 11.887 22.277 5.011 36.449zM217.080 298.030c-0.731-1.014-3.341-4.555-4.534-5.916-5.873-6.716-12.192-13.091-18.578-19.458-0.612-0.609-1.417-0.905-2.217-0.89-0.799-0.015-1.605 0.281-2.217 0.89-6.382 6.37-12.702 12.742-18.577 19.458-1.19 1.362-3.8 4.902-4.53 5.916-1.014 2.217-1.561 4.671-1.561 7.206 0 9.167 7.081 16.626 15.789 16.626 3.834 0 7.49-1.483 10.328-4.059 0.031-0.031 0.534-0.259 0.768-0.275 0.238 0.012 0.737 0.243 0.771 0.275 2.832 2.576 6.491 4.059 10.325 4.059 8.708 0 15.792-7.459 15.792-16.626-0.003-2.536-0.553-4.99-1.561-7.206z" />
<glyph unicode="&#xe607;" glyph-name="logout" horiz-adv-x="660" d="M659.197 14.56c0-1.632 0.178-26.521 0-28.125-1.101-10.771-10.595-18.435-20.51-18.435h-351.224c-5.538 0-10.56 2.481-14.269 6.493-4.055 3.719-6.565 8.766-6.565 14.34v93.945c0 11.409 10.462 20.659 23.365 20.659s23.363-9.25 23.363-20.659v-68.048h299.429v418.542h-299.424v-68.046c0-11.409-10.462-20.66-23.363-20.66-12.906 0-23.365 9.251-23.365 20.66v93.942c0 5.573 2.507 10.621 6.565 14.337 3.707 4.014 8.726 6.495 14.265 6.495h351.224c9.913 0 19.408-7.662 20.51-18.435 0.178-1.607 0-26.493 0-28.125v-418.879zM354.058 248.75h-278.339c0 0 96.255 92.742 98.337 95.743 6.1 8.75 4.526 20.987-3.578 27.873-4.035 3.415-9.141 5.3-14.368 5.3-5.138 0-10.221-1.832-14.314-5.155-1.411-1.16-2.73-2.458-3.892-3.604-0.41-0.405-0.823-0.812-1.251-1.221l-125.964-121.626c-9.47-9.213-10.689-15.070-10.689-19.144 0-4.030 1.188-9.807 10.441-18.8l21.946-21.322c22.893-22.243 39.355-38.019 58.412-56.286 13.858-13.281 28.186-27.012 46.801-44.973 2.657-2.566 8.076-7.103 14.565-8.707 1.694-0.414 3.387-0.627 5.019-0.627 6.827 0 12.696 3.324 16.964 9.611 4.998 7.365 5.052 15.633 0.148 23.269-1.845 2.842-98.566 96.101-98.566 96.101l-0.032 0.042h278.362c10.63 0 19.247 9.744 19.247 21.763-0.002 12.018-8.616 21.761-19.247 21.761zM56.454 229.489l0.017 0.017v-0.037l-0.017 0.021z" />
<glyph unicode="&#xe608;" glyph-name="mind" horiz-adv-x="733" d="M732.184 239.091c-0.497 8.85-1.659 17.663-3.318 26.366-1.702 8.983-4.271 17.686-7.215 26.332-0.332 1.048-0.673 2.11-1.081 3.176-17.762 47.982-52.95 84.435-95.931 104.979-47.308 66.602-134.441 96.921-216.183 70.612-3.029-0.92-6.096-2.005-9.125-3.115-0.209-0.105-0.375-0.142-0.625-0.228-38.302 15.62-82.326 17.478-124.111 1.797-31.324-11.733-57.221-31.756-76.092-56.685-17.307 0.061-34.856-2.987-51.992-9.372-53.243-19.986-88.299-67.445-95.314-120.377-40.625-39.98-62.572-104.605-45.185-162.925 23.483-78.775 104.188-133.981 212.405-78.775 0.166-0.522 0.412-0.976 0.621-1.441 0.829 45.995 26.806 74.954 42.369 88.237-31.291 38.501-104.605 111.137-152.402 84.563-31.291-17.378-33.609-48.11-22.535-69.28 11.746-22.341 39.336-36.913 74.731-19.103 6.764 3.489 15.107 0.707 18.506-6.181 3.399-6.869 0.707-15.221-6.181-18.668-51.779-26.101-94.106-2.238-111.498 31.026-17.677 33.803-11.822 81.263 33.614 106.506 9.125 5.096 20.701 8.978 34.894 9.187-1.911 28.731 5.56 53.158 22.365 72.579 26.181 30.357 67.801 39.502 87.426 42.26 11.244 43.384 49.418 69.698 102.277 69.404 27.641-0.123 52.324-11.481 70.38-23.175 9.372-6.077 17.051-12.254 22.403-16.994 28.925 21.426 70.788 35.619 107.885 25.593 24.854-6.807 57.012-27.039 71.617-84.639 13.818-5.594 41.449-20.023 51.452-49.087 7.182-20.981 3.986-45.37-8.504-65.166-11.576-18.378-36.307-41.421-88.465-47.019-0.702-0.067-1.365-0.067-2.034-0.067-0.957 0.043-96.347 2.944-126.596-67.38-1.664-3.925-3.446-7.618-5.267-11.149-10.666-20.573-23.649-33.827-38.548-39.402-2.778-1.062-5.641-1.834-8.589-2.356-28.883-5.048-51.291 18.558-52.286 19.563-5.186 5.618-4.897 14.387 0.663 19.668 5.48 5.238 14.192 4.991 19.459-0.56 0.337-0.379 13.529-13.823 27.513-11.282 11.368 2.128 22.317 14.743 31.736 36.563 4.313 10.045 9.874 19.269 16.478 27.707 17.596 22.365 43.113 38.752 75.187 48.067 29.13 8.519 54.562 8.519 60.245 8.395 40.582 4.55 58.923 21.047 67.175 34.135 8.096 12.742 10.211 28.129 5.683 41.194-8.419 24.517-40.374 34.163-40.706 34.202-4.892 1.399-8.67 5.428-9.751 10.438-8.628 40.004-26.678 63.957-53.694 71.304-34.022 9.253-76.889-9.917-98.585-33.822-26.015-28.65-14.519-62.515-8.793-74.916 48.921 15.97 87.303-6.579 88.92-7.58 6.556-3.949 8.675-12.486 4.726-19.042-3.896-6.556-12.277-8.727-18.872-4.821-1.284 0.726-31.58 18.075-70.005 3.674-3.276-1.232-6.348-2.503-9.173-3.863-28.836-13.719-35.476-32.552-36.093-34.387-0.91-3.944-3.318-7.077-6.812-8.916-3.608-1.858-7.594-1.896-11.329-0.46-1.986 0.688-29.457 9.519-58.169-16.416-29.334-26.432-19.293-57.941-18.918-59.297 2.157-6.262-0.251-13.031-5.973-16.43-1.664-0.962-41.374-25.977-40.335-77.192 0.46-21.649 12.742-45.645 35.273-58.548 25.645-10.481 55.187-11.733 83.155-1.209 10.244 3.797 19.625 8.974 27.997 15.24 15.567-6.348 32.827-8.769 50.048-6.513 20.914 1.517 49.124 17.582 56.803 22.593 28.997 19.042 44.934 37.757 54.808 50.945 15.274 20.611 16.553 34.937 16.682 36.496-0.208 4.115 1.413 7.846 4.404 10.609 3.067 2.801 7.262 3.839 11.367 3.257 38.961-5.618 75.679 5.139 108.957 31.969 15.312 12.296 26.845 27.664 31.409 47.014 2.038 8.5 3.361 17.099 4.067 25.83 0.707 8.736 1.038 17.582 0.583 26.357zM226.546 202.301c15.311-12.738 28.835-26.328 39.378-37.819 3.612 14.074 11.495 29.755 27.513 44.228 28.712 25.868 57.553 26.869 73.608 24.697 5.56 9.727 16.392 23.507 36.226 35.055-10.913 23.74-18.757 66.625 11.576 102.396-13.652 11.566-41.331 31.191-72.366 31.339-42.947 0.246-71.74-20.924-76.969-56.5-0.995-6.599-6.476-11.524-13.069-11.775-0.46-0.085-52.201-2.987-78.799-33.95-12.448-14.534-17.511-32.737-15.274-55.642 0.042-0.877 0.042-1.754 0-2.57 19.26-5.594 41.952-17.596 68.175-39.458z" />
<glyph unicode="&#xe609;" glyph-name="lifestyle" horiz-adv-x="802" d="M754.773 241.611l-0.213 0.214-0.091 0.101c-21.67 23.44-50.529 39.212-85.773 46.875-13.702 2.982-27.585 3.216-42.284 3.466-5.611 0.096-11.381 0.192-17.147 0.459-0.389 1.397-0.8 2.832-1.221 4.293-1.616 5.637-3.285 11.462-4.48 17.44-10.134 50.71-17.765 89.805-24.747 126.75-3.019 15.974-11.632 23.734-26.326 23.734-0.949 0-1.926-0.026-2.938-0.096-7.2-0.453-14.933-0.875-22.758-0.875-7.152 0-13.477 0.358-19.355 1.088-10.229 1.274-21.216 4.832-30.928 10.022-6.389 3.397-11.142 4.918-15.425 4.918-5.462 0-9.851-2.651-12.678-7.659-3.995-7.056-3.723-21.888 2.026-27.403 9.382-8.992 21.712-15.755 32.988-18.091 9.632-2 19.616-2.026 29.27-2.058 6.096-0.022 12.389-0.038 18.427-0.566 3.232-0.282 8-3.12 8.566-4.347 2.96-12.928 5.029-25.979 7.227-39.793 0.528-3.312 1.056-6.651 1.606-10.016l-71.74-0.005c-68.69 0-126.418 0.037-184.927 0.229-1.755 0.006-5.019 1.856-5.819 3.296-5.2 9.349-9.861 18.784-14.795 28.779-0.928 1.877-1.861 3.765-2.795 5.654 2.661 0.394 5.296 0.757 7.883 1.109 10.613 1.445 20.64 2.81 30.272 6.107 5.744 1.962 9.787 7.493 13.041 11.947 2.187 2.998 1.541 7.456 1.163 9.237-0.421 1.979-1.541 5.531-4.315 7.131-4.8 2.774-9.541 5.275-14.709 5.43-13.856 0.41-28.838 0.597-47.153 0.597-11.030 0-22.059-0.070-33.089-0.133l-14.965-0.086c-12.976-0.064-23.083-4.459-28.454-12.385-5.446-8.027-5.744-19.2-0.832-31.467 4.32-10.774 12.053-13.030 17.781-13.030 2.112 0 4.363 0.31 6.709 0.918 6 1.563 11.904 3.232 18.161 5.003 1.845 0.522 3.718 1.050 5.621 1.584l4.597-9.056c6.501-12.779 12.641-24.854 18.709-37.249 0.97-1.984 1.243-4.245 1.008-4.864-8.56-17.675-17.558-35.59-26.262-52.918l-6.006-11.952c-0.838 0.256-1.648 0.501-2.422 0.741-3.403 1.040-6.336 1.942-9.344 2.688-13.877 3.462-27.984 5.221-41.916 5.221-51.835 0-99.085-23.782-129.554-65.137-14.619-18.545-24.747-39.521-30.108-62.364-0.298-0.666-0.598-1.322-0.88-1.995l-0.314-0.747v-2.624c-2.038-10.288-3.067-20.784-3.067-31.222 0-88.503 72.418-160.505 161.428-160.505 11.008 0 22.059 1.125 32.849 3.344h0.794l1.21 0.448c23.846 5.221 46.566 16.022 65.596 31.126 32.161 23.467 52.876 57.276 61.558 100.493 1.637 8.134 3.866 8.459 9.195 8.459 0.507 0 1.034-0.010 1.589-0.022 6.182-0.176 12.373-0.106 18.56-0.026 3.349 0.038 6.704 0.080 10.053 0.080 5.536 0 10.043-0.112 14.192-0.363 0.842-0.053 1.664-0.086 2.469-0.086 10.544 0 18.571 4.144 26.854 13.846 42.465 49.793 85.943 100.157 127.998 148.862l28.284 32.769 6.064-23.147c-6.693-5.781-13.505-11.221-20.112-16.491-15.537-12.4-30.208-24.107-41.548-38.748-28.71-37.062-39.531-82.439-30.476-127.757 9.125-45.675 37.676-85.223 78.205-108.413 14.529-9.040 30.326-15.675 46.956-19.723 0.8-0.341 1.611-0.688 2.422-1.008l0.726-0.288h2.528c10.789-2.219 21.846-3.344 32.848-3.344 89.010 0 161.428 72.001 161.428 160.505 0.005 42.689-16.678 82.882-46.897 113.096zM642.451 112.877c11.915 4.128 16.192 14.715 11.728 29.041-6.16 19.829-12.518 39.958-18.662 59.425-4.123 13.056-8.245 26.118-12.341 39.19-0.859 2.72-1.563 5.589-2.245 8.374 18.592 2.954 37.446 1.606 55.169-3.786 33.878-12.613 62.274-41.622 74.119-75.751 20.817-60.002-10.827-125.992-72.055-150.222-13.201-5.221-27.195-7.877-41.585-7.877-39.947 0-78.743 20.752-101.154 54.007-11.654 19.024-17.808 40.892-17.808 63.222 0 44.657 24.134 85.106 63.324 106.669l33.345-103.394c0.341-1.099 0.688-2.192 1.040-3.28 3.573-10.966 10.47-17.003 19.435-17.003 2.448 0 5.035 0.464 7.691 1.387zM274.603 304.274l76.317-151.95c-1.339-0.224-2.411-0.384-3.424-0.432-4.166-0.187-7.765-0.346-10.694-0.346-10.475 0-10.624 0.176-15.579 19.056l-0.208 0.795c-10.406 39.633-32.63 71.202-66.082 93.89l19.669 38.988zM281.505 153.316c0.010-0.187 0.022-0.373 0.038-0.56h-83.053l36.55 73.191c23.947-17.931 40.417-43.67 46.465-72.631zM194.644 238.464c-3.851-7.75-7.669-15.44-11.52-23.126-3.632-7.269-7.317-14.517-10.998-21.76-8.166-16.086-16.613-32.71-24.4-49.329-4.507-9.627-4.891-17.493-1.131-23.398 2.602-4.091 8.539-8.987 22.038-9.056 24.321-0.139 48.647-0.112 72.972-0.086 9.958 0.010 19.909 0.022 29.873 0.022h10.688c-4.118-42.166-39.899-82.823-84.957-95.709-10.539-3.014-21.462-4.55-32.47-4.55-40.534 0-78.37 20.187-101.218 53.996-28.785 42.603-26.699 97.212 5.328 139.123 14.145 18.512 33.217 32.347 55.052 39.985 12.144 3.888 24.774 5.867 37.531 5.867 12.4 0 24.635-1.856 36.428-5.52l-3.216-6.459zM527.040 328.93l-138.216-160.452-80.706 160.452h218.922z" />
<glyph unicode="&#xe60a;" glyph-name="we-heard-you" horiz-adv-x="423" d="M228.923 101.524c0 23.154 18.791 41.945 42.046 41.945h37.782c19.753 0 36.402-13.747 40.882-32.103l4.091-21.361h-0.015l18.796-98.18c1.361-7.065-3.315-13.963-10.375-15.334l-4.308-0.837c-7.060-1.365-13.928 3.291-15.253 10.365l-11.489 61.078c-1.336 7.065-5.659 12.854-9.62 12.854-3.966 0-7.216-5.885-7.216-13.082v-65.79c0-7.19-5.885-13.082-13.077-13.082h-59.173c-7.19 0-13.077 5.89-13.077 13.082v107.361c0 0.504 0.015 1.023 0.041 1.562h-0.036v11.519zM149.341 160.929c23.204 0 41.99 18.791 41.99 41.95 0 23.149-18.786 41.955-41.99 41.955-23.265 0-42.055-18.8-42.055-41.955 0.010-23.159 18.791-41.95 42.055-41.95zM285.193 160.929c23.26 0 42.055 18.791 42.055 41.95 0 23.149-18.791 41.955-42.055 41.955-23.2 0-41.99-18.8-41.99-41.955-0.010-23.159 18.786-41.95 41.99-41.95zM313.16 313.909v117.445h87.332c14.855 0 26.888-12.018 26.888-26.822v-90.622c0-9.6-10.557-24.988-25.407-24.988l-28.924 0.041-43.371-43.447v43.406h-41.199c14.85-0.005 24.681 15.384 24.681 24.988zM17.43 480h264.161c9.63 0 17.435-7.81 17.435-17.435v-140.665c0-9.63-7.805-17.435-17.435-17.435h-180.87v-58.957l-64.132 58.957h-19.159c-9.624 0-17.43 7.805-17.43 17.435v140.665c0 9.625 7.806 17.435 17.43 17.435zM203.229 101.524c0 23.154-18.791 41.945-42.046 41.945h-37.778c-19.758 0-36.402-13.747-40.886-32.103l-4.091-21.361h0.010l-18.785-98.185c-1.365-7.065 3.316-13.963 10.376-15.334l4.308-0.837c7.049-1.365 13.928 3.291 15.248 10.365l11.494 61.078c1.335 7.065 5.654 12.854 9.62 12.854 3.96 0 7.206-5.885 7.206-13.082v-65.779c0-7.195 5.886-13.086 13.082-13.086h59.163c7.201 0 13.082 5.89 13.082 13.087v107.356c0 0.504-0.015 1.023-0.036 1.562h0.036v11.519z" />
<glyph unicode="&#xe60b;" glyph-name="info" d="M256 480c-141.408 0-256-114.56-256-256 0-141.339 114.592-256 256-256 141.404 0 256 114.661 256 256 0 141.44-114.596 256-256 256zM256 5.409c-120.545 0-218.596 98.051-218.596 218.591 0 120.477 98.051 218.561 218.596 218.561 120.538 0 218.591-98.085 218.591-218.561 0-120.541-98.053-218.591-218.591-218.591zM255.773 390.594c22.232 0 39.389-18.104 39.389-38.967 0-22.232-17.157-39.392-39.389-39.392-21.806 0-38.934 17.546-38.934 39.392 0 20.863 17.616 38.967 38.934 38.967zM295.623 110.355h-13.149v153.647c0 1.161-0.334 2.233-0.882 3.168-0.063 0.111-0.114 0.231-0.182 0.338-0.026 0.038-0.058 0.072-0.086 0.108-1.099 1.623-2.88 2.689-4.901 2.689h-60.047c-3.48 0-6.302-2.82-6.302-6.303v-40.344c0-3.48 2.82-6.303 6.302-6.303h13.149v-106.999h-13.147c-3.48 0-6.302-2.82-6.302-6.303v-40.344c0-3.48 2.821-6.303 6.302-6.303h79.246c3.48 0 6.301 2.822 6.301 6.303v40.346c-0.003 3.481-2.824 6.301-6.303 6.301z" />
<glyph unicode="&#xe60c;" glyph-name="boom" d="M309.585 372.757l-11.44-27.583c-1.824-4.349 0.246-9.334 4.607-11.14 3.221-1.35 6.815-0.546 9.19 1.733 0.81 0.786 1.493 1.757 1.95 2.873l11.458 27.583c1.805 4.343-0.264 9.329-4.625 11.128-4.331 1.817-9.317-0.246-11.14-4.595zM334.841 390.904c0.828 0.792 1.488 1.757 1.955 2.88l8.926 21.506c1.817 4.349-0.252 9.341-4.607 11.146-4.361 1.805-9.334-0.24-11.146-4.613l-8.938-21.512c-1.793-4.349 0.264-9.334 4.619-11.146 3.228-1.32 6.82-0.534 9.19 1.74zM205.012 78.218c0.822 0.792 1.488 1.764 1.968 2.88l11.446 27.577c1.811 4.343-0.264 9.341-4.601 11.146-4.361 1.805-9.346-0.246-11.152-4.625l-11.452-27.559c-1.811-4.355 0.252-9.346 4.619-11.146 3.221-1.338 6.803-0.552 9.172 1.728zM179.769 60.077l-11.452-27.577c-1.811-4.361 0.258-9.346 4.619-11.152 3.221-1.35 6.809-0.564 9.179 1.728 0.816 0.786 1.5 1.752 1.962 2.873l11.458 27.565c1.805 4.349-0.264 9.341-4.613 11.14-4.355 1.812-9.328-0.228-11.152-4.577zM457.62 136.935c0.822 0.786 1.5 1.757 1.962 2.873 1.817 4.343-0.252 9.334-4.625 11.134l-24.091 10.006c-4.349 1.812-9.329-0.246-11.134-4.607-1.824-4.361 0.252-9.346 4.607-11.146l24.103-10.006c3.221-1.332 6.809-0.54 9.178 1.745zM403.3 172.406l-27.577 11.446c-4.355 1.812-9.341-0.24-11.14-4.607-1.817-4.349 0.252-9.341 4.613-11.14l27.577-11.452c3.221-1.35 6.815-0.558 9.185 1.728 0.816 0.786 1.5 1.752 1.955 2.873 1.805 4.355-0.264 9.346-4.613 11.152zM114.225 273.938l27.577-11.446c3.233-1.344 6.821-0.552 9.184 1.728 0.828 0.792 1.5 1.763 1.956 2.88 1.817 4.349-0.252 9.34-4.601 11.146l-27.589 11.452c-4.337 1.812-9.323-0.252-11.14-4.613-1.799-4.349 0.264-9.334 4.613-11.146zM54.476 307.988c-1.812-4.355 0.252-9.346 4.601-11.152l27.583-11.446c3.228-1.338 6.814-0.558 9.191 1.728 0.816 0.792 1.487 1.757 1.956 2.88 1.805 4.343-0.252 9.334-4.613 11.146l-27.577 11.452c-4.343 1.799-9.328-0.258-11.14-4.607zM448.058 312.079l-27.601-11.398c-4.361-1.8-6.431-6.791-4.637-11.14 1.8-4.361 6.803-6.425 11.152-4.631l27.589 11.404c1.020 0.426 1.92 1.014 2.658 1.734 2.459 2.363 3.353 6.083 1.979 9.406-1.793 4.349-6.797 6.431-11.14 4.625zM365.273 277.867c-4.373-1.787-6.419-6.797-4.625-11.134 1.793-4.361 6.791-6.431 11.134-4.625l27.613 11.416c1.008 0.414 1.901 1.002 2.646 1.721 2.459 2.37 3.348 6.077 1.974 9.418-1.793 4.349-6.791 6.431-11.146 4.625l-27.595-11.422zM65.49 135.519l27.589 11.404c1.014 0.42 1.907 1.008 2.657 1.721 2.448 2.363 3.347 6.083 1.962 9.406-1.799 4.361-6.791 6.431-11.134 4.631l-27.589-11.404c-4.355-1.788-6.425-6.791-4.625-11.14 1.782-4.355 6.773-6.419 11.14-4.619zM148.257 169.731c1.008 0.414 1.907 1.002 2.657 1.721 2.453 2.37 3.347 6.077 1.962 9.413-1.793 4.355-6.791 6.425-11.134 4.625l-27.583-11.404c-4.367-1.793-6.425-6.803-4.631-11.14 1.799-4.355 6.785-6.425 11.146-4.625l27.583 11.41zM191.839 381.594c1.026 0.426 1.919 1.008 2.669 1.733 2.447 2.358 3.353 6.077 1.968 9.401l-11.41 27.595c-1.787 4.361-6.779 6.425-11.14 4.619-4.367-1.788-6.425-6.791-4.619-11.134l11.404-27.595c1.787-4.361 6.779-6.431 11.128-4.619zM214.647 326.41c1.014 0.414 1.919 1.008 2.657 1.721 2.459 2.364 3.341 6.077 1.968 9.413l-11.398 27.589c-1.805 4.355-6.797 6.425-11.146 4.625-4.373-1.787-6.431-6.803-4.625-11.146l11.404-27.583c1.805-4.355 6.791-6.413 11.14-4.619zM300.059 119.748c-4.367-1.781-6.419-6.791-4.631-11.14l11.41-27.583c1.805-4.361 6.791-6.425 11.134-4.625 1.020 0.414 1.932 1.008 2.67 1.721 2.447 2.358 3.329 6.083 1.95 9.406l-11.392 27.589c-1.793 4.361-6.785 6.443-11.14 4.631zM322.861 64.57c-4.373-1.8-6.437-6.803-4.625-11.146l11.404-27.589c1.788-4.361 6.791-6.425 11.134-4.625 1.014 0.42 1.92 1.014 2.67 1.728 2.447 2.358 3.341 6.077 1.967 9.406l-11.41 27.589c-1.8 4.367-6.785 6.431-11.14 4.637zM423.546 237.237c-1.8-1.745-3.264-3.708-4.391-5.813l-117.74 2.28 42.784 17.001c1.014 0.432 1.913 1.014 2.663 1.739 2.447 2.357 3.36 6.065 1.979 9.394-1.805 4.355-6.803 6.437-11.146 4.637l-35.813-14.236 76.624 73.709c8.033-2.766 17.307-1.050 23.863 5.255 9.317 8.963 9.61 23.791 0.642 33.114s-23.798 9.61-33.12 0.642c-6.557-6.305-8.62-15.495-6.173-23.636l-80.127-77.068 18.866 46.803c1.812 4.355-0.258 9.346-4.607 11.152-4.361 1.799-9.334-0.246-11.152-4.613l-18.056-44.836 2.123 109.024c2.022 1.026 3.935 2.363 5.657 4.019 9.329 8.969 9.61 23.798 0.642 33.12s-23.791 9.61-33.12 0.642c-9.316-8.962-9.61-23.798-0.642-33.12 1.829-1.901 3.893-3.408 6.125-4.553l-2.202-113.055-16.557 41.111c-1.781 4.361-6.779 6.425-11.134 4.625-4.361-1.793-6.425-6.797-4.625-11.14l14.097-35.040-74.038 76.99c2.76 8.044 1.050 17.307-5.243 23.863-8.975 9.323-23.803 9.598-33.126 0.636-9.323-8.969-9.61-23.786-0.642-33.114 6.305-6.557 15.495-8.626 23.66-6.179l77.992-81.087-41.686 17.307c-4.355 1.805-9.334-0.252-11.152-4.607-1.799-4.349 0.252-9.346 4.625-11.14l37.331-15.507-114.219 2.208c-1.050 2.148-2.436 4.175-4.181 5.993-8.969 9.328-23.797 9.604-33.12 0.63-9.328-8.969-9.616-23.785-0.642-33.114 8.956-9.322 23.785-9.61 33.114-0.642 1.817 1.745 3.269 3.707 4.403 5.819l117.885-2.298-40.637-17.253c-4.361-1.793-6.425-6.791-4.625-11.14 1.793-4.355 6.791-6.419 11.134-4.625l38.183 16.209-78.483-75.502c-8.044 2.76-17.301 1.056-23.864-5.255-9.329-8.969-9.616-23.791-0.648-33.114 8.975-9.334 23.803-9.616 33.12-0.642 6.551 6.299 8.626 15.495 6.173 23.635l82.167 79.029-18.381-42.712c-1.805-4.349 0.252-9.334 4.613-11.146 3.233-1.344 6.821-0.558 9.19 1.728 0.816 0.786 1.482 1.764 1.95 2.885l15.465 35.952-2.16-111.291c-2.25-1.056-4.391-2.471-6.281-4.301-9.328-8.969-9.622-23.791-0.66-33.114 8.975-9.322 23.804-9.604 33.12-0.636 9.322 8.969 9.61 23.798 0.642 33.12-1.644 1.716-3.51 3.125-5.501 4.235l2.25 116.072 17.289-40.079c1.788-4.367 6.785-6.431 11.128-4.625 1.008 0.42 1.92 1.008 2.658 1.721 2.447 2.358 3.348 6.077 1.967 9.406l-16.647 38.639 75.934-78.94c-2.772-8.050-1.068-17.313 5.243-23.87 8.957-9.317 23.791-9.604 33.12-0.636 9.317 8.969 9.604 23.798 0.642 33.114-6.311 6.563-15.489 8.62-23.63 6.185l-77.986 81.081 23-9.556c0.036-0.018 0.054-0.012 0.066-0.024l22.094-9.166c3.24-1.338 6.827-0.546 9.209 1.745 0.81 0.78 1.488 1.752 1.955 2.873 1.812 4.349-0.258 9.322-4.613 11.128l-27.577 11.458c-0.024 0.012-0.060 0.024-0.078 0.018l-13.221 5.495 111.466-2.178c1.044-2.13 2.423-4.151 4.169-5.969 8.969-9.322 23.791-9.616 33.114-0.642 9.329 8.962 9.622 23.791 0.642 33.114-8.962 9.328-23.81 9.622-33.132 0.654zM375.945 456.394c0-12.935-10.486-23.419-23.42-23.419s-23.419 10.486-23.419 23.419c0 12.935 10.486 23.42 23.419 23.42s23.419-10.486 23.419-23.42zM182.906-8.406c0-12.938-10.488-23.425-23.425-23.425s-23.425 10.488-23.425 23.425c0 12.938 10.488 23.425 23.425 23.425s23.425-10.488 23.425-23.425zM511.994 320.082c0-12.931-10.483-23.413-23.413-23.413s-23.413 10.482-23.413 23.413c0 12.931 10.483 23.413 23.413 23.413s23.413-10.482 23.413-23.413zM46.852 127.913c0-12.938-10.488-23.425-23.425-23.425s-23.425 10.488-23.425 23.425c0 12.938 10.488 23.425 23.425 23.425s23.425-10.488 23.425-23.425zM511.826 127.486c0-12.938-10.488-23.425-23.425-23.425s-23.425 10.488-23.425 23.425c0 12.938 10.488 23.425 23.425 23.425s23.425-10.488 23.425-23.425zM47.032 320.525c0-12.934-10.486-23.419-23.419-23.419s-23.419 10.486-23.419 23.419c0 12.935 10.486 23.42 23.419 23.42s23.419-10.486 23.419-23.42zM375.501-8.575c0-12.935-10.486-23.42-23.419-23.42s-23.419 10.486-23.419 23.419c0 12.935 10.486 23.419 23.419 23.419s23.419-10.486 23.419-23.419zM183.345 456.581c0-12.935-10.486-23.42-23.419-23.42s-23.419 10.486-23.419 23.42c0 12.934 10.486 23.419 23.419 23.419s23.419-10.486 23.419-23.419z" />
<glyph unicode="&#xe60d;" glyph-name="action-step-do" horiz-adv-x="478" d="M114.653 411.435c6.252-2.975 14.757-4.788 21.714-3.445 11.856 2.342 21.912 10.616 26.617 21.667 5.369 12.733 2.514 28.603-6.727 38.797-8.003 8.813-19.911 12.974-31.656 11.102-14.312-2.268-26.298-13.183-29.534-27.433-3.701-16.413 4.287-33.443 19.587-40.688zM246.191 291.925c-1.782 4.882-11.411 9.488-11.411 9.488l-48.749 23.413c-2.19 6.309-4.621 12.477-7.297 18.582-2.535 5.808-4.982 11.584-8.363 16.931-2.53 3.999-5.076 7.972-7.684 11.944-3.293 5.034-6.382 10.23-10.261 14.871-9.121 11.014-22.895 19.43-37.715 16.774-3.189-0.58-6.341-1.636-9.394-2.88l-0.026 0.126-0.93-0.543c-2.624-1.145-5.123-2.525-7.418-4.203l-49.512-28.049-26.721-22.55c0 0-20.752-63.432-20.715-65.784 0.157-9.315 6.587-12.697 11.819-11.223 5.008 1.385 10.361 10.621 10.361 10.621l24.698 46.37c3.262 0.863 11.662 6.435 19.973 12.002-1.124-3.905-2.174-7.835-3.136-11.756-4.391-17.542-7.522-35.582-9.017-53.631-0.513-6.435-1.401-13.198-0.867-19.685 0.33-4.166 2.812-15.347 3.931-16.733l18.044-91.115 3.586-101.151c0 0-1.323-8.589 0.847-14.94 2.724-8.014 12.341-16.361 21.123-14.213 6.43 1.568 8.243 8.123 8.243 8.123l13.758 115.411 2.132 62.925 40.087-14.365 1.088-99.207c0 0 2.3-5.865 6.764-8.082 9.722-4.82 20.522-3.952 24.317 6.21 2.332 6.262 2.31 13.005 2.31 13.005l10.899 106.641-7.412 12.357-70.374 39.278 7.929 64.582 24.558-24.866c0 0 67.896-17.569 70.238-17.359 9.289 0.894 12.159 7.569 10.298 12.681zM478.175 230.986c0 16.758-1.631 33.12-4.632 49.005h-49.178v-52.314h-68.011v-65.691l-66.239 0.193v-62.445h-68.341v-64.954h-72.376v-58.488c21.024-5.416 43.067-8.296 65.785-8.296 145.244 0 262.991 117.743 262.991 262.986z" />
<glyph unicode="&#xe60e;" glyph-name="action-step-learn" horiz-adv-x="468" d="M103.446 353.341c-3.434 1.954-7.422 3.325-10.219 5.966-9.566 9.032-18.807 18.403-27.978 27.839-6.106 6.291-6.106 14.849-0.394 20.487 5.762 5.698 14.142 5.598 20.487-0.593 9.535-9.316 18.912-18.797 28.297-28.273 4.436-4.476 5.563-9.81 3.29-15.681-2.069-5.339-7.183-8.673-13.483-9.745zM400.783 404.523c-1.735-3.17-2.886-6.879-5.293-9.411-9.296-9.795-18.916-19.3-28.577-28.731-5.986-5.837-14.56-5.882-20.108-0.474-5.627 5.493-5.971 13.967-0.115 20.093 9.57 10.019 19.44 19.769 29.389 29.424 4.511 4.382 10.119 5.129 15.806 2.443 5.279-2.483 7.875-6.944 8.897-13.344zM242.835 445.243c0.005-6.584 0.1-13.17-0.020-19.749-0.155-8.892-5.842-14.929-13.937-15.003-8.13-0.080-14.121 5.931-14.221 14.709-0.144 13.524-0.16 27.046 0.015 40.57 0.109 8.32 6.25 14.281 14.142 14.231 7.647-0.055 13.504-5.892 13.982-13.937 0.025-0.354 0.035-0.713 0.035-1.066 0-6.584 0-13.17 0.005-19.754zM433.094 237.16c-6.4 0-12.8-0.080-19.205 0.015-9.202 0.139-15.317 5.912-15.248 14.226 0.075 8.1 6.106 13.857 14.984 13.937 13.159 0.12 26.319 0.115 39.478 0 8.803-0.075 14.949-5.916 15.043-13.932 0.089-8-6.051-14.017-14.779-14.211-6.749-0.155-13.519-0.030-20.272-0.035zM34.205 226.472c-6.579 0-13.169-0.114-19.744 0.030-8.384 0.179-14.38 6.066-14.46 13.942-0.080 7.816 5.892 14.017 14.256 14.142 13.688 0.209 27.386 0.214 41.078 0.025 8.325-0.114 14.246-6.316 14.166-14.201-0.090-7.87-6.037-13.708-14.49-13.907-6.934-0.155-13.872-0.025-20.806-0.030zM163.859 56.138c4.392 30.317-6.455 56.596-21.548 81.798-4.316 7.212-8.379 14.585-12.397 21.977-8.997 16.524-17.421 33.382-21.080 51.984-8.165 41.492 2.129 78.498 30.965 109.009 35.55 37.629 79.744 49.961 129.157 34.543 49.856-15.557 78.822-51.232 87.411-102.738 4.954-29.669-3.928-57.009-17.027-83.119-9.73-19.395-20.183-38.421-30.301-57.622-6.495-12.322-10.279-25.142-9.456-39.384 0.708-12.297 0.299-24.669 0.115-37.006-0.438-29.31-14.735-50.135-41.078-61.505-26.259-11.335-51.197-6.574-72.651 12.307-14.939 13.154-22.85 29.988-22.131 50.37 0.22 6.45 0.025 12.92 0.025 19.385zM191.439 23.803c4.964-18.567 23.039-31.044 42.963-30.202 17.935 0.757 35.331 14.456 38.108 30.202-26.912 0-53.789 0-81.070 0zM275.017 81.345c-28.721 0-57.138 0-85.8 0 0-4.695 0-24.026 0-28.408 28.821 0 57.243 0 85.8 0 0 4.646 0 23.832 0 28.408z" />
<glyph unicode="&#xe60f;" glyph-name="marker" horiz-adv-x="378" d="M14.043 373.503c-18.361-32.698-18.788-86.439-0.884-119.371l153.115-259.795c12.366-35.066 32.728-35.096 45.196-0.071l152.973 259.866c17.904 32.932 17.477 86.673-0.884 119.411 0-0.010-59.746 106.457-174.779 106.457-114.91 0-174.738-106.497-174.738-106.497z" />
<glyph unicode="&#xe610;" glyph-name="back-arrow" horiz-adv-x="578" d="M546.374 255.252l-438.815 0.612 171.771 170.676c12.231 12.146 12.316 31.942 0.199 44.202s-31.871 12.345-44.102 0.199l-221.889-220.467c-8.164-5.632-13.525-15.032-13.539-25.713 0-0.114 0.014-0.214 0.014-0.327 0-0.142 0-0.298 0-0.441 0-0.498 0.043-0.995 0.057-1.493s0.028-1.010 0.071-1.507c0.043-0.498 0.142-0.981 0.214-1.479s0.128-0.995 0.228-1.493c0.086-0.483 0.228-0.967 0.342-1.45 0.128-0.498 0.228-0.995 0.37-1.479 0.142-0.469 0.313-0.938 0.484-1.422s0.313-0.967 0.512-1.45c0.199-0.469 0.426-0.925 0.64-1.408 0.213-0.455 0.398-0.91 0.64-1.365 0.256-0.469 0.54-0.925 0.811-1.394 0.256-0.426 0.484-0.868 0.754-1.28 0.298-0.455 0.64-0.882 0.982-1.337 0.284-0.398 0.569-0.81 0.882-1.195 0.356-0.426 0.739-0.839 1.123-1.265 0.313-0.327 0.598-0.697 0.91-1.024 0.028-0.029 0.071-0.057 0.1-0.086s0.057-0.071 0.1-0.099l226.198-224.748c6.087-6.045 14.023-9.074 21.958-9.074 8.021 0 16.042 3.101 22.144 9.244 12.131 12.259 12.046 32.056-0.199 44.202l-173.008 171.971 439.966-0.626c0.014 0 0.029 0 0.043 0 17.194 0 31.16 13.966 31.174 31.217 0.029 17.266-13.909 31.288-31.131 31.302z" />
<glyph unicode="&#xe611;" glyph-name="back" horiz-adv-x="296" d="M290.202 16.321c-2.69 4.161-6.241 7.628-9.708 10.985l-1.221 1.193c-76.364 74.339-138.138 134.421-194.448 189.066l-0.388 0.361c-2.080 1.525-3.135 3.19-3.273 5.021-0.167 2.801 1.858 5.825 3.273 7.184 63.966 62.052 128.486 124.824 194.42 189.039l0.278 0.25c3.772 3.634 7.628 7.406 10.735 11.789 8.932 12.843 6.63 30.873-5.242 40.998-5.936 5.021-13.453 7.795-21.109 7.795-7.545 0-14.979-2.691-21.026-7.572-2.025-1.665-3.884-3.523-5.714-5.298-0.582-0.583-1.193-1.193-1.803-1.776l-219.274-213.227c-10.846-10.596-15.7-19.279-15.7-28.154 0-8.793 4.716-17.337 15.339-27.683l32.204-31.317c61.802-60.138 125.712-122.327 188.817-183.269 3.911-3.8 11.844-10.457 21.387-12.816 2.468-0.582 4.965-0.887 7.378-0.887 9.875 0 18.723 4.993 24.882 14.119 7.351 10.818 7.406 22.967 0.194 34.202z" />
<glyph unicode="&#xe612;" glyph-name="help" d="M281.685 187.616c0-8.353-1.363-9.718-9.718-9.718h-33.833c-8.351 0-9.751 1.363-9.751 9.718v57.978c0 11.18 16.704 12.935 32.926 18.524 16.667 6.012 32.921 15.309 32.921 40.332 0 21.322-13.457 32.923-38.477 32.923-28.732 0-53.365-15.309-57.98-15.309-2.34 0-4.616 2.307-5.069 4.648l-12.090 31.524c-0.912 1.853-0.912 3.249-0.912 5.103 0 12.058 55.184 27.334 86.254 27.334 56.094 0 90.869-36.14 90.869-86.677 0-59.769-47.773-75.56-75.139-84.856l-0.002-31.522zM256.658 57.324c-22.232 0-39.389 18.104-39.389 38.967 0 22.231 17.157 39.392 39.389 39.392 21.806 0 38.935-17.546 38.935-39.392 0-20.863-17.616-38.967-38.935-38.967zM256 480c-141.408 0-256-114.56-256-256 0-141.339 114.592-256 256-256 141.404 0 256 114.661 256 256 0 141.44-114.596 256-256 256zM256 5.409c-120.545 0-218.596 98.051-218.596 218.591 0 120.477 98.051 218.561 218.596 218.561 120.538 0 218.591-98.085 218.591-218.561 0-120.541-98.053-218.591-218.591-218.591z" />
<glyph unicode="&#xe613;" glyph-name="rotate-screen" horiz-adv-x="628" d="M468.022 441.876c0 21.791-16.349 38.124-38.141 38.124h-232.392c-21.791 0-38.124-16.334-38.124-38.124v-435.763c0-21.764 16.35-38.113 38.113-38.113h232.402c21.791 0 38.14 16.349 38.14 38.113v435.763zM184.614 26.18v390.182h258.134v-390.182h-258.134zM623.339 30.349c-2.62 3.131-6.365 5.343-10.643 5.941-1.066 0.142-2.098 0.195-3.115 0.201s-2.016-0.038-3.033-0.103l-13.029-0.707c-9.822-0.527-19.567-1.049-29.254-1.571-0.864-0.049-1.717-0.092-2.587-0.142 22.59 25.818 61.795 85.7 61.795 190.609 0 132.798-72.448 201.811-75.53 204.687-3.283 3.060-7.555 4.745-12.039 4.745-4.881 0-9.599-2.049-12.926-5.625-3.218-3.452-4.892-7.952-4.729-12.664 0.168-4.718 2.158-9.083 5.615-12.3 0.653-0.625 16.447-15.893 32.167-45.19 14.649-27.302 32.112-72.65 32.112-133.646 0-95.25-35.439-147.463-53.409-167.813-0.136 5.278-0.277 10.664-0.424 16.307l-0.402 15.431-0.402 15.425c-0.033 1.076-0.060 2.115-0.147 3.163s-0.234 2.092-0.5 3.185c-0.929 3.495-2.691 6.414-5.082 8.588-2.391 2.168-5.408 3.598-8.843 4.103-0.467 0.076-0.935 0.125-1.403 0.163s-0.929 0.055-1.386 0.055c0 0 0 0 0 0-2.38 0-4.652-0.467-6.718-1.365-2.065-0.902-3.919-2.228-5.468-3.935-0.392-0.38-0.805-0.87-1.212-1.424s-0.799-1.168-1.152-1.81c-1.174-2.142-1.805-4.359-2.13-6.332-0.326-1.978-0.353-3.707-0.305-4.887 0.239-10.952 0.505-22.035 0.777-33.101 0.277-11.072 0.565-22.133 0.848-33.063l0.277-10.659 0.283-10.659c0.049-2.043 0.245-4.555 1.017-7.093 0.767-2.533 2.109-5.099 4.452-7.251 1.745-1.62 3.777-2.777 6.218-3.49s5.278-0.978 8.637-0.799l87.559 4.729c0.614 0.033 1.141 0.065 1.615 0.103 0.479 0.038 0.908 0.087 1.342 0.142 2.043 0.305 3.984 0.935 5.761 1.859 1.772 0.918 3.37 2.13 4.723 3.577 1.424 1.555 2.544 3.315 3.321 5.207s1.229 3.908 1.304 5.968c0.179 4.262-1.332 8.311-3.957 11.442zM126.46 411.981l-0.495 18.817c-0.098 4.082-0.772 10.044-5.468 14.344-3.131 2.908-7.365 4.343-12.903 4.343-0.62 0-1.266-0.017-1.941-0.055l-87.559-4.729c-1.229-0.065-2.087-0.114-2.957-0.233-4.082-0.609-7.772-2.538-10.479-5.435-2.842-3.109-4.468-7.055-4.631-11.175-0.364-8.55 6.044-16.209 14.594-17.399 2.125-0.283 4.114-0.228 6.148-0.098l13.034 0.707c10.697 0.57 21.296 1.142 31.84 1.707-22.59-25.818-61.806-85.722-61.806-190.604 0-132.852 72.448-201.817 75.531-204.687 3.283-3.055 7.555-4.745 12.040-4.745 4.876 0 9.588 2.055 12.925 5.625 6.642 7.132 6.24 18.328-0.886 24.965-0.653 0.625-16.448 15.887-32.172 45.19-14.648 27.302-32.112 72.655-32.112 133.646 0 95.245 35.439 147.457 53.408 167.808 0.114-4.288 0.223-8.642 0.343-13.164l0.907-34.624c0.027-1.37 0.082-3.495 0.636-5.74 1.848-6.974 7.039-11.664 13.92-12.681 5.767-0.859 11.284 1.022 14.969 5.088 0.778 0.767 1.663 1.952 2.365 3.234 2.343 4.294 2.533 8.87 2.435 11.214-0.495 22.769-1.098 46.038-1.685 68.682z" />
<glyph unicode="&#xe614;" glyph-name="error" horiz-adv-x="582" d="M576.987 16.37c-15.861 28.579-244.097 423.1-258.328 447.245-12.776 21.663-43.189 22.031-55.956 0-19.431-33.536-246.493-426.573-257.746-446.237-14.037-24.534 3.832-49.378 27.832-49.378 18.529 0 489.678 0 516.52 0 26.455 0 39.299 27.435 27.677 48.369zM326.904 357.68l-9.604-215.954h-53.792l-10.089 215.954h73.485zM290.4 32.065c-21.129 0-38.406 17.791-38.406 38.484 0 21.168 17.277 38.959 38.406 38.959s38.901-17.791 38.901-38.959c-0.010-20.692-17.782-38.484-38.901-38.484z" />
<glyph unicode="&#xe615;" glyph-name="biometrics" horiz-adv-x="510" d="M256.811 173.266l-0.392-0.392-0.392 0.392zM506.891 441.803v-435.604c0-18.050-14.622-32.67-32.67-32.67h-435.604c-18.049 0-32.669 14.621-32.669 32.669v435.604c0 18.035 14.622 32.67 32.669 32.67h185.132v-268.928l-97.823 97.822c-12.764 12.764-33.455 12.764-46.203 0-4.181-4.181-6.998-9.235-8.436-14.578-1.51-5.576-1.51-11.471 0-17.047 1.438-5.344 4.255-10.396 8.436-14.578l153.595-153.595c6.374-6.389 14.738-9.568 23.102-9.568s16.727 3.178 23.102 9.568l153.608 153.595c4.181 4.181 6.985 9.22 8.421 14.549 1.51 5.592 1.51 11.501 0 17.092-1.423 5.328-4.24 10.382-8.421 14.564-12.764 12.764-33.454 12.764-46.202 0l-97.836-97.822v268.926h185.132c18.048 0 32.67-14.636 32.67-32.67z" />
<glyph unicode="&#xe616;" glyph-name="biometrics-locked" horiz-adv-x="510" d="M436.197 316.509h-23.115v0.071c0 86.521-70.39 156.91-156.91 156.91s-156.91-70.39-156.91-156.91v-0.071h-23.115c-14.918 0-27.004-12.098-27.004-27.004v-287.991c0-14.906 12.085-27.003 27.004-27.003h360.050c14.918 0 27.003 12.098 27.003 27.003v287.991c0 14.906-12.086 27.004-27.003 27.004zM409.193 184.959c-1.188-4.404-3.505-8.57-6.961-12.036l-126.965-126.954c-5.269-5.281-12.182-7.909-19.094-7.909s-13.826 2.627-19.095 7.909l-126.965 126.954c-3.456 3.469-5.773 7.632-6.96 12.036-1.249 4.608-1.249 9.493 0 14.115 1.177 4.404 3.505 8.579 6.96 12.036 6.409 6.409 15.255 8.93 23.559 7.536 5.365-0.889 10.501-3.397 14.63-7.536l80.867-80.856v186.255l-75.899 0.072c0 56.743 46.159 102.902 102.902 102.902s102.902-46.159 102.902-102.902v-0.072h-75.899v-186.254l80.867 80.856c4.128 4.141 9.265 6.649 14.63 7.536 8.305 1.392 17.151-1.127 23.559-7.536 3.456-3.456 5.783-7.632 6.961-12.036 1.248-4.622 1.248-9.507 0-14.115z" />
<glyph unicode="&#xe617;" glyph-name="check-circle" d="M256 473.115c-137.581 0-249.115-111.523-249.115-249.115s111.535-249.115 249.115-249.115 249.115 111.523 249.115 249.115-111.535 249.115-249.115 249.115zM401.426 291.475l-170.542-165.367c-2.9-2.81-6.657-4.213-10.405-4.213-3.828 0-7.643 1.46-10.565 4.382l-66.446 66.446c-5.844 5.844-5.844 15.298 0 21.14s15.297 5.844 21.141 0l56.041-56.028 159.964 155.12c5.91 5.74 15.366 5.607 21.14-0.329 5.74-5.946 5.592-15.401-0.329-21.152z" />
</font>
</defs>
</svg>
