<?xml version="1.0" encoding="utf-8"?>
<!-- Generator: Adobe Illustrator 17.1.0, SVG Export Plug-In . SVG Version: 6.00 Build 0)  -->
<!DOCTYPE svg PUBLIC "-//W3C//DTD SVG 1.1//EN" "http://www.w3.org/Graphics/SVG/1.1/DTD/svg11.dtd">
<svg version="1.1" id="Layer_1" xmlns="http://www.w3.org/2000/svg" xmlns:xlink="http://www.w3.org/1999/xlink" x="0px" y="0px"
	 viewBox="0 0 100 100" enable-background="new 0 0 100 100" xml:space="preserve">
<g>
	<path d="M50,28c-12.152,0-22,9.849-22,22s9.849,22,22,22c12.152,0,22-9.848,22-22S62.152,28,50,28z M50,70.24
		c-11.16,0-20.24-9.08-20.24-20.24c0-11.16,9.08-20.24,20.24-20.24c11.16,0,20.24,9.08,20.24,20.24
		C70.24,61.16,61.16,70.24,50,70.24z"/>
	<polygon points="50.88,36.8 49.12,36.8 49.12,49.12 36.858,49.12 36.858,50.88 49.12,50.88 49.12,63.142 50.88,63.142 50.88,50.88 
		63.2,50.88 63.2,49.12 50.88,49.12 	"/>
</g>
</svg>
