<?xml version="1.0" standalone="no"?>
<!DOCTYPE svg PUBLIC "-//W3C//DTD SVG 1.1//EN" "http://www.w3.org/Graphics/SVG/1.1/DTD/svg11.dtd">
<svg
	id="allSvgs"

	version="1.1"
	xmlns="http://www.w3.org/2000/svg"
	xmlns:xlink="http://www.w3.org/1999/xlink"
	xml:space="preserve"

	width="100%"
	height="100%"
	viewbox="0 0 804 515"
>
	<g id="bio">
		<path d="m440.129517,98.032997l-51.527039,0l0,-11.235001c0,-12.731995 -10.36499,-23.074997 -23.096008,-23.074997l-37.923981,0c3.149017,-5.696999 4.932983,-12.757999 4.932983,-19.912998c0.005035,-23.579 -19.238983,-42.810001 -42.830963,-42.810001c-23.613007,0 -42.810013,19.231001 -42.810013,42.813999c0,7.151001 1.787994,14.213001 4.933014,19.913002l-31.106018,0c-12.761993,0 -23.122009,10.342999 -23.122009,23.075001l0,11.235001l-51.52298,0c-19.389008,-0.005005 -35.056,15.662994 -35.056,34.987991l0,344.985992c0,19.299011 15.667999,34.987976 35.056,34.987976l294.07399,0c19.332977,0 35.05603,-15.689972 35.05603,-34.987976l0,-344.985992c0,-19.325005 -15.723999,-34.993004 -35.057007,-34.993004l0,0.001007zm-150.467041,-79.734997c14.077026,0 25.516022,11.469 25.516022,25.515999c0,8.042999 -3.738007,14.938999 -9.63501,19.935001l-31.767029,0c-5.849945,-5.018002 -9.608978,-11.892002 -9.608978,-19.935001c0,-14.050999 11.444031,-25.515999 25.494019,-25.515999l0.000977,0zm150.467041,438.886997c0,11.865997 -9.660004,21.505005 -21.548035,21.505005l-250.956985,0c-11.93399,0 -21.569,-9.639008 -21.569,-21.505005l0,-302.653992c0,-11.891998 9.63501,-21.509995 21.569,-21.509995l29.932007,0c0,9.475998 7.68399,17.143982 17.173981,17.143982l156.697006,0c9.494019,0 17.174042,-7.666992 17.174042,-17.143982l29.957977,0c11.887024,0 21.573975,9.638992 21.573975,21.509995l0,302.653992l-0.003967,0zm-46.278992,-250.085999l-201.516037,0c-7.587006,0 -13.739014,6.139999 -13.739014,13.714005c0,7.57399 6.153015,13.713989 13.739014,13.713989l201.516037,0c7.586945,0 13.742981,-6.139999 13.742981,-13.713989c-0.005005,-7.572998 -6.157013,-13.714005 -13.742981,-13.714005zm0,91.562988l-201.516037,0c-7.587006,0 -13.739014,6.140015 -13.739014,13.718018c0,7.570007 6.153015,13.708984 13.739014,13.708984l201.516037,0c7.586945,0 13.742981,-6.135986 13.742981,-13.708984c-0.005005,-7.578003 -6.157013,-13.718018 -13.742981,-13.718018zm0,91.563019l-201.516037,0c-7.587006,0 -13.739014,6.136017 -13.739014,13.713989c0,7.570007 6.153015,13.71402 13.739014,13.71402l201.516037,0c7.586945,0 13.742981,-6.140015 13.742981,-13.71402c-0.005005,-7.577972 -6.157013,-13.713989 -13.742981,-13.713989z"/>
	</g>

	<g id="body">
		<path d="m283.174591,112.226036c31.037994,0 56.218994,-25.096008 56.218994,-56.049988c0,-30.942017 -25.18399,-56.048004 -56.218994,-56.048004c-31.047012,0 -56.219009,25.105988 -56.219009,56.048004c-0.003006,30.953979 25.167984,56.049988 56.219009,56.049988zm164.709961,133.329994l-20.22995,-33.809998s-44.492035,-70.812988 -49.915009,-77.649994c-3.600006,-4.536987 -11.215027,-13.966011 -24.649994,-15.090004c-10.300018,-0.858002 -12.105011,-0.67099 -18.209015,-0.274994c-5.083008,0.330994 -11.148987,2.425995 -13.091003,3.084991c-6.678986,2.256989 -16.766998,9.092018 -34.738007,10.105995c-17.977997,-1.011993 -28.062988,-7.849007 -34.743988,-10.102974c-1.939011,-0.656006 -8.007996,-2.754028 -13.091003,-3.085022c-6.104004,-0.393982 -7.905991,-0.533997 -18.205994,0.274994c-14.25,1.121002 -21.053009,10.553017 -24.650009,15.090034c-5.423996,6.837982 -49.918976,77.649994 -49.918976,77.649994l-20.238014,33.809998c-6.877998,14.168976 -9.223,29.579987 5.014,36.445984l0.51799,0.256012c14.231003,6.865997 27.32901,-1.458008 35.703003,-14.455994l39.806,-60.274994l1.826004,-2.348022c2.479004,-3.836975 4.473999,-6.497986 5.998001,-8.323975c2.563995,-3.072037 6.347,-3.319 9.169998,2.044983c0.856003,1.627014 0.447006,76.941986 0.447006,76.941986l-47.182007,203.119995l-0.996002,4.630005c-2.809998,14.973999 12.813995,28.528015 28.602997,28.528015l0.597,0c15.796005,0 25.593018,-13.20401 28.615005,-28.528015l37.582016,-150.869995s2.21701,-6.597992 10.596985,-6.597992l9.09201,0c8.380005,0 10.597015,6.597992 10.597015,6.597992l37.569977,150.880005c3.02301,15.324005 12.817017,28.528015 28.61499,28.528015l0.593018,0c15.789001,0 31.412994,-13.553009 28.602966,-28.528015l-0.995941,-4.630005l-47.186035,-203.130005s-0.411987,-75.315002 0.446014,-76.941986c2.819977,-5.363983 6.602997,-5.119995 9.169983,-2.044983c1.524017,1.826996 3.516022,4.485992 5.994019,8.323975l1.82901,2.348022l39.804962,60.274994c8.373993,12.997986 21.471039,21.321991 35.703003,14.455994l0.518982,-0.256012c14.231018,-6.868988 11.887024,-22.277008 5.011047,-36.449005l0.017944,0zm-110.039948,-63.459991c-0.731018,1.014008 -3.341003,4.555023 -4.534027,5.916016c-5.872986,6.716003 -12.191986,13.091003 -18.577972,19.458008c-0.61203,0.608978 -1.417023,0.904999 -2.21701,0.889984c-0.799011,0.015015 -1.605011,-0.281006 -2.21701,-0.889984c-6.381989,-6.370026 -12.701996,-12.742004 -18.576996,-19.458008c-1.190002,-1.362 -3.799988,-4.902008 -4.529999,-5.916016c-1.014008,-2.21698 -1.561005,-4.67099 -1.561005,-7.206009c0,-9.166977 7.080994,-16.625992 15.789001,-16.625992c3.834015,0 7.48999,1.483002 10.328003,4.059021c0.031006,0.030975 0.533997,0.259003 0.768005,0.274994c0.238007,-0.011993 0.737,-0.243011 0.770996,-0.274994c2.832001,-2.576019 6.490997,-4.059021 10.325012,-4.059021c8.707977,0 15.791992,7.459015 15.791992,16.625992c-0.002991,2.536026 -0.553009,4.990005 -1.561005,7.206009l0.002014,0z"/>
	</g>

	<g id="mind">
		<path d="m657.186951,237.941132c-0.422485,-7.522507 -1.410156,-15.01355 -2.820313,-22.411102c-1.446716,-7.635544 -3.63031,-15.033096 -6.132751,-22.382202c-0.282166,-0.890793 -0.572021,-1.793503 -0.918823,-2.699585c-15.097717,-40.784698 -45.007568,-71.769753 -81.541382,-89.233017c-40.211792,-56.611687 -114.273987,-82.382864 -183.752991,-60.020195c-2.574646,0.782009 -5.18158,1.704254 -7.756256,2.647739c-0.177643,0.08926 -0.318756,0.120701 -0.53125,0.193798c-32.556671,-13.276997 -69.977081,-14.856297 -105.493469,-1.527447c-26.625412,9.973049 -48.637878,26.992611 -64.678207,48.182247c-14.710953,-0.051826 -29.627609,2.538948 -44.193207,7.966209c-45.255707,16.983009 -75.053299,57.324005 -81.01606,102.314499c-34.53125,33.983002 -53.186201,88.918518 -38.407249,138.490509c19.960552,66.957886 88.561493,113.882996 180.548492,66.957886c0.141113,0.443695 0.350204,0.82959 0.527863,1.224854c0.704636,-39.095734 22.785095,-63.710907 36.013657,-75.001434c-26.597351,-32.725861 -88.910004,-94.469009 -129.540001,-71.878571c-26.597351,14.771301 -28.56765,40.893494 -19.154755,58.888c9.9841,18.989838 33.4356,31.376038 63.521355,16.237549c5.749405,-2.965637 12.840942,-0.600952 15.730103,5.253845c2.889145,5.838654 0.600937,12.937866 -5.25386,15.867828c-44.012146,22.185852 -79.990089,1.902283 -94.774994,-26.372101c-15.025452,-28.732574 -10.048698,-69.073547 28.571899,-90.533539c7.756256,-4.331604 17.595856,-7.631287 29.659912,-7.808929c-1.624359,-24.421371 4.725998,-45.184311 19.010239,-61.692154c22.253845,-25.803452 57.630859,-33.576691 74.312103,-35.921005c9.557404,-36.876381 42.00531,-59.243279 86.937988,-58.993401c23.494843,0.104568 44.475403,9.758865 59.823029,19.698769c7.966187,5.165443 14.493347,10.415894 19.042511,14.444885c24.586273,-18.21209 60.1698,-30.276138 91.698029,-21.754036c21.125885,5.785927 48.460236,22.983124 60.87442,71.943138c11.7453,4.754883 35.231628,17.019547 43.734192,41.723953c6.104736,17.833862 3.388123,38.564484 -7.228394,55.391098c-9.839539,15.621307 -30.860962,35.207855 -75.195251,39.966156c-0.59668,0.056946 -1.160217,0.056946 -1.728882,0.056946c-0.813416,-0.03653 -81.894958,-2.50238 -107.609985,57.27301c-1.414398,3.336243 -2.929108,6.475281 -4.476959,9.476654c-9.066101,17.48703 -20.101654,28.75293 -32.765808,33.491669c-2.361298,0.90271 -4.79483,1.558899 -7.300629,2.002625c-24.550568,4.290771 -43.597351,-15.774323 -44.443115,-16.628571c-4.408112,-4.775299 -4.162445,-12.228943 0.563538,-16.717773c4.65802,-4.452332 12.063232,-4.242371 16.540161,0.475983c0.286438,0.322144 11.499664,11.749542 23.386078,9.589691c9.662781,-1.808777 18.969421,-12.531525 26.975586,-31.078552c3.666046,-8.538239 8.392883,-16.378632 14.006287,-23.550934c14.956604,-19.010254 36.646057,-32.939209 63.908966,-40.856964c24.760498,-7.24115 46.377686,-7.24115 51.208252,-7.135742c34.49469,-3.867493 50.084534,-17.889954 57.098755,-29.01474c6.881592,-10.830719 8.679321,-23.909668 4.830505,-35.014923c-7.156128,-20.839447 -34.317871,-29.038544 -34.600098,-29.071686c-4.158142,-1.189148 -7.369446,-4.613785 -8.28833,-8.872299c-7.333801,-34.003403 -22.67627,-54.363449 -45.639923,-60.608414c-28.918671,-7.865044 -65.355621,8.429474 -83.797241,28.748718c-22.112732,24.352493 -12.341125,53.137741 -7.47406,63.678589c41.582886,-13.574493 74.207611,5.592163 75.582001,6.443008c5.572632,3.356659 7.373779,10.613098 4.01712,16.185699c-3.311615,5.572601 -10.435455,7.417938 -16.041199,4.097839c-1.0914,-0.617081 -26.843018,-15.363739 -59.504242,-3.122879c-2.784607,1.047195 -5.395782,2.127533 -7.797058,3.283524c-24.51059,11.661163 -30.154572,27.669205 -30.679047,29.228958c-0.773499,3.352417 -2.820313,6.015472 -5.790192,7.578613c-3.066803,1.579285 -6.454895,1.611603 -9.629669,0.390991c-1.68808,-0.584808 -25.038452,-8.091156 -49.443634,13.953613c-24.933899,22.467194 -16.399048,49.249847 -16.080292,50.402435c1.833435,5.322693 -0.213348,11.076355 -5.077057,13.965515c-1.445007,0.815979 -35.198502,22.078735 -34.314514,65.611511c0.391006,18.401642 10.830704,38.798248 29.982056,49.765778c21.798248,8.908844 46.908936,9.973053 70.681763,1.027649c8.707397,-3.227448 16.681244,-7.627899 23.797455,-12.953979c13.231934,5.395782 27.902954,7.453644 42.540771,5.536041c17.776917,-1.289459 41.755432,-14.944702 48.282562,-19.204041c24.647461,-16.185699 38.193909,-32.093475 46.586792,-43.303253c12.98291,-17.519348 14.070068,-29.696472 14.179688,-31.021606c-0.176819,-3.497742 1.201111,-6.669098 3.743408,-9.017639c2.606934,-2.380859 6.172729,-3.263153 9.661926,-2.768463c33.116882,4.775299 64.327209,-4.368164 92.616028,-27.173645c13.015198,-10.451599 22.818237,-23.514404 26.697632,-39.961914c1.732361,-7.225006 2.856873,-14.534149 3.45697,-21.955505c0.600952,-7.425583 0.882263,-14.944687 0.495605,-22.403427l0.025452,0.007645zm-429.794022,31.271484c13.014359,10.827301 24.509766,22.378815 33.471298,32.146149c3.07019,-11.962891 9.770782,-25.291718 23.386047,-37.593781c24.405212,-21.987808 48.920044,-22.838654 62.566803,-20.992462c4.725983,-8.267944 13.933197,-19.980942 30.792114,-29.796738c-9.276062,-20.179001 -15.943481,-56.631256 9.8396,-87.040001c-11.604218,-9.831108 -35.131348,-26.51236 -61.511108,-26.638168c-36.504944,-0.209099 -60.979004,17.785416 -65.423645,48.025002c-0.845764,5.609146 -5.504608,9.79541 -11.108658,10.008774c-0.391006,0.072235 -44.37085,2.53894 -66.979141,28.857483c-10.580795,12.353897 -14.884354,27.826447 -12.98291,47.2957c0.035706,0.745468 0.035706,1.490891 0,2.184509c16.371002,4.754898 35.65921,14.956589 57.948761,33.539291l0.000839,0.004242z"/>
	</g>

	<g id="lifestyle">
		<path d="m671.557495,228.631073l-0.181091,-0.181915l-0.077332,-0.085831c-18.419495,-19.923996 -42.949646,-33.3302 -72.907104,-39.84375c-11.646667,-2.534714 -23.447205,-2.733597 -35.941345,-2.946106c-4.769348,-0.081604 -9.673889,-0.163208 -14.574951,-0.390152c-0.330627,-1.187454 -0.679993,-2.407211 -1.037842,-3.649063c-1.373596,-4.791443 -2.792236,-9.742706 -3.807983,-14.82399c-8.613953,-43.1035 -15.100281,-76.334251 -21.034973,-107.737507c-2.566162,-13.5779 -9.887207,-20.173882 -22.377106,-20.173882c-0.806671,0 -1.637115,0.022102 -2.497284,0.081581c-6.119965,0.385052 -12.693054,0.743752 -19.34433,0.743752c-6.079163,0 -11.455414,-0.304302 -16.451721,-0.924786c-8.694641,-1.082916 -18.0336,-4.107201 -26.288788,-8.518703c-5.430664,-2.887451 -9.470703,-4.180298 -13.111267,-4.180298c-4.6427,0 -8.373322,2.253349 -10.776306,6.510147c-3.395752,5.997601 -3.16452,18.604801 1.722107,23.292538c7.974731,7.643204 18.4552,13.391754 28.039795,15.37735c8.187225,1.700005 16.673615,1.722099 24.879517,1.749313c5.18158,0.0187 10.53067,0.032295 15.662933,0.48111c2.747192,0.239685 6.800018,2.651993 7.281128,3.694939c2.515991,10.988808 4.274658,22.082153 6.142944,33.824043c0.448792,2.815216 0.897552,5.653351 1.365051,8.513596l-60.978943,0.004257c-58.386505,0 -107.457001,-0.031441 -157.190491,-0.194656c-1.49176,-0.005081 -4.266174,-1.577591 -4.946167,-2.80159c-4.420013,-7.946648 -8.381866,-15.9664 -12.575745,-24.462143c-0.788818,-1.595467 -1.581848,-3.200264 -2.375732,-4.805923c2.26181,-0.334885 4.501587,-0.64344 6.700531,-0.942627c9.021057,-1.228256 17.544006,-2.388496 25.731201,-5.190948c4.882385,-1.667702 8.318939,-6.369057 11.084839,-10.154968c1.858978,-2.548286 1.309875,-6.337593 0.988556,-7.851448c-0.357849,-1.682152 -1.309845,-4.701355 -3.667755,-6.061333c-4.079987,-2.357918 -8.109833,-4.483772 -12.502625,-4.61552c-11.777618,-0.348503 -24.512329,-0.507439 -40.080063,-0.507439c-9.375519,0 -18.750153,0.059505 -28.125656,0.113049l-12.720245,0.073097c-11.029617,0.054398 -19.62056,3.790161 -24.185913,10.52726c-4.629105,6.822929 -4.882385,16.319984 -0.707184,26.746933c3.671997,9.157913 10.245041,11.0755 15.113846,11.0755c1.795197,0 3.708557,-0.263504 5.702652,-0.780304c5.099991,-1.328537 10.118408,-2.747192 15.436844,-4.252541c1.568253,-0.443703 3.160278,-0.892487 4.777832,-1.34639l3.907455,7.697601c5.525848,10.862144 10.744843,21.125877 15.902649,31.661644c0.824493,1.686401 1.056549,3.608246 0.856796,4.134384c-7.275986,15.023773 -14.924301,30.251526 -22.322678,44.980301l-5.105118,10.159225c-0.712296,-0.217606 -1.400772,-0.425858 -2.058701,-0.629868c-2.892532,-0.883987 -5.38559,-1.650696 -7.942383,-2.28479c-11.795456,-2.942719 -23.786407,-4.437866 -35.628616,-4.437866c-44.059738,0 -84.222237,20.214706 -110.1175,55.36647c-12.428699,15.74202 -21.037498,33.566513 -25.594349,52.988998c-0.2533,0.561005 -0.508301,1.122009 -0.748001,1.691498l-0.266899,0.637512l0,2.230377c-1.732302,8.744812 -2.606951,17.666412 -2.606951,26.538727c0,75.227539 61.555296,136.424988 137.21549,136.424988c9.356812,0 18.750153,-0.956238 27.921646,-2.842407l0.674911,0l1.028488,-0.380798c20.269104,-4.437836 39.581116,-13.618683 55.756607,-26.457092c27.336853,-19.94696 44.944611,-48.684601 52.32431,-85.416504c1.391449,-6.91391 3.286102,-7.190155 7.815735,-7.190155c0.430969,0 0.878906,0.008514 1.350677,0.018707c5.254669,0.149597 10.517029,0.090088 15.776001,0.022095c2.846649,-0.032288 5.698364,-0.067993 8.545013,-0.067993c4.705627,0 8.53656,0.095184 12.063232,0.308563c0.715698,0.045044 1.414398,0.07309 2.098633,0.07309c8.962402,0 15.78537,-3.5224 22.825897,-11.769104c36.095245,-42.324036 73.051544,-85.136002 108.799988,-126.531006l24.041412,-27.853668l5.154388,19.674957c-5.689056,4.913849 -11.479279,9.537857 -17.095215,14.017349c-13.206421,10.540024 -25.676788,20.490967 -35.315765,32.935806c-24.403503,31.502716 -33.601349,70.073151 -25.904602,108.596008c7.756256,38.823761 32.024567,72.439545 66.474243,92.148499c12.34964,7.68399 25.777069,13.323761 39.912567,16.764557c0.679993,0.289856 1.369385,0.584808 2.058716,0.856812l0.617126,0.244781l2.148743,0c9.170654,1.886169 18.569092,2.842407 27.920837,2.842407c75.658508,0 137.215515,-61.200867 137.215515,-136.425018c0.004211,-36.285645 -14.176331,-70.449692 -39.862427,-96.134979l-0.001709,0.02124zm-95.217041,109.68399c10.127808,-3.508789 13.763184,-12.507751 9.968811,-24.684845c-5.236023,-16.854645 -10.64032,-33.964294 -15.862671,-50.511261c-3.504578,-11.09758 -7.00824,-22.200287 -10.489868,-33.311508c-0.730164,-2.311996 -1.328552,-4.750641 -1.908264,-7.117889c15.803223,-2.51091 31.829102,-1.365082 46.893677,3.218109c28.796265,10.721054 52.932861,35.378708 63.001099,64.388351c17.694458,51.001678 -9.202881,107.091492 -61.246704,127.687012c-11.220886,4.437836 -23.115784,6.695435 -35.347229,6.695435c-33.954956,0 -66.93161,-17.639191 -85.977509,-45.905945c-9.905884,-16.17038 -15.13678,-34.758209 -15.13678,-53.738708c0,-37.958435 20.513885,-72.340088 53.825348,-90.669495l28.343262,87.8815c0.289856,0.934143 0.584778,1.86322 0.883972,2.787994c3.037048,9.321106 8.899536,14.452576 16.519775,14.452576c2.080811,0 4.279724,-0.394409 6.537354,-1.178955l-0.004272,0.007629zm-312.672485,-162.681519l64.87204,129.157532c-1.138184,0.190399 -2.049377,0.326385 -2.910431,0.367188c-3.541107,0.158966 -6.60025,0.294098 -9.089874,0.294098c-8.903778,0 -9.030396,-0.149597 -13.242157,-16.197601l-0.176788,-0.675751c-8.845123,-33.688034 -27.735535,-60.521698 -56.169724,-79.806519l16.718643,-33.139771l-0.001709,0.000824zm5.86673,128.31604c0.008484,0.158936 0.018677,0.317047 0.032288,0.475983l-70.592514,0l31.067505,-62.212341c20.354965,15.241364 34.354477,37.119507 39.495255,61.736328l-0.002533,0.000031zm-73.831863,-72.375809c-3.273346,6.587509 -6.518661,13.124008 -9.792007,19.657104c-3.087204,6.178635 -6.219437,12.339432 -9.348297,18.496017c-6.941086,13.673096 -14.121048,27.803467 -20.73999,41.929626c-3.830948,8.182953 -4.157364,14.869049 -0.961365,19.888306c2.2117,3.477356 7.258148,7.638947 18.732315,7.697601c20.672836,0.118164 41.34996,0.095184 62.026184,0.07309c8.46431,-0.008484 16.922684,-0.018707 25.392075,-0.018707l9.084778,0c-3.500275,35.841125 -33.914124,70.399567 -72.21344,81.352661c-8.95816,2.56189 -18.242722,3.867493 -27.599518,3.867493c-34.453903,0 -66.614494,-17.158936 -86.036995,-45.896576c-24.467247,-36.212555 -22.694149,-82.630219 4.528801,-118.252014c12.023247,-15.735199 28.234451,-27.494949 46.794205,-33.987259c10.322403,-3.304794 21.057907,-4.986954 31.901337,-4.986954c10.540024,0 20.939774,1.577591 30.963806,4.692001l-2.733597,5.490158l0.001709,-0.002548zm282.539993,-76.899521l-117.487,136.382507l-68.595001,-136.382507l186.082001,0z"/>
	</g>

	<g id="done">
		<path d="M 508.74477,226.99015 C 459.42189,193.17234 436.08559,163.59563 436.08559,163.59563 C 344.99984,217.26626 248.26757,407.83719 248.26757,407.83719 C 202.93454,344.01939 157.35384,326.21932 157.35384,326.21932 C 136.86236,353.60112 101.54091,390.09316 101.54091,390.09316 C 183.924,412.28062 253.07323,493.70015 253.07323,493.70015 C 402.5571,259.01322 508.74477,226.99015 508.74477,226.99015 z "/>
	</g>
</svg>
