<?xml version="1.0" encoding="UTF-8" standalone="no"?>
<svg xmlns:rdf="http://www.w3.org/1999/02/22-rdf-syntax-ns#" xmlns="http://www.w3.org/2000/svg" version="1.1" xmlns:cc="http://creativecommons.org/ns#" xmlns:dc="http://purl.org/dc/elements/1.1/" viewbox="0 0 804 515">
<metadata>
<rdf:RDF>
<cc:Work rdf:about="">
<dc:format>image/svg+xml</dc:format>
<dc:type rdf:resource="http://purl.org/dc/dcmitype/StillImage"/>
<dc:title/>
</cc:Work>
</rdf:RDF>
</metadata>
<path stroke-linejoin="miter" d="M551.13,98.033h-51.527v-11.235c0-12.732-10.365-23.075-23.096-23.075h-37.924c3.149-5.697,4.933-12.758,4.933-19.913,0-23.579-19.24-42.81-42.84-42.81-23.613,0-42.81,19.231-42.81,42.814,0,7.151,1.788,14.213,4.933,19.913h-31.106c-12.762,0-23.122,10.343-23.122,23.075v11.235h-51.523c-19.389-0.005-35.056,15.663-35.056,34.988v344.99c0,19.299,15.668,34.988,35.056,34.988h294.07c19.333,0,35.056-15.69,35.056-34.988v-344.98c0-19.325-15.724-34.993-35.057-34.993zm-150.47-79.735c14.077,0,25.516,11.469,25.516,25.516,0,8.043-3.738,14.939-9.635,19.935h-31.767c-5.85-5.018-9.609-11.892-9.609-19.935,0-14.051,11.444-25.516,25.494-25.516zm150.47,438.88c0,11.866-9.66,21.505-21.548,21.505h-250.96c-11.934,0-21.569-9.639-21.569-21.505v-302.65c0-11.892,9.635-21.51,21.569-21.51h29.932c0,9.476,7.684,17.144,17.174,17.144h156.7c9.494,0,17.174-7.667,17.174-17.144h29.958c11.887,0,21.574,9.639,21.574,21.51v302.66zm-46.28-250.08h-201.52c-7.587,0-13.739,6.14-13.739,13.714s6.153,13.714,13.739,13.714h201.52c7.587,0,13.743-6.14,13.743-13.714-0.005-7.573-6.157-13.714-13.743-13.714zm0,91.563h-201.52c-7.587,0-13.739,6.14-13.739,13.718,0,7.57,6.153,13.709,13.739,13.709h201.52c7.587,0,13.743-6.136,13.743-13.709-0.005-7.578-6.157-13.718-13.743-13.718zm0,91.563h-201.52c-7.587,0-13.739,6.136-13.739,13.714,0,7.57,6.153,13.714,13.739,13.714h201.52c7.587,0,13.743-6.14,13.743-13.714-0.005-7.578-6.157-13.714-13.743-13.714z" fill="#FFF"/>
</svg>
