<?xml version="1.0" encoding="UTF-8" standalone="no"?>
<svg xmlns:rdf="http://www.w3.org/1999/02/22-rdf-syntax-ns#" xmlns="http://www.w3.org/2000/svg" version="1.1" xmlns:cc="http://creativecommons.org/ns#" xmlns:dc="http://purl.org/dc/elements/1.1/" viewbox="0 0 804 515">
<metadata>
<rdf:RDF>
<cc:Work rdf:about="">
<dc:format>image/svg+xml</dc:format>
<dc:type rdf:resource="http://purl.org/dc/dcmitype/StillImage"/>
<dc:title/>
</cc:Work>
</rdf:RDF>
</metadata>
<g transform="matrix(1,0,0,-1,237.74516,480.12603)">
<path stroke-linejoin="miter" d="m162.41,367.9c31.038,0,56.219,25.096,56.219,56.05,0,30.942-25.184,56.048-56.219,56.048-31.047,0-56.219-25.106-56.219-56.048-0.003-30.954,25.168-56.05,56.219-56.05zm164.71-133.33-20.23,33.81s-44.492,70.813-49.915,77.65c-3.6,4.537-11.215,13.966-24.65,15.09-10.3,0.858-12.105,0.671-18.209,0.275-5.083-0.331-11.149-2.426-13.091-3.085-6.679-2.257-16.767-9.092-34.738-10.106-17.978,1.012-28.063,7.849-34.744,10.103-1.939,0.656-8.008,2.754-13.091,3.085-6.104,0.394-7.906,0.534-18.206-0.275-14.25-1.121-21.053-10.553-24.65-15.09-5.424-6.838-49.919-77.65-49.919-77.65l-20.238-33.81c-6.878-14.169-9.223-29.58,5.014-36.446l0.518-0.256c14.231-6.866,27.329,1.458,35.703,14.456l39.806,60.275,1.826,2.348c2.479,3.837,4.474,6.498,5.998,8.324,2.564,3.072,6.347,3.319,9.17-2.045,0.856-1.627,0.447-76.942,0.447-76.942l-47.182-203.12-0.996-4.63c-2.81-14.974,12.814-28.528,28.603-28.528h0.597c15.796,0,25.593,13.204,28.615,28.528l37.582,150.87s2.217,6.598,10.597,6.598h9.092c8.38,0,10.597-6.598,10.597-6.598l37.57-150.88c3.023-15.324,12.817-28.528,28.615-28.528h0.593c15.789,0,31.413,13.553,28.603,28.528l-0.996,4.63-47.186,203.13s-0.412,75.315,0.446,76.942c2.82,5.364,6.603,5.12,9.17,2.045,1.524-1.827,3.516-4.486,5.994-8.324l1.829-2.348,39.805-60.275c8.374-12.998,21.471-21.322,35.703-14.456l0.519,0.256c14.231,6.869,11.887,22.277,5.011,36.449zm-110.04,63.46c-0.731-1.014-3.341-4.555-4.534-5.916-5.873-6.716-12.192-13.091-18.578-19.458-0.612-0.609-1.417-0.905-2.217-0.89-0.799-0.015-1.605,0.281-2.217,0.89-6.382,6.37-12.702,12.742-18.577,19.458-1.19,1.362-3.8,4.902-4.53,5.916-1.014,2.217-1.561,4.671-1.561,7.206,0,9.167,7.081,16.626,15.789,16.626,3.834,0,7.49-1.483,10.328-4.059,0.031-0.031,0.534-0.259,0.768-0.275,0.238,0.012,0.737,0.243,0.771,0.275,2.832,2.576,6.491,4.059,10.325,4.059,8.708,0,15.792-7.459,15.792-16.626-0.003-2.536-0.553-4.99-1.561-7.206z" fill="#FFF"/>
</g>
</svg>
