<?xml version="1.0" encoding="utf-8"?>
<!-- Generator: Adobe Illustrator 17.1.0, SVG Export Plug-In . SVG Version: 6.00 Build 0)  -->
<!DOCTYPE svg PUBLIC "-//W3C//DTD SVG 1.1//EN" "http://www.w3.org/Graphics/SVG/1.1/DTD/svg11.dtd">
<svg class="c4-fill" version="1.1" id="Layer_1" xmlns="http://www.w3.org/2000/svg" xmlns:xlink="http://www.w3.org/1999/xlink" x="0px" y="0px"
	 viewBox="0 0 100 100" enable-background="new 0 0 100 100" xml:space="preserve">
<path d="M50,28c-12.15,0-22,9.849-22,22s9.85,22,22,22s22-9.849,22-22S62.15,28,50,28z M62.843,44.041L47.782,58.645
	c-0.256,0.248-0.588,0.372-0.919,0.372c-0.338,0-0.675-0.129-0.933-0.387l-5.868-5.868c-0.516-0.516-0.516-1.351,0-1.867
	c0.516-0.516,1.351-0.516,1.867,0l4.949,4.948l14.127-13.699c0.522-0.507,1.357-0.495,1.867,0.029
	C63.379,42.698,63.366,43.533,62.843,44.041z"/>
</svg>
