<?xml version="1.0" encoding="utf-8"?>
<!-- Generator: Adobe Illustrator 17.1.0, SVG Export Plug-In . SVG Version: 6.00 Build 0)  -->
<!DOCTYPE svg PUBLIC "-//W3C//DTD SVG 1.1//EN" "http://www.w3.org/Graphics/SVG/1.1/DTD/svg11.dtd">
<svg version="1.1" id="Layer_1" xmlns="http://www.w3.org/2000/svg" xmlns:xlink="http://www.w3.org/1999/xlink" x="0px" y="0px"
	 viewBox="0 0 100 100" enable-background="new 0 0 100 100" xml:space="preserve">
<g>
	<path d="M50,28c-12.15,0-22,9.849-22,22s9.85,22,22,22c12.15,0,22-9.849,22-22S62.15,28,50,28z M50,70.24
		c-11.161,0-20.24-9.08-20.24-20.24c0-11.16,9.079-20.24,20.24-20.24c11.161,0,20.24,9.08,20.24,20.24
		C70.24,61.16,61.161,70.24,50,70.24z"/>
	<path d="M61.005,42.145L46.878,55.845l-4.949-4.948c-0.516-0.516-1.351-0.516-1.867,0c-0.516,0.516-0.516,1.351,0,1.867
		l5.868,5.868c0.258,0.258,0.596,0.387,0.933,0.387c0.331,0,0.663-0.124,0.919-0.372l15.061-14.604
		c0.523-0.508,0.536-1.343,0.029-1.867C62.362,41.65,61.528,41.638,61.005,42.145z"/>
</g>
</svg>
