<?xml version="1.0" encoding="utf-8"?>
<!-- Generator: Adobe Illustrator 17.1.0, SVG Export Plug-In . SVG Version: 6.00 Build 0)  -->
<!DOCTYPE svg PUBLIC "-//W3C//DTD SVG 1.1//EN" "http://www.w3.org/Graphics/SVG/1.1/DTD/svg11.dtd">
<svg version="1.1" id="Layer_1" xmlns="http://www.w3.org/2000/svg" xmlns:xlink="http://www.w3.org/1999/xlink" x="0px" y="0px"
	 viewBox="0 0 100 100" enable-background="new 0 0 100 100" xml:space="preserve">
<g>
	<g>
		<path d="M50,80c16.568,0,30-13.432,30-30c0-16.57-13.432-30-30-30c-16.568,0-30,13.43-30,30C20,66.568,33.432,80,50,80z M50,22.4
			c15.219,0,27.6,12.382,27.6,27.6S65.219,77.6,50,77.6c-15.219,0-27.6-12.382-27.6-27.6S34.781,22.4,50,22.4z"/>
	</g>
	<path fill="#010101" d="M65.101,46.693v-0.1c-0.009-2.31-0.196-4.662-1.497-6.206c-0.883-1.085-2.252-1.226-3.345-1.226
		c-0.445,0-0.892,0.028-1.322,0.053c-0.379,0.024-0.744,0.044-1.077,0.044h-0.156c-0.315-0.066-0.635-0.1-0.967-0.137
		c-0.296-0.031-0.602-0.065-0.924-0.127c-0.361-0.069-0.733-0.421-1.096-0.762c-0.209-0.198-0.415-0.388-0.616-0.533
		c-0.207-0.145-0.408-0.292-0.612-0.44c-0.627-0.457-1.277-0.93-2.013-1.259c-0.909-0.392-1.912-0.521-2.884-0.645
		c-0.472-0.061-0.941-0.119-1.39-0.211c-0.294-0.032-0.546-0.061-0.801-0.09c-0.762-0.086-1.549-0.176-2.337-0.176
		c-0.533,0-1.002,0.042-1.434,0.128c-1.555,0.441-2.543,1.701-2.545,3.149c-0.79,0.314-1.496,0.975-1.942,1.819
		c-0.398,0.755-0.532,1.563-0.388,2.277c-1.501,0.982-2.274,2.822-1.858,4.402c-0.661,0.454-1.119,1.218-1.277,2.147
		c-0.22,1.288,0.176,2.654,1.01,3.483c1.105,1.052,2.63,1.307,3.977,1.532c0.212,0.036,0.421,0.07,0.627,0.108
		c0.152,0.039,0.346,0.084,0.542,0.13c1.795,0.416,3.064,0.825,3.068,2.294c0.004,0.969-0.315,1.864-0.652,2.814
		c-0.386,1.089-0.786,2.215-0.723,3.528c0.122,2.338,1.113,4.373,2.656,5.445c0.615,0.49,1.425,0.781,2.196,0.781
		c1.145,0,2.001-0.623,2.349-1.709c0.246-0.732,0.204-1.443,0.161-2.196c-0.009-0.186-0.023-0.376-0.028-0.574
		c-0.043-1.036,0.081-1.894,0.384-2.703c0.574-1.619,1.727-3.126,2.667-4.262l0.515-0.645c0.718-0.907,1.46-1.846,2.306-2.599
		c0.415-0.327,0.856-0.446,1.426-0.569c0.159-0.008,0.3-0.052,0.417-0.087c0.073-0.024,0.158-0.05,0.201-0.05
		c0.56,0.041,1.154,0.083,1.767,0.083c1.194,0,2.922-0.135,4.145-1.312C65.135,50.951,65.121,48.389,65.101,46.693z M59.005,46.862
		l-0.003,0.273c-0.012,1.148-0.03,2.581-0.618,3.623c-0.294,0.495-0.876,0.603-1.551,0.731c-0.933,0.152-1.669,0.459-2.356,0.987
		c-0.098,0.035-0.197,0.106-0.272,0.243c-0.279,0.191-0.508,0.471-0.717,0.722c-1.106,1.201-2.123,2.454-2.922,3.604
		c-0.188,0.277-0.374,0.542-0.559,0.807c-0.849,1.215-1.73,2.471-2.104,4.019c-0.265,1.14-0.24,2.124-0.181,3.294l0.01,0.176
		c0.044,0.712,0.056,1.476-0.346,1.534c-0.027,0.004-0.061,0.007-0.094,0.007c-0.652,0-1.473-0.82-1.96-1.58
		c-0.509-0.966-0.775-1.978-0.748-2.894c0.026-0.95,0.336-1.851,0.665-2.804c0.386-1.126,0.788-2.292,0.695-3.562
		c-0.132-1.728-1.504-3.222-3.415-3.718c-0.559-0.144-1.149-0.24-1.72-0.334c-1.066-0.174-2.168-0.354-3.067-0.858
		c-0.587-0.294-1.211-0.913-1.101-1.726c0.052-0.444,0.253-0.99,0.927-1.112c0.363-0.102,0.605-0.315,0.722-0.612
		c0.142-0.359,0.088-0.807-0.144-1.191c-0.243-0.29-0.281-0.894-0.137-1.42c0.196-0.626,0.654-1.069,1.361-1.309
		c0.301-0.038,0.57-0.246,0.718-0.565c0.168-0.363,0.13-0.757-0.1-1.028c-0.2-0.286-0.162-0.931,0.113-1.464
		c0.219-0.419,0.531-0.673,0.834-0.673c0.042,0,0.084,0.004,0.128,0.015l0.048,0.009h0.05c0.37,0,0.854-0.162,1.094-0.533
		c0.158-0.242,0.18-0.538,0.06-0.811c-0.148-0.397-0.131-0.85,0.053-1.154c0.133-0.221,0.344-0.352,0.631-0.388
		c0.508-0.134,1.015-0.134,1.504-0.134c1.458,0.129,3.006,0.271,4.5,0.54l0.713,0.161c0.37,0.083,0.736,0.163,1.062,0.246
		c0.535,0.263,1.134,0.715,1.711,1.153c0.192,0.144,0.38,0.287,0.565,0.421c0.136,0.106,0.282,0.246,0.431,0.386
		c0.382,0.357,0.808,0.761,1.339,0.907c0.5,0.308,1.033,0.308,1.465,0.308c1.393,0.128,2.051,0.632,2.389,1.854
		C59.013,44.241,59.024,45.644,59.005,46.862z M62.165,50.768c-0.501,0.427-1.157,0.602-1.797,0.673
		c0.339-0.688,0.487-1.462,0.582-2.171c0.225-1.618,0.244-3.32,0.059-5.06c-0.107-0.956-0.28-2.009-0.726-2.914h0.084
		c0.789,0,1.368,0.033,1.658,0.476c0.863,1.251,0.974,3.056,0.965,4.824l0.002,0.45C63.004,48.244,63.02,50.056,62.165,50.768z"/>
</g>
</svg>
