<?xml version="1.0" encoding="utf-8"?>
<!-- Generator: Adobe Illustrator 17.1.0, SVG Export Plug-In . SVG Version: 6.00 Build 0)  -->
<!DOCTYPE svg PUBLIC "-//W3C//DTD SVG 1.1//EN" "http://www.w3.org/Graphics/SVG/1.1/DTD/svg11.dtd">
<svg version="1.1" id="Layer_1" xmlns="http://www.w3.org/2000/svg" xmlns:xlink="http://www.w3.org/1999/xlink" x="0px" y="0px"
	 viewBox="0 0 100 100" enable-background="new 0 0 100 100" xml:space="preserve">
<g>
	<path d="M37.681,50.752c0.906,0.508,2.015,0.69,3.09,0.865c0.575,0.094,1.17,0.191,1.733,0.336c1.925,0.5,3.307,2.005,3.44,3.745
		c0.094,1.279-0.311,2.455-0.7,3.589c-0.332,0.961-0.643,1.868-0.67,2.825c-0.027,0.922,0.24,1.942,0.753,2.915
		c0.491,0.766,1.318,1.592,1.975,1.592c0.033,0,0.067-0.003,0.094-0.007c0.405-0.059,0.393-0.829,0.349-1.546l-0.01-0.178
		c-0.06-1.178-0.085-2.17,0.182-3.318c0.377-1.56,1.264-2.825,2.119-4.049c0.186-0.266,0.374-0.534,0.563-0.813
		c0.805-1.158,1.829-2.421,2.943-3.63c0.21-0.253,0.441-0.535,0.722-0.728c0.076-0.138,0.176-0.21,0.274-0.245
		c0.693-0.532,1.433-0.841,2.374-0.994c0.68-0.129,1.267-0.237,1.563-0.736c0.592-1.05,0.61-2.493,0.623-3.65l0.003-0.275
		c0.02-1.226,0.008-2.64-0.329-3.879c-0.34-1.231-1.003-1.739-2.407-1.868c-0.436,0-0.972,0-1.476-0.31
		c-0.535-0.147-0.965-0.554-1.349-0.914c-0.149-0.142-0.297-0.283-0.434-0.389c-0.186-0.135-0.375-0.279-0.569-0.424
		c-0.581-0.441-1.185-0.897-1.723-1.161c-0.328-0.083-0.697-0.164-1.07-0.248l-0.718-0.163c-1.505-0.271-3.065-0.414-4.533-0.544
		c-0.493,0-1.003,0-1.516,0.135c-0.289,0.037-0.502,0.168-0.636,0.391c-0.185,0.306-0.202,0.763-0.053,1.162
		c0.121,0.275,0.098,0.573-0.06,0.817c-0.242,0.373-0.729,0.537-1.102,0.537h-0.05l-0.048-0.009
		c-0.044-0.011-0.087-0.015-0.129-0.015c-0.305,0-0.619,0.255-0.84,0.677c-0.278,0.537-0.316,1.187-0.114,1.475
		c0.232,0.273,0.27,0.67,0.101,1.036c-0.149,0.321-0.42,0.531-0.724,0.569c-0.712,0.242-1.174,0.689-1.371,1.319
		c-0.145,0.53-0.107,1.139,0.138,1.431c0.233,0.387,0.287,0.838,0.145,1.2c-0.118,0.299-0.362,0.513-0.728,0.616
		c-0.678,0.124-0.882,0.674-0.934,1.121C36.461,49.833,37.09,50.456,37.681,50.752z"/>
	<path d="M61.061,48.878c-0.096,0.714-0.246,1.495-0.587,2.187c0.644-0.071,1.306-0.248,1.81-0.677
		c0.861-0.718,0.845-2.543,0.834-3.75l-0.002-0.454c0.008-1.781-0.103-3.599-0.972-4.859c-0.292-0.447-0.876-0.48-1.671-0.48h-0.085
		c0.449,0.912,0.624,1.973,0.731,2.936C61.307,45.533,61.288,47.248,61.061,48.878z"/>
	<path d="M50,80c16.569,0,30-13.431,30-30S66.569,20,50,20c-16.569,0-30,13.431-30,30S33.431,80,50,80z M34.535,48.405
		c0.16-0.935,0.621-1.705,1.287-2.163c-0.42-1.591,0.36-3.445,1.872-4.434c-0.145-0.72-0.009-1.534,0.391-2.294
		c0.45-0.85,1.161-1.516,1.957-1.832c0.002-1.458,0.997-2.728,2.563-3.172c0.436-0.087,0.908-0.129,1.445-0.129
		c0.794,0,1.587,0.091,2.355,0.178c0.257,0.029,0.511,0.059,0.807,0.091c0.453,0.093,0.925,0.151,1.4,0.213
		c0.98,0.126,1.99,0.255,2.905,0.65c0.742,0.331,1.397,0.808,2.028,1.268c0.206,0.149,0.408,0.297,0.617,0.443
		c0.203,0.145,0.41,0.337,0.621,0.537c0.365,0.343,0.74,0.697,1.104,0.767c0.324,0.062,0.632,0.096,0.931,0.128
		c0.334,0.037,0.657,0.072,0.974,0.138h0.157c0.335,0,0.703-0.02,1.085-0.044c0.434-0.026,0.884-0.054,1.332-0.054
		c1.101,0,2.48,0.142,3.369,1.235c1.311,1.555,1.499,3.925,1.508,6.252v0.101c0.02,1.708,0.034,4.29-1.483,5.64
		c-1.232,1.186-2.973,1.322-4.175,1.322c-0.618,0-1.216-0.042-1.78-0.084c-0.043,0-0.129,0.026-0.202,0.05
		c-0.118,0.036-0.26,0.079-0.42,0.088c-0.574,0.124-1.019,0.244-1.436,0.574c-0.852,0.759-1.6,1.705-2.323,2.618l-0.519,0.65
		c-0.947,1.144-2.108,2.663-2.686,4.293c-0.305,0.815-0.43,1.679-0.386,2.723c0.006,0.199,0.019,0.391,0.028,0.578
		c0.043,0.759,0.085,1.475-0.163,2.212c-0.351,1.094-1.212,1.722-2.366,1.722c-0.777,0-1.592-0.294-2.212-0.787
		c-1.554-1.08-2.553-3.129-2.676-5.485c-0.063-1.322,0.339-2.457,0.729-3.554c0.339-0.957,0.66-1.859,0.657-2.835
		c-0.004-1.48-1.282-1.892-3.091-2.311c-0.198-0.046-0.393-0.092-0.546-0.131c-0.207-0.038-0.418-0.073-0.631-0.109
		c-1.357-0.226-2.893-0.483-4.006-1.543C34.712,51.079,34.313,49.702,34.535,48.405z"/>
</g>
</svg>
