<?xml version="1.0" encoding="utf-8"?>
<!-- Generator: Adobe Illustrator 17.1.0, SVG Export Plug-In . SVG Version: 6.00 Build 0)  -->
<!DOCTYPE svg PUBLIC "-//W3C//DTD SVG 1.1//EN" "http://www.w3.org/Graphics/SVG/1.1/DTD/svg11.dtd">
<svg version="1.1" id="Layer_1" xmlns="http://www.w3.org/2000/svg" xmlns:xlink="http://www.w3.org/1999/xlink" x="0px" y="0px"
	 viewBox="0 0 100 100" enable-background="new 0 0 100 100" xml:space="preserve">
<g>
	<circle cx="50.11" cy="39.365" r="2.639"/>
	<polygon points="51.903,45.524 51.903,44.6 51.903,43.764 46.623,43.764 46.623,45.524 48.383,45.524 48.383,60.484 46.623,60.484 
		46.623,62.244 53.663,62.244 53.663,60.484 51.903,60.484 	"/>
	<path d="M50,28c-12.15,0-22,9.85-22,22c0,12.152,9.85,22,22,22c12.15,0,22-9.848,22-22C72,37.85,62.15,28,50,28z M50,70.24
		c-11.161,0-20.24-9.08-20.24-20.24S38.839,29.76,50,29.76c11.161,0,20.24,9.08,20.24,20.24S61.161,70.24,50,70.24z"/>
</g>
</svg>
