<?xml version="1.0" encoding="utf-8"?>
<!-- Generator: Adobe Illustrator 17.1.0, SVG Export Plug-In . SVG Version: 6.00 Build 0)  -->
<!DOCTYPE svg PUBLIC "-//W3C//DTD SVG 1.1//EN" "http://www.w3.org/Graphics/SVG/1.1/DTD/svg11.dtd">
<svg version="1.1" id="Layer_1" xmlns="http://www.w3.org/2000/svg" xmlns:xlink="http://www.w3.org/1999/xlink" x="0px" y="0px"
	 viewBox="0 0 100 100" enable-background="new 0 0 100 100" xml:space="preserve">
<path d="M50,28c-12.15,0-22,9.849-22,22s9.85,22,22,22c12.15,0,22-9.849,22-22S62.15,28,50,28z M50.11,36.725
	c1.457,0,2.64,1.18,2.64,2.639c0,1.458-1.183,2.639-2.64,2.639c-1.458,0-2.64-1.182-2.64-2.639
	C47.47,37.905,48.652,36.725,50.11,36.725z M53.663,62.244h-7.04v-1.76h1.76v-14.96h-1.76v-1.76h5.28V44.6v0.924v14.96h1.76V62.244z
	"/>
</svg>
