<?xml version="1.0" encoding="UTF-8" standalone="no"?>
<svg xmlns:rdf="http://www.w3.org/1999/02/22-rdf-syntax-ns#" xmlns="http://www.w3.org/2000/svg" version="1.1" xmlns:cc="http://creativecommons.org/ns#" xmlns:dc="http://purl.org/dc/elements/1.1/" viewbox="0 0 804 515">
<metadata>
<rdf:RDF>
<cc:Work rdf:about="">
<dc:format>image/svg+xml</dc:format>
<dc:type rdf:resource="http://purl.org/dc/dcmitype/StillImage"/>
<dc:title/>
</cc:Work>
</rdf:RDF>
</metadata>
<g transform="matrix(0.70,0,0,-0.70,125,460)">
<path stroke-linejoin="miter" d="m754.77,241.61-0.213,0.214-0.091,0.101c-21.67,23.44-50.529,39.212-85.773,46.875-13.702,2.982-27.585,3.216-42.284,3.466-5.611,0.096-11.381,0.192-17.147,0.459-0.389,1.397-0.8,2.832-1.221,4.293-1.616,5.637-3.285,11.462-4.48,17.44-10.134,50.71-17.765,89.805-24.747,126.75-3.019,15.974-11.632,23.734-26.326,23.734-0.949,0-1.926-0.026-2.938-0.096-7.2-0.453-14.933-0.875-22.758-0.875-7.152,0-13.477,0.358-19.355,1.088-10.229,1.274-21.216,4.832-30.928,10.022-6.389,3.397-11.142,4.918-15.425,4.918-5.462,0-9.851-2.651-12.678-7.659-3.995-7.056-3.723-21.888,2.026-27.403,9.382-8.992,21.712-15.755,32.988-18.091,9.632-2,19.616-2.026,29.27-2.058,6.096-0.022,12.389-0.038,18.427-0.566,3.232-0.282,8-3.12,8.566-4.347,2.96-12.928,5.029-25.979,7.227-39.793,0.528-3.312,1.056-6.651,1.606-10.016l-71.74-0.005c-68.69,0-126.42,0.037-184.93,0.229-1.755,0.006-5.019,1.856-5.819,3.296-5.2,9.349-9.861,18.784-14.795,28.779-0.928,1.877-1.861,3.765-2.795,5.654,2.661,0.394,5.296,0.757,7.883,1.109,10.613,1.445,20.64,2.81,30.272,6.107,5.744,1.962,9.787,7.493,13.041,11.947,2.187,2.998,1.541,7.456,1.163,9.237-0.421,1.979-1.541,5.531-4.315,7.131-4.8,2.774-9.541,5.275-14.709,5.43-13.856,0.41-28.838,0.597-47.153,0.597-11.03,0-22.059-0.07-33.089-0.133l-14.965-0.086c-12.976-0.064-23.083-4.459-28.454-12.385-5.446-8.027-5.744-19.2-0.832-31.467,4.32-10.774,12.053-13.03,17.781-13.03,2.112,0,4.363,0.31,6.709,0.918,6,1.563,11.904,3.232,18.161,5.003,1.845,0.522,3.718,1.05,5.621,1.584l4.597-9.056c6.501-12.779,12.641-24.854,18.709-37.249,0.97-1.984,1.243-4.245,1.008-4.864-8.56-17.675-17.558-35.59-26.262-52.918l-6.006-11.952c-0.838,0.256-1.648,0.501-2.422,0.741-3.403,1.04-6.336,1.942-9.344,2.688-13.877,3.462-27.984,5.221-41.916,5.221-51.835,0-99.085-23.782-129.55-65.137-14.622-18.52-24.75-39.49-30.111-62.34-0.298-0.66-0.598-1.32-0.88-1.99l-0.314-0.75v-2.624c-2.038-10.288-3.067-20.784-3.067-31.222,0-88.503,72.418-160.5,161.43-160.5,11.008,0,22.059,1.125,32.849,3.344h0.794l1.21,0.448c23.846,5.221,46.566,16.022,65.596,31.126,32.161,23.467,52.876,57.276,61.558,100.49,1.637,8.134,3.866,8.459,9.195,8.459,0.507,0,1.034-0.01,1.589-0.022,6.182-0.176,12.373-0.106,18.56-0.026,3.349,0.038,6.704,0.08,10.053,0.08,5.536,0,10.043-0.112,14.192-0.363,0.842-0.053,1.664-0.086,2.469-0.086,10.544,0,18.571,4.144,26.854,13.846,42.465,49.793,85.943,100.16,128,148.86l28.284,32.769,6.064-23.147c-6.693-5.781-13.505-11.221-20.112-16.491-15.537-12.4-30.208-24.107-41.548-38.748-28.71-37.062-39.531-82.439-30.476-127.76,9.125-45.675,37.676-85.223,78.205-108.41,14.529-9.04,30.326-15.675,46.956-19.723,0.8-0.341,1.611-0.688,2.422-1.008l0.726-0.288h2.528c10.789-2.219,21.846-3.344,32.848-3.344,89.01,0,161.43,72.001,161.43,160.5,0.005,42.689-16.678,82.882-46.897,113.1zm-112.02-129.04c11.915,4.128,16.192,14.715,11.728,29.041-6.16,19.829-12.518,39.958-18.662,59.425-4.123,13.056-8.245,26.118-12.341,39.19-0.859,2.72-1.563,5.589-2.245,8.374,18.592,2.954,37.446,1.606,55.169-3.786,33.878-12.613,62.274-41.622,74.119-75.751,20.817-60.002-10.827-125.99-72.055-150.22-13.201-5.221-27.195-7.877-41.585-7.877-39.947,0-78.743,20.752-101.15,54.007-11.654,19.024-17.808,40.892-17.808,63.222,0,44.657,24.134,85.106,63.324,106.67l33.345-103.39c0.341-1.099,0.688-2.192,1.04-3.28,3.573-10.966,10.47-17.003,19.435-17.003,2.448,0,5.035,0.464,7.691,1.387zm-367.85,191.39,76.32-151.95c-1.339-0.224-2.411-0.384-3.424-0.432-4.166-0.187-7.765-0.346-10.694-0.346-10.475,0-10.624,0.176-15.579,19.056l-0.208,0.795c-10.406,39.633-32.63,71.202-66.082,93.89l19.669,38.988zm6.902-150.96c0.01-0.187,0.022-0.373,0.038-0.56h-83.05l36.55,73.191c23.947-17.931,40.417-43.67,46.465-72.631zm-86.861,85.148c-3.851-7.75-7.669-15.44-11.52-23.126-3.632-7.269-7.317-14.517-10.998-21.76-8.166-16.086-16.613-32.71-24.4-49.329-4.507-9.627-4.891-17.493-1.131-23.398,2.602-4.091,8.539-8.987,22.038-9.056,24.321-0.139,48.647-0.112,72.972-0.086,9.958,0.01,19.909,0.022,29.873,0.022h10.688c-4.118-42.166-39.899-82.823-84.957-95.709-10.539-3.014-21.462-4.55-32.47-4.55-40.534,0-78.37,20.187-101.22,53.996-28.785,42.603-26.699,97.212,5.328,139.12,14.145,18.512,33.217,32.347,55.052,39.985,12.144,3.888,24.774,5.867,37.531,5.867,12.4,0,24.635-1.856,36.428-5.52l-3.216-6.459zm332.4,90.47-138.22-160.45-80.7,160.45h218.92z" fill="#FFF"/>
</g>
</svg>
