<?xml version="1.0" encoding="utf-8"?>
<!-- Generator: Adobe Illustrator 17.1.0, SVG Export Plug-In . SVG Version: 6.00 Build 0)  -->
<!DOCTYPE svg PUBLIC "-//W3C//DTD SVG 1.1//EN" "http://www.w3.org/Graphics/SVG/1.1/DTD/svg11.dtd">
<svg version="1.1" id="Layer_1" xmlns="http://www.w3.org/2000/svg" xmlns:xlink="http://www.w3.org/1999/xlink" x="0px" y="0px"
	 viewBox="0 0 100 100" enable-background="new 0 0 100 100" xml:space="preserve">
<g>
	<path fill="#1C2021" d="M50,28c-12.152,0-22,9.848-22,22c0,12.152,9.848,22,22,22s22-9.848,22-22C72,37.848,62.152,28,50,28z
		 M50,70.24c-11.16,0-20.24-9.08-20.24-20.24c0-11.16,9.08-20.24,20.24-20.24S70.24,38.84,70.24,50
		C70.24,61.16,61.16,70.24,50,70.24z"/>
	<polygon fill="#1C2021" points="51.256,44.749 50.012,43.505 48.768,44.749 46.697,46.819 40.056,53.461 41.3,54.705 
		50.012,45.994 58.682,54.664 59.927,53.419 54.957,48.45 	"/>
</g>
</svg>
