<?xml version="1.0" encoding="UTF-8" standalone="no"?>
<svg xmlns:rdf="http://www.w3.org/1999/02/22-rdf-syntax-ns#" xmlns="http://www.w3.org/2000/svg" version="1.1" xmlns:cc="http://creativecommons.org/ns#" xmlns:dc="http://purl.org/dc/elements/1.1/" viewbox="0 0 804 515">
<metadata>
<rdf:RDF>
<cc:Work rdf:about="">
<dc:format>image/svg+xml</dc:format>
<dc:type rdf:resource="http://purl.org/dc/dcmitype/StillImage"/>
<dc:title/>
</cc:Work>
</rdf:RDF>
</metadata>
<!-- -->
<g transform="matrix(0.80,0, 0,-0.80, 120,460)">
<path stroke-linejoin="miter" d="m732.18,239.09c-0.497,8.85-1.659,17.663-3.318,26.366-1.702,8.983-4.271,17.686-7.215,26.332-0.332,1.048-0.673,2.11-1.081,3.176-17.762,47.982-52.95,84.435-95.931,104.98-47.308,66.602-134.44,96.921-216.18,70.612-3.029-0.92-6.096-2.005-9.125-3.115-0.209-0.105-0.375-0.142-0.625-0.228-38.302,15.62-82.326,17.478-124.11,1.797-31.324-11.733-57.221-31.756-76.092-56.685-17.307,0.061-34.856-2.987-51.992-9.372-53.242-19.98-88.298-67.44-95.313-120.37-40.625-39.98-62.572-104.61-45.185-162.93,23.483-78.774,104.19-133.98,212.41-78.774,0.166-0.522,0.412-0.976,0.621-1.441,0.829,45.995,26.806,74.954,42.369,88.237-31.291,38.501-104.6,111.14-152.4,84.563-31.291-17.378-33.609-48.11-22.535-69.28,11.746-22.341,39.336-36.913,74.731-19.103,6.764,3.489,15.107,0.707,18.506-6.181,3.399-6.869,0.707-15.221-6.181-18.668-51.779-26.101-94.106-2.238-111.5,31.026-17.677,33.803-11.822,81.263,33.614,106.51,9.125,5.096,20.701,8.978,34.894,9.187-1.911,28.731,5.56,53.158,22.365,72.579,26.181,30.357,67.801,39.502,87.426,42.26,11.244,43.384,49.418,69.698,102.28,69.404,27.641-0.123,52.324-11.481,70.38-23.175,9.372-6.077,17.051-12.254,22.403-16.994,28.925,21.426,70.788,35.619,107.88,25.593,24.854-6.807,57.012-27.039,71.617-84.639,13.818-5.594,41.449-20.023,51.452-49.087,7.182-20.981,3.986-45.37-8.504-65.166-11.576-18.378-36.307-41.421-88.465-47.019-0.702-0.067-1.365-0.067-2.034-0.067-0.957,0.043-96.347,2.944-126.6-67.38-1.664-3.925-3.446-7.618-5.267-11.149-10.666-20.573-23.649-33.827-38.548-39.402-2.778-1.062-5.641-1.834-8.589-2.356-28.883-5.048-51.291,18.558-52.286,19.563-5.186,5.618-4.897,14.387,0.663,19.668,5.48,5.238,14.192,4.991,19.459-0.56,0.337-0.379,13.529-13.823,27.513-11.282,11.368,2.128,22.317,14.743,31.736,36.563,4.313,10.045,9.874,19.269,16.478,27.707,17.596,22.365,43.113,38.752,75.187,48.067,29.13,8.519,54.562,8.519,60.245,8.395,40.582,4.55,58.923,21.047,67.175,34.135,8.096,12.742,10.211,28.129,5.683,41.194-8.419,24.517-40.374,34.163-40.706,34.202-4.892,1.399-8.67,5.428-9.751,10.438-8.628,40.004-26.678,63.957-53.694,71.304-34.022,9.253-76.889-9.917-98.585-33.822-26.015-28.65-14.519-62.515-8.793-74.916,48.921,15.97,87.303-6.579,88.92-7.58,6.556-3.949,8.675-12.486,4.726-19.042-3.896-6.556-12.277-8.727-18.872-4.821-1.284,0.726-31.58,18.075-70.005,3.674-3.276-1.232-6.348-2.503-9.173-3.863-28.836-13.719-35.476-32.552-36.093-34.387-0.91-3.944-3.318-7.077-6.812-8.916-3.608-1.858-7.594-1.896-11.329-0.46-1.986,0.688-29.457,9.519-58.169-16.416-29.334-26.432-19.293-57.941-18.918-59.297,2.157-6.262-0.251-13.031-5.973-16.43-1.7-0.96-41.41-25.975-40.37-77.19,0.46-21.649,12.742-45.645,35.273-58.548,25.645-10.481,55.187-11.733,83.155-1.209,10.244,3.797,19.625,8.974,27.997,15.24,15.567-6.348,32.827-8.769,50.048-6.513,20.914,1.517,49.124,17.582,56.803,22.593,28.997,19.042,44.934,37.757,54.808,50.945,15.274,20.611,16.553,34.937,16.682,36.496-0.208,4.115,1.413,7.846,4.404,10.609,3.067,2.801,7.262,3.839,11.367,3.257,38.961-5.618,75.679,5.139,108.96,31.969,15.312,12.296,26.845,27.664,31.409,47.014,2.038,8.5,3.361,17.099,4.067,25.83,0.707,8.736,1.038,17.582,0.583,26.357zm-505.64-36.79c15.311-12.738,28.835-26.328,39.378-37.819,3.612,14.074,11.495,29.755,27.513,44.228,28.712,25.868,57.553,26.869,73.608,24.697,5.56,9.727,16.392,23.507,36.226,35.055-10.913,23.74-18.757,66.625,11.576,102.4-13.652,11.566-41.331,31.191-72.366,31.339-42.947,0.246-71.74-20.924-76.969-56.5-0.995-6.599-6.476-11.524-13.069-11.775-0.46-0.085-52.201-2.987-78.799-33.95-12.448-14.534-17.511-32.737-15.274-55.642,0.042-0.877,0.042-1.754,0-2.57,19.26-5.594,41.952-17.596,68.175-39.458z" fill="#FFF"/>
</g>
</svg>
