<?xml version="1.0" encoding="utf-8"?>
<!-- Generator: Adobe Illustrator 17.1.0, SVG Export Plug-In . SVG Version: 6.00 Build 0)  -->
<!DOCTYPE svg PUBLIC "-//W3C//DTD SVG 1.1//EN" "http://www.w3.org/Graphics/SVG/1.1/DTD/svg11.dtd">
<svg version="1.1" id="Layer_1" xmlns="http://www.w3.org/2000/svg" xmlns:xlink="http://www.w3.org/1999/xlink" x="0px" y="0px"
	 viewBox="0 0 100 100" enable-background="new 0 0 100 100" xml:space="preserve">
<g>
	<path fill="#010101" d="M50,28c-12.15,0-22,9.849-22,22c0,12.151,9.85,22,22,22c12.15,0,22-9.849,22-22C72,37.849,62.15,28,50,28z
		 M50,70.24c-11.161,0-20.24-9.08-20.24-20.24c0-11.16,9.079-20.24,20.24-20.24c11.161,0,20.24,9.08,20.24,20.24
		C70.24,61.16,61.161,70.24,50,70.24z"/>
	<polygon fill="#010101" points="44.72,58.773 60.032,49.841 44.72,40.909 	"/>
</g>
</svg>
