<?xml version="1.0" encoding="utf-8"?>
<!-- Generator: Adobe Illustrator 17.1.0, SVG Export Plug-In . SVG Version: 6.00 Build 0)  -->
<!DOCTYPE svg PUBLIC "-//W3C//DTD SVG 1.1//EN" "http://www.w3.org/Graphics/SVG/1.1/DTD/svg11.dtd">
<svg version="1.1" id="Layer_1" xmlns="http://www.w3.org/2000/svg" xmlns:xlink="http://www.w3.org/1999/xlink" x="0px" y="0px"
	 viewBox="0 0 100 100" enable-background="new 0 0 100 100" xml:space="preserve">
<g>
	<path d="M65.556,34.444c-8.592-8.592-22.52-8.592-31.112,0s-8.592,22.519,0,31.112s22.519,8.593,31.112,0
		S74.148,43.036,65.556,34.444z M64.311,64.311c-7.891,7.891-20.732,7.891-28.623,0c-7.891-7.891-7.891-20.732,0-28.623
		s20.732-7.891,28.623,0C72.202,43.58,72.202,56.421,64.311,64.311z"/>
	<polygon points="58.711,40.044 50,48.756 41.33,40.086 40.085,41.33 48.755,50 40.085,58.67 41.33,59.915 50,51.245 58.711,59.956 
		59.956,58.711 51.244,50 59.956,41.289 	"/>
</g>
</svg>
