<?xml version="1.0" encoding="utf-8"?>
<!-- Generator: Adobe Illustrator 15.0.2, SVG Export Plug-In . SVG Version: 6.00 Build 0)  -->
<!DOCTYPE svg PUBLIC "-//W3C//DTD SVG 1.1//EN" "http://www.w3.org/Graphics/SVG/1.1/DTD/svg11.dtd">
<svg version="1.1" id="Layer_1" xmlns="http://www.w3.org/2000/svg" xmlns:xlink="http://www.w3.org/1999/xlink" x="0px" y="0px"
	 width="175px" height="175px" viewBox="0 0 175 175" enable-background="new 0 0 175 175" xml:space="preserve">
<g>
	<path fill="#DBDCDE" d="M87.498,173.062c-47.177,0-85.56-38.383-85.56-85.562c0-47.179,38.382-85.562,85.56-85.562
		c47.18,0,85.564,38.383,85.564,85.562C173.062,134.68,134.678,173.062,87.498,173.062z"/>
	<g>
		<path fill="#525C5C" d="M128.383,91.352H33.164c-1.748,0-3.166-1.416-3.166-3.164c0-1.748,1.418-3.165,3.166-3.165h95.219
			c5.674,0,10.287-4.616,10.287-10.287c0-5.673-4.613-10.288-10.287-10.288c-5.672,0-10.287,4.615-10.287,10.288
			c0,1.397,0.277,2.753,0.82,4.027c0.684,1.607-0.064,3.467-1.672,4.152c-1.611,0.684-3.469-0.065-4.154-1.672
			c-0.877-2.063-1.322-4.254-1.322-6.508c0-9.164,7.453-16.618,16.615-16.618c9.164,0,16.619,7.454,16.619,16.618
			C145.002,83.896,137.547,91.352,128.383,91.352z"/>
		<path fill="#525C5C" d="M96.953,81.593H33.164c-1.164,0-2.109-0.946-2.109-2.11c0-1.165,0.945-2.11,2.109-2.11h63.789
			c3.805,0,6.9-3.095,6.9-6.901c0-3.806-3.097-6.902-6.9-6.902c-3.807,0-6.902,3.097-6.902,6.902c0,0.938,0.184,1.848,0.549,2.703
			c0.457,1.07-0.041,2.311-1.115,2.768c-1.071,0.454-2.312-0.043-2.77-1.114c-0.586-1.382-0.883-2.847-0.883-4.356
			c0-6.132,4.986-11.122,11.122-11.122c6.133,0,11.121,4.99,11.121,11.122C108.074,76.604,103.086,81.593,96.953,81.593z"/>
		<path fill="#525C5C" d="M96.953,116.883c-6.135,0-11.122-4.99-11.122-11.123c0-1.508,0.297-2.975,0.883-4.355
			c0.457-1.069,1.698-1.569,2.771-1.114c1.074,0.458,1.572,1.696,1.115,2.771c-0.365,0.855-0.55,1.765-0.55,2.7
			c0,3.806,3.097,6.903,6.902,6.903c3.805,0,6.899-3.098,6.899-6.903c0-3.805-3.096-6.901-6.899-6.901H33.164
			c-1.164,0-2.109-0.943-2.109-2.107c0-1.165,0.945-2.111,2.109-2.111h63.789c6.133,0,11.121,4.989,11.121,11.121
			C108.074,111.893,103.086,116.883,96.953,116.883z"/>
	</g>
</g>
</svg>
