<?xml version="1.0" encoding="utf-8"?>
<!-- Generator: Adobe Illustrator 15.0.2, SVG Export Plug-In . SVG Version: 6.00 Build 0)  -->
<!DOCTYPE svg PUBLIC "-//W3C//DTD SVG 1.1//EN" "http://www.w3.org/Graphics/SVG/1.1/DTD/svg11.dtd">
<svg version="1.1" id="Layer_1" xmlns="http://www.w3.org/2000/svg" xmlns:xlink="http://www.w3.org/1999/xlink" x="0px" y="0px"
	 width="175px" height="175px" viewBox="0 0 175 175" enable-background="new 0 0 175 175" xml:space="preserve">
<g>
	<path fill="#DBDCDE" d="M87.566,173.062c-47.178,0-85.561-38.383-85.561-85.562c0-47.179,38.383-85.562,85.561-85.562
		c47.181,0,85.562,38.383,85.562,85.562C173.128,134.68,134.747,173.062,87.566,173.062z"/>
	<g>
		<g>
			<path fill="none" d="M114.6,69.223c-0.47-11.153-1.345-31.912-26.762-31.912l-0.469,0.003l-0.508-0.003
				c-25.42,0-26.293,20.757-26.762,31.909c-0.057,1.338-0.105,2.494-0.191,3.48c-0.641,7.307-0.225,20.048-0.057,24.344
				c3.418,0.845,13.16,2.882,27.499,2.882c14.338,0,24.077-2.037,27.495-2.882c0.17-4.297,0.586-17.041-0.055-24.344
				C114.706,71.716,114.656,70.56,114.6,69.223z"/>
			<path fill="none" d="M56.104,69.052c0.217-5.16,0.584-13.658,4.182-21.075c-4.102,2.056-12.391,7.975-12.266,22.208
				c0.742,0.862,3.062,2.761,7.99,0.873C56.042,70.448,56.071,69.781,56.104,69.052z"/>
			<path fill="none" d="M114.277,47.702c3.726,7.481,4.101,16.127,4.317,21.352c0.027,0.654,0.056,1.262,0.082,1.82
				c5.211,2.17,7.651,0.215,8.438-0.695C127.247,55.251,118.119,49.473,114.277,47.702z"/>
			<path fill="#525C5C" d="M113.759,43.211c-0.185-0.054-0.375-0.081-0.565-0.081h-1.771c-4.422-5.656-11.66-9.819-23.584-9.819
				l-0.469,0.003l-0.508-0.003c-11.926,0-19.165,4.163-23.586,9.819h-1.334c-0.191,0-0.381,0.027-0.564,0.081
				c-0.18,0.053-17.908,5.53-17.346,27.685c0.008,0.336,0.102,0.664,0.27,0.954c0.988,1.702,3.631,4.001,7.871,4.001
				c1.08,0,2.268-0.154,3.555-0.5c-0.453,9.32,0.162,22.711,0.191,23.34c0.039,0.845,0.605,1.572,1.412,1.817
				c0.455,0.142,11.373,3.416,30.02,3.416c18.646,0,29.564-3.274,30.02-3.416c0.807-0.245,1.373-0.975,1.412-1.817
				c0.029-0.631,0.65-14.143,0.186-23.466c1.459,0.437,2.793,0.626,3.996,0.626c4.24,0,6.883-2.299,7.871-4.001
				c0.168-0.29,0.262-0.618,0.271-0.954C131.667,48.741,113.938,43.264,113.759,43.211z M48.02,70.185
				c-0.125-14.233,8.164-20.152,12.266-22.208c-3.598,7.417-3.965,15.915-4.182,21.075c-0.031,0.729-0.061,1.396-0.094,2.006
				C51.082,72.945,48.761,71.047,48.02,70.185z M114.845,97.044c-3.418,0.845-13.157,2.882-27.495,2.882
				c-14.338,0-24.081-2.037-27.499-2.882c-0.167-4.296-0.583-17.037,0.057-24.344c0.086-0.986,0.135-2.143,0.191-3.48
				c0.469-11.152,1.342-31.909,26.762-31.909l0.508,0.003l0.469-0.003c25.417,0,26.292,20.759,26.762,31.912
				c0.057,1.337,0.104,2.493,0.19,3.478C115.431,80.003,115.016,92.747,114.845,97.044z M118.677,70.874
				c-0.026-0.559-0.055-1.166-0.082-1.82c-0.219-5.225-0.594-13.87-4.317-21.352c3.842,1.771,12.97,7.549,12.838,22.477
				C126.331,71.089,123.888,73.044,118.677,70.874z"/>
		</g>
	</g>
</g>
<g>
	<path fill="none" d="M59.6,134.777c3.961,1.957,8.262,2.948,12.798,2.948c0.001,0,0.001,0,0.001,0
		c6.514,0,11.777-2.068,13.703-2.938v-30.54c-13.658-0.13-22.9-2.005-26.589-2.91C58.367,115.959,59.333,131.123,59.6,134.777z"/>
	<path fill="none" d="M89.031,104.247v30.54c1.926,0.87,7.189,2.938,13.703,2.938c0,0,0,0,0.001,0c4.536,0,8.837-0.991,12.798-2.948
		c0.267-3.654,1.232-18.818,0.087-33.44C111.932,102.242,102.689,104.117,89.031,104.247z"/>
	<path fill="#525C5C" d="M118.458,99.29c-0.04-0.449-0.282-0.857-0.657-1.109s-0.846-0.322-1.275-0.189
		c-0.106,0.033-10.854,3.259-28.959,3.263c-18.105-0.004-28.853-3.229-28.959-3.263c-0.43-0.133-0.9-0.062-1.275,0.189
		s-0.617,0.66-0.657,1.109c-1.585,17.477-0.017,36.377-0.001,36.566c0.043,0.508,0.342,0.96,0.793,1.198
		c4.598,2.436,9.621,3.671,14.931,3.671c0.001,0,0.001,0,0.001,0c7.412,0,13.197-2.382,15.168-3.308
		c1.971,0.926,7.756,3.308,15.168,3.308c0,0,0,0,0.001,0c5.31,0,10.333-1.235,14.931-3.671c0.451-0.238,0.75-0.69,0.793-1.198
		C118.475,135.667,120.043,116.767,118.458,99.29z M86.102,134.787c-1.926,0.87-7.189,2.938-13.703,2.938c0,0,0,0-0.001,0
		c-4.536,0-8.837-0.991-12.798-2.948c-0.267-3.654-1.232-18.818-0.087-33.44c3.688,0.905,12.931,2.78,26.589,2.91V134.787z
		 M115.533,134.777c-3.961,1.957-8.262,2.948-12.798,2.948c-0.001,0-0.001,0-0.001,0c-6.514,0-11.777-2.068-13.703-2.938v-30.54
		c13.658-0.13,22.9-2.005,26.589-2.91C116.766,115.959,115.8,131.123,115.533,134.777z"/>
</g>
</svg>
