<?xml version="1.0" encoding="utf-8"?>
<!-- Generator: Adobe Illustrator 15.0.2, SVG Export Plug-In . SVG Version: 6.00 Build 0)  -->
<!DOCTYPE svg PUBLIC "-//W3C//DTD SVG 1.1//EN" "http://www.w3.org/Graphics/SVG/1.1/DTD/svg11.dtd">
<svg version="1.1" id="Layer_1" xmlns="http://www.w3.org/2000/svg" xmlns:xlink="http://www.w3.org/1999/xlink" x="0px" y="0px"
	 width="175px" height="175px" viewBox="0 0 175 175" enable-background="new 0 0 175 175" xml:space="preserve">
<g>
	<path fill="#DBDCDE" d="M87.499,173.062c-47.178,0-85.562-38.385-85.562-85.563c0-47.179,38.385-85.562,85.562-85.562
		c47.181,0,85.562,38.383,85.562,85.562C173.062,134.68,134.68,173.062,87.499,173.062z"/>
	<g>
		<g>
			<path fill="#525C5C" d="M87.923,141.509c-0.125,0-0.26-0.006-0.393-0.015l-0.031-0.001l-0.029,0.001
				c-0.135,0.009-0.268,0.015-0.395,0.015H84.62v-0.312c-7.316-1.252-17.76-6.463-26.668-16.137
				c-8.139-8.838-17.805-24.48-17.641-48.806c0.215-31.53,23.564-42.765,45.344-42.765c0.807,0,1.434,0.02,1.844,0.037
				c0.412-0.018,1.037-0.037,1.847-0.037c21.778,0,45.127,11.234,45.342,42.765c0.166,24.324-9.5,39.968-17.64,48.806
				c-8.907,9.674-19.353,14.885-26.67,16.137v0.275L87.923,141.509z M87.499,136.58h0.033l0.25-0.014
				c12.475-0.725,42.274-19.094,41.993-60.278C129.538,41.133,98.77,38.4,89.346,38.4c-0.783,0-1.372,0.02-1.729,0.037l-0.117,0.006
				l-0.115-0.006c-0.357-0.018-0.947-0.037-1.729-0.037c-9.424,0-40.193,2.732-40.434,37.888
				c-0.279,41.185,29.521,59.555,41.996,60.278l0.25,0.014H87.499z"/>
			<g>
				<g>
					<path fill="#525C5C" d="M95.938,87.654c0.67,0.549,1.658,0.45,2.211-0.218c0.033-0.039,3.357-4,8.511-4
						c0.146,0,0.289-0.022,0.424-0.061c0.135,0.038,0.274,0.061,0.42,0.061c5.147,0,8.472,3.952,8.513,4
						c0.549,0.669,1.537,0.771,2.209,0.223c0.676-0.547,0.776-1.538,0.229-2.213c-0.17-0.211-4.268-5.159-10.949-5.159
						c-0.145,0-0.285,0.023-0.42,0.06c-0.135-0.036-0.277-0.06-0.424-0.06c-6.68,0-10.777,4.948-10.947,5.159
						C95.163,86.121,95.268,87.107,95.938,87.654z"/>
					<path fill="#525C5C" d="M56.772,87.654c0.672,0.549,1.662,0.45,2.213-0.218c0.033-0.039,3.357-4,8.51-4
						c0.146,0,0.287-0.022,0.422-0.061c0.135,0.038,0.275,0.061,0.422,0.061c5.145,0,8.473,3.952,8.51,4
						c0.551,0.669,1.537,0.771,2.211,0.223c0.676-0.547,0.777-1.538,0.229-2.213c-0.17-0.211-4.268-5.159-10.949-5.159
						c-0.146,0-0.287,0.023-0.422,0.06c-0.135-0.036-0.275-0.06-0.422-0.06c-6.68,0-10.777,4.948-10.951,5.159
						C56.001,86.121,56.101,87.107,56.772,87.654z"/>
				</g>
			</g>
			<path fill="#525C5C" d="M102.361,106.124c-0.896-0.731-2.215-0.601-2.95,0.288c-0.041,0.059-4.478,5.338-11.349,5.338
				c-0.194,0-0.384,0.027-0.563,0.077c-0.178-0.05-0.367-0.077-0.561-0.077c-6.865,0-11.297-5.271-11.35-5.338
				c-0.732-0.893-2.051-1.027-2.947-0.297c-0.9,0.729-1.035,2.054-0.305,2.951c0.229,0.281,5.689,6.879,14.602,6.879
				c0.193,0,0.383-0.027,0.561-0.08c0.18,0.053,0.369,0.08,0.563,0.08c8.908,0,14.373-6.598,14.603-6.879
				C103.393,108.171,103.257,106.854,102.361,106.124z"/>
		</g>
	</g>
</g>
</svg>
