<?xml version="1.0" encoding="utf-8"?>
<!-- Generator: Adobe Illustrator 15.0.2, SVG Export Plug-In . SVG Version: 6.00 Build 0)  -->
<!DOCTYPE svg PUBLIC "-//W3C//DTD SVG 1.1//EN" "http://www.w3.org/Graphics/SVG/1.1/DTD/svg11.dtd">
<svg version="1.1" id="Layer_1" xmlns="http://www.w3.org/2000/svg" xmlns:xlink="http://www.w3.org/1999/xlink" x="0px" y="0px"
	 width="175px" height="175px" viewBox="0 0 175 175" enable-background="new 0 0 175 175" xml:space="preserve">
<g>
	<path fill="#DBDCDE" d="M87.5,173.062c-47.18,0-85.562-38.383-85.562-85.563C1.938,40.321,40.32,1.938,87.5,1.938
		c47.18,0,85.562,38.383,85.562,85.562C173.062,134.68,134.68,173.062,87.5,173.062z"/>
	<g>
		<path fill="#525C5C" d="M133.006,69.758c-0.072,0-0.148-0.004-0.223-0.016c-0.799-0.123-1.346-0.869-1.225-1.667
			c0.096-0.627,2.174-15.39-10.734-17.399c-0.799-0.123-1.346-0.871-1.221-1.669c0.123-0.799,0.873-1.339,1.67-1.22
			c12.643,1.969,14.147,14.422,13.176,20.73C134.338,69.243,133.717,69.758,133.006,69.758z"/>
		<path fill="#525C5C" d="M87.5,137.057c-1.717,0-3.26-0.633-4.463-1.83L44.91,98.441c-0.48-0.396-1.078-0.961-1.82-1.726
			c-0.771-0.791-1.936-2.164-3.559-4.192c-1.613-2.015-3.08-4.117-4.359-6.251c-1.314-2.189-2.494-4.852-3.508-7.914
			c-1.039-3.141-1.566-6.25-1.566-9.24c0-9.644,2.871-17.336,8.535-22.867c5.646-5.513,13.471-8.309,23.254-8.309
			c2.793,0,5.668,0.486,8.543,1.445c2.834,0.945,5.502,2.236,7.936,3.836c2.312,1.521,4.346,2.979,6.039,4.334
			c1.059,0.848,2.094,1.736,3.096,2.656c1.002-0.921,2.035-1.81,3.092-2.655c1.695-1.354,3.728-2.812,6.041-4.335
			c2.439-1.602,5.109-2.893,7.938-3.836c2.877-0.959,5.752-1.445,8.541-1.445c9.785,0,17.609,2.796,23.254,8.31
			c5.664,5.528,8.537,13.222,8.537,22.866c0,9.672-4.969,19.542-14.766,29.339L91.93,135.256
			C90.76,136.424,89.217,137.057,87.5,137.057z M61.887,42.942c-8.432,0-15.08,2.316-19.76,6.887
			c-4.73,4.618-7.029,10.928-7.029,19.289c0,2.455,0.441,5.036,1.314,7.669c0.896,2.714,1.922,5.039,3.047,6.913
			c1.166,1.941,2.504,3.859,3.977,5.7c1.498,1.873,2.588,3.162,3.238,3.828c0.797,0.822,1.232,1.209,1.459,1.39l0.172,0.151
			l38.234,36.888c0.299,0.297,0.559,0.399,0.961,0.399s0.662-0.104,0.932-0.371l38.203-36.797
			c8.791-8.792,13.268-17.474,13.268-25.771c0-8.363-2.299-14.672-7.028-19.289c-4.681-4.57-11.328-6.887-19.763-6.887
			c-2.252,0-4.594,0.4-6.959,1.188c-2.418,0.807-4.694,1.907-6.771,3.271c-2.187,1.438-4.092,2.805-5.666,4.062
			c-1.545,1.238-3.043,2.579-4.446,3.981l-1.77,1.764l-1.766-1.763c-1.404-1.401-2.902-2.741-4.455-3.983
			c-1.57-1.258-3.477-2.624-5.662-4.061c-2.07-1.361-4.348-2.462-6.77-3.271C66.482,43.342,64.141,42.942,61.887,42.942z"/>
	</g>
</g>
</svg>
