<?xml version="1.0" encoding="utf-8"?>
<!-- Generator: Adobe Illustrator 15.0.2, SVG Export Plug-In . SVG Version: 6.00 Build 0)  -->
<!DOCTYPE svg PUBLIC "-//W3C//DTD SVG 1.1//EN" "http://www.w3.org/Graphics/SVG/1.1/DTD/svg11.dtd">
<svg version="1.1" id="Layer_1" xmlns="http://www.w3.org/2000/svg" xmlns:xlink="http://www.w3.org/1999/xlink" x="0px" y="0px"
	 width="175px" height="175px" viewBox="0 0 175 175" enable-background="new 0 0 175 175" xml:space="preserve">
<path fill="#69C4EF" d="M87.749,92.521h-0.1H87.749z"/>
<g>
	<path fill="#DBDCDE" d="M87.499,173.062c-47.178,0-85.561-38.383-85.561-85.562c0-47.179,38.383-85.562,85.561-85.562
		c47.179,0,85.563,38.383,85.563,85.562C173.062,134.68,134.678,173.062,87.499,173.062z"/>
	<path fill="none" d="M99.035,56.427c-3.074-3.074-7.172-4.766-11.535-4.766c-4.367,0-8.467,1.695-11.543,4.773
		c-3.074,3.077-4.768,7.177-4.766,11.542c0.002,4.366,1.697,8.464,4.775,11.538c3.074,3.074,7.172,4.768,11.535,4.768
		c4.367,0,8.466-1.697,11.542-4.775C105.404,73.144,105.4,62.788,99.035,56.427z"/>
	<path fill="#525C5C" d="M112.428,92.879c13.734-13.743,13.727-36.099-0.018-49.834c-6.646-6.642-15.492-10.298-24.91-10.298
		c-9.426,0-18.277,3.662-24.924,10.313c-6.645,6.648-10.301,15.499-10.299,24.923c0.002,9.422,3.666,18.271,10.312,24.914
		c3.66,3.658,8.139,6.489,13.008,8.233l0.002,3.818h-6.033c-2.166,0-3.928,1.762-3.928,3.928v15.742
		c0,2.166,1.762,3.928,3.928,3.928h6.135v9.779c0,2.166,1.764,3.928,3.928,3.928h15.742c2.166,0,3.928-1.762,3.928-3.928v-9.779
		h6.137c2.166,0,3.928-1.762,3.928-3.928v-15.742c0-2.166-1.762-3.928-3.928-3.928h-6.137v-3.783
		C104.217,99.422,108.736,96.572,112.428,92.879z M105.436,108.877v15.744H95.371v13.705H79.629v-13.705H69.567v-15.744h9.965
		L79.526,98.24c-5.188-1.359-10.098-4.062-14.158-8.121c-12.211-12.203-12.217-32.067-0.012-44.282
		c12.203-12.211,32.066-12.217,44.279-0.013c12.211,12.204,12.217,32.067,0.014,44.279c-4.09,4.092-9.041,6.809-14.276,8.157v10.615
		L105.436,108.877L105.436,108.877z"/>
	<path fill="#525C5C" d="M101.812,53.648c-7.896-7.89-20.743-7.887-28.634,0.01c-7.891,7.897-7.887,20.745,0.012,28.636
		c7.896,7.892,20.742,7.888,28.634-0.01C109.713,74.39,109.709,61.543,101.812,53.648z M87.502,84.282
		c-4.363,0-8.461-1.693-11.535-4.768c-3.078-3.074-4.773-7.172-4.775-11.538c-0.002-4.365,1.691-8.465,4.766-11.542
		c3.076-3.078,7.176-4.773,11.543-4.773c4.362,0,8.46,1.691,11.535,4.766c6.364,6.361,6.368,16.717,0.01,23.08
		C95.969,82.585,91.869,84.282,87.502,84.282z"/>
</g>
</svg>
