<?xml version="1.0" encoding="utf-8"?>
<!-- Generator: Adobe Illustrator 15.0.2, SVG Export Plug-In . SVG Version: 6.00 Build 0)  -->
<!DOCTYPE svg PUBLIC "-//W3C//DTD SVG 1.1//EN" "http://www.w3.org/Graphics/SVG/1.1/DTD/svg11.dtd">
<svg version="1.1" id="Layer_1" xmlns="http://www.w3.org/2000/svg" xmlns:xlink="http://www.w3.org/1999/xlink" x="0px" y="0px"
	 width="175px" height="175px" viewBox="0 0 175 175" enable-background="new 0 0 175 175" xml:space="preserve">
<g>
	<path fill="#DBDCDE" d="M87.5,173.062c-47.18,0-85.562-38.383-85.562-85.562C1.938,40.321,40.32,1.938,87.5,1.938
		c47.18,0,85.562,38.383,85.562,85.562C173.062,134.68,134.68,173.062,87.5,173.062z"/>
	<path fill="#525C5C" d="M144.859,111.812c-0.096-0.428-0.099-0.438-4.351-12.168c-3.465-9.566-8.211-22.665-8.786-24.479
		c-0.095-0.291-9.427-29.17-21.666-29.17c-5.496,0-9.755,4.705-12.89,14.314c-1.26-4.032-2.194-9.062-2.231-15.146
		c-0.021-3.956-3.252-7.174-7.28-7.173c-0.057,0-0.113,0.002-0.168,0.004c-0.066-0.002-0.137-0.004-0.209-0.005
		c-3.953,0-7.189,3.214-7.217,7.167c-0.037,6.129-0.994,11.17-2.232,15.143c-3.137-9.603-7.393-14.305-12.887-14.305
		c-12.246,0-21.572,28.88-21.666,29.171c-0.574,1.808-5.303,14.858-8.756,24.388c-4.283,11.825-4.285,11.834-4.383,12.27
		c-1.43,6.438,0.484,10.55,2.342,12.865c4.207,5.244,12.299,7.237,24.918,6.133c21.902-1.918,25.576-15.323,27.145-21.047
		l0.131-0.471c1.26-4.533-0.189-14.136-2.215-26.219c-0.062-0.371-0.123-0.734-0.182-1.09c1.408-1.61,3.328-4.125,5.232-7.625
		c1.923,3.514,3.851,6.037,5.216,7.611c-0.062,0.36-0.121,0.729-0.185,1.106c-2.024,12.08-3.476,21.682-2.215,26.216l0.129,0.468
		c1.569,5.726,5.243,19.131,27.146,21.051c2.213,0.193,4.316,0.291,6.252,0.291c0,0,0,0,0.002,0c9.09,0,15.195-2.102,18.664-6.424
		C144.377,122.374,146.293,118.264,144.859,111.812z M80.387,108.115c-1.416,5.1-3.967,16.576-23.377,18.277
		c-19.412,1.7-24.514-4.677-22.529-13.604c0.092-0.413,12.043-33.154,13.035-36.272c0.992-3.117,9.635-26.07,17.428-26.07
		c6.393,0,9.926,14.304,11.457,22.882l1.127,7.213C78.787,88.314,81.641,103.6,80.387,108.115z M117.99,126.393
		c-19.412-1.701-21.963-13.178-23.379-18.276c-1.254-4.517,1.6-19.8,2.859-27.574l1.125-7.199
		c1.532-8.58,5.062-22.896,11.459-22.896c7.793,0,16.436,22.953,17.428,26.07c0.992,3.118,12.942,35.859,13.037,36.272
		C142.502,121.717,137.4,128.094,117.99,126.393z"/>
	<g>
		<path fill="#525C5C" d="M72.049,74.717c-0.662,0-1.303,0.192-1.865,0.562c-0.291,0.194-2.805,1.938-5.371,5.944
			c-9.123,1.904-15.334,6.781-15.387,6.823c-0.711,0.556-1.16,1.353-1.27,2.248c-0.109,0.896,0.137,1.78,0.697,2.492
			c0.645,0.819,1.611,1.29,2.652,1.29c0.75,0,1.49-0.256,2.078-0.719c0.035-0.027,2.939-2.254,7.49-4.018
			c-0.678,2.141-1.203,4.415-1.57,6.805c-0.281,1.834,0.986,3.561,2.85,3.846c0.164,0.023,0.326,0.037,0.488,0.037
			c1.676,0,3.076-1.205,3.334-2.865c1.825-11.935,7.72-16.246,7.747-16.267c1.539-1.027,1.963-3.12,0.943-4.663
			C74.238,75.283,73.186,74.717,72.049,74.717z"/>
		<path fill="#525C5C" d="M126.844,90.294c-0.107-0.896-0.559-1.692-1.256-2.239c-0.064-0.051-6.277-4.928-15.4-6.832
			c-2.563-4.006-5.08-5.75-5.381-5.949c-0.553-0.364-1.193-0.557-1.854-0.557c-1.139,0-2.191,0.566-2.818,1.514
			c-1.018,1.544-0.596,3.637,0.912,4.643c0.059,0.043,5.953,4.354,7.779,16.291c0.256,1.658,1.656,2.862,3.332,2.862
			c0.162,0,0.324-0.014,0.516-0.041c1.836-0.28,3.104-2.006,2.822-3.842c-0.367-2.389-0.893-4.662-1.57-6.804
			c4.551,1.763,7.453,3.987,7.486,4.015c0.592,0.465,1.332,0.722,2.082,0.722c1.041,0,2.008-0.47,2.656-1.291
			C126.707,92.074,126.953,91.188,126.844,90.294z"/>
	</g>
</g>
</svg>
