<?xml version="1.0" encoding="utf-8"?>
<!-- Generator: Adobe Illustrator 15.0.2, SVG Export Plug-In . SVG Version: 6.00 Build 0)  -->
<!DOCTYPE svg PUBLIC "-//W3C//DTD SVG 1.1//EN" "http://www.w3.org/Graphics/SVG/1.1/DTD/svg11.dtd">
<svg version="1.1" id="Layer_1" xmlns="http://www.w3.org/2000/svg" xmlns:xlink="http://www.w3.org/1999/xlink" x="0px" y="0px"
	 width="175px" height="175px" viewBox="0 0 175 175" enable-background="new 0 0 175 175" xml:space="preserve">
<g>
	<g>
		<path fill="#DBDCDE" d="M87.499,173.062c-47.178,0-85.561-38.385-85.561-85.563c0-47.179,38.383-85.562,85.561-85.562
			c47.181,0,85.562,38.383,85.562,85.562C173.062,134.68,134.68,173.062,87.499,173.062z"/>
		<g>
			<path fill="#525C5C" d="M104.167,138.93c-6.935,0-7.56-6.553-8.349-14.847c-0.178-1.864-0.379-3.978-0.655-6.205l-0.22-1.76
				c-1.457-11.866-2.602-17.066-7.44-17.066c-4.846,0-5.99,5.201-7.447,17.07l-0.217,1.756c-0.279,2.229-0.48,4.345-0.658,6.209
				c-0.76,7.964-1.414,14.843-8.348,14.843c-8.051,0-13.377-14.007-14.096-21.847c-0.254-2.776-0.254-5.62-0.254-8.629
				c0.002-5.652,0.004-11.496-1.799-16.905c-0.879-2.627-2.148-4.799-3.492-7.098c-2.844-4.867-6.066-10.383-6.066-21.247
				c0-16.312,15.473-27.132,25.707-27.132c7.16,0,13.695,4.244,16.67,6.508c2.974-2.264,9.504-6.508,16.664-6.508
				c10.233,0,25.707,10.82,25.707,27.132c0,10.864-3.224,16.381-6.067,21.247c-1.345,2.299-2.613,4.471-3.492,7.101
				c-1.801,5.406-1.799,11.25-1.797,16.902c0,3.009,0.002,5.853-0.254,8.629C117.544,124.923,112.221,138.93,104.167,138.93z
				 M87.503,94.052c9.769,0,11.049,10.423,12.404,21.457l0.217,1.75c0.287,2.302,0.492,4.452,0.672,6.351
				c0.785,8.246,1.267,10.32,3.371,10.32c3.449,0,8.392-9.38,9.117-17.304c0.233-2.549,0.231-5.278,0.231-8.171
				c-0.002-6.051-0.004-12.309,2.055-18.486c1.046-3.123,2.507-5.623,3.918-8.041c2.771-4.737,5.386-9.213,5.386-18.724
				c0-13.729-13.406-22.132-20.707-22.132c-7.646,0-14.91,6.517-14.981,6.582l-1.681,1.526l-1.682-1.524
				c-0.07-0.064-7.387-6.584-14.99-6.584c-7.301,0-20.707,8.402-20.707,22.132c0,9.511,2.615,13.985,5.385,18.724
				c1.412,2.418,2.873,4.918,3.916,8.038c2.061,6.183,2.059,12.438,2.057,18.489c0,2.893,0,5.622,0.234,8.171
				c0.727,7.924,5.668,17.304,9.115,17.304c2.105,0,2.584-2.074,3.369-10.316c0.182-1.898,0.387-4.053,0.674-6.354l0.217-1.745
				C76.446,104.477,77.728,94.052,87.503,94.052z"/>
		</g>
	</g>
	<g>
		<path fill="#525C5C" d="M119.372,68.42c-0.074,0-0.147-0.006-0.224-0.017c-0.797-0.123-1.344-0.867-1.221-1.665
			c0.094-0.625,2.168-15.368-10.721-17.374c-0.799-0.123-1.344-0.869-1.219-1.666c0.123-0.799,0.873-1.338,1.666-1.22
			c12.625,1.967,14.129,14.401,13.158,20.702C120.702,67.903,120.081,68.42,119.372,68.42z"/>
	</g>
</g>
</svg>
