<?xml version="1.0" encoding="utf-8"?>
<!-- Generator: Adobe Illustrator 15.0.2, SVG Export Plug-In . SVG Version: 6.00 Build 0)  -->
<!DOCTYPE svg PUBLIC "-//W3C//DTD SVG 1.1//EN" "http://www.w3.org/Graphics/SVG/1.1/DTD/svg11.dtd">
<svg version="1.1" id="Layer_1" xmlns="http://www.w3.org/2000/svg" xmlns:xlink="http://www.w3.org/1999/xlink" x="0px" y="0px"
	 width="175px" height="175px" viewBox="0 0 175 175" enable-background="new 0 0 175 175" xml:space="preserve">
<g>
	<path fill="#DBDCDE" d="M87.5,171.895c-47.18,0-85.562-37.859-85.562-84.396C1.938,40.964,40.32,3.106,87.5,3.106
		c47.18,0,85.562,37.858,85.562,84.393S134.68,171.895,87.5,171.895z"/>
	<g>
		<rect x="59.246" y="78.141" fill="#525C5C" width="56.51" height="5.224"/>
		<rect x="59.246" y="91.635" fill="#525C5C" width="56.51" height="5.227"/>
		<path fill="#525C5C" d="M59.246,83.365v-5.224V68.113c0-2.922-2.4-5.288-5.361-5.288h-3.797c-2.961,0-5.359,2.365-5.359,5.288
			v4.743c-0.652-0.869-1.709-1.439-2.908-1.439h-2.539c-1.982,0-3.59,1.543-3.59,3.446v5.898c-0.064-0.004-0.127-0.009-0.193-0.009
			h-2.965c-2.959,0-5.359,2.369-5.359,5.287v2.919c0,2.922,2.4,5.289,5.359,5.289h2.965c0.066,0,0.129-0.007,0.193-0.011v5.896
			c0,1.906,1.607,3.447,3.59,3.447h2.539c1.199,0,2.256-0.569,2.908-1.438v4.741c0,2.923,2.398,5.289,5.359,5.289h3.797
			c2.961,0,5.361-2.366,5.361-5.289V96.859v-5.226V83.365z"/>
		<path fill="#525C5C" d="M142.467,80.753h-2.961c-0.066,0-0.129,0.007-0.197,0.009v-5.897c0-1.904-1.604-3.447-3.586-3.447h-2.543
			c-1.199,0-2.254,0.57-2.904,1.441v-4.745c0-2.922-2.399-5.286-5.36-5.286h-3.799c-2.957,0-5.359,2.363-5.359,5.286v10.027v5.224
			v8.27v5.227v10.024c0,2.923,2.402,5.289,5.359,5.289h3.799c2.961,0,5.36-2.366,5.36-5.289v-4.741
			c0.65,0.869,1.705,1.438,2.904,1.438h2.543c1.98,0,3.586-1.541,3.586-3.445V94.24c0.068,0.002,0.131,0.009,0.197,0.009h2.961
			c2.959,0,5.359-2.367,5.359-5.287v-2.919C147.826,83.122,145.426,80.753,142.467,80.753z"/>
	</g>
</g>
</svg>
