<?xml version="1.0" encoding="utf-8"?>
<!-- Generator: Adobe Illustrator 15.0.2, SVG Export Plug-In . SVG Version: 6.00 Build 0)  -->
<!DOCTYPE svg PUBLIC "-//W3C//DTD SVG 1.1//EN" "http://www.w3.org/Graphics/SVG/1.1/DTD/svg11.dtd">
<svg version="1.1" id="Layer_1" xmlns="http://www.w3.org/2000/svg" xmlns:xlink="http://www.w3.org/1999/xlink" x="0px" y="0px"
	 width="175px" height="175px" viewBox="0 0 175 175" enable-background="new 0 0 175 175" xml:space="preserve">
<g>
	<path fill="#DBDCDE" d="M87.499,173.062c-47.178,0-85.561-38.383-85.561-85.563c0-47.179,38.383-85.562,85.561-85.562
		c47.18,0,85.562,38.383,85.562,85.562C173.062,134.68,134.679,173.062,87.499,173.062z"/>
	<path fill="none" d="M78.229,77.63c-10.523,0-19.084,8.562-19.084,19.084c0,10.525,8.561,19.086,19.084,19.086
		c10.525,0,19.088-8.561,19.088-19.086C97.317,86.192,88.755,77.63,78.229,77.63z"/>
	<path fill="#525C5C" d="M78.229,73.703c-12.688,0-23.012,10.324-23.012,23.012c0,12.691,10.324,23.014,23.012,23.014
		c12.689,0,23.016-10.322,23.016-23.014C101.245,84.027,90.919,73.703,78.229,73.703z M78.229,115.801
		c-10.523,0-19.084-8.561-19.084-19.086c0-10.523,8.561-19.084,19.084-19.084c10.525,0,19.088,8.562,19.088,19.084
		C97.317,107.24,88.755,115.801,78.229,115.801z"/>
	<path fill="#525C5C" d="M132.987,42.061c-2.312-2.313-5.355-3.534-8.207-3.254l-24.043,2.395c-3.506,0.348-6.092,2.933-6.439,6.432
		c-0.283,2.818,0.934,5.889,3.254,8.212l1.801,1.802l-3.639,3.641c-5.408-2.676-11.438-4.086-17.484-4.086
		c-21.787,0-39.514,17.726-39.514,39.513c0,21.791,17.727,39.518,39.514,39.518c21.789,0,39.516-17.727,39.516-39.518
		c0-5.928-1.359-11.852-3.939-17.183l3.717-3.717l1.68,1.678c2.314,2.316,5.41,3.537,8.209,3.256c3.5-0.35,6.086-2.936,6.434-6.434
		l2.4-24.055C136.522,47.439,135.304,44.374,132.987,42.061z M132.337,49.878l-2.4,24.046c-0.164,1.642-1.275,2.752-2.918,2.916
		c-1.639,0.164-3.561-0.646-5.037-2.123l-4.459-4.457l-8.551,8.55c3.078,5.263,4.846,11.383,4.846,17.905
		c0,19.627-15.963,35.59-35.588,35.59c-19.623,0-35.586-15.963-35.586-35.59c0-19.621,15.963-35.585,35.586-35.585
		c6.641,0,12.861,1.829,18.188,5.01l8.49-8.493l-4.578-4.578c-1.477-1.479-2.287-3.399-2.123-5.042
		c0.162-1.639,1.275-2.752,2.918-2.914l24.047-2.396c1.641-0.163,3.561,0.646,5.039,2.123
		C131.688,46.315,132.497,48.237,132.337,49.878z"/>
</g>
</svg>
