<?xml version="1.0" encoding="utf-8"?>
<!-- Generator: Adobe Illustrator 15.0.2, SVG Export Plug-In . SVG Version: 6.00 Build 0)  -->
<!DOCTYPE svg PUBLIC "-//W3C//DTD SVG 1.1//EN" "http://www.w3.org/Graphics/SVG/1.1/DTD/svg11.dtd">
<svg version="1.1" id="Layer_1" xmlns="http://www.w3.org/2000/svg" xmlns:xlink="http://www.w3.org/1999/xlink" x="0px" y="0px"
	 width="175px" height="175px" viewBox="0 0 175 175" enable-background="new 0 0 175 175" xml:space="preserve">
<g>
	<g>
		<path fill="#DBDCDE" d="M87.5,171.893c-47.18,0-85.562-37.858-85.562-84.393S40.32,3.108,87.5,3.108
			c47.18,0,85.562,37.858,85.562,84.392S134.68,171.893,87.5,171.893z"/>
		<g>
			<path fill="#525C5C" d="M98.789,140.301c-0.002,0-0.002,0-0.002,0c-3.428,0-7.223-0.486-11.287-1.447
				c-4.064,0.961-7.859,1.447-11.287,1.447c-15.748,0-20.469-9.924-21.768-14.189c-1.033-3.395-3.385-12.674-3.668-13.788
				c-1-2.919-2.426-5.324-3.934-7.869c-3.186-5.375-6.795-11.47-6.795-23.461c0-17.947,17.252-29.854,28.662-29.854
				c4.023,0,7.893,0.711,11.156,1.598c-1.012-2.34-2.363-4.285-4.041-5.813c-0.961-0.839-4.141-3.981-3.068-7.738
				c0.383-1.341,1.594-3.688,5.404-4.358c0.498-0.085,1.008-0.129,1.527-0.129c3.057,0,7.432,1.54,10.544,5.862
				c1.736,2.407,3.564,6.434,3.384,12.608c3.59-1.092,8.028-2.031,12.672-2.031c11.41,0,28.662,11.907,28.662,29.854
				c0,11.992-3.609,18.086-6.796,23.461c-1.508,2.547-2.934,4.953-3.934,7.869c-0.283,1.115-2.635,10.395-3.668,13.787
				C119.258,130.377,114.539,140.301,98.789,140.301z M87.5,133.85c0.203,0,0.406,0.023,0.605,0.072
				c3.897,0.961,7.492,1.447,10.682,1.447c11.949,0,15.768-6.689,16.979-10.676c1.041-3.424,3.604-13.56,3.629-13.66
				c0.017-0.062,0.035-0.123,0.056-0.186c1.166-3.441,2.805-6.207,4.391-8.882c3.144-5.307,6.111-10.315,6.111-20.975
				c0-15.46-15.32-24.922-23.662-24.922c-5.66,0-11.063,1.622-14.601,2.983c-0.832,0.319-1.771,0.178-2.469-0.37
				c-0.697-0.548-1.045-1.421-0.912-2.292c0.816-5.405,0.074-9.892-2.149-12.974c-2.014-2.795-4.744-3.788-6.469-3.788
				c-0.232,0-0.453,0.019-0.66,0.054c-0.85,0.149-1.342,0.431-1.459,0.837c-0.199,0.696,0.682,1.934,1.609,2.744
				c3.432,3.124,5.762,7.407,6.963,12.765c0.197,0.884-0.111,1.804-0.805,2.397c-0.693,0.592-1.66,0.761-2.521,0.441
				c-3.422-1.277-8.646-2.799-14.105-2.799c-8.342,0-23.662,9.462-23.662,24.922c0,10.655,2.969,15.668,6.111,20.973
				c1.586,2.677,3.225,5.44,4.391,8.884c0.02,0.062,0.039,0.122,0.055,0.186c0.025,0.102,2.588,10.236,3.629,13.66
				c1.213,3.986,5.033,10.676,16.979,10.676c3.189,0,6.783-0.486,10.682-1.447C87.094,133.873,87.297,133.85,87.5,133.85z"/>
		</g>
	</g>
	<g>
		<path fill="#525C5C" d="M124.061,83.837c-0.074,0-0.147-0.006-0.225-0.017c-0.795-0.121-1.344-0.855-1.221-1.642
			c0.094-0.616,2.17-15.158-10.721-17.136c-0.797-0.122-1.343-0.857-1.218-1.644c0.123-0.788,0.873-1.319,1.666-1.203
			c12.625,1.94,14.128,14.205,13.158,20.419C125.391,83.328,124.77,83.837,124.061,83.837z"/>
	</g>
</g>
</svg>
