<?xml version="1.0" encoding="utf-8"?>
<!-- Generator: Adobe Illustrator 15.0.2, SVG Export Plug-In . SVG Version: 6.00 Build 0)  -->
<!DOCTYPE svg PUBLIC "-//W3C//DTD SVG 1.1//EN" "http://www.w3.org/Graphics/SVG/1.1/DTD/svg11.dtd">
<svg version="1.1" id="Layer_1" xmlns="http://www.w3.org/2000/svg" xmlns:xlink="http://www.w3.org/1999/xlink" x="0px" y="0px"
	 width="175px" height="175px" viewBox="0 0 175 175" enable-background="new 0 0 175 175" xml:space="preserve">
<g>
	<path fill="#DBDCDE" d="M87.499,173.062c-47.179,0-85.562-38.383-85.562-85.563c0-47.179,38.383-85.562,85.562-85.562
		c47.181,0,85.563,38.383,85.563,85.562C173.062,134.68,134.68,173.062,87.499,173.062z"/>
	<g>
		<path fill="#525C5C" d="M151.425,85.477c-0.233-0.4-0.545-0.744-0.901-1.018c-2.168-3.434-7.799-11.495-17.099-19.163
			c-10.172-8.389-21.403-13.678-33.522-15.797c-2.021-0.353-4.062-0.618-6.131-0.795c-2.068-0.178-4.16-0.266-6.275-0.266
			C70.613,48.443,55.18,54.104,41.63,65.265c-1.159,0.955-2.263,1.918-3.31,2.877c-7.326,6.71-11.887,13.261-13.803,16.286
			c-0.379,0.278-0.704,0.635-0.949,1.055c-0.275,0.471-0.432,0.991-0.47,1.518c-0.013,0.176-0.012,0.352,0.002,0.527
			c-0.046,0.687,0.111,1.384,0.471,2.001c0.242,0.414,0.562,0.766,0.937,1.045c0.273,0.432,0.602,0.936,0.983,1.502
			c2.673,3.961,8.013,10.975,16.14,17.668c9.316,7.672,19.523,12.742,30.479,15.164c4.979,1.1,10.114,1.652,15.39,1.652
			c0.152,0,0.301-0.009,0.451-0.011c0.002,0,0.002,0,0.002,0c4.006-0.022,7.932-0.362,11.768-1.022
			c0.807-0.146,1.611-0.293,2.398-0.467c0.051-0.013,0.102-0.021,0.15-0.031c0.604-0.127,1.209-0.269,1.811-0.412
			c0.006-0.002,0.012-0.004,0.02-0.004c0.01-0.004,0.021-0.006,0.029-0.008c1.947-0.47,3.869-1.021,5.768-1.656
			c0.07-0.025,0.14-0.049,0.209-0.072c1.164-0.395,2.316-0.822,3.461-1.277c0.084-0.035,0.168-0.065,0.252-0.1
			c0.539-0.217,1.076-0.445,1.611-0.678c0.246-0.107,0.49-0.217,0.736-0.326c0.777-0.348,1.549-0.713,2.318-1.09
			c0.367-0.182,0.736-0.361,1.102-0.551c0.402-0.205,0.801-0.416,1.199-0.631c0.471-0.252,0.939-0.513,1.406-0.777
			c0.401-0.227,0.803-0.457,1.201-0.691c0.602-0.357,1.198-0.721,1.793-1.096c0.276-0.174,0.555-0.352,0.832-0.531
			c0.666-0.434,1.33-0.873,1.987-1.332c0.115-0.078,0.229-0.154,0.345-0.234c0.739-0.52,1.475-1.059,2.205-1.608
			c0.202-0.152,0.403-0.306,0.604-0.461c0.76-0.584,1.516-1.177,2.264-1.795c9.295-7.666,14.922-15.726,17.093-19.164
			c0.36-0.271,0.67-0.615,0.907-1.015c0.371-0.627,0.529-1.338,0.479-2.04C151.945,86.792,151.786,86.091,151.425,85.477z
			 M87.499,119.557c-33.161,0-51.955-24.949-56.628-32.049c4.666-7.092,23.454-32.056,56.638-32.063
			c33.183,0,51.953,24.936,56.632,32.05C139.471,94.598,120.7,119.557,87.499,119.557z"/>
		<path fill="#525C5C" d="M55.175,84.267c0,17.852,14.474,32.325,32.324,32.325c17.854,0,32.326-14.473,32.326-32.325
			c0-10.508-5.019-19.842-12.783-25.745c-5.838-1.905-12.347-3.078-19.533-3.078c-7.203,0.002-13.726,1.182-19.574,3.097
			C60.183,64.446,55.175,73.77,55.175,84.267z M105.667,65.914c3.147,0,5.701,2.553,5.701,5.703c0,3.148-2.554,5.701-5.701,5.701
			c-3.149,0-5.703-2.553-5.703-5.701C99.964,68.466,102.518,65.914,105.667,65.914z"/>
	</g>
</g>
</svg>
