<?xml version="1.0" encoding="utf-8"?>
<!-- Generator: Adobe Illustrator 17.0.2, SVG Export Plug-In . SVG Version: 6.00 Build 0)  -->
<!DOCTYPE svg PUBLIC "-//W3C//DTD SVG 1.1//EN" "http://www.w3.org/Graphics/SVG/1.1/DTD/svg11.dtd">
<svg version="1.1" id="Layer_2" xmlns="http://www.w3.org/2000/svg" xmlns:xlink="http://www.w3.org/1999/xlink" x="0px" y="0px"
	 width="100px" height="100px" viewBox="0 0 100 100" enable-background="new 0 0 100 100" xml:space="preserve">
<g>
	<path fill="#808080" class="c3-fill" d="M62.639,33.906c-3.227,0-6.036,1.761-7.537,4.37l-8.38-5.051c0.841-1.171,1.341-2.603,1.341-4.155
		c0-3.944-3.197-7.142-7.142-7.142c-3.943,0-7.141,3.198-7.141,7.142c0,3.944,3.197,7.142,7.141,7.142
		c2.029,0,3.856-0.85,5.156-2.208l8.572,5.167c-0.452,1.052-0.705,2.211-0.705,3.429c0,1.828,0.567,3.523,1.532,4.923l-5.266,5.266
		c-1.3-0.55-2.73-0.854-4.23-0.854c-6,0-10.863,4.864-10.863,10.864s4.863,10.864,10.863,10.864c6.002,0,10.865-4.864,10.865-10.864
		c0-4.123-2.297-7.71-5.681-9.55l4.934-4.934c1.594,1.822,3.93,2.978,6.542,2.978c4.801,0,8.691-3.892,8.691-8.693
		C71.33,37.798,67.439,33.906,62.639,33.906z M40.92,35.755c-3.686,0-6.684-2.999-6.684-6.685s2.998-6.685,6.684-6.685
		c3.686,0,6.685,2.999,6.685,6.685S44.606,35.755,40.92,35.755z M55.888,62.799c0,5.464-4.445,9.909-9.91,9.909
		c-5.463,0-9.908-4.445-9.908-9.909s4.445-9.909,9.908-9.909C51.443,52.89,55.888,57.335,55.888,62.799z M62.638,50.628
		c-4.427,0-8.029-3.602-8.029-8.029s3.602-8.029,8.029-8.029c4.427,0,8.028,3.602,8.028,8.029S67.065,50.628,62.638,50.628z"/>
	<path class="c4-fill" fill-rule="evenodd" clip-rule="evenodd" d="M62.639,35.07c-4.158,0-7.529,3.371-7.529,7.529c0,4.158,3.371,7.529,7.529,7.529
		s7.527-3.371,7.527-7.529C70.166,38.441,66.797,35.07,62.639,35.07z M62.256,38.008c1.336-0.211,2.588,0.701,2.797,2.035
		c0.211,1.335-0.701,2.588-2.035,2.797c-1.334,0.21-2.588-0.701-2.797-2.036C60.012,39.47,60.922,38.217,62.256,38.008z
		 M67.154,44.026c-0.465,1.242-1.387,2.177-2.504,2.686c-0.617,0.282-1.293,0.428-1.984,0.43c-0.084,0.001-0.168,0-0.254-0.001
		c-0.012,0-0.025-0.002-0.039-0.003c-0.565-0.023-1.121-0.141-1.637-0.356c-1.135-0.47-2.09-1.372-2.598-2.596
		c-0.285-0.693,0.043-1.488,0.736-1.776c0.693-0.287,1.488,0.042,1.775,0.736c0.221,0.529,1.162,1.114,1.162,1.103
		c0.039,0.018,0.584,0.174,0.815,0.177c0.246-0.006,0.818-0.19,0.857-0.209c0,0.013,0.922-0.604,1.123-1.141
		c0.262-0.704,1.043-1.06,1.748-0.797C67.057,42.54,67.416,43.322,67.154,44.026z"/>
	<path class="c4-fill" fill-rule="evenodd" clip-rule="evenodd" d="M40.92,22.885c-3.416,0-6.184,2.769-6.184,6.185s2.768,6.185,6.184,6.185
		c3.416,0,6.185-2.769,6.185-6.185S44.336,22.885,40.92,22.885z M40.607,25.298c1.098-0.174,2.125,0.576,2.297,1.672
		c0.174,1.097-0.576,2.126-1.672,2.298c-1.096,0.173-2.125-0.576-2.299-1.673C38.764,26.499,39.512,25.471,40.607,25.298z
		 M44.631,30.242c-0.381,1.02-1.139,1.788-2.057,2.207c-0.508,0.231-1.062,0.351-1.629,0.352c-0.07,0.002-0.141,0-0.211-0.001
		c-0.01,0-0.02-0.001-0.031-0.003c-0.465-0.019-0.92-0.116-1.344-0.292c-0.932-0.387-1.719-1.127-2.135-2.133
		c-0.234-0.569,0.037-1.223,0.605-1.458c0.568-0.236,1.221,0.035,1.459,0.604c0.18,0.435,0.953,0.915,0.953,0.906
		c0.033,0.014,0.481,0.143,0.668,0.146c0.205-0.005,0.674-0.156,0.707-0.171c0,0.011,0.756-0.496,0.92-0.938
		c0.217-0.578,0.859-0.871,1.438-0.655C44.551,29.022,44.846,29.664,44.631,30.242z"/>
	<path class="c4-fill" fill-rule="evenodd" clip-rule="evenodd" d="M45.979,53.39c-5.195,0-9.408,4.212-9.408,9.409c0,5.196,4.213,9.409,9.408,9.409
		c5.197,0,9.41-4.212,9.41-9.409C55.389,57.602,51.176,53.39,45.979,53.39z M45.502,57.061c1.67-0.264,3.234,0.876,3.496,2.544
		c0.264,1.669-0.877,3.234-2.545,3.496c-1.668,0.263-3.232-0.876-3.496-2.545C42.697,58.888,43.836,57.323,45.502,57.061z
		 M51.623,64.582c-0.58,1.551-1.732,2.72-3.129,3.357c-0.771,0.353-1.617,0.535-2.479,0.537c-0.105,0.002-0.213,0-0.318-0.002
		c-0.016-0.001-0.031-0.002-0.049-0.004c-0.705-0.029-1.4-0.176-2.045-0.445c-1.418-0.588-2.611-1.715-3.246-3.244
		c-0.357-0.866,0.053-1.86,0.92-2.219c0.865-0.358,1.857,0.053,2.219,0.919c0.273,0.661,1.451,1.392,1.451,1.378
		c0.049,0.021,0.73,0.216,1.018,0.221c0.309-0.008,1.023-0.238,1.072-0.261c0,0.016,1.152-0.755,1.402-1.426
		c0.328-0.879,1.305-1.325,2.184-0.997C51.502,62.725,51.949,63.702,51.623,64.582z"/>
</g>
</svg>
