<?xml version="1.0" encoding="utf-8"?>
<!-- Generator: Adobe Illustrator 18.1.1, SVG Export Plug-In . SVG Version: 6.00 Build 0)  -->
<!DOCTYPE svg PUBLIC "-//W3C//DTD SVG 1.1//EN" "http://www.w3.org/Graphics/SVG/1.1/DTD/svg11.dtd">
<svg version="1.1" id="Layer_2" xmlns="http://www.w3.org/2000/svg" xmlns:xlink="http://www.w3.org/1999/xlink" x="0px" y="0px"
	 viewBox="0 0 2000 2000" enable-background="new 0 0 2000 2000" xml:space="preserve">
<g>
	<path fill="#808080" d="M848,1153c-10-10-10-28,0-40l262-262c10-10,28-10,40,0c10,10,10,28,0,40l-264,262
		C876,1163,858,1163,848,1153z"/>
	<g>
		<path fill="#808080" d="M992,945l-98-98c-10-10-28-10-40,0c-10,10-10,28,0,40l98,98L992,945z"/>
		<path fill="#808080" d="M1154,1107l-100-100l-40,40l100,100c10,10,28,10,40,0S1166,1119,1154,1107z"/>
	</g>
	<g>
		<path d="M1246,911l-158-158c-16-16-16-42,0-56c16-16,42-16,56,0l158,158c16,16,16,42,0,56C1286,925,1262,925,1246,911z"/>
		<path d="M1312,843l-158-158c-16-16-16-42,0-56c16-16,42-16,56,0l158,158c16,16,16,42,0,56C1354,859,1328,859,1312,843z"/>
	</g>
	<g>
		<path d="M782,1377l-158-158c-16-16-16-42,0-56c16-16,42-16,56,0l158,158c16,16,16,42,0,56C822,1393,796,1393,782,1377z"/>
		<path d="M848,1309l-158-158c-16-16-16-42,0-56c16-16,42-16,56,0l158,158c16,16,16,42,0,56C890,1325,864,1325,848,1309z"/>
	</g>
	<g>
		<path d="M910,745L752,903c-16,16-42,16-56,0c-16-16-16-40-2-56l158-158c16-16,42-16,56,0C926,705,926,731,910,745z"/>
		<path d="M842,679L684,837c-16,16-42,16-56,0c-16-16-16-42,0-56l158-158c16-16,42-16,56,0C858,637,858,663,842,679z"/>
	</g>
	<g>
		<path d="M1376,1209l-158,158c-16,16-42,16-56,0c-16-16-16-42,0-56l158-158c16-16,42-16,56,0C1392,1169,1392,1195,1376,1209z"/>
		<path d="M1310,1143l-158,158c-16,16-42,16-56,0c-16-16-16-42,0-56l158-158c16-16,42-16,56,0C1324,1101,1324,1127,1310,1143z"/>
	</g>
</g>
<g display="none">
	<path display="inline" d="M1000.3,97.9c61.2,0,122.3,6.2,181.6,18.3c57.8,11.8,114.6,29.5,168.9,52.4
		c53.3,22.6,104.8,50.5,152.9,83c47.7,32.2,92.6,69.2,133.3,110c40.8,40.8,77.8,85.6,110,133.3c32.5,48.1,60.4,99.6,83,152.9
		c23,54.3,40.6,111.1,52.4,168.9c12.1,59.3,18.3,120.4,18.3,181.6s-6.2,122.3-18.3,181.6c-11.8,57.8-29.5,114.6-52.4,168.9
		c-22.6,53.3-50.5,104.8-83,152.9c-32.2,47.7-69.2,92.6-110,133.3c-40.8,40.8-85.6,77.8-133.3,110c-48.1,32.5-99.6,60.4-152.9,83
		c-54.3,23-111.1,40.6-168.9,52.4c-59.3,12.1-120.4,18.3-181.6,18.3s-122.3-6.2-181.6-18.3c-57.8-11.8-114.6-29.5-168.9-52.4
		c-53.3-22.6-104.8-50.5-152.9-83c-47.7-32.2-92.6-69.2-133.3-110c-40.8-40.8-77.8-85.6-110-133.3c-32.5-48.1-60.4-99.6-83-152.9
		c-23-54.3-40.6-111.1-52.4-168.9c-12.1-59.3-18.3-120.4-18.3-181.6s6.2-122.3,18.3-181.6c11.8-57.8,29.5-114.6,52.4-168.9
		c22.6-53.3,50.5-104.8,83-152.9c32.2-47.7,69.2-92.6,110-133.3c40.8-40.8,85.6-77.8,133.3-110c48.1-32.5,99.6-60.4,152.9-83
		c54.3-23,111.1-40.6,168.9-52.4C878,104.1,939.1,97.9,1000.3,97.9 M1000.3-2.1C447.7-2.1-0.3,445.8-0.3,998.4
		S447.7,1999,1000.3,1999s1000.6-448,1000.6-1000.6S1552.9-2.1,1000.3-2.1L1000.3-2.1z"/>
</g>
</svg>
