<?xml version="1.0" encoding="utf-8"?>
<!-- Generator: Adobe Illustrator 17.0.2, SVG Export Plug-In . SVG Version: 6.00 Build 0)  -->
<!DOCTYPE svg PUBLIC "-//W3C//DTD SVG 1.1//EN" "http://www.w3.org/Graphics/SVG/1.1/DTD/svg11.dtd">
<svg version="1.1" id="Phisical_Activity" xmlns="http://www.w3.org/2000/svg" xmlns:xlink="http://www.w3.org/1999/xlink" x="0px"
	 y="0px" width="100px" height="100px" viewBox="0 0 100 100" enable-background="new 0 0 100 100" xml:space="preserve">
<path fill="#9ACC6B" class="c3-fill" d="M573.246,281.854h-13.769h-0.006h-0.001c-1.093,0-1.047-0.876-2.168-5.099l-3.193,10.758
	c-0.081,0.364-0.337,0.745-0.734,0.789c-1.464,0.162-1.065,0.141-5.143-13.539l-1.585,6.216c-0.104,0.479-0.53,0.837-1.038,0.837
	h-7.554c-0.078,0,1.754,2.044,2.443,2.735c9.609,9.608,12.198,12.198,13.517,13.516"/>
<path fill="#9ACC6B" class="c3-fill" d="M557.232,298.063c4.765-4.766,9.41-9.41,14.128-14.128"/>
<path fill="#75AF4F" class="c3-fill" d="M575.643,275.334c0-6.862-5.285-12.445-11.783-12.445c-2.86,0-5.592,1.111-7.707,3.038
	c-0.306,0.278-0.76,0.278-1.065,0c-2.114-1.927-4.846-3.038-7.706-3.038c-6.497,0-11.783,5.583-11.783,12.445
	c0,2.207,0.444,3.952,1.071,5.355h8.78c2.127-8.335,1.63-9.082,2.964-8.856c0.831,0.212,0.416,0.278,4.656,14.5
	c3.361-11.322,3.233-12.592,4.593-12.484c0.393,0.117,0.667,0.44,0.74,0.817l1.547,6.061h14.53"/>
<path fill="none" stroke="#FFFFFF" stroke-width="0.75" stroke-linecap="round" stroke-miterlimit="10" d="M572.986,275.012
	c0-4.945-3.81-8.969-8.491-8.969"/>
<path fill="#808080" class="c3-fill" d="M53.856,47.854h-0.006H53.85c-1.093,0-1.047-0.876-2.168-5.099l-3.193,10.758
	c-0.081,0.364-0.337,0.745-0.734,0.789c-1.464,0.162-1.065,0.141-5.143-13.539l-1.585,6.216c-0.104,0.479-0.53,0.837-1.038,0.837
	h-7.554c-0.078,0,1.754,2.044,2.443,2.735c9.609,9.608,12.198,12.198,13.517,13.516c0.888,0.889,2.328,0.884,3.217-0.004
	c4.765-4.766,9.41-9.41,14.128-14.128c0.712-0.621,1.34-1.322,1.886-2.081H53.856z"/>
<path class="c4-fill" d="M58.239,28.889c-2.86,0-5.592,1.111-7.707,3.038c-0.306,0.278-0.76,0.278-1.065,0c-2.114-1.927-4.846-3.038-7.706-3.038
	c-6.497,0-11.783,5.405-11.783,12.267c0,2.207,0.444,4.177,1.071,5.177h8.78c2.127-8,1.63-8.904,2.964-8.678
	c0.831,0.212,0.416,0.367,4.656,14.589c3.361-11.322,3.233-12.548,4.593-12.439c0.393,0.117,0.667,0.265,0.74,0.642l1.547,5.886
	h14.53c0.755-1,1.163-3.298,1.163-5.196C70.023,34.275,64.737,28.889,58.239,28.889z M67.365,41.387
	c-0.207,0-0.375-0.168-0.375-0.375c0-4.739-3.641-8.594-8.116-8.594c-0.207,0-0.375-0.168-0.375-0.375
	c0-0.207,0.168-0.375,0.375-0.375c4.889,0,8.866,4.191,8.866,9.344C67.74,41.219,67.572,41.387,67.365,41.387z"/>
</svg>
