<?xml version="1.0" encoding="utf-8"?>
<!-- Generator: Adobe Illustrator 17.0.2, SVG Export Plug-In . SVG Version: 6.00 Build 0)  -->
<!DOCTYPE svg PUBLIC "-//W3C//DTD SVG 1.1//EN" "http://www.w3.org/Graphics/SVG/1.1/DTD/svg11.dtd">
<svg version="1.1" id="Layer_2" xmlns="http://www.w3.org/2000/svg" xmlns:xlink="http://www.w3.org/1999/xlink" x="0px" y="0px"
	 width="100px" height="100px" viewBox="0 0 100 100" enable-background="new 0 0 100 100" xml:space="preserve">
<path fill="#808080" class="c3-fill" d="M43.489,36.913c0.671-1.132,1.481-2.191,2.439-3.144c2.956-2.958,6.893-4.591,11.082-4.591
	c0.896,0,1.78,0.078,2.655,0.226c-1.909-1.624-4.371-2.606-7.066-2.606c-4.427,0-8.232,2.645-9.925,6.439
	c-1.701-3.794-5.507-6.439-9.937-6.439c-6.008,0.002-10.878,4.872-10.878,10.88c0,0.366,0,1.095,0,1.095s0.004,10.709,20.677,21.484
	c0,0,3.409-1.633,4.896-2.556c-0.626-0.469-1.223-0.981-1.784-1.547c-1.654-1.648-2.613-3.84-3.385-5.979
	c-0.609-1.689-0.926-3.481-0.922-5.326c0-1.548,0.221-3.055,0.649-4.502C42.352,39.147,42.853,37.995,43.489,36.913z M30.972,30.396
	c-3.057,1.034-5.295,3.537-5.986,6.696l-0.977-0.214c0.767-3.505,3.25-6.282,6.643-7.429c0.851-0.287,1.724-0.46,2.598-0.516
	l0.062,0.998C32.526,29.981,31.739,30.138,30.972,30.396z"/>
<path class="c4-fill" d="M67.159,57.694c1.027-1.142,2.896-3.144,3.815-4.125c3.797-5.912,3.124-13.887-2.044-19.054
	c-2.887-2.888-6.725-4.479-10.808-4.479c-4.085,0-7.921,1.591-10.808,4.479c-2.889,2.886-4.473,6.723-4.473,10.803
	c-0.002,4.085,1.584,7.921,4.473,10.809c2.887,2.886,6.723,4.479,10.808,4.479c3.282,0,6.406-1.031,9.012-2.937L67.159,57.694z
	 M58.123,55.872c-2.819,0-5.474-1.099-7.468-3.092c-1.984-1.99-3.083-4.644-3.083-7.463c0-1.781,0.441-3.502,1.272-5.029
	c0.477-0.883,1.086-1.699,1.811-2.432c0.113-0.107,0.215-0.21,0.322-0.312c1.955-1.795,4.479-2.782,7.146-2.782
	c2.813,0,5.466,1.101,7.461,3.094c0.4,0.4,0.761,0.824,1.085,1.271c2.994,4.128,2.631,9.944-1.082,13.652
	C63.589,54.774,60.94,55.872,58.123,55.872z"/>
<path class="c4-fill" d="M50.434,44.221l-0.591-0.149c0.592-3.159,2.512-5.663,5.134-6.698c0.652-0.258,1.327-0.414,2.007-0.465l0.038,0.705
	c-0.626,0.047-1.247,0.19-1.852,0.428C52.751,38.997,50.98,41.307,50.434,44.221z"/>
<path class="c4-fill" d="M51.827,44.069l-0.3-0.08c0.3-1.702,1.273-3.051,2.604-3.608c0.33-0.139,0.672-0.224,1.017-0.251l0.02,0.38
	c-0.317,0.025-0.632,0.103-0.938,0.231C53.003,41.254,52.105,42.499,51.827,44.069z"/>
<g>
	<line class="c4-fill" x1="67.941" y1="58.488" x2="71.196" y2="55.233"/>
	<rect class="c4-fill" x="69.069" y="54.559" transform="matrix(0.7072 0.7071 -0.7071 0.7072 60.5764 -32.538)" width="1" height="4.604"/>
</g>
<path class="c4-fill" d="M77.871,61.474c0.569,0.569,0.207,1.858-0.812,2.881l0,0c-1.02,1.022-2.309,1.387-2.879,0.819l-4.632-4.62
	c-0.57-0.568-0.207-1.858,0.812-2.881l0,0c1.02-1.021,2.308-1.388,2.879-0.818L77.871,61.474z"/>
</svg>
