<?xml version="1.0" encoding="utf-8"?>
<!-- Generator: Adobe Illustrator 18.1.1, SVG Export Plug-In . SVG Version: 6.00 Build 0)  -->
<!DOCTYPE svg PUBLIC "-//W3C//DTD SVG 1.1//EN" "http://www.w3.org/Graphics/SVG/1.1/DTD/svg11.dtd">
<svg version="1.1" id="Layer_2" xmlns="http://www.w3.org/2000/svg" xmlns:xlink="http://www.w3.org/1999/xlink" x="0px" y="0px"
	 viewBox="0 0 2000 2000" enable-background="new 0 0 2000 2000" xml:space="preserve">
<g>
	<path fill="#808080" d="M1000,1083.6c94.1,0,172.5-31.4,177.7-73.2c-13.9-38.3-29.6-81.9-43.6-123.7c-12.2,27.9-68,50.5-134.2,50.5
		s-122-20.9-132.4-50.5c-15.7,41.8-29.6,85.4-43.6,123.7C827.5,1050.5,905.9,1083.6,1000,1083.6z"/>
	<path fill="#808080" d="M1000,818.8c43.6,0,85.4-13.9,97.6-34.8c-15.7-47-31.4-87.1-40.1-111.5c-5.2-17.4-33.1-26.1-57.5-26.1
		s-52.3,8.7-57.5,26.1c-8.7,24.4-22.7,64.5-40.1,111.5C914.6,806.6,956.4,818.8,1000,818.8z"/>
	<path d="M1345,1122l-148.1-59.2l17.4,47c0,50.5-97.6,90.6-214.3,90.6s-214.3-40.1-214.3-90.6l17.4-47L655,1122
		c-41.8,17.4-43.6,47-3.5,68L928.6,1338c40.1,20.9,102.8,20.9,142.9,0l277.1-148.1C1388.6,1169,1386.8,1137.7,1345,1122z"/>
</g>
<g display="none">
	<path display="inline" d="M1000,98.5c61.2,0,122.4,6.2,181.7,18.3c57.8,11.8,114.7,29.5,169,52.5c53.4,22.6,104.9,50.5,153.1,83.1
		c47.7,32.3,92.6,69.3,133.5,110.1c40.8,40.8,77.9,85.7,110.1,133.5c32.5,48.2,60.5,99.7,83.1,153.1c23,54.3,40.6,111.2,52.5,169
		c12.2,59.4,18.3,120.5,18.3,181.7c0,61.2-6.2,122.4-18.3,181.7c-11.8,57.8-29.5,114.7-52.5,169c-22.6,53.4-50.5,104.9-83.1,153.1
		c-32.3,47.7-69.3,92.6-110.1,133.5c-40.8,40.8-85.7,77.9-133.5,110.1c-48.2,32.5-99.7,60.5-153.1,83.1
		c-54.3,23-111.2,40.6-169,52.5c-59.4,12.2-120.5,18.3-181.7,18.3s-122.4-6.2-181.7-18.3c-57.8-11.8-114.7-29.5-169-52.5
		c-53.4-22.6-104.9-50.5-153.1-83.1c-47.7-32.3-92.6-69.3-133.5-110.1c-40.8-40.8-77.9-85.7-110.1-133.5
		c-32.5-48.2-60.5-99.7-83.1-153.1c-23-54.3-40.6-111.2-52.5-169c-12.2-59.4-18.3-120.5-18.3-181.7c0-61.2,6.2-122.4,18.3-181.7
		c11.8-57.8,29.5-114.7,52.5-169c22.6-53.4,50.5-104.9,83.1-153.1c32.3-47.7,69.3-92.6,110.1-133.5s85.7-77.9,133.5-110.1
		c48.2-32.5,99.7-60.5,153.1-83.1c54.3-23,111.2-40.6,169-52.5C877.6,104.7,938.8,98.5,1000,98.5 M1000-1.6
		C446.9-1.6-1.4,446.7-1.4,999.8S446.9,2001.2,1000,2001.2s1001.4-448.3,1001.4-1001.4S1553.1-1.6,1000-1.6L1000-1.6z"/>
</g>
</svg>
