<?xml version="1.0" encoding="utf-8"?>
<!-- Generator: Adobe Illustrator 17.0.2, SVG Export Plug-In . SVG Version: 6.00 Build 0)  -->
<!DOCTYPE svg PUBLIC "-//W3C//DTD SVG 1.1//EN" "http://www.w3.org/Graphics/SVG/1.1/DTD/svg11.dtd">
<svg version="1.1" id="Layer_2" xmlns="http://www.w3.org/2000/svg" xmlns:xlink="http://www.w3.org/1999/xlink" x="0px" y="0px"
	 width="100px" height="100px" viewBox="0 0 100 100" enable-background="new 0 0 100 100" xml:space="preserve">
<path class="c4-fill" d="M30.334,45.641L44.88,31.096c2.753-2.753,6.413-4.269,10.306-4.269c3.893,0,7.553,1.516,10.306,4.269
	c2.753,2.753,4.27,6.412,4.27,10.306c0,3.894-1.517,7.554-4.27,10.307c-5.955,3.2-10.059,7.306-13.262,13.261L30.334,45.641z"/>
<path fill="#FFFFFF" d="M65.742,30.845c-2.82-2.819-6.568-4.372-10.557-4.372c-3.987,0-7.737,1.553-10.557,4.373L30.52,44.955
	l0.528,0.474c0.697-0.698,3.074-3.073,4.027-4.027L45.13,31.346c2.777-2.776,6.416-4.164,10.056-4.164
	c3.639,0,7.279,1.389,10.055,4.164c5.555,5.554,5.555,14.559,0,20.111c-5.956,3.062-9.936,7.041-12.997,12.998l0.516,0.486
	c3.056-5.714,7.271-9.928,12.983-12.983c2.819-2.819,4.373-6.569,4.372-10.557C70.114,37.414,68.561,33.665,65.742,30.845"/>
<path fill="#6AC4EE" class="c3-fill" d="M52.453,31.469c-5.683-5.683-14.929-5.683-20.611,0s-5.683,14.93,0,20.612
	c5.858,2.79,10.472,7.403,13.261,13.262l5.22-4.606c0.476,0.472,1.434,1.42,1.347,1.334c1.418,1.418,3.722,1.414,5.144-0.009
	c1.423-1.423,1.427-3.726,0.008-5.143c1.419,1.417,3.72,1.413,5.143-0.009c1.423-1.423,1.428-3.725,0.01-5.142l-0.698-0.699
	l0.698,0.699c1.418,1.417,3.721,1.413,5.143-0.009c1.423-1.423,1.426-3.726,0.009-5.144l-0.378-0.377l0.252-0.224L52.453,31.469z"/>
<path fill="#FFFFFF" d="M66.346,44.828l-3.587-3.555L52.704,31.219c-2.819-2.819-6.568-4.372-10.557-4.372
	c-3.988-0.001-7.736,1.553-10.557,4.372l0,0c-2.818,2.819-4.372,6.568-4.372,10.557c0,3.986,1.553,7.736,4.372,10.557
	c5.83,2.326,11.17,7.666,13.497,13.496l0.499-0.44l4.984-4.399l-0.427-0.428h0.001l1.523,1.51c0.374,0.371,0.762,0.643,1.423,0.922
	c1.422,0.525,3.085,0.218,4.228-0.924c0.757-0.758,1.174-1.762,1.176-2.83c0.001-0.484-0.085-0.956-0.248-1.396
	c1.421,0.523,3.083,0.216,4.225-0.926c1.141-1.143,1.449-2.804,0.925-4.225c0.441,0.164,0.912,0.25,1.396,0.248
	c1.068-0.001,2.073-0.42,2.829-1.175l0,0c0.758-0.757,1.175-1.762,1.177-2.83c0.001-1.067-0.413-2.072-1.166-2.827l-0.625-0.623
	l-0.659-0.66L66.346,44.828z"/>
<path fill="#808080" class="c3-fill" d="M67.118,46.621c0.617,0.617,0.956,1.438,0.954,2.312c-0.002,0.875-0.344,1.697-0.963,2.317l0,0
	c-0.619,0.619-1.443,0.962-2.317,0.964c-0.874,0-1.695-0.338-2.312-0.955l-1.284-1.283l-0.365-0.357l-8.222-8.222
	c-0.334-0.329-0.842,0.18-0.514,0.514l8.212,8.212h-0.002l1.662,1.65c1.272,1.274,1.269,3.35-0.011,4.629
	c-1.278,1.279-3.355,1.283-4.629,0.01l-1.604-1.606l-0.005,0.007l-8.264-8.263c-0.306-0.271-0.783,0.207-0.513,0.514l8.35,8.35
	l0.006-0.006l1.517,1.517c0.616,0.617,0.956,1.438,0.954,2.312c-0.002,0.875-0.344,1.697-0.963,2.317
	c-1.28,1.278-3.355,1.283-4.63,0.008l-1.628-1.625l-8.24-8.24l-0.514,0.514l8.275,8.275l-4.953,4.37
	c-2.257-5.884-7.141-10.769-13.025-13.026c-5.554-5.553-5.554-14.558,0-20.111c5.554-5.553,14.557-5.553,20.111,0.001l10.055,10.056
	c1.124,1.123,4.229,4.215,4.229,4.215L67.118,46.621z"/>
<path class="c4-fill" d="M35.738,45.395c-1.423-1.424-3.725-1.428-5.143-0.01l-1.283,1.283c-1.417,1.418-1.414,3.721,0.009,5.143
	c1.423,1.423,3.726,1.427,5.143,0.01l1.283-1.283C37.164,49.119,37.161,46.816,35.738,45.395 M52.477,59.565
	c-1.422-1.423-3.725-1.427-5.143-0.009l0.642-0.643c1.418-1.416,1.414-3.719-0.009-5.143c-1.422-1.422-3.726-1.426-5.143-0.008
	l-1.284,1.283c1.418-1.418,1.414-3.721-0.009-5.143c-1.422-1.424-3.724-1.428-5.143-0.01l-1.925,1.926
	c-1.417,1.417-1.413,3.72,0.01,5.143c1.422,1.422,3.725,1.427,5.143,0.009c-1.418,1.418-1.414,3.72,0.009,5.143
	c1.423,1.423,3.725,1.427,5.143,0.009c-1.418,1.418-1.413,3.721,0.009,5.143c1.422,1.423,3.725,1.426,5.143,0.009l2.567-2.566
	C53.903,63.291,53.9,60.988,52.477,59.565"/>
<path fill="#FFFFFF" d="M52.734,59.309L52.734,59.309c-0.757-0.756-1.762-1.174-2.829-1.176c-0.338,0-0.669,0.041-0.988,0.121
	c0.82-1.516,0.59-3.455-0.693-4.738l0,0c-0.756-0.756-1.76-1.174-2.828-1.176c-0.921-0.002-1.793,0.307-2.499,0.873
	c0.231-1.252-0.139-2.597-1.107-3.566c-1.282-1.281-3.222-1.514-4.738-0.692c0.081-0.319,0.122-0.65,0.121-0.987
	c-0.002-1.068-0.419-2.073-1.176-2.83c-0.757-0.756-1.762-1.174-2.829-1.176c-1.068-0.001-2.072,0.413-2.826,1.167l-1.283,1.284
	c-0.755,0.754-1.17,1.758-1.168,2.826c0.002,1.068,0.42,2.072,1.177,2.83l0,0c0.756,0.756,1.76,1.174,2.828,1.176
	c0.485,0,0.956-0.086,1.397-0.249c-0.523,1.42-0.216,3.082,0.925,4.224c1.143,1.143,2.804,1.45,4.225,0.926
	c-0.163,0.441-0.25,0.912-0.249,1.397c0.004,1.067,0.42,2.073,1.177,2.829c1.142,1.143,2.806,1.449,4.228,0.924
	c-0.526,1.421-0.218,3.085,0.924,4.227l0,0c0.757,0.758,1.762,1.176,2.83,1.177c1.067,0.001,2.072-0.412,2.825-1.167l2.568-2.566
	C54.299,63.408,54.295,60.871,52.734,59.309 M31.896,52.518c-0.876-0.002-1.697-0.344-2.317-0.963l0,0
	c-0.62-0.62-0.962-1.443-0.963-2.318c-0.002-0.873,0.338-1.695,0.953-2.312l1.284-1.282c0.616-0.616,1.438-0.956,2.312-0.954
	c0.875,0.002,1.698,0.344,2.317,0.963c0.62,0.619,0.961,1.443,0.964,2.318c0.001,0.873-0.338,1.694-0.955,2.311l-1.283,1.284
	C33.591,52.18,32.77,52.52,31.896,52.518 M34.731,56.705c-1.279-1.278-1.283-3.355-0.01-4.629l1.925-1.925
	c1.273-1.273,3.351-1.269,4.63,0.009c1.278,1.279,1.282,3.356,0.008,4.63l-1.924,1.925C38.086,57.988,36.01,57.984,34.731,56.705
	 M39.881,61.857c-0.619-0.619-0.961-1.442-0.963-2.316c-0.002-0.875,0.338-1.695,0.954-2.312l3.209-3.209
	c0.617-0.617,1.438-0.955,2.312-0.953c0.875,0.001,1.697,0.342,2.317,0.963c1.278,1.279,1.283,3.355,0.01,4.629l-3.209,3.209
	C43.237,63.141,41.16,63.137,39.881,61.857 M49.663,67.018c-0.618,0.617-1.439,0.957-2.314,0.955
	c-0.874-0.002-1.696-0.344-2.316-0.964l0,0c-1.279-1.278-1.283-3.355-0.009-4.629l2.566-2.567c0.616-0.615,1.438-0.955,2.312-0.953
	c0.875,0.001,1.698,0.343,2.317,0.963l0,0c1.278,1.279,1.283,3.355,0.01,4.629L49.663,67.018z"/>
<path class="c4-fill" d="M65.24,31.346c-5.553-5.553-14.556-5.553-20.11,0l-7.075,7.076c-0.526,0.586-0.814,1.335-0.814,2.128
	c0,0.851,0.332,1.652,0.934,2.255c1.243,1.242,3.266,1.242,4.51,0l7.167-7.167l-0.002-0.001l0,0c1.52-1.52,5.526-1.637,7.047-0.119
	C57.056,35.672,65.24,31.346,65.24,31.346"/>
<path fill="#FFFFFF" d="M56.896,35.4c-1.521-1.52-5.527-1.283-7.047,0.236l0,0l0.002,0.001l-7.167,7.167
	c-1.244,1.242-3.267,1.242-4.51,0c-0.602-0.603-0.934-1.403-0.934-2.255c0-0.853,0.332-1.652,0.934-2.254l7.202-7.202l-0.501-0.502
	l-7.202,7.203c-0.735,0.735-1.141,1.715-1.141,2.755c0,1.041,0.405,2.02,1.141,2.756c1.519,1.519,3.992,1.519,5.512-0.001
	l7.201-7.201h-0.001c1.247-1.209,4.764-1.438,5.995-0.207c0.298,0.311,0.763-0.01,0.674-0.328
	C57.054,35.568,56.956,35.458,56.896,35.4"/>
</svg>
