<?xml version="1.0" encoding="utf-8"?>
<!-- Generator: Adobe Illustrator 17.0.2, SVG Export Plug-In . SVG Version: 6.00 Build 0)  -->
<!DOCTYPE svg PUBLIC "-//W3C//DTD SVG 1.1//EN" "http://www.w3.org/Graphics/SVG/1.1/DTD/svg11.dtd">
<svg version="1.1" id="Layer_2" xmlns="http://www.w3.org/2000/svg" xmlns:xlink="http://www.w3.org/1999/xlink" x="0px" y="0px"
	 width="100px" height="100px" viewBox="0 0 100 100" enable-background="new 0 0 100 100" xml:space="preserve">
<path class="c4-fill" d="M57.216,54.358c-0.052,0-0.104,0.005-0.158,0.013l-5.248,0.801c-0.055,0.008-0.107,0.012-0.158,0.012
	c-0.764,0-1.262-0.87-0.814-1.54l1.919-4.042c-1.659,0.867-3.493,1.327-5.362,1.327c-0.544,0-1.093-0.039-1.638-0.115l-0.447-0.094
	c-0.373-0.104-0.735-0.236-1.086-0.387l-4.528,10.665c-0.061,0.143-0.199,0.229-0.345,0.229c-0.049,0-0.099-0.01-0.146-0.03
	c-0.191-0.08-0.28-0.301-0.199-0.491l4.533-10.676c0.005-0.012,0.015-0.019,0.021-0.03c-0.358-0.194-0.702-0.407-1.027-0.648
	l-5.042,12.381c-0.282,0.667,0.224,1.375,0.905,1.375c0.065,0,0.131-0.006,0.199-0.021l9.098-1.808
	c0.068-0.013,0.134-0.021,0.199-0.021c0.656,0,1.156,0.656,0.93,1.312l-4.01,11.696c-0.254,0.742,0.346,1.316,0.957,1.316
	c0.303,0,0.606-0.139,0.813-0.465l11.46-19.234C58.47,55.208,57.97,54.358,57.216,54.358z"/>
<path fill="#808080" class="c3-fill" d="M68.669,41.66c-1.908,1.541-4.087,2.27-6.34,2.129c-0.136,0.472-0.401,1.115-0.933,1.863
	c-1.08,1.522-2.826,2.928-5.207,4.193c1.427,1.52,3.679,2.123,5.754,1.348c0.705-0.262,1.32-0.656,1.828-1.144
	c0.277-0.071,0.553-0.157,0.828-0.259c3.719-1.385,5.797-5.25,5.053-9.025C69.365,41.057,69.037,41.361,68.669,41.66"/>
<path fill="#808080" class="c3-fill" d="M69.459,33.81c-0.091-0.481-0.229-0.946-0.389-1.41c-0.02-0.057-0.037-0.112-0.059-0.168
	c-0.957-2.568-2.853-4.52-5.168-5.619c-2.549-3.566-7.24-5.188-11.646-3.782c-0.163,0.052-0.326,0.108-0.489,0.167
	c-0.011,0.005-0.022,0.01-0.034,0.014c-2.062-0.838-4.434-0.935-6.686-0.097c-1.688,0.629-3.082,1.701-4.102,3.033
	c-0.93-0.001-1.875,0.161-2.798,0.505c-2.866,1.066-4.757,3.605-5.134,6.441c-2.188,2.143-3.369,5.6-2.434,8.722
	c1.264,4.216,5.613,7.171,11.441,4.216c0.011,0.027,0.022,0.051,0.033,0.078c0.046-2.462,1.444-4.014,2.282-4.725
	c-1.684-2.062-5.635-5.948-8.207-4.526c-1.686,0.931-1.811,2.575-1.215,3.708c0.629,1.195,2.117,1.975,4.023,1.021
	c0.367-0.185,0.814-0.035,0.998,0.332c0.184,0.366,0.035,0.814-0.332,0.998c-2.79,1.398-5.07,0.119-6.006-1.66
	c-0.953-1.809-0.637-4.351,1.81-5.703c0.49-0.271,1.114-0.479,1.879-0.488c-0.103-1.538,0.301-2.844,1.203-3.885
	c1.412-1.625,3.653-2.116,4.711-2.262c0.604-2.322,2.664-3.73,5.51-3.718c1.488,0.009,2.816,0.617,3.789,1.243
	c0.508,0.326,0.918,0.657,1.207,0.909c1.559-1.147,3.815-1.908,5.811-1.368c1.342,0.361,3.073,1.447,3.861,4.529
	c0.744,0.3,2.23,1.07,2.769,2.627c0.39,1.123,0.218,2.429-0.457,3.488c-0.624,0.982-1.958,2.217-4.766,2.516
	c-0.037,0.004-0.073,0.005-0.11,0.003c-0.05-0.002-5.189-0.157-6.816,3.606c-0.092,0.211-0.186,0.408-0.285,0.599
	c-0.575,1.1-1.271,1.808-2.076,2.108c-0.151,0.057-0.305,0.099-0.463,0.125c-1.555,0.272-2.764-0.994-2.814-1.047
	c-0.281-0.3-0.267-0.769,0.032-1.053c0.299-0.279,0.767-0.266,1.049,0.031c0.019,0.019,0.73,0.738,1.483,0.601
	c0.613-0.111,1.203-0.787,1.707-1.955c0.234-0.539,0.533-1.033,0.891-1.482c0.948-1.196,2.319-2.074,4.048-2.574
	c1.572-0.454,2.942-0.455,3.247-0.449c2.183-0.244,3.174-1.126,3.619-1.826c0.434-0.682,0.547-1.508,0.307-2.207
	c-0.453-1.311-2.177-1.824-2.193-1.83c-0.266-0.072-0.469-0.289-0.527-0.559c-0.463-2.139-1.436-3.423-2.892-3.816
	c-1.832-0.496-4.139,0.531-5.307,1.812c-1.404,1.534-0.783,3.347-0.478,4.009c2.638-0.855,4.702,0.352,4.792,0.406
	c0.352,0.211,0.467,0.668,0.256,1.02c-0.21,0.352-0.665,0.467-1.018,0.258c-0.07-0.041-1.703-0.969-3.773-0.196
	c-0.176,0.065-0.339,0.134-0.492,0.207l-0.001,0.001c-1.553,0.732-1.911,1.74-1.942,1.841c-0.051,0.209-0.18,0.377-0.371,0.476
	c-0.191,0.102-0.407,0.104-0.607,0.024c-0.107-0.038-1.584-0.511-3.132,0.878c-1.58,1.415-1.043,3.101-1.02,3.173
	c0.119,0.337-0.015,0.701-0.322,0.88c-0.088,0.055-2.229,1.393-2.172,4.133c0.024,1.158,0.686,2.442,1.898,3.135
	c1.383,0.561,2.971,0.629,4.481,0.064c0.553-0.205,1.057-0.482,1.509-0.814c0.839,0.34,1.766,0.468,2.694,0.346
	c1.125-0.081,2.647-0.94,3.061-1.209c1.562-1.019,2.423-2.019,2.952-2.728c0.825-1.102,0.894-1.867,0.899-1.951
	c-0.012-0.221,0.075-0.418,0.238-0.568c0.164-0.152,0.391-0.206,0.61-0.173c2.101,0.299,4.075-0.276,5.872-1.711
	c0.824-0.659,1.445-1.481,1.691-2.519c0.107-0.455,0.18-0.914,0.219-1.381c0.039-0.469,0.055-0.942,0.028-1.412
	C69.609,34.748,69.547,34.275,69.459,33.81"/>
<path class="c4-fill" d="M48.644,26.492c-2.312-0.012-3.863,1.117-4.146,3.022c-0.051,0.353-0.347,0.618-0.701,0.634
	c-0.027,0.002-2.812,0.156-4.246,1.814c-0.674,0.777-0.942,1.753-0.824,2.979c0.004,0.047,0.004,0.094,0,0.139
	c1.04,0.299,2.262,0.94,3.675,2.109c0.825,0.684,1.554,1.41,2.122,2.025c0.191-0.756,0.618-1.592,1.48-2.365
	c1.547-1.387,3.101-1.441,3.963-1.322c0.303-0.521,0.885-1.26,1.955-1.877c-0.59-1.271-1.01-3.566,0.621-5.48
	C51.807,27.549,50.317,26.499,48.644,26.492"/>
</svg>
