<?xml version="1.0" encoding="utf-8"?>
<!-- Generator: Adobe Illustrator 17.0.2, SVG Export Plug-In . SVG Version: 6.00 Build 0)  -->
<!DOCTYPE svg PUBLIC "-//W3C//DTD SVG 1.1//EN" "http://www.w3.org/Graphics/SVG/1.1/DTD/svg11.dtd">
<svg version="1.1" id="Layer_2" xmlns="http://www.w3.org/2000/svg" xmlns:xlink="http://www.w3.org/1999/xlink" x="0px" y="0px"
	 width="100px" height="100px" viewBox="0 0 100 100" enable-background="new 0 0 100 100" xml:space="preserve">
<g>
	<path fill="#808080" class="c3-fill" d="M57.94,32.964v-0.936c0-1.06-0.862-1.922-1.921-1.922h-3.152c0.263-0.474,0.41-1.062,0.41-1.658
		c0-1.964-1.599-3.565-3.561-3.565c-1.962,0-3.559,1.602-3.559,3.565c0,0.596,0.149,1.185,0.41,1.658h-2.586
		c-1.06,0-1.921,0.861-1.921,1.922v0.936h-4.284c-1.611,0-2.914,1.305-2.914,2.914v28.73c0,1.608,1.303,2.914,2.914,2.914h24.445
		c1.607,0,2.915-1.306,2.915-2.914v-28.73c0-1.609-1.308-2.914-2.915-2.914H57.94z M47.595,28.449c0-1.17,0.951-2.125,2.119-2.125
		c1.171,0,2.121,0.955,2.121,2.125c0,0.67-0.311,1.244-0.801,1.66h-2.641C47.908,29.692,47.595,29.119,47.595,28.449 M62.222,62.874
		c0,0.989-0.803,1.791-1.791,1.791H39.57c-0.992,0-1.793-0.802-1.793-1.791V37.67c0-0.99,0.801-1.792,1.793-1.792h2.488
		c0,0.789,0.639,1.428,1.428,1.428h13.025c0.79,0,1.428-0.639,1.428-1.428h2.49c0.988,0,1.793,0.803,1.793,1.792V62.874z"/>
	<path class="c4-fill" d="M43.149,40.931c0.782,0,1.418,0.635,1.418,1.418s-0.636,1.418-1.418,1.418c-0.782,0-1.417-0.635-1.417-1.418
		S42.367,40.931,43.149,40.931"/>
	<path class="c4-fill" d="M43.149,48.113c0.782,0,1.418,0.635,1.418,1.418s-0.636,1.418-1.418,1.418c-0.782,0-1.417-0.635-1.417-1.418
		S42.367,48.113,43.149,48.113"/>
	<path class="c4-fill" d="M43.149,55.79c0.782,0,1.418,0.634,1.418,1.417c0,0.782-0.636,1.418-1.418,1.418c-0.782,0-1.417-0.636-1.417-1.418
		C41.732,56.424,42.367,55.79,43.149,55.79"/>
	<path class="c4-fill" d="M58.697,42.678H47.59c-0.138,0-0.25-0.112-0.25-0.25s0.112-0.25,0.25-0.25h11.107c0.138,0,0.25,0.112,0.25,0.25
		S58.835,42.678,58.697,42.678z"/>
	<path class="c4-fill" d="M58.697,49.796H47.59c-0.138,0-0.25-0.112-0.25-0.25s0.112-0.25,0.25-0.25h11.107c0.138,0,0.25,0.112,0.25,0.25
		S58.835,49.796,58.697,49.796z"/>
	<path class="c4-fill" d="M58.697,57.433H47.59c-0.138,0-0.25-0.112-0.25-0.25s0.112-0.25,0.25-0.25h11.107c0.138,0,0.25,0.112,0.25,0.25
		S58.835,57.433,58.697,57.433z"/>
</g>
</svg>
