<?xml version="1.0" encoding="utf-8"?>
<!-- Generator: Adobe Illustrator 17.0.2, SVG Export Plug-In . SVG Version: 6.00 Build 0)  -->
<!DOCTYPE svg PUBLIC "-//W3C//DTD SVG 1.1//EN" "http://www.w3.org/Graphics/SVG/1.1/DTD/svg11.dtd">
<svg version="1.1" id="Layer_2" xmlns="http://www.w3.org/2000/svg" xmlns:xlink="http://www.w3.org/1999/xlink" x="0px" y="0px"
	 width="100px" height="100px" viewBox="0 0 100 100" enable-background="new 0 0 100 100" xml:space="preserve">
<g>
	<g>
		<path class="c4-fill" fill-rule="evenodd" clip-rule="evenodd" d="M45.39,38.105c1.159,1.41,0.957,3.492-0.455,4.652
			c-1.409,1.159-3.444,0.338-4.602-1.072c-2.046-2.488-2.939-4.954-2.648-7.926c0.289-2.972,1.713-5.833,4.202-7.879
			c0.518-0.426,1.062-0.801,1.627-1.123c-0.197,2.448,0.943,4.706,2.818,6.039c-0.084,0.061-0.166,0.124-0.248,0.192
			c-1.077,0.886-1.694,2.125-1.82,3.415C44.139,35.691,44.503,37.027,45.39,38.105L45.39,38.105z"/>
		<circle class="c4-fill" fill-rule="evenodd" clip-rule="evenodd" cx="50.233" cy="25.296" r="5.951"/>
		<path class="c4-fill" fill-rule="evenodd" clip-rule="evenodd" d="M57.18,26.051c0.491,0.425,0.953,0.897,1.38,1.416
			c2.046,2.489,2.889,5.572,2.6,8.543c-0.29,2.972-1.752,5.249-4.242,7.297c-1.409,1.159-3.455,1.538-4.614,0.128
			c-1.159-1.41-0.956-3.493,0.454-4.652c1.079-0.887,1.696-2.127,1.821-3.415c0.126-1.287-0.24-2.623-1.127-3.702
			c-0.065-0.082-0.134-0.16-0.206-0.236C55.344,30.485,56.9,28.491,57.18,26.051z"/>
	</g>
	<g>
		<path class="c4-fill" fill-rule="evenodd" clip-rule="evenodd" d="M54.297,55.166c-1.207-1.37-1.075-3.459,0.296-4.665
			c1.369-1.207,3.459-1.074,4.666,0.295c2.128,2.418,3.076,5.471,2.889,8.451c-0.19,2.979-1.515,5.887-3.933,8.017
			c-0.504,0.444-1.036,0.837-1.589,1.178c0.115-2.454-1.103-4.671-3.022-5.938c0.081-0.064,0.162-0.131,0.242-0.2
			c1.046-0.924,1.62-2.185,1.703-3.476C55.63,57.536,55.22,56.213,54.297,55.166L54.297,55.166z M43.172,67.589
			c-0.505-0.409-0.981-0.865-1.426-1.37c-2.129-2.418-3.077-5.469-2.889-8.448c0.19-2.98,1.515-5.889,3.934-8.019
			c1.369-1.206,3.458-1.073,4.664,0.296c1.207,1.369,1.075,3.459-0.295,4.666c-1.047,0.922-1.622,2.182-1.703,3.475
			c-0.082,1.29,0.328,2.614,1.251,3.661c0.069,0.079,0.14,0.155,0.214,0.229C44.857,63.095,43.37,65.141,43.172,67.589z"/>
		<circle class="c4-fill" fill-rule="evenodd" clip-rule="evenodd" cx="49.892" cy="67.902" r="5.95"/>
		<path class="c4-fill" fill-rule="evenodd" clip-rule="evenodd" d="M43.172,67.361c-0.505-0.409-0.981-0.865-1.426-1.37
			c-2.129-2.418-3.077-5.469-2.889-8.448c0.19-2.981,1.557-5.227,3.975-7.357c1.369-1.206,3.416-1.735,4.622-0.366
			c1.207,1.369,1.075,3.459-0.295,4.666c-1.047,0.922-1.622,2.182-1.703,3.475c-0.082,1.29,0.328,2.614,1.251,3.661
			c0.069,0.079,0.14,0.155,0.214,0.229C44.857,62.867,43.37,64.912,43.172,67.361z"/>
	</g>
	<g>
		<circle class="c3-fill" fill-rule="evenodd" clip-rule="evenodd" fill="#808080" cx="28.84" cy="48.515" r="5.95"/>
		<path class="c3-fill" fill-rule="evenodd" clip-rule="evenodd" fill="#808080" d="M42.454,49.992c1.074-1.477,3.142-1.801,4.617-0.726
			c1.477,1.074,1.802,3.142,0.728,4.618c-1.896,2.604-4.668,4.194-7.619,4.658c-2.95,0.464-6.076-0.197-8.682-2.094
			c-0.543-0.396-1.04-0.829-1.494-1.293c2.42-0.424,4.319-2.094,5.139-4.243c0.08,0.065,0.163,0.13,0.247,0.191
			c1.127,0.821,2.483,1.107,3.763,0.907C40.43,51.81,41.632,51.12,42.454,49.992L42.454,49.992z M27.907,41.838
			c2.434-0.341,4.754,0.665,6.194,2.46c0.057-0.088,0.113-0.174,0.177-0.259c0.821-1.128,2.023-1.817,3.301-2.019
			c1.279-0.201,2.635,0.086,3.763,0.906c1.478,1.075,3.544,0.75,4.618-0.726c1.075-1.476,0.749-3.544-0.727-4.618
			c-2.605-1.896-5.731-2.559-8.683-2.094c-2.947,0.465-5.721,2.054-7.618,4.659C28.538,40.691,28.197,41.257,27.907,41.838z"/>
	</g>
	<g>
		<circle class="c3-fill" fill-rule="evenodd" clip-rule="evenodd" fill="#808080" cx="71.16" cy="44.692" r="5.95"/>
		<path class="c3-fill" fill-rule="evenodd" clip-rule="evenodd" fill="#808080" d="M57.538,43.283c-1.066,1.481-3.131,1.816-4.612,0.75
			c-1.482-1.067-1.818-3.133-0.751-4.615c1.884-2.613,4.648-4.217,7.597-4.695c2.946-0.48,6.077,0.166,8.691,2.049
			c0.544,0.394,1.046,0.822,1.501,1.287c-2.418,0.434-4.309,2.113-5.117,4.268c-0.081-0.065-0.162-0.129-0.248-0.19
			c-1.134-0.816-2.49-1.096-3.768-0.889C59.553,41.454,58.356,42.15,57.538,43.283L57.538,43.283z M72.124,51.363
			c-2.43,0.354-4.755-0.641-6.204-2.429c-0.058,0.088-0.114,0.175-0.176,0.261c-0.816,1.131-2.014,1.828-3.292,2.035
			c-1.277,0.207-2.634-0.072-3.765-0.889c-1.482-1.068-3.549-0.731-4.616,0.75c-1.068,1.48-0.731,3.547,0.75,4.613
			c2.614,1.885,5.745,2.531,8.691,2.051c2.947-0.479,5.712-2.082,7.597-4.695C71.501,52.514,71.84,51.947,72.124,51.363z"/>
	</g>
</g>
</svg>
