<?xml version="1.0" encoding="utf-8"?>
<!-- Generator: Adobe Illustrator 17.0.2, SVG Export Plug-In . SVG Version: 6.00 Build 0)  -->
<!DOCTYPE svg PUBLIC "-//W3C//DTD SVG 1.1//EN" "http://www.w3.org/Graphics/SVG/1.1/DTD/svg11.dtd">
<svg version="1.1" id="Layer_2" xmlns="http://www.w3.org/2000/svg" xmlns:xlink="http://www.w3.org/1999/xlink" x="0px" y="0px"
	 width="100px" height="100px" viewBox="0 0 100 100" enable-background="new 0 0 100 100" xml:space="preserve">
<g>
	<path class="c4-fill" d="M59.914,37.873c-0.64,0.207-1.324,0.33-2.049,0.33h-7.469c-1.72,0-3.398-0.641-4.811-1.678
		c-4.17,0.801-7.097,2.721-7.381,5.25c-0.375,3.365,4.058,6.707,10.335,8.139c1.016,0.23,2.075,0.418,3.177,0.539
		c1.087,0.123,2.152,0.182,3.181,0.182c2.15,0,4.14-0.26,5.859-0.721c3.449-0.928,5.8-2.691,6.052-4.941
		C67.11,42.264,64.296,39.569,59.914,37.873z M55.181,49.542c-1.501,0-2.593-0.151-2.711-0.168l0.072-0.495
		c0.076,0.011,7.665,1.06,10.823-2.529l0.375,0.33C61.623,49.085,57.785,49.542,55.181,49.542z"/>
	<path fill="#808080" class="c3-fill" d="M61.141,51.084h-0.363c-1.743,0.443-3.725,0.689-5.881,0.689c-1.086,0-2.202-0.096-3.311-0.219
		c-0.994-0.111-1.955-0.273-2.884-0.471h-2.485c-4.711,0-8.529,3.885-8.529,8.781c0,4.589,3.355,8.292,7.655,8.737
		c0.286,0.027,0.579,0.045,0.874,0.045h14.925c0.295,0,0.585-0.018,0.873-0.045c4.3-0.445,7.654-4.146,7.654-8.737
		C69.668,54.969,65.849,51.084,61.141,51.084z M65.904,63.773c-2.355,2.138-7.821,2.586-11.993,2.586
		c-2.862,0-5.114-0.211-5.335-0.232l0.048-0.498c0.132,0.014,13.137,1.229,16.945-2.226c0.681-0.618,1.012-1.328,1.012-2.171h0.5
		C67.08,62.21,66.685,63.065,65.904,63.773z"/>
	<path fill="#808080" class="c3-fill" d="M57.865,22.983h-7.469c-3.758,0-7.39,2.461-7.39,6.217v0.447c0,2.041,1.077,4.041,2.66,5.445
		c0.277,0.246,0.568,0.475,0.873,0.68c0.272,0.184,0.552,0.346,0.84,0.492c0.946,0.482,1.975,0.77,3.017,0.77h6.893h0.575
		c0.389,0,0.761-0.049,1.12-0.121c0.375-0.078,0.732-0.193,1.073-0.342c2.49-1.086,4.024-3.963,4.024-6.926V29.2
		C64.083,25.444,61.623,22.983,57.865,22.983z M57.429,35.84c-0.204,0-0.417-0.007-0.64-0.023l0.036-0.499
		c4.289,0.313,4.677-2.653,4.692-2.779l0.496,0.057C62.01,32.629,61.598,35.84,57.429,35.84z"/>
	<g>
		<path class="c4-fill" d="M30.163,45.918c-3.373-1.925-6.487-2.054-7.295-2.052l13.628,8.04l-0.042,0.072c0.263,0.006,0.414-0.001,0.414-0.001
			S34.086,48.159,30.163,45.918z"/>
		<path class="c4-fill" d="M22.887,44.167c0.731,0.932,3.202,3.893,6.474,5.759c2.835,1.619,5.484,1.967,6.74,2.037L22.887,44.167z"/>
	</g>
	<g>
		<path class="c4-fill" d="M24.91,59.739c1.198,0.073,3.909,0.045,6.573-1.332c3.395-1.756,5.481-5.062,5.672-5.372L24.91,59.739z"/>
		<path class="c4-fill" d="M36.77,52.961c-1.039-0.087-3.948-0.163-6.806,1.315c-3.564,1.842-5.691,5.402-5.691,5.402s0.067,0.01,0.186,0.023
			L36.77,52.961z"/>
	</g>
	<g>
		<path class="c4-fill" d="M27.964,26.911c-0.115-0.142-0.18-0.217-0.18-0.217s0.282,6.461,2.851,13.221c2.191,5.774,5.328,9.892,6.203,10.979
			L27.964,26.911z"/>
		<path class="c4-fill" d="M37.052,50.753c-0.111-1.536-0.641-7.042-2.82-12.787c-1.909-5.024-4.537-8.798-5.764-10.41L37.052,50.753z"/>
		<polygon fill="#CC595A" class="c3-fill" points="37.08,51.188 37.08,51.188 37.08,51.188 		"/>
	</g>
</g>
</svg>
