<?xml version="1.0" encoding="utf-8"?>
<!-- Generator: Adobe Illustrator 17.0.2, SVG Export Plug-In . SVG Version: 6.00 Build 0)  -->
<!DOCTYPE svg PUBLIC "-//W3C//DTD SVG 1.1//EN" "http://www.w3.org/Graphics/SVG/1.1/DTD/svg11.dtd">
<svg version="1.1" id="Layer_2" xmlns="http://www.w3.org/2000/svg" xmlns:xlink="http://www.w3.org/1999/xlink" x="0px" y="0px"
	 width="100px" height="100px" viewBox="0 0 100 100" enable-background="new 0 0 100 100" xml:space="preserve">
<g>
	<path fill="#9ACC6B" class="c3-fill" d="M63.144,39.991H52.269v16.181h10.875c4.461,0,8.09-3.63,8.09-8.091
		C71.233,43.62,67.604,39.991,63.144,39.991z"/>
</g>
<path fill="#808080" class="c3-fill" d="M63.144,39.991H39.276c-4.461,0-8.092,3.629-8.092,8.09c0,4.461,3.631,8.091,8.092,8.091h23.867
	c4.461,0,8.09-3.63,8.09-8.091C71.233,43.62,67.604,39.991,63.144,39.991z M51.21,54.554c0,0.196-0.16,0.356-0.358,0.356H39.727
	c-3.766,0-6.828-3.063-6.828-6.829c0-3.765,3.062-6.828,6.828-6.828h11.125c0.197,0,0.358,0.16,0.358,0.357V54.554z"/>
<path class="c4-fill" d="M62.919,42.234H52.868v11.694h10.051c3.225,0,5.848-2.623,5.848-5.848C68.767,44.856,66.144,42.234,62.919,42.234z
	 M67.34,47.951c-0.008,0-0.016,0.001-0.022,0.001c-0.128,0-0.237-0.098-0.249-0.228c-0.155-1.733-0.735-3.692-3.785-3.692
	c-0.129,0-0.263,0.003-0.402,0.011c-0.13,0.016-0.255-0.099-0.263-0.236c-0.007-0.138,0.099-0.256,0.237-0.263
	c3.854-0.196,4.544,2.264,4.711,4.135C67.579,47.817,67.478,47.939,67.34,47.951z"/>
</svg>
