<?xml version="1.0" encoding="utf-8"?>
<!-- Generator: Adobe Illustrator 17.0.2, SVG Export Plug-In . SVG Version: 6.00 Build 0)  -->
<!DOCTYPE svg PUBLIC "-//W3C//DTD SVG 1.1//EN" "http://www.w3.org/Graphics/SVG/1.1/DTD/svg11.dtd">
<svg version="1.1" id="Layer_2" xmlns="http://www.w3.org/2000/svg" xmlns:xlink="http://www.w3.org/1999/xlink" x="0px" y="0px"
	 width="100px" height="100px" viewBox="0 0 100 100" enable-background="new 0 0 100 100" xml:space="preserve">
<path class="c4-fill" d="M64.203,39.865c0.049-0.066,0.096-0.136,0.138-0.209l2.345-4.06c0.599-1.036,0.244-2.36-0.793-2.957
	c-0.34-0.198-0.711-0.291-1.078-0.291c-0.748,0-1.476,0.388-1.877,1.083l-1.902,3.293c-2.837-2.242-6.301-3.724-10.082-4.139v-0.456
	c2.99-0.926,5.171-3.718,5.171-7.009c0-4.045-3.29-7.335-7.335-7.335c-4.045,0-7.335,3.29-7.335,7.335
	c0,3.291,2.18,6.084,5.17,7.009v0.456c-3.78,0.415-7.244,1.897-10.081,4.139l-1.902-3.293c-0.4-0.695-1.127-1.083-1.875-1.083
	c-0.369,0-0.74,0.093-1.08,0.291c-1.037,0.597-1.391,1.921-0.793,2.957l2.344,4.06c0.044,0.073,0.091,0.143,0.139,0.209
	c-2.729,3.392-4.366,7.699-4.366,12.382c0,10.907,8.873,19.78,19.78,19.78c10.907,0,19.781-8.873,19.781-19.78
	C68.57,47.564,66.933,43.257,64.203,39.865z M44.387,25.12c0-2.428,1.975-4.402,4.402-4.402c2.428,0,4.402,1.974,4.402,4.402
	c0,1.912-1.275,3.643-3.104,4.208c-0.825,0.255-1.771,0.255-2.595,0C45.662,28.763,44.387,27.032,44.387,25.12z M48.789,67.843
	c-8.568,0-15.542-6.973-15.542-15.542c0-8.569,6.974-15.542,15.542-15.542c8.57,0,15.542,6.973,15.542,15.542
	C64.331,60.869,57.359,67.843,48.789,67.843z"/>
<path fill="#808080" class="c3-fill" d="M48.789,69.175c-9.305,0-16.874-7.57-16.874-16.874c0-9.304,7.569-16.874,16.874-16.874
	s16.874,7.57,16.874,16.874C65.663,61.605,58.094,69.175,48.789,69.175 M48.789,38.091c-7.835,0-14.21,6.375-14.21,14.21
	c0,7.836,6.375,14.211,14.21,14.211S63,60.137,63,52.3C63,44.466,56.624,38.091,48.789,38.091"/>
<path class="c4-fill" d="M48.789,64.21c-6.593,0-11.957-5.364-11.957-11.957s5.364-11.957,11.957-11.957s11.957,5.364,11.957,11.957
	S55.382,64.21,48.789,64.21 M48.789,40.961c-6.227,0-11.291,5.065-11.291,11.292c0,6.226,5.064,11.291,11.291,11.291
	S60.08,58.479,60.08,52.253C60.08,46.026,55.016,40.961,48.789,40.961"/>
<path fill="#FFFFFF" d="M52.699,52.741c0,2.341-1.896,4.238-4.238,4.238c-2.341,0-4.238-1.897-4.238-4.238
	c0-2.341,1.897-4.237,4.238-4.237C50.803,48.504,52.699,50.4,52.699,52.741"/>
<path class="c4-fill" d="M56.411,46.686l-0.015-0.019c-0.416-0.513-1.166-0.591-1.68-0.177l-2.562,2.094c-0.983-0.876-2.275-1.413-3.693-1.413
	c-3.07,0-5.57,2.499-5.57,5.57c0,3.071,2.5,5.57,5.57,5.57s5.57-2.499,5.57-5.57c0-0.782-0.164-1.528-0.457-2.204l2.66-2.174
	C56.746,47.948,56.825,47.198,56.411,46.686 M48.461,55.647c-1.604,0-2.906-1.304-2.906-2.906c0-1.602,1.303-2.906,2.906-2.906
	s2.906,1.304,2.906,2.906C51.367,54.343,50.064,55.647,48.461,55.647"/>
</svg>
