<?xml version="1.0" encoding="utf-8"?>
<!-- Generator: Adobe Illustrator 18.0.0, SVG Export Plug-In . SVG Version: 6.00 Build 0)  -->
<!DOCTYPE svg PUBLIC "-//W3C//DTD SVG 1.1//EN" "http://www.w3.org/Graphics/SVG/1.1/DTD/svg11.dtd">
<svg version="1.1" id="Layer_2" xmlns="http://www.w3.org/2000/svg" xmlns:xlink="http://www.w3.org/1999/xlink" x="0px" y="0px"
	 viewBox="256 346 100 100" enable-background="new 256 346 100 100" xml:space="preserve">
<path class="c4-fill" d="M331.1,408.5l0.3-1.8c0-0.1-0.4-0.3-1.1-0.4l-13.5-0.9l-34.4-5.5c-0.6-0.1-1-0.3-1.1-0.2l-0.4,2.7c0,0.1,0.4,0.3,1.1,0.4
	l32.1,4.5l16,1.3C330.5,408.7,331.1,408.6,331.1,408.5z"/>
<path fill="#808080" class="c3-fill" d="M330.2,398.6l-6.6-0.5c0,0-14.8-8.3-19.4-16.4c0,0-9.2-4.1-1.5,6.3c0,0-0.5,8-9,2.9c0,0-2.9-1.4-4.9-8.6
	c0,0-1-2.9-3.2-2.6c-0.9,0.2-2,1-2.5,4.2l-0.2,2.4l2.9,0.4l-0.2,1.3l-2.9-0.4l-1.4,11.1l20.1,3.1l6.9-9.3l1.5,0.2l-6.6,9.3l4.4,0.5
	l4.6-6l1.6,0.2l-4.5,6.1l4,0.6l2.7-3.4l1.1,0.2l-2.6,3.5l3.4,0.6l13.5,0.8C331.3,405.2,336,400.8,330.2,398.6z"/>
<polygon points="321.6,401.6 321.3,401 323.6,398.2 324.7,398.2 " class="c4-fill"/>
</svg>
