<?xml version="1.0" encoding="utf-8"?>
<!-- Generator: Adobe Illustrator 17.0.2, SVG Export Plug-In . SVG Version: 6.00 Build 0)  -->
<!DOCTYPE svg PUBLIC "-//W3C//DTD SVG 1.1//EN" "http://www.w3.org/Graphics/SVG/1.1/DTD/svg11.dtd">
<svg version="1.1" id="Layer_2" xmlns="http://www.w3.org/2000/svg" xmlns:xlink="http://www.w3.org/1999/xlink" x="0px" y="0px"
	 width="100px" height="100px" viewBox="0 0 100 100" enable-background="new 0 0 100 100" xml:space="preserve">
<path fill="#808080" class="c3-fill" d="M43.699,49.394c0-4.733,2.095-9.153,5.744-12.169c-2.505-1.843-5.589-2.946-8.938-2.946
	c-8.348,0-15.115,6.768-15.115,15.115c0,8.348,6.768,15.115,15.115,15.115c3.349,0,6.433-1.102,8.938-2.946
	C45.795,58.549,43.699,54.128,43.699,49.394z"/>
<path class="c4-fill" d="M44.38,49.395c0,4.75,2.192,8.986,5.62,11.758c3.428-2.771,5.62-7.008,5.62-11.758S53.428,40.409,50,37.637
	C46.572,40.409,44.38,44.645,44.38,49.395"/>
<path fill="#808080" class="c3-fill" d="M59.494,34.28c-3.349,0-6.432,1.102-8.937,2.946c3.649,3.016,5.744,7.436,5.744,12.168
	c0,4.734-2.096,9.155-5.744,12.17c2.505,1.843,5.589,2.946,8.937,2.946c8.348,0,15.115-6.768,15.115-15.115
	C74.609,41.048,67.842,34.28,59.494,34.28z"/>
</svg>
