<?xml version="1.0" encoding="utf-8"?>
<!-- Generator: Adobe Illustrator 17.0.2, SVG Export Plug-In . SVG Version: 6.00 Build 0)  -->
<!DOCTYPE svg PUBLIC "-//W3C//DTD SVG 1.1//EN" "http://www.w3.org/Graphics/SVG/1.1/DTD/svg11.dtd">
<svg version="1.1" id="Layer_2" xmlns="http://www.w3.org/2000/svg" xmlns:xlink="http://www.w3.org/1999/xlink" x="0px" y="0px"
	 width="100px" height="100px" viewBox="0 0 100 100" enable-background="new 0 0 100 100" xml:space="preserve">
<g>
	<path fill="#666666" class="c3-fill" d="M68.747,46.151c1.89-14.098-7.993-21.076-19.912-21.076c-10.384,0-17.225,7.786-17.226,18.167
		c0,0.515,0.321,0.654,0.364,1.89c0.042,1.237-2.873,7.266-3.247,8.236c-0.34,0.889-0.137,2.496,1.183,2.496c0.016,0,0.03,0,0.047,0
		c0.036-0.001,0.072-0.002,0.107-0.002c1.591,0,1.746,1.057,0.928,1.625c-0.402,0.279-0.012,1.501,0.256,1.67
		c0.266,0.17,1.792,0.703,1.889,0.8c0.097,0.097-0.568,0.509-0.776,0.873c-0.205,0.363,0.036,1.249,0.291,1.55
		c0.262,0.307,0.48,0.297,1.357,0.871c1.018,0.666,0.085,2.859,0.098,3.489c0.012,0.63,0.872,2.81,3.101,2.81
		c1.092,0,2.545-0.349,3.742-0.705c1.207-0.358,2.46,0.402,2.721,1.633l0.01,0.049c0.264,1.254,1.55,2.006,2.772,1.617
		c18.414-5.857,15.371-2.922,14.401-10.396c-0.067-0.518,0.056-1.038,0.342-1.477C63.569,56.634,68.201,51.328,68.747,46.151z
		 M56.72,53.881c-0.526,0.162-1.07,0.256-1.625,0.279c-0.095,0.004-0.189,0.006-0.283,0.006c-2.187,0-4.224-1.121-5.413-2.92
		c-0.043-0.018-0.085-0.035-0.128-0.053c-0.023,0.001-0.047,0.002-0.072,0.003c-0.102,0.005-0.204,0.007-0.306,0.007
		c-1.629,0-3.214-0.578-4.492-1.654l-0.179-0.157l-0.131-0.144c-0.321-0.352-0.597-0.748-0.821-1.175
		c-1.692-0.247-3.2-0.991-4.339-2.155c-1.426-1.459-2.185-3.442-2.137-5.586c0.057-2.578,1.471-5.089,3.665-6.606
		c1.396-2.035,3.697-3.329,6.188-3.437c0.117-0.006,0.232-0.008,0.345-0.008c0.252,0,0.505,0.012,0.755,0.036
		c0.956-0.414,1.987-0.651,3.034-0.696c0.125-0.006,0.25-0.009,0.374-0.009c1.537,0,3.061,0.422,4.378,1.206
		c3.341,0.325,6.257,2.429,7.578,5.484c1.34,1.547,2.119,3.492,2.207,5.545l0.002,0.031l0.001,0.033l0.002,0.119
		c0.01,0.483-0.01,0.899-0.062,1.311c-0.053,0.426-0.133,0.836-0.234,1.216c-0.1,0.381-0.233,0.769-0.408,1.187
		c-0.107,0.26-0.229,0.518-0.364,0.768l-0.049,0.408C63.744,50.775,60.601,53.696,56.72,53.881z"/>
	<path fill="#FFFFFF" d="M60.634,46.492c-0.246,2.062-1.956,3.701-4.099,3.795c-0.062,0.003-0.124,0.004-0.186,0.004
		c-0.095,0-0.188-0.004-0.28-0.01c-0.344,0.166-0.726,0.267-1.131,0.285c-0.042,0-0.084,0.002-0.126,0.002
		c-1.143,0-2.142-0.672-2.605-1.654c1.434-0.254,2.565-0.683,3.373-1.286c0.397-0.296,0.643-0.583,0.79-0.804
		c0.552,0.219,1.128,0.328,1.718,0.328c0.622,0,1.258-0.123,1.893-0.365C60.219,46.695,60.437,46.593,60.634,46.492 M61.44,45.326
		l-1.112,0.578c-0.193,0.1-0.391,0.189-0.585,0.264c-0.557,0.213-1.113,0.32-1.656,0.32c-0.507,0-1.003-0.094-1.474-0.28
		l-0.497-0.195l-0.297,0.443c-0.104,0.151-0.297,0.386-0.637,0.64c-0.722,0.538-1.762,0.93-3.092,1.165l-0.854,0.151l0.37,0.785
		c0.583,1.235,1.842,2.033,3.205,2.033c0.053,0,0.104,0,0.155-0.002c0.427-0.019,0.839-0.111,1.229-0.277
		c0.05,0.002,0.102,0.002,0.152,0.002c0.071,0,0.143,0,0.214-0.004c2.45-0.106,4.439-1.946,4.729-4.379L61.44,45.326z"/>
	<g>
		<path fill="#666666" class="c3-fill" d="M45.248,45.318c-0.026-0.023-0.054-0.038-0.083-0.054C45.194,45.279,45.222,45.295,45.248,45.318z"/>
		<path fill="#666666" class="c3-fill" d="M45.409,45.529c0.009,0.015,0.019,0.029,0.027,0.045C45.427,45.558,45.417,45.544,45.409,45.529z"/>
		<path fill="#666666" class="c3-fill" d="M46.297,44.896c-0.18,0.6-0.055,1.369,0.453,1.925c0.583,0.49,1.333,0.784,2.145,0.784
			c0.047,0,0.097-0.001,0.146-0.003c0.317-0.015,0.623-0.073,0.911-0.168c0.374,0.314,0.829,0.534,1.325,0.627V48.06
			c0.158,0.039,0.339,0.054,0.525,0.054c0.512,0,1.06-0.114,1.249-0.165c0.971-0.263,1.58-0.634,1.97-0.91
			c0.608-0.428,0.77-0.809,0.787-0.851c0.032-0.115,0.11-0.203,0.217-0.253c0.049-0.022,0.101-0.033,0.153-0.033
			c0.065,0,0.129,0.017,0.19,0.045c0.55,0.27,1.124,0.405,1.717,0.405c0.515,0,1.044-0.102,1.584-0.307
			c0.532-0.201,0.989-0.52,1.288-1.01c0.131-0.217,0.245-0.442,0.342-0.674c0.098-0.235,0.184-0.475,0.25-0.721
			c0.067-0.247,0.113-0.5,0.144-0.754c0.033-0.262,0.04-0.525,0.035-0.789c0-0.033,0-0.065-0.002-0.098
			c-0.063-1.477-0.713-2.795-1.719-3.746c-0.715-2.256-2.857-3.869-5.352-3.881c-0.014,0-0.025,0-0.038,0
			c-0.08,0-0.161,0-0.242,0.004c-0.006,0-0.014,0-0.021,0.002c-0.868-0.73-1.986-1.168-3.198-1.168
			c-0.073,0-0.146,0.002-0.215,0.005c-0.971,0.043-1.865,0.361-2.611,0.875c-0.42-0.137-0.868-0.211-1.332-0.211
			c-0.063,0-0.126,0.002-0.189,0.004c-1.651,0.072-3.044,1.061-3.71,2.455c-1.481,0.735-2.663,2.314-2.702,4.074
			c-0.048,2.131,1.349,4.154,4.152,4.154c0.322,0,0.663-0.027,1.022-0.083c0.001,0.015,0.003,0.03,0.005,0.045
			c0.433-1.257,1.409-1.821,1.959-2.046c-0.495-1.27-1.761-3.716-3.217-3.716c-0.082,0-0.164,0.006-0.247,0.022
			c-1.019,0.198-1.358,1.021-1.24,1.703c0.11,0.641,0.625,1.223,1.536,1.223c0.114,0,0.234-0.008,0.36-0.027
			c0.02-0.003,0.041-0.005,0.061-0.005c0.195,0,0.366,0.144,0.396,0.342c0.034,0.22-0.117,0.424-0.337,0.457
			c-0.172,0.026-0.337,0.039-0.494,0.039c-1.363,0-2.149-0.933-2.315-1.892c-0.188-1.088,0.398-2.34,1.881-2.629
			c0.123-0.022,0.255-0.037,0.397-0.037c0.2,0,0.417,0.03,0.648,0.1c0.203-0.807,0.628-1.411,1.265-1.795
			c0.599-0.361,1.285-0.461,1.86-0.461c0.38,0,0.711,0.043,0.937,0.084c0.497-0.78,1.299-1.197,2.246-1.197
			c0.38,0,0.784,0.066,1.202,0.205c0.764,0.252,1.345,0.786,1.741,1.27c0.206,0.252,0.362,0.489,0.467,0.668
			c0.428-0.144,0.912-0.227,1.398-0.227c0.639,0,1.283,0.144,1.815,0.49c0.628,0.41,1.336,1.255,1.229,2.97
			c0.332,0.277,0.966,0.923,0.984,1.81c0.013,0.643-0.293,1.285-0.815,1.717c-0.364,0.301-0.959,0.609-1.866,0.609
			c-0.299,0-0.631-0.033-1.001-0.111c-0.021-0.004-0.039-0.01-0.057-0.016c-0.015-0.006-0.757-0.271-1.668-0.271
			c-0.808,0-1.748,0.207-2.435,0.987c-0.082,0.094-0.163,0.18-0.245,0.26c-0.48,0.469-0.955,0.717-1.418,0.738
			c-0.021,0-0.041,0-0.062,0c-0.066,0-0.132-0.004-0.197-0.014c-0.844-0.119-1.254-0.97-1.271-1.006
			c-0.096-0.201-0.01-0.439,0.191-0.535c0.055-0.025,0.113-0.039,0.171-0.039c0.15,0,0.294,0.086,0.363,0.229
			c0.006,0.014,0.251,0.502,0.661,0.557c0.024,0.004,0.052,0.005,0.078,0.005c0.318,0,0.706-0.247,1.125-0.725
			c0.209-0.238,0.444-0.442,0.704-0.614c0.643-0.427,1.433-0.65,2.329-0.65c0.06,0,0.118,0,0.179,0.002
			c0.883,0.03,1.587,0.258,1.742,0.312c0.303,0.062,0.571,0.088,0.809,0.088c0.673,0,1.098-0.213,1.354-0.424
			c0.336-0.278,0.532-0.683,0.524-1.082c-0.013-0.75-0.812-1.3-0.821-1.306c-0.125-0.082-0.193-0.227-0.178-0.375
			c0.118-1.175-0.168-1.998-0.85-2.442c-0.391-0.254-0.883-0.362-1.381-0.362c-0.598,0-1.203,0.156-1.647,0.409
			c-0.977,0.553-0.959,1.588-0.913,1.979h0.002c1.497,0,2.356,0.965,2.393,1.007c0.146,0.167,0.129,0.421-0.038,0.567
			c-0.077,0.066-0.17,0.098-0.265,0.098c-0.112,0-0.222-0.045-0.302-0.135c-0.028-0.033-0.669-0.732-1.788-0.732
			c-0.039,0-0.078,0.001-0.117,0.002c-0.102,0.004-0.196,0.013-0.288,0.025c-0.92,0.119-1.272,0.576-1.305,0.621
			c-0.06,0.1-0.156,0.167-0.269,0.185c-0.021,0.003-0.042,0.005-0.063,0.005c-0.093,0-0.18-0.034-0.254-0.096
			c-0.033-0.025-0.364-0.262-0.899-0.262c-0.244,0-0.532,0.048-0.855,0.192c-1.047,0.464-1.052,1.42-1.052,1.461
			c0.005,0.192-0.124,0.356-0.312,0.397C48.047,43.147,46.724,43.478,46.297,44.896z"/>
		<path class="c4-fill" d="M54.097,37.241c0.013-0.006,0.026-0.014,0.039-0.021l-0.028-0.047c-0.083-0.141-0.221-0.357-0.409-0.586
			c-0.3-0.368-0.792-0.849-1.435-1.06c-0.346-0.114-0.68-0.172-0.995-0.172c-0.732,0-1.316,0.308-1.687,0.89l-0.239,0.375
			l-0.438-0.079c-0.188-0.033-0.482-0.074-0.82-0.074c-0.605,0-1.116,0.123-1.519,0.367c-0.486,0.293-0.802,0.748-0.964,1.389
			l-0.064,0.259c1.18,0.743,2.027,2.394,2.436,3.339c0.209-0.428,0.585-0.871,1.22-1.152c0.374-0.166,0.752-0.25,1.125-0.25
			c0.493,0,0.869,0.148,1.098,0.272c0.219-0.218,0.673-0.561,1.452-0.696l-0.015-0.119C52.72,38.745,53.185,37.758,54.097,37.241z"
			/>
		<path fill="#666666" class="c3-fill" d="M45.294,45.368c0.019,0.021,0.039,0.04,0.056,0.064C45.332,45.408,45.312,45.389,45.294,45.368z"/>
		<path fill="#666666" class="c3-fill" d="M45.021,45.22c0.038,0.003,0.075,0.008,0.109,0.022C45.096,45.228,45.059,45.223,45.021,45.22z"/>
	</g>
</g>
<path fill="#666666" class="c3-fill" d="M54.771,51.157c-1.236,0-2.377-0.725-2.906-1.844l-0.186-0.393l0.427-0.076
	c1.381-0.244,2.469-0.656,3.233-1.227c0.303-0.226,0.543-0.469,0.713-0.721l0.148-0.223l0.249,0.1c0.51,0.2,1.047,0.303,1.596,0.303
	c0.584,0,1.181-0.115,1.775-0.344c0.226-0.086,0.434-0.182,0.619-0.279l0.557-0.289l-0.074,0.623
	c-0.27,2.27-2.127,3.988-4.413,4.088l-0.196,0.004c-0.073,0-0.147-0.003-0.222-0.005c-0.371,0.165-0.767,0.26-1.179,0.278
	L54.771,51.157z"/>
</svg>
