<?xml version="1.0" encoding="utf-8"?>
<!-- Generator: Adobe Illustrator 17.0.2, SVG Export Plug-In . SVG Version: 6.00 Build 0)  -->
<!DOCTYPE svg PUBLIC "-//W3C//DTD SVG 1.1//EN" "http://www.w3.org/Graphics/SVG/1.1/DTD/svg11.dtd">
<svg version="1.1" id="Layer_2" xmlns="http://www.w3.org/2000/svg" xmlns:xlink="http://www.w3.org/1999/xlink" x="0px" y="0px"
	 width="100px" height="100px" viewBox="0 0 100 100" enable-background="new 0 0 100 100" xml:space="preserve">
<path fill="#808080" class="c3-fill" d="M52.635,27.51c-12.078,0-21.772,9.488-22.07,21.603c-0.015,0.646-0.019,0.841-0.881,0.86h-3.976
	c-0.168,0-0.319,0.099-0.388,0.252c-0.068,0.153-0.04,0.332,0.071,0.457l7.405,8.254c0.162,0.18,0.471,0.18,0.633,0l7.405-8.254
	c0.111-0.125,0.14-0.304,0.071-0.457c-0.068-0.153-0.22-0.252-0.388-0.252h-5.085c-0.317-0.007-0.55-0.086-0.691-0.237
	c-0.188-0.199-0.206-0.507-0.2-0.675c0.322-9.845,8.27-17.558,18.093-17.558c9.985,0,18.108,8.148,18.108,18.162
	c0,10.015-8.123,18.163-18.108,18.163c-3.483,0-6.864-0.994-9.776-2.875c-0.17-0.11-0.399-0.084-0.541,0.067l-2.176,2.326
	c-0.084,0.09-0.125,0.213-0.111,0.336c0.013,0.123,0.08,0.234,0.182,0.304c3.663,2.508,7.958,3.834,12.423,3.834
	c12.176,0,22.082-9.939,22.082-22.156S64.81,27.51,52.635,27.51z"/>
<path class="c4-fill" d="M58.653,59.153c-0.724,0-1.228-0.483-1.231-0.489l-8.177-8.175c-0.074-0.074-0.113-0.174-0.113-0.279V37.458
	c0-0.032,0.002-0.063,0.009-0.094c0.094-0.92,0.826-1.589,1.71-1.589c1.292,0,1.673,1.088,1.694,1.731l-0.001,11.346
	c0,0.068,0.028,0.135,0.077,0.184l7.228,7.227c0.022,0.018,0.079,0.067,0.099,0.089c0.305,0.353,0.466,0.82,0.441,1.279
	c-0.017,0.299-0.118,0.723-0.511,1.04C59.482,58.991,59.07,59.153,58.653,59.153"/>
</svg>
