<?xml version="1.0" encoding="utf-8"?>
<!-- Generator: Adobe Illustrator 18.0.0, SVG Export Plug-In . SVG Version: 6.00 Build 0)  -->
<!DOCTYPE svg PUBLIC "-//W3C//DTD SVG 1.1//EN" "http://www.w3.org/Graphics/SVG/1.1/DTD/svg11.dtd">
<svg version="1.1" id="Layer_2" xmlns="http://www.w3.org/2000/svg" xmlns:xlink="http://www.w3.org/1999/xlink" x="0px" y="0px"
	 viewBox="0 0 2000 2000" enable-background="new 0 0 2000 2000" xml:space="preserve">
<g>
	<path class="c3-fill" fill="#808080" d="M1240.9,694.8v53.5c0,33.9-26.8,60.7-60.7,60.7s-60.7-26.8-60.7-60.7v-60.7H880.4v60.7
		c0,33.9-26.8,60.7-60.7,60.7s-60.7-26.8-60.7-60.7v-53.5c-46.4,16.1-80.3,60.7-80.3,112.4v401.6c0,66,53.5,121.4,121.4,121.4h401.6
		c66,0,119.6-53.5,119.6-121.4V807.3C1321.2,755.5,1287.3,710.9,1240.9,694.8z M1240.9,1208.8c0,21.4-17.8,39.3-39.3,39.3H800.1
		c-21.4,0-39.3-17.8-39.3-39.3V887.6h481.9v321.2H1240.9z"/>
	<rect x="1014.3" y="1050" width="53.5" height="53.5"/>
	<rect x="1014.3" y="967.9" width="53.5" height="53.5"/>
	<rect x="1096.4" y="1050" width="53.5" height="53.5"/>
	<rect x="1096.4" y="967.9" width="53.5" height="53.5"/>
	<rect x="930.4" y="1050" width="53.5" height="53.5"/>
	<rect x="930.4" y="967.9" width="53.5" height="53.5"/>
	<rect x="839.4" y="1050" width="53.5" height="53.5"/>
	<rect x="1014.3" y="1132.1" width="53.5" height="53.5"/>
	<rect x="930.4" y="1132.1" width="53.5" height="53.5"/>
	<rect x="839.4" y="1132.1" width="53.5" height="53.5"/>
	<rect x="839.4" y="967.9" width="53.5" height="53.5"/>
	<path class="c4-fill" d="M1199.9,687.7c-1.8-10.7-8.9-17.8-19.6-17.8s-17.8,7.1-19.6,17.8l0,0v1.8v57.1v3.6l0,0c1.8,10.7,8.9,17.8,19.6,17.8
		s17.8-7.1,19.6-17.8l0,0v-1.8v-57.1V687.7L1199.9,687.7z"/>
	<path class="c4-fill" d="M834,687.7c-1.8-10.7-8.9-17.8-19.6-17.8c-10.7,0-17.8,7.1-19.6,17.8l0,0v1.8v57.1v3.6l0,0c1.8,10.7,8.9,17.8,19.6,17.8
		c10.7,0,17.8-7.1,19.6-17.8l0,0v-1.8v-57.1V687.7L834,687.7z"/>
</g>
</svg>
