<?xml version="1.0" encoding="utf-8"?>
<!-- Generator: Adobe Illustrator 18.0.0, SVG Export Plug-In . SVG Version: 6.00 Build 0)  -->
<!DOCTYPE svg PUBLIC "-//W3C//DTD SVG 1.1//EN" "http://www.w3.org/Graphics/SVG/1.1/DTD/svg11.dtd">
<svg version="1.1" id="Layer_2" xmlns="http://www.w3.org/2000/svg" xmlns:xlink="http://www.w3.org/1999/xlink" x="0px" y="0px"
	 viewBox="0 0 2000 2000" enable-background="new 0 0 2000 2000" xml:space="preserve">
<g>
	<g>
		<g>
			<path class="c3-fill" fill="#808080" d="M1169.8,1016.9c-22,23.2-35.5,54.6-35.5,89c0,71.5,58.2,129.7,129.7,129.7s129.7-58.2,129.7-129.7
				s-58.2-129.7-129.7-129.7c-9.7,0-19.2,1.1-28.4,3.1l-29-50c18.1-5.9,37.3-9.1,57.3-9.1c102.4,0,185.6,83.3,185.6,185.6
				s-83.3,185.6-185.6,185.6s-185.6-83.3-185.6-185.6c0-55.4,24.4-105.2,63-139.2L1169.8,1016.9z"/>
		</g>
	</g>
	<g>
		<g>
			<path class="c3-fill" fill="#808080" d="M760.8,978.6c-8-1.6-16.3-2.4-24.8-2.4c-71.5,0-129.7,58.2-129.7,129.7s58.2,129.7,129.7,129.7
				c71.5,0,129.7-58.2,129.7-129.7c0-35.7-14.5-68.1-37.9-91.5l29.5-48.9c39.4,34.1,64.4,84.4,64.4,140.5
				c0,102.4-83.3,185.6-185.6,185.6c-102.4,0-185.6-83.3-185.6-185.6S633.6,920.3,736,920.3c18.9,0,37.1,2.8,54.3,8.1L760.8,978.6z"
				/>
		</g>
	</g>
	<g>
		<path stroke="#FFFFFF" stroke-width="33.5835" stroke-miterlimit="10" d="M989.7,1125c6.9,0,13.4-3.4,17.3-9.1l130.1-191
			l108.1,191.4c3.7,6.5,10.7,10.6,18.2,10.6c3.6,0,7.1-0.9,10.3-2.7c4.9-2.7,8.3-7.2,9.9-12.6c1.5-5.4,0.8-11-1.9-15.8l-165.4-292.7
			h51.8c0.9,0,1.8-0.4,2.5-1l58.1-58.1c3.9-3.9,6.1-9.2,6.1-14.7c0-5.6-2.2-10.8-6.1-14.8c-4-3.9-9.2-6.1-14.8-6.1
			c-5.6,0-10.8,2.2-14.8,6.1l-46.9,46.9h-70.4c-11.5,0-20.9,9.4-20.9,20.9c0,3.2,0.8,6.3,2.3,9.3c0.4,2.4,1.2,4.7,2.4,6.8l37.8,66.9
			l-217.9-1.5l-23.5-41.8h32.9c11.5,0,20.9-9.4,20.9-20.9c0-11.5-9.4-20.9-20.9-20.9h-90.6c-11.5,0-20.9,9.4-20.9,20.9
			c0,11.5,9.4,20.9,20.9,20.9h9.8l28.9,51.4c-0.1,0.2-129.5,220.3-129.5,220.3c-3.8,6.4-3.8,14.5-0.1,20.9
			c3.7,6.5,10.7,10.5,18.1,10.5 M768,1083.3l98.7-167.9l94.5,167.9H768z M995.3,1058.9L909,905.6l189.8,1.3L995.3,1058.9z"/>
	</g>
	<g>
		<path class="c4-fill" d="M989.7,1125c6.9,0,13.4-3.4,17.3-9.1l130.1-191l108.1,191.4c3.7,6.5,10.7,10.6,18.2,10.6c3.6,0,7.1-0.9,10.3-2.7
			c4.9-2.7,8.3-7.2,9.9-12.6c1.5-5.4,0.8-11-1.9-15.8l-165.4-292.7h51.8c0.9,0,1.8-0.4,2.5-1l58.1-58.1c3.9-3.9,6.1-9.2,6.1-14.7
			c0-5.6-2.2-10.8-6.1-14.8c-4-3.9-9.2-6.1-14.8-6.1c-5.6,0-10.8,2.2-14.8,6.1l-46.9,46.9h-70.4c-11.5,0-20.9,9.4-20.9,20.9
			c0,3.2,0.8,6.3,2.3,9.3c0.4,2.4,1.2,4.7,2.4,6.8l37.8,66.9l-217.9-1.5l-23.5-41.8h32.9c11.5,0,20.9-9.4,20.9-20.9
			c0-11.5-9.4-20.9-20.9-20.9h-90.6c-11.5,0-20.9,9.4-20.9,20.9c0,11.5,9.4,20.9,20.9,20.9h9.8l28.9,51.4
			c-0.1,0.2-129.5,220.3-129.5,220.3c-3.8,6.4-3.8,14.5-0.1,20.9c3.7,6.5,10.7,10.5,18.1,10.5 M768,1083.3l98.7-167.9l94.5,167.9
			H768z M995.3,1058.9L909,905.6l189.8,1.3L995.3,1058.9z"/>
	</g>
</g>
</svg>
