<?xml version="1.0" encoding="utf-8"?>
<!-- Generator: Adobe Illustrator 18.0.0, SVG Export Plug-In . SVG Version: 6.00 Build 0)  -->
<!DOCTYPE svg PUBLIC "-//W3C//DTD SVG 1.1//EN" "http://www.w3.org/Graphics/SVG/1.1/DTD/svg11.dtd">
<svg version="1.1" id="Layer_2" xmlns="http://www.w3.org/2000/svg" xmlns:xlink="http://www.w3.org/1999/xlink" x="0px" y="0px"
	 viewBox="0 0 2000 2000" enable-background="new 0 0 2000 2000" xml:space="preserve">
<path class="c4-fill" d="M1393.9,867.8l-106.5-167.9c-5.9-9.3-18.1-12-27.4-6.1L1146.2,766c-13.2,8.4-30.5-1.1-30.5-16.8V616.4
	c0-11-8.9-19.8-19.8-19.8H897c-11,0-19.8,8.9-19.8,19.8v128.4c0,15.6-17.3,25.1-30.5,16.8L740,693.8c-9.3-5.9-21.5-3.1-27.4,6.1
	L606.1,867.8c-5.9,9.3-3.1,21.5,6.1,27.4l138.8,88c12.3,7.8,12.3,25.7,0,33.5l-138.8,88c-9.3,5.9-12,18.1-6.1,27.4l106.5,167.9
	c5.9,9.3,18.1,12,27.4,6.1l106.7-67.7c13.2-8.4,30.5,1.1,30.5,16.8v128.4c0,11,8.9,19.8,19.8,19.8h198.8c11,0,19.8-8.9,19.8-19.8
	v-132.9c0-15.6,17.3-25.1,30.5-16.8l113.8,72.2c9.3,5.9,21.5,3.1,27.4-6.1l106.5-167.9c5.9-9.3,3.1-21.5-6.1-27.4l-138.8-88
	c-12.3-7.8-12.3-25.7,0-33.5l138.8-88C1397,889.4,1399.8,877.1,1393.9,867.8z"/>
<path fill="#FFFFFF" d="M997.1,747.4c-32.3,0-58.5,26.2-58.5,58.5c0,10.3,2.7,20.4,7.9,29.3c2.1,3.7,4.7,7.1,7.5,10.2
	c-20.3,13.7-31.2,34.7-31.2,60.9c0,19.1,5.5,36.4,16.4,51.6c5.8,8.1,12.4,14.6,18.8,20.2l0.2,8.2c-6.4,4.4-11.8,9.3-16.4,14.5
	c-11.1,12.9-16.8,28.2-16.8,45.5c0,38.9,20.8,61.1,36.8,76l0.3,11c-3.1,3.4-5.8,7.3-8,11.5c-4.1,8.1-6.3,17.4-6.3,27
	c0,11.5,3.7,22.2,10.7,30.8c1.7,2.1,3.6,4,5.6,5.9l0.3,12.4c0.2,8.6,3.7,16.6,9.9,22.5c6.1,6,14.2,9.3,22.8,9.3
	c7.1,0,13.9-2.3,19.6-6.5c1.3,0.2,2.6,0.3,3.9,0.3c17.2,0,30.2-15.2,30.2-35.5c0-11.8-4.6-22.4-13.3-30.7c-0.1-0.1-0.3-0.3-0.4-0.4
	c12.6-12.1,25.5-29.9,25.5-52.5c0-32.7-15.5-50.1-28.5-61.5l0.6-21.4c14.4-11.8,32.2-31.8,32.2-58.4c0-13.3-2.9-25.2-8.7-35.7
	c4.8,2.2,9.6,3.4,14.8,3.4c5.7,0,20-0.9,29.3-9c9.1-7.9,12.3-20.3,8.4-31.6c-2.3-6.5-3.6-11-4.1-12.9c-0.1-2.5-0.5-6.2-1.5-12.7
	c-2.5-16.8-14-30.6-30.1-36.1c-4.2-1.4-8.5-2.3-11.9-3c-0.5-0.1-1.1-0.2-1.6-0.3c-4.2-2.8-9.8-5.7-16.6-8.6c1.1-1.5,2-3,3-4.6
	c5.2-8.9,7.9-19,7.9-29.3C1055.6,773.7,1029.3,747.4,997.1,747.4L997.1,747.4z"/>
<g>
	<path d="M1029.4,806.1c0-17.6-14.3-31.9-31.9-31.9c-17.6,0-31.9,14.3-31.9,31.9c0,11.6,6.2,21.8,15.5,27.4l10.5,389.4
		c0.1,3.2,2.7,5.8,6,5.8s5.9-2.6,6-5.8l10.4-389.3C1023.1,827.9,1029.4,817.7,1029.4,806.1z"/>
	<g>
		<path class="c3-fill" fill="#808080" d="M1021.8,859l-1.1,17.9c-0.1,1.3,0.9,2.4,2.3,2.5c4.8,0.2,16.2,4.9,20.4,7.9c4.1,2.9,5.2,12,5.9,18.2
			c0.2,2.1,1.2,4.1,2.9,5.5c6.9,6,19.2,17.2,24.8,17.2c4.6,0,10.4-1.2,11.8-2.4c0.7-0.6,1-1.6,0.7-2.5c-1.5-4.3-5.5-16.1-5.5-19.7
			c0-1.9-0.6-6.5-1.3-11c-1-6.9-5.8-12.6-12.3-14.8c-6.5-2.2-15.6-2.9-17.9-5.1c-4-3.7-17.7-12.8-27.7-15.8
			C1023.3,856.4,1021.8,857.5,1021.8,859z"/>
		<path class="c3-fill" fill="#808080" d="M970,865.7c-17.5,8.8-26.5,20.4-26.5,44.2c0,53.9,77.2,58.3,77.2,89c0,20.7-3.4,34.9-3.4,34.9
			s27.9-19.5,27.9-46.3c0-50.8-74.4-36.2-74.4-87C970.9,874.2,970,865.7,970,865.7z"/>
		<path class="c3-fill" fill="#808080" d="M973.6,1007.6c-17.5,8.8-28.3,20.4-28.3,44.2c0,53.9,70.7,58.5,70.7,89.1c0,20.7-3.4,34.9-3.4,34.9
			s27.9-19.5,27.9-46.3c0-50.8-66.1-36.4-66.1-87.2C974.5,1016.2,973.6,1007.6,973.6,1007.6z"/>
		<path class="c3-fill" fill="#808080" d="M980.2,1149.3c-11.4,4.9-17.3,16.2-17.3,26.6c0,29.4,57.2,22.1,57.2,44.3c0,5.1,4.4,0.7,4.4-6.6
			c0-20.2-43.8-15.4-43.8-37.7C980.7,1171.4,980.2,1149.3,980.2,1149.3z"/>
	</g>
</g>
</svg>
