<?xml version="1.0" encoding="utf-8"?>
<!-- Generator: Adobe Illustrator 18.0.0, SVG Export Plug-In . SVG Version: 6.00 Build 0)  -->
<!DOCTYPE svg PUBLIC "-//W3C//DTD SVG 1.1//EN" "http://www.w3.org/Graphics/SVG/1.1/DTD/svg11.dtd">
<svg version="1.1" id="Layer_2" xmlns="http://www.w3.org/2000/svg" xmlns:xlink="http://www.w3.org/1999/xlink" x="0px" y="0px"
	 viewBox="0 0 2000 2000" enable-background="new 0 0 2000 2000" xml:space="preserve">
<g>
	<path class="c3-fill" fill="#808080" d="M1000,1306.5c-0.1,0-0.1,0-0.2,0v155h53.1v-162.9C1035.5,1303.8,1017.8,1306.5,1000,1306.5z"/>
	<g>
		<path class="c3-fill" fill="#808080" d="M1152.5,934.2H847.5c-33.9,0-61.5-27.6-61.5-61.5V743.7c0-33.9,27.6-61.5,61.5-61.5h304.9
			c33.9,0,61.5,27.6,61.5,61.5v128.9C1214,906.6,1186.4,934.2,1152.5,934.2z M847.5,690.9c-29.2,0-52.9,23.7-52.9,52.9v128.9
			c0,29.2,23.7,52.9,52.9,52.9h304.9c29.2,0,52.9-23.7,52.9-52.9V743.7c0-29.2-23.7-52.9-52.9-52.9H847.5z"/>
	</g>
	<path class="c4-fill" d="M1215.5,572c-28.6-21.6-122.6-32.7-215.5-33.4v128h152c41.1,0,74.3,33.3,74.3,74.3v134.6c0,41.1-33.3,74.3-74.3,74.3h-152
		v339.7c173.9,0,314.8-279.8,314.8-488.5C1314.8,692.5,1276.6,618.2,1215.5,572z M1153,1081.6l-72.6,45c-10.5,6.5-24-1-24-13.4v-90
		c0-12.3,13.5-19.8,24-13.4l72.6,45C1163,1061.1,1163,1075.5,1153,1081.6z"/>
	<path class="c3-fill" fill="#808080" d="M848,666.6h152v-128c-90.3-0.7-179.6,8.4-206.9,27.2C727,611.5,685.2,687.5,685.2,801.1
		c0,208.7,141,488.5,314.8,488.5V949.9H848c-41.1,0-74.3-33.3-74.3-74.3V740.9C773.6,699.8,806.9,666.6,848,666.6z M850,1054.9
		l72.6-45c10.5-6.5,24,1,24,13.4v90c0,12.3-13.5,19.8-24,13.4l-72.6-45C840.1,1075.5,840.1,1061.1,850,1054.9z"/>
	<g>
		<path class="c3-fill" fill="#808080" d="M891.5,786.8c0-6.5,1.3-12.6,3.8-18.3c2.5-5.7,5.9-10.6,10.3-14.8c4.4-4.2,9.6-7.5,15.6-9.9
			c6-2.4,12.5-3.7,19.5-3.7c7.8,0,14.7,1.4,20.8,4.3c6.1,2.9,11.3,7,15.6,12.4c4.3,5.4,7.5,12,9.8,19.9c2.3,7.9,3.4,16.8,3.4,26.6
			c0,11.6-1.2,22-3.7,31c-2.4,9.1-5.9,16.7-10.4,22.9c-4.5,6.2-10,10.9-16.5,14.2c-6.5,3.3-13.8,4.9-21.9,4.9
			c-8.2,0-15.9-1.7-23-5.1c-3.3-1.6-6.5-3.5-9.4-5.8c-5.5-4.2-6.2-12.3-1.6-17.5l1.1-1.2c4.1-4.7,11-5.2,16.2-1.7
			c1,0.7,2.1,1.3,3.2,1.9c4.4,2.3,9,3.4,13.9,3.4c7.4,0,13.2-2.6,17.5-7.9c4.3-5.2,6.6-12.7,6.8-22.3c-2.5,3.4-5.8,6-9.9,7.9
			c-4.1,1.9-8.9,2.8-14.4,2.8c-6.6,0-12.8-1.1-18.5-3.4c-5.7-2.3-10.6-5.3-14.7-9.3c-4.1-3.9-7.4-8.6-9.8-13.9
			C892.7,798.9,891.5,793.1,891.5,786.8z M940.7,765.5c-2.7,0-5.4,0.6-7.9,1.7c-2.5,1.1-4.7,2.7-6.6,4.6c-1.9,1.9-3.4,4.2-4.5,6.8
			s-1.7,5.4-1.7,8.3c0,2.9,0.5,5.5,1.6,8c1.1,2.4,2.5,4.6,4.4,6.4c1.9,1.8,4.1,3.3,6.6,4.3c2.5,1.1,5.2,1.6,8.1,1.6
			c2.7,0,5.4-0.5,7.9-1.6c2.5-1.1,4.7-2.5,6.6-4.3c1.9-1.8,3.4-3.9,4.5-6.4c1.1-2.4,1.7-5.1,1.7-8c0-2.9-0.6-5.6-1.7-8.3
			c-1.1-2.6-2.6-4.9-4.5-6.8c-1.9-1.9-4.1-3.5-6.6-4.6C946,766,943.4,765.5,940.7,765.5z"/>
		<path class="c3-fill" fill="#808080" d="M1108.5,829.6c0,6.5-1.3,12.6-3.8,18.3c-2.5,5.7-5.9,10.6-10.3,14.8c-4.4,4.2-9.6,7.5-15.6,9.9
			c-6,2.4-12.5,3.7-19.5,3.7c-7.8,0-14.7-1.4-20.8-4.3c-6.1-2.9-11.3-7-15.6-12.4c-4.3-5.4-7.5-12-9.8-19.8s-3.4-16.7-3.4-26.7
			c0-11.6,1.2-22,3.7-31c2.4-9.1,5.9-16.7,10.4-22.9s10-10.9,16.5-14.2c6.5-3.3,13.8-4.9,21.9-4.9c8.2,0,15.9,1.7,23,5.1
			c3.3,1.6,6.5,3.5,9.4,5.8c5.5,4.2,6.2,12.3,1.6,17.5l-1.1,1.3c-4.1,4.7-11,5.1-16.2,1.7c-1-0.7-2.1-1.3-3.2-1.9
			c-4.4-2.3-9-3.4-13.9-3.4c-7.4,0-13.2,2.6-17.5,7.9c-4.3,5.2-6.6,12.7-6.8,22.3c2.5-3.4,5.8-6,9.9-7.9c4.1-1.9,8.9-2.8,14.4-2.8
			c6.6,0,12.8,1.1,18.5,3.4c5.7,2.3,10.6,5.3,14.7,9.3c4.1,3.9,7.4,8.6,9.8,13.9C1107.3,817.6,1108.5,823.3,1108.5,829.6z
			 M1059.3,851c2.7,0,5.4-0.6,7.9-1.7c2.5-1.1,4.7-2.7,6.6-4.6c1.9-1.9,3.4-4.2,4.5-6.8c1.1-2.6,1.7-5.4,1.7-8.3
			c0-2.7-0.6-5.4-1.7-7.9c-1.1-2.5-2.6-4.7-4.5-6.5c-1.9-1.8-4.1-3.3-6.6-4.3c-2.5-1.1-5.1-1.6-7.9-1.6c-2.9,0-5.6,0.5-8.1,1.6
			c-2.5,1.1-4.7,2.5-6.6,4.3c-1.9,1.8-3.3,4-4.4,6.5c-1.1,2.5-1.6,5.1-1.6,7.9c0,2.9,0.6,5.6,1.7,8.3c1.1,2.6,2.6,4.9,4.5,6.8
			c1.9,1.9,4.1,3.5,6.6,4.6C1054,850.4,1056.6,851,1059.3,851z"/>
	</g>
	<path d="M946.7,1298.5v163h53.1v-155C982,1306.5,964.3,1303.8,946.7,1298.5z"/>
</g>
</svg>
