<?xml version="1.0" encoding="utf-8"?>
<!-- Generator: Adobe Illustrator 18.1.1, SVG Export Plug-In . SVG Version: 6.00 Build 0)  -->
<svg version="1.1" id="Layer_5" xmlns="http://www.w3.org/2000/svg" xmlns:xlink="http://www.w3.org/1999/xlink" x="0px" y="0px"
	 viewBox="0 0 2000 2000" enable-background="new 0 0 2000 2000" xml:space="preserve">
<g>
	<path class="c3-fill" fill="#808080" d="M1102.5,940.1c10.6-2.4,21.7-3.7,32.9-3.7c32.8,0,63,10.7,87.8,28.6c1.9-8.5,2.9-17.2,2.9-26.2
		c0-67.2-54.5-121.6-121.6-121.6c-49.6,0-92.2,29.8-111.1,72.3c7.8-2,15.7-3.1,23.8-3.1C1055.4,886.4,1088.3,908.6,1102.5,940.1z"/>
	<path class="c3-fill" fill="#808080" d="M1104.5,770.1c9.1,0,16.6-7.4,16.6-16.6v-61.1c0-9.1-7.4-16.6-16.6-16.6c-9.1,0-16.6,7.4-16.6,16.6v61.1
		C1087.9,762.7,1095.3,770.1,1104.5,770.1z"/>
	<path class="c3-fill" fill="#808080" d="M1235.1,824.2c4.2,0,8.5-1.6,11.7-4.9l43.2-43.2c6.5-6.5,6.5-17,0-23.4c-6.5-6.5-17-6.5-23.4,0l-43.2,43.2
		c-6.5,6.5-6.5,17,0,23.4C1226.6,822.6,1230.8,824.2,1235.1,824.2z"/>
	<path class="c3-fill" fill="#808080" d="M1272.6,938.2c0,9.2,7.4,16.6,16.6,16.6l61.1,0c9.2,0,16.6-7.4,16.6-16.6c0-9.2-7.4-16.6-16.6-16.6l-61.1,0
		C1280,921.7,1272.6,929.1,1272.6,938.2z"/>
	<path class="c3-fill" fill="#808080" d="M1287.3,1097.7l-2.2-2.2c-0.1,0.8,0,1.5-0.1,2.2H1287.3z"/>
	<path class="c3-fill" fill="#808080" d="M962.1,819.3c3.2,3.2,7.5,4.9,11.7,4.9c4.2,0,8.5-1.6,11.7-4.9c6.5-6.5,6.5-17,0-23.4l-43.2-43.2
		c-6.5-6.5-17-6.5-23.4,0c-6.5,6.5-6.5,17,0,23.4L962.1,819.3z"/>
	<path class="c4-fill" d="M1017.2,905.3c-17.6,0-33.8,5.8-46.5,15.5c-22.5-51.4-76.2-87.6-138.9-87.6c-83,0-150.3,63.3-150.3,141.4
		c0,7.1,0.7,13.9,1.8,20.7h-38.5c-42.4,0-76.8,32.4-76.8,72.3s34.4,72.3,76.8,72.3h169.6c12.7-25,38.6-42.2,68.5-42.2h1.2
		c-0.5-3.6-0.7-7.2-0.7-10.8c0-43.4,35.3-78.7,78.7-78.7c13.9,0,27.6,3.7,39.5,10.7c17.5-34.6,47.2-60.6,82.6-73.4
		C1072.3,921.8,1046.8,905.3,1017.2,905.3z"/>
	<path class="c3-fill" fill="#808080" d="M1314.9,1116.6h-51.5l1.6-10.8c1.1-7.3,1.6-13.4,1.6-19.3c0-72.3-58.8-131.1-131.1-131.1
		c-53.3,0-100.9,31.9-121.3,81.3l-4.8,11.7l-9.9-8c-10.7-8.7-23.7-13.3-37.5-13.3c-33,0-59.8,26.8-59.8,59.7
		c0,5.9,0.9,11.8,2.6,17.5l3.7,12.2h-25.8c-31.9,0-57.9,26-57.9,57.9v9c0,31.9,26,57.9,57.9,57.9h432.1c31.9,0,57.9-26,57.9-57.9v-9
		C1372.8,1142.6,1346.8,1116.6,1314.9,1116.6z"/>
</g>
</svg>
