<?xml version="1.0" encoding="utf-8"?>
<!-- Generator: Adobe Illustrator 18.1.1, SVG Export Plug-In . SVG Version: 6.00 Build 0)  -->
<svg version="1.1" xmlns="http://www.w3.org/2000/svg" xmlns:xlink="http://www.w3.org/1999/xlink" x="0px" y="0px"
	 viewBox="0 0 2000 2000" enable-background="new 0 0 2000 2000" xml:space="preserve">
<g id="Layer_5">
</g>
<g id="Layer_3">
	<g>
		<g>
			<path class="c4-fill" d="M1027.2,616.5c-0.8-0.9-1.5-2-2.4-2.9c-20.8-21.6-44.4-22.7-47.1-22.7c-0.1,0-0.1,0-0.1,0c-30.8-2-55.9,6.6-74.9,25.6
				c-40.4,40.3-36.3,113.1-36.1,115.3v53.5l-107.1,19.3l121.1,65.3v0l9.2-1.7v0l72.2-13v-87.1l-14.2,2.6l-52.8,9.5l0-49.3
				c0-0.6-3.6-62.9,27.8-94.3c13.1-13.1,30.4-18.8,53.9-17.3c0.1,0,12.2,0.6,24,10.7C1008.8,624.3,1017.6,619.7,1027.2,616.5z"/>
			<path class="c4-fill" d="M1164.1,762l-14.3-7.7c0,0.3,0,0.5,0,0.7l0.4,66.3l92.9-16.7v0L1164.1,762z"/>
			<path class="c4-fill" d="M1121.6,739.4l-14.2,2.6l-52.8,9.5l-0.2-30.6c0.9-19.3-0.3-36.5-3.2-51.8c-9,1.9-16.6,5.6-22.7,11.7
				c-1.3,1.3-2.5,2.7-3.7,4.1c1.3,10.7,1.8,22.5,1.2,35.4l0.2,36.2l-21.6,3.9l-14.1,2.5c0,1.2,0.1,2,0.1,2.1l0,85.1l131.3-23.7
				l-0.4-72C1121.6,749.2,1121.7,744.2,1121.6,739.4z"/>
		</g>
		<polygon class="c3-fill" fill="#FFFFFF" points="889.9,1356.3 889.9,868.2 889.9,868.2 880.7,869.9 880.7,869.9 880.7,869.9 871.5,864.9
			871.5,1353.3 871.9,1353.6 880.7,1358.3 880.7,1358.3 880.7,1358.3 		"/>
		<g>
			<polygon class="c3-fill" fill="#808080" points="880.7,869.9 880.7,869.9 759.6,804.6 759.6,1293 759.6,1293 871.5,1353.3 871.5,864.9 			"/>
			<polygon class="c3-fill" fill="#808080" points="871.5,1353.3 871.9,1353.6 871.5,1353.3 			"/>
			<path class="c3-fill" fill="#808080" d="M1243.2,804.6L1243.2,804.6l-93,16.8l-0.4-66.3c0-0.3,0-0.5,0-0.7c2-48.1-7.9-84-29.5-106.5
				c-21.3-22.1-45.9-22.8-47.2-22.7c-30.8-2.1-55.9,6.6-74.9,25.6c-40.4,40.3-36.2,113.1-36.1,115.3v2.2v87.1l-72.2,13v488.1
				l353.3-76.7V804.6z M1018.3,670.7c13.1-13.1,30.4-18.8,53.7-17.2c0.6,0,15.2,0.5,28.3,14.5c13.5,14.5,20.8,38.9,21.3,71.4
				c0.1,4.9,0,9.9-0.2,15.1l0.4,72l-131.3,23.7l0-85.1c0-0.1,0-0.9-0.1-2.1C990.1,752.2,990.1,698.8,1018.3,670.7z M979.5,1222.2
				l-37.7-24.5l9.2-13.2l24.4,15.9l38.7-53.7l13.4,9L979.5,1222.2z M979.5,1116.7l-37.7-24.5l9.2-13.2l24.4,15.9l38.7-53.7l13.4,9
				L979.5,1116.7z M979.5,1009.3l-37.7-24.5l9.2-13.2l24.4,15.9l38.7-53.7l13.4,9L979.5,1009.3z M1177.6,1172.7l-131.7,28.1
				c-0.4,0.1-0.8,0.1-1.2,0.1c-2.5,0-4.8-1.8-5.3-4.3c-0.6-3,1.3-5.8,4.2-6.5l131.7-28.1c2.9-0.6,5.8,1.3,6.5,4.2
				C1182.4,1169.1,1180.5,1172,1177.6,1172.7z M1177.6,1070.2l-131.7,28.1c-0.4,0.1-0.8,0.1-1.2,0.1c-2.5,0-4.8-1.8-5.3-4.3
				c-0.6-3,1.3-5.8,4.2-6.5l131.7-28.1c2.9-0.5,5.8,1.2,6.5,4.2C1182.4,1066.7,1180.5,1069.6,1177.6,1070.2z M1177.6,962.8
				l-131.7,28.1c-0.4,0.1-0.8,0.1-1.2,0.1c-2.5,0-4.8-1.8-5.3-4.3c-0.6-3,1.3-5.8,4.2-6.5l131.7-28.1c2.9-0.6,5.8,1.3,6.5,4.2
				C1182.4,959.2,1180.5,962.1,1177.6,962.8z"/>
			<polygon class="c3-fill" fill="#808080" points="889.9,1356.3 889.9,1356.3 889.5,1356.4 			"/>
		</g>
		<polygon class="c3-fill" fill="#FFFFFF" points="1027.6,942.7 1014.2,933.7 975.5,987.4 951.1,971.5 941.9,984.8 979.5,1009.3 		"/>
		<polygon class="c3-fill" fill="#FFFFFF" points="1027.6,1050.2 1014.2,1041.1 975.5,1094.8 951.1,1078.9 941.9,1092.2 979.5,1116.7 		"/>
		<polygon class="c3-fill" fill="#FFFFFF" points="1027.6,1155.6 1014.2,1146.6 975.5,1200.3 951.1,1184.4 941.9,1197.6 979.5,1222.2 		"/>
		<path class="c3-fill" fill="#FFFFFF" d="M1044.7,1200.9c0.4,0,0.8,0,1.2-0.1l131.7-28.1c2.9-0.6,4.8-3.5,4.2-6.5c-0.6-2.9-3.6-4.8-6.5-4.2
			l-131.7,28.1c-2.9,0.6-4.8,3.5-4.2,6.5C1039.9,1199.1,1042.2,1200.9,1044.7,1200.9z"/>
		<path class="c3-fill" fill="#FFFFFF" d="M1044.7,1098.4c0.4,0,0.8,0,1.2-0.1l131.7-28.1c2.9-0.6,4.8-3.5,4.2-6.5c-0.6-3-3.6-4.7-6.5-4.2
			l-131.7,28.1c-2.9,0.6-4.8,3.5-4.2,6.5C1039.9,1096.7,1042.2,1098.4,1044.7,1098.4z"/>
		<path class="c3-fill" fill="#FFFFFF" d="M1044.7,991c0.4,0,0.8,0,1.2-0.1l131.7-28.1c2.9-0.6,4.8-3.5,4.2-6.5c-0.6-2.9-3.6-4.8-6.5-4.2
			l-131.7,28.1c-2.9,0.6-4.8,3.5-4.2,6.5C1039.9,989.2,1042.2,991,1044.7,991z"/>
	</g>
</g>
</svg>
