<?xml version="1.0" encoding="utf-8"?>
<!-- Generator: Adobe Illustrator 18.0.0, SVG Export Plug-In . SVG Version: 6.00 Build 0)  -->
<!DOCTYPE svg PUBLIC "-//W3C//DTD SVG 1.1//EN" "http://www.w3.org/Graphics/SVG/1.1/DTD/svg11.dtd">
<svg version="1.1" id="Layer_2" xmlns="http://www.w3.org/2000/svg" xmlns:xlink="http://www.w3.org/1999/xlink" x="0px" y="0px"
	 viewBox="0 0 2000 2000" enable-background="new 0 0 2000 2000" xml:space="preserve">
<g>
	<g>
		<path class="c3-fill" fill="#808080" d="M1000,627.6v209.1c57.6,0,104.6-46.9,104.6-104.6C1104.6,674.5,1057.6,627.6,1000,627.6z"/>
		<path class="c4-fill" d="M895.4,732.2c0,57.7,46.9,104.6,104.6,104.6V627.6C942.3,627.6,895.4,674.5,895.4,732.2z"/>
	</g>
	<path class="c4-fill" d="M1290.4,1188.1c-16.1-37.6-59.6-55-97.2-38.9l-51,21.9l-10.7,4.6l-253.6,111.7l14-7.7l0,0l86.8-47.8l-63.8-29.3l85,16.1
		V861.1c-26.5,0-51.2-8.1-71.7-21.8c-18.1,14.3-37,25.3-45.6,29c-10.6,4.5-41.6,10-46.3,31.1c-1.3,6-33.9,146.1-176,157.1
		c-22.3,1.7-39,21.2-37.2,43.5c1.6,21.2,19.4,37.4,40.3,37.4c1,0,2.1,0,3.1-0.1c103.9-8,170.4-67,208.9-127.1
		c5.7,24.5,10,50.1,10,71.6c0,39.5-7.2,71.7-17.2,97.9l-61.7-30.3c-37.6-16.1-81.1,1.3-97.2,38.9c-16.1,37.6,1.3,81.1,38.9,97.2
		c3.7,1.6,7.8,2.9,11.5,3.9l91.8,22.5c-2.9,8.1-3.5,17.1-1.3,26c6,24.5,30.7,39.4,55.1,33.4l334.4-81.9c3.7-0.9,7.9-2.3,11.5-3.9
		C1289.1,1269.1,1306.5,1225.6,1290.4,1188.1z"/>
	<g>
		<path class="c3-fill" fill="#808080" d="M1339.5,1056.5c-141.9-10.9-174.6-150.7-176-157c-4.6-21.3-30.1-22.3-46.5-31.2
			c-12.8-6.9-29.7-16.3-45.9-28.5c-20.4,13.5-44.8,21.5-71,21.5v357.7l1.8,0.5l114.1-62.8c-6.8-22.2-11.1-48.1-11.1-78.3
			c0-21.9,6.5-50,14.5-76.4c37.6,62.8,105.3,127,214,135.3c1.1,0.1,2.1,0.1,3.2,0.1c20.9,0,38.7-16.1,40.3-37.4
			C1378.5,1077.6,1361.8,1058.2,1339.5,1056.5z"/>
	</g>
</g>
</svg>
