<?xml version="1.0" encoding="utf-8"?>
<!-- Generator: Adobe Illustrator 18.1.1, SVG Export Plug-In . SVG Version: 6.00 Build 0)  -->
<svg version="1.1" id="Layer_4" xmlns="http://www.w3.org/2000/svg" xmlns:xlink="http://www.w3.org/1999/xlink" x="0px" y="0px"
	 viewBox="0 0 2000 2000" enable-background="new 0 0 2000 2000" xml:space="preserve">
<g>
	<path class="c3-fill" fill="#808080" d="M858.5,1259.5H709.6c-7.9,0-14.3-6.4-14.3-14.3v-163.1c0-7.9,6.4-14.3,14.3-14.3h148.9
		c7.9,0,14.3,6.4,14.3,14.3v163.1C872.9,1253.1,866.4,1259.5,858.5,1259.5z"/>
	<path class="c3-fill" fill="#808080" d="M1073.9,1259.5H925.1c-7.9,0-14.3-6.4-14.3-14.3V959c0-7.9,6.4-14.3,14.3-14.3h148.9
		c7.9,0,14.3,6.4,14.3,14.3v286.2C1088.3,1253.1,1081.9,1259.5,1073.9,1259.5z"/>
	<path class="c4-fill" d="M1295.2,1350H703.8c-6,0-10.8-4.8-10.8-10.8v-30.3c0-6,4.8-10.8,10.8-10.8h591.5c6,0,10.8,4.8,10.8,10.8v30.3
		C1306.1,1345.1,1301.2,1350,1295.2,1350z"/>
	<path class="c3-fill" fill="#808080" d="M1291.7,1259.5h-148.9c-7.9,0-14.3-6.4-14.3-14.3V802.8c0-7.9,6.4-14.3,14.3-14.3h148.9
		c7.9,0,14.3,6.4,14.3,14.3v442.5C1306.1,1253.1,1299.6,1259.5,1291.7,1259.5z"/>
	<g>
		<path class="c4-fill" d="M961.2,677.4c20.3,0,36.8-16.5,36.8-36.8c0-20.3-16.5-36.8-36.8-36.8c-20.3,0-36.8,16.5-36.8,36.8
			C924.4,660.9,940.9,677.4,961.2,677.4z"/>
		<path class="c4-fill" d="M1062,665.2c-10.2-6.1-23.4-2.8-29.5,7.4l-31.6,52.7l-33.7-21.7c-5.2-10.7-16.1-18.2-28.8-18.2c-0.9,0-1.8,0.2-2.7,0.3
			c-2.1-0.3-4.2-0.3-6.2,0.1c-1.1-0.2-2.1-0.3-3.2-0.3H820.4c-11.9,0-21.5,9.6-21.5,21.5v78.9c0,11.9,9.6,21.5,21.5,21.5
			s21.5-9.6,21.5-21.5v-57.4h54.6l-36.9,78.8c-1.6,3.4-2.7,6.8-3.4,10.1c-2.7,13.6-1.8,21.9,0.1,28.2L814.4,960l-24.2,50.7
			c-5.1,10.7-0.6,23.6,10.2,28.7c3,1.4,6.1,2.1,9.3,2.1c8,0,15.7-4.5,19.4-12.3l85.8-179.7l65-14.3h1.1v59.2
			c0,11.9,9.6,21.5,21.5,21.5c11.9,0,21.5-9.6,21.5-21.5v-80.7c0-11.9-9.6-21.5-21.5-21.5h-60.2l19.5-40.8l34.5,22.2
			c3.5,2.2,7.5,3.4,11.6,3.4c1.6,0,3.3-0.2,4.9-0.6c5.7-1.3,10.6-4.9,13.6-9.9l43-71.8C1075.5,684.5,1072.2,671.3,1062,665.2z"/>
	</g>
</g>
</svg>
