<?xml version="1.0" encoding="utf-8"?>
<!-- Generator: Adobe Illustrator 18.1.1, SVG Export Plug-In . SVG Version: 6.00 Build 0)  -->
<svg version="1.1" xmlns="http://www.w3.org/2000/svg" xmlns:xlink="http://www.w3.org/1999/xlink" x="0px" y="0px"
	 viewBox="0 0 2000 2000" enable-background="new 0 0 2000 2000" xml:space="preserve">
<g id="Layer_2">
</g>
<g id="Layer_5">
	<g>
		<g>
			<path class="c3-fill" fill="#808080" d="M767.7,818.6c-13.9,13.9-23.9,35.8-23.9,59.6c0,21.9,8,41.7,23.9,59.6c31.8,31.8,83.5,31.8,115.3,0
				l151.1-151.1l0,0c25.8-25.8,99.4-29.8,127.2-4L1286.6,908c23.9,23.9,89.5,89.5,89.5,89.5l11.9,11.9
				c11.9,11.9,21.9,29.8,21.9,47.7c0,19.9-6,35.8-21.9,47.7c-11.9,11.9-29.8,21.9-47.7,21.9c-17.9,0-35.8-6-47.7-21.9l-27.8-27.8
				l-8-8l-173-173c-6-6-15.9,4-9.9,9.9l173,173l0,0l35.8,35.8c27.8,27.8,27.8,69.6,0,97.4c-27.8,27.8-71.6,27.8-97.4,0l-33.8-33.8
				l0,0l-174.9-174.9c-6-6-15.9,4-9.9,9.9l176.9,174.9l0,0l31.8,31.8c11.9,11.9,21.9,29.8,21.9,47.7c0,19.9-6,35.8-21.9,47.7
				c-15.9,15.9-39.8,23.9-61.6,19.9c2-23.9-6-47.7-23.9-67.6c-15.9-15.9-37.8-25.8-59.6-25.8c-6,0-13.9,0-21.9,2
				c15.9-31.8,11.9-73.6-13.9-99.4c-15.9-15.9-37.8-25.8-59.6-25.8c-13.9,0-29.8,4-41.7,9.9c-6,4-9.9,8-9.9,8c2-8,0-19.9,0-19.9
				c0-21.9-8-41.7-25.8-59.6c-27.8-27.8-67.6-31.8-99.4-13.9c2-6,2-13.9,2-21.9c0-23.9-8-43.7-25.8-59.6
				c-15.9-15.9-37.8-25.8-59.6-25.8c-23.9,0-43.7,8-59.6,25.8l-27.8,27.8c-2,2-4,4-6,6c-39.8-105.4-15.9-230.6,69.6-316.1
				c0,0,125.2-147.1,326-69.6C976.4,619.8,954.6,619.8,767.7,818.6z"/>
		</g>
		<g>
			<path class="c4-fill" d="M1075.8,1379.2c27.8-27.8,27.8-71.6,0-97.4c-11.9-11.9-29.8-21.9-47.7-21.9c-17.9,0-35.8,6-47.7,21.9l-55.7,55.7
				c-27.8,27.8-27.8,71.6,0,97.4c11.9,11.9,29.8,21.9,47.7,21.9c19.9,0,35.8-6,47.7-21.9L1075.8,1379.2z"/>
			<path class="c4-fill" d="M676.2,963.7c-19.9,0-35.8,6-47.7,21.9l-27.8,27.8c-11.9,11.9-21.9,29.8-21.9,47.7c0,19.9,6,35.8,21.9,47.7
				c11.9,11.9,29.8,21.9,47.7,21.9s35.8-6,47.7-21.9l27.8-27.8c11.9-11.9,21.9-29.8,21.9-47.7c0-17.9-6-35.8-21.9-47.7
				C712,969.7,694.1,963.7,676.2,963.7z"/>
			<path class="c4-fill" d="M708,1216.2c27.8,27.8,71.6,27.8,97.4,0l39.8-39.8c27.8-27.8,27.8-71.6,0-97.4c-27.8-27.8-71.6-27.8-97.4,0l-39.8,39.8
				C682.2,1144.6,682.2,1190.3,708,1216.2z"/>
			<path class="c4-fill" d="M914.8,1327.5l67.6-67.6c27.8-27.8,27.8-69.6,0-97.4c-11.9-11.9-29.8-21.9-47.7-21.9c-19.9,0-35.8,6-47.7,21.9
				l-67.6,65.6c-11.9,11.9-21.9,29.8-21.9,47.7c0,19.9,6,35.8,21.9,47.7C845.2,1351.4,889,1351.4,914.8,1327.5z"/>
		</g>
		<path class="c4-fill" d="M1348.2,681.4c-13.9-13.9-29.8-27.8-45.7-37.8c-59.6-37.8-129.2-55.7-196.8-47.7c-2,0-4,0-4,0c-8,2-19.9,2-27.8,4
			c-2,0-2,0-4,0c-9.9,2-19.9,4-29.8,8c0,0,0,0-2,0c-41.7,13.9-79.5,37.8-113.3,71.6L775.6,828.5c-9.9,11.9-15.9,27.8-15.9,43.7
			c0,19.9,6,35.8,19.9,47.7c25.8,25.8,69.6,25.8,95.4,0l151.1-151.1l0,0c31.8-31.8,107.4-39.8,145.1-6l127.2,127.2l75.5,75.5l0,0
			l13.9,13.9l11.9,11.9c6,6,9.9,11.9,11.9,19.9C1459.5,902.1,1439.6,772.9,1348.2,681.4z"/>
	</g>
</g>
</svg>
