<?xml version="1.0" encoding="utf-8"?>
<!-- Generator: Adobe Illustrator 18.1.1, SVG Export Plug-In . SVG Version: 6.00 Build 0)  -->
<svg version="1.1" xmlns="http://www.w3.org/2000/svg" xmlns:xlink="http://www.w3.org/1999/xlink" x="0px" y="0px"
	 viewBox="0 0 2000 2000" enable-background="new 0 0 2000 2000" xml:space="preserve">
<g id="Layer_5">
</g>
<g id="Layer_3">
	<g>
		<polygon fill="none" points="1230.2,1209.2 1230.2,1209.2 1230.2,1209.2 		"/>
		<path class="c3-fill" fill="#FFFFFF" d="M818.6,898l-0.6,3c0.1,0,0.1,0.1,0.2,0.1l0.7-2.9C818.8,898.1,818.7,898.1,818.6,898z"/>
		<path class="c3-fill" fill="#808080" d="M827.9,790.6c0.1-1,0.2-2.1,0.2-3.1c0.7-16.5-4.6-33-14.5-44.5c-4.1-4.7-8.9-7.2-13.7-7.9
			c0,0.2,0,0.5,0,0.7c-0.1,3.1-0.5,6.2-1,9.2L767,904.6c1.5-1.1,3.1-2.1,4.8-3c0.5-0.3,1.1-0.7,1.7-1c6.9-3.4,14.3-5.2,22-5.2
			c4.2,0,8.3,0.6,12.3,1.6L827.9,790.6z"/>
		<path class="c3-fill" fill="#808080" d="M902.8,992.5c-23.8-9.7-40.4-33.3-39.6-60.5c0.2-6.3,1.3-12.4,3.1-18.1c-7.2-4.4-13.5-10.2-18.4-17
			c-8-10.9-12.6-24.4-12.2-39c0.6-23.2,13.5-43.1,32.3-53.6c-2.4-7.3-5.5-14.1-9.5-19.8c-4.8-6.7-10.7-9.9-16.5-9.9
			c-1.2,0-2.4,0.2-3.6,0.5c0.5,4.2,0.7,8.5,0.5,12.8c-0.1,1.2-0.1,2.4-0.2,3.5l0,0.5l-0.1,0.5l-20,105.4c0.1,0.1,0.2,0.1,0.3,0.2
			l-0.7,2.9c9.3,4.8,17.1,12.3,22,22.2l52.2,105.4c-0.1-1.5-0.4-3-0.3-4.5C892.3,1012.2,896.3,1001.4,902.8,992.5z"/>
		<path class="c3-fill" fill="#FFFFFF" d="M1179.6,901l0.7,2.9c0.1,0,0.1-0.1,0.2-0.1l-0.6-3C1179.8,900.9,1179.7,901,1179.6,901z"/>
		<path class="c3-fill" fill="#808080" d="M1198.5,738.7c0-0.2,0-0.5,0-0.7c-4.8,0.7-9.6,3.2-13.7,7.9c-9.9,11.5-15.2,28-14.5,44.5
			c0,1,0.1,2.1,0.2,3.1l20.2,106.5c4-1,8-1.6,12.3-1.6c7.7,0,15.1,1.7,22,5.2c0.6,0.3,1.1,0.6,1.7,1c1.6,0.9,3.2,1.9,4.7,3
			l-31.9-159.6C1198.9,744.9,1198.6,741.8,1198.5,738.7z"/>
		<path class="c3-fill" fill="#808080" d="M1179.6,901c0.1-0.1,0.2-0.1,0.3-0.2l-20-105.4l-0.1-0.5l0-0.5c-0.1-1.2-0.2-2.4-0.2-3.6
			c-0.2-4.3,0-8.6,0.5-12.8c-1.2-0.3-2.4-0.5-3.6-0.5c-5.8,0-11.6,3.2-16.5,9.9c-4.6,6.4-8,14.1-10.5,22.5
			c19.8,11.2,33,32.7,32.4,57c-0.3,12-4,23.1-9.9,32.5c-4.6,7.2-10.6,13.5-17.7,18.3c1.4,5.6,2.2,11.4,2,17.4
			c-0.8,27.2-18.2,49.7-42.4,58.1c8.2,10.1,13.2,22.9,12.8,36.8c0,0.2-0.1,0.3-0.1,0.5l51.7-104.4c4.9-9.8,12.6-17.4,22-22.2
			L1179.6,901z"/>
		<path class="c3-fill" fill="#808080" d="M1061.1,712.8c17.9,0.5,33.8,8.4,45,20.6c6.3-3,12.4-6.5,18.1-10.9c30.2-23.6,48.2-47.5,56.4-99.4
			c-36.4-5-93.2-4-127.6,22.7c-23.7,18.4-36.3,43.2-29,71.5c17.8-34.7,95.6-78,125.4-75.6c-26.8,5.8-80.7,42.1-102.5,72.4
			c4-0.8,8.2-1.2,12.5-1.2L1061.1,712.8z"/>
		<path class="c4-fill" d="M926.5,870.4l1.8,0c2.7,0.1,5.3,0.4,7.9,0.8c-0.5-3.5-0.8-7-0.7-10.6c0.2-8.6,2.2-16.8,5.4-24.2
			c-16.7-0.6-32.2-7.6-43.7-19.8c-2.6-2.7-4.8-5.6-6.8-8.7c-24.5,4-43.3,24.6-44,50.3c-0.5,19,9.3,35.8,24.2,45.5
			C881.3,883.8,902.2,870.4,926.5,870.4z"/>
		<path class="c4-fill" d="M1061.8,870.9c3.6-0.6,7.2-1,11-1l1.8,0c24.9,0.7,46,15.7,55.8,37c12.2-9.3,20.2-23.6,20.7-40.3
			c0.7-25.4-16.8-47.1-40.6-52.7c-11.5,15.6-30,25.7-51.1,25.7l-1.2,0c2.9,7.6,4.4,15.8,4.2,24.4
			C1062.3,866.4,1062.1,868.6,1061.8,870.9z"/>
		<path class="c4-fill" d="M956.8,583.4c-5.1-4.1-13.1-3.5-17.4,1.3l-6.4,7.3c-2.3,2.6-3.4,6-3.1,9.4c0.3,3.4,2,6.5,4.7,8.6
			c16.5,12.9,57,59.2,59.2,124.7c3.4,4.4,6.1,9.2,8.3,14.4c3.2-6.7,7.4-12.8,12.6-17.9C1013.2,696.8,1004.5,622.1,956.8,583.4z"/>
		<path class="c4-fill" d="M960.6,912.7c-9.9-7.6-17.5-18-21.6-30c-3.6-0.9-7.2-1.4-11-1.5l-1.5,0c-28.7,0-51.8,22.5-52.6,51.2
			c-0.7,24,15.1,44.5,36.9,51.4c8.6-7.6,19.5-12.5,31.7-13.6c-1.4-5.1-2.3-10.5-2.2-16.1C940.9,937.3,948.7,922.6,960.6,912.7z"/>
		<path class="c4-fill" d="M1125.4,934.8c0.8-29-22.2-53.3-51.2-54l-1.5,0c-4.8,0-9.3,0.8-13.7,2c-4.5,13.3-13.2,24.6-24.6,32.2
			c11.3,10.6,18.3,25.6,17.9,42.2c-0.2,5.4-1.3,10.5-2.8,15.4c0.4,0,0.7-0.1,1-0.1l1.6,0c12.4,0.3,23.7,4.8,32.8,12
			C1107.8,979.1,1124.8,959.3,1125.4,934.8z"/>
		<path class="c4-fill" d="M998.7,1049.4c-8.5,18.4-26.7,31-48.1,32c4.5,5.4,8.7,11,12.5,16.9c9.4,14.7,16.2,30.4,20.5,46.4
			c3.8,1.1,7.7,1.8,11.9,1.9l1.4,0c6.8,0,13.2-1.3,19-3.7c4.4-14.4,10.7-28.5,19.2-41.8c3.1-4.9,6.5-9.6,10.1-14.1
			c-0.2-1.1-0.6-2.2-0.9-3.3C1023.6,1081.5,1006.3,1068,998.7,1049.4z"/>
		<path class="c3-fill" fill="#FFFFFF" d="M1045.3,1087.1c0.8-1,1.6-1.9,2.4-2.8c-1.1-0.1-2.2-0.3-3.3-0.4C1044.7,1085,1045.1,1086,1045.3,1087.1z"
			/>
		<path class="c4-fill" d="M1052.4,828.1c1.9,0.2,3.7,0.6,5.6,0.7l1.5,0c28.7,0,51.8-22.5,52.6-51.2c0.8-29-22.2-53.3-51.2-54l-1.5,0
			c-28.7,0-51.8,22.5-52.6,51.2c-0.3,9.1,2,17.8,6.1,25.7C1029.5,804.1,1043.5,814.3,1052.4,828.1z"/>
		<path class="c4-fill" d="M988.5,799.8c4.4-7.4,7.2-16,7.4-25.3c0.8-29-22.2-53.3-51.2-54l-1.5,0c-28.7,0-51.8,22.5-52.6,51.2
			c-0.4,14.1,4.7,27.4,14.4,37.6c9.7,10.2,22.7,16,36.8,16.4l1.5,0c1.4,0,2.6-0.3,4-0.4C956.9,811.9,971.6,802.5,988.5,799.8z"/>
		<path class="c4-fill" d="M946.7,1070.9l1.3,0c24.7,0,44.5-19.3,45.2-44c0.2-5.5-0.8-10.8-2.5-15.8c-19.5-2-35.8-13.9-44.1-30.5
			c-24,0.7-43.1,19.7-43.8,43.8c-0.2,7.2,1.5,13.9,4.3,20c2,1.1,3.9,2.3,5.9,3.5c9.9,6.2,19.1,13.7,27.5,22.1
			C942.5,1070.4,944.6,1070.8,946.7,1070.9z"/>
		<path class="c4-fill" d="M1051.9,983.3l-1.3,0c-2.1,0-4,0.3-6,0.6c-7.6,13.1-20.2,22.7-35.3,26.2c-2.3,5.3-3.7,11.1-3.9,17.2
			c-0.7,24.9,19,45.8,44,46.4l1.3,0c2.4,0,4.8-0.3,7.1-0.7c8.4-8.5,17.7-15.9,27.6-22.2c2.2-1.4,4.4-2.7,6.5-3.9
			c2.3-5.3,3.7-11.1,3.8-17.2C1096.5,1004.8,1076.8,984,1051.9,983.3z"/>
		<path class="c4-fill" d="M951.2,954.4c-0.7,24.9,19,45.8,44,46.4l1.3,0c24.6,0,44.5-19.3,45.2-44c0.4-14.7-6.4-27.9-17.1-36.5
			c-7.8,3.4-16.4,5.3-25.5,5.3l-1.8,0c-9.7-0.3-18.8-2.8-27-6.9C959.1,926.7,951.6,939.5,951.2,954.4z"/>
		<path class="c4-fill" d="M946.4,860.8c-0.8,29,22.2,53.3,51.2,54l1.5,0c28.7,0,51.8-22.5,52.6-51.2c0.8-29-22.2-53.3-51.2-54l-1.5,0
			C970.2,809.7,947.1,832.1,946.4,860.8z"/>
		<path class="c3-fill" fill="#808080" d="M954.1,1104.2c-12.7-19.9-29-35.8-46.9-47.1c-5.7-3.6-11.5-6.8-17.5-9.4L830.5,928
			c-6.8-13.7-20.6-21.7-35-21.7c-5.8,0-11.7,1.3-17.2,4c-0.5,0.2-0.9,0.5-1.4,0.8c-12.7,6.9-20.7,20.4-20.3,35.1
			c0.1,5.7,1.5,11.1,4.2,16.6l51.8,125.1l11.2,27.1c1.2,2.9-0.2,6.3-3.1,7.5c-0.7,0.3-1.5,0.4-2.2,0.4c-2.3,0-4.4-1.3-5.3-3.6
			l-26-62.7l-36.9-89.1c-3.3-6.7-5-13.7-5.2-21.1c0-1.1,0-2.3,0-3.4v0v0c0.4-8.8,3.1-17.2,7.6-24.5L786.3,744
			c0.5-2.7,0.8-5.4,0.9-8.1c0.6-14.3-3.6-28.5-11.7-39.1c-4.9-6.4-11.9-9.6-18.6-9.6c-8.4,0-16.3,5-19.4,14.9
			C720,759.9,679.4,880,675.2,925.6c-0.4,4.7-0.7,9.3-0.9,13.7c-2,45.8,9.2,74.2,30.9,129.1l56.8,124.2c1.7,4.2,3.6,8.4,5.7,12.6
			c0.2,0.4,0.3,0.7,0.5,1.1c1.8,3.4,3.7,6.8,5.8,10.1c0.4,0.7,0.8,1.4,1.2,2.1c4.9,7.6,10.3,14.5,16.1,20.9h0l-5.8,9.6l-65.9,108.7
			c-5.7,9.4,1.1,21.3,12,21.3h158.6c5.4,0,10.4-3.1,12.7-8.1l45.1-96.1l16.7-35.7c0.8-1.5,1.5-3,2.3-4.5
			c5.3-10.8,8.9-22.7,10.4-35.3C981.1,1168.9,973.6,1134.7,954.1,1104.2z"/>
		<path class="c3-fill" fill="#808080" d="M1230.2,1209.2c0.2-0.4,0.3-0.7,0.5-1.1c2.1-4.2,4-8.4,5.8-12.6l56.8-124.2c21.7-55,32.9-83.3,30.9-129.1
			c-0.2-4.4-0.5-8.9-0.9-13.7c-4.2-45.6-44.8-165.7-62.3-223.5c-3-10-11-14.9-19.4-14.9c-6.7,0-13.7,3.2-18.6,9.6
			c-8.2,10.6-12.4,24.8-11.7,39.1c0.1,2.7,0.4,5.4,0.9,8.1l33.6,174.6c4.5,7.2,7.2,15.6,7.6,24.5v0v0c0.1,1.1,0.1,2.3,0,3.4
			c-0.2,7.3-1.9,14.4-5.2,21.1l-36.9,89.1l-26,62.7c-0.9,2.2-3.1,3.6-5.3,3.6c-0.7,0-1.5-0.1-2.2-0.4c-2.9-1.2-4.3-4.6-3.1-7.5
			l11.2-27.1l51.8-125.1c2.7-5.5,4.1-11,4.2-16.6c0.4-14.7-7.6-28.2-20.3-35.1h0c-0.5-0.3-0.9-0.6-1.4-0.8c-5.5-2.7-11.4-4-17.2-4
			c-14.4,0-28.2,8-35,21.7l-59.2,119.7c-6,2.6-11.8,5.8-17.5,9.4c-17.9,11.3-34.2,27.1-46.9,47.1c-19.5,30.6-27,64.7-23.3,95.1
			c1.5,12.6,5.1,24.5,10.4,35.3c0.7,1.5,1.5,3,2.3,4.5l16.7,35.7l45.1,96.1c2.3,4.9,7.3,8.1,12.7,8.1h158.6c10.9,0,17.7-12,12-21.3
			l-65.9-108.7l-5.8-9.6h0c5.8-6.4,11.3-13.3,16.1-20.9c0.4-0.7,0.8-1.4,1.2-2.1C1226.5,1215.9,1228.5,1212.6,1230.2,1209.2
			L1230.2,1209.2L1230.2,1209.2L1230.2,1209.2z"/>
	</g>
</g>
</svg>
