<?xml version="1.0" encoding="utf-8"?>
<!-- Generator: Adobe Illustrator 18.1.1, SVG Export Plug-In . SVG Version: 6.00 Build 0)  -->
<svg version="1.1" xmlns="http://www.w3.org/2000/svg" xmlns:xlink="http://www.w3.org/1999/xlink" x="0px" y="0px"
	 viewBox="0 0 2000 2000" enable-background="new 0 0 2000 2000" xml:space="preserve">
<g id="Layer_2">
</g>
<g id="Layer_3">
	<g>
		<path class="c4-fill" d="M813.3,829.3c17.6,0,31.9,14.3,31.9,31.9c0,17.6-14.3,31.9-31.9,31.9c-17.6,0-31.9-14.3-31.9-31.9
			C781.4,843.6,795.7,829.3,813.3,829.3"/>
		<path class="c4-fill" d="M813.3,990.8c17.6,0,31.9,14.3,31.9,31.9c0,17.6-14.3,31.9-31.9,31.9c-17.6,0-31.9-14.3-31.9-31.9
			C781.4,1005.1,795.7,990.8,813.3,990.8"/>
		<path class="c4-fill" d="M813.3,1163.4c17.6,0,31.9,14.3,31.9,31.9c0,17.6-14.3,31.9-31.9,31.9c-17.6,0-31.9-14.3-31.9-31.9
			C781.4,1177.7,795.7,1163.4,813.3,1163.4"/>
		<path class="c4-fill" d="M1123.8,872.5H912.3c-2.6,0-4.8-2.5-4.8-5.6s2.1-5.6,4.8-5.6h211.5c2.6,0,4.8,2.5,4.8,5.6S1126.4,872.5,1123.8,872.5z"/>
		<path class="c4-fill" d="M1044.6,1200.9H912.3c-2.6,0-4.8-2.5-4.8-5.6s2.1-5.6,4.8-5.6h132.3c2.6,0,4.8,2.5,4.8,5.6S1047.2,1200.9,1044.6,1200.9z"
			/>
		<path class="c4-fill" d="M1123.8,1028.3H912.3c-2.6,0-4.8-2.5-4.8-5.6s2.1-5.6,4.8-5.6h211.5c2.6,0,4.8,2.5,4.8,5.6S1126.4,1028.3,1123.8,1028.3z"
			/>
		<path class="c5-fill" fill="#808080" d="M1142,627.9V607c0-23.7-19.3-42.9-42.9-42.9h-62.4c5.9-10.6,11.2-23.7,11.2-37c0-43.9-37.7-79.6-81.6-79.6
			c-43.8,0-79.5,35.8-79.5,79.6c0,13.3,3.3,26.5,9.2,37h-65.8c-23.7,0-42.9,19.2-42.9,42.9v20.9h-95.7c-36,0-65.1,29.2-65.1,65.1
			v641.9c0,35.9,29.1,65.1,65.1,65.1h546.1c35.9,0,65.1-29.2,65.1-65.1V693c0-35.9-29.2-65.1-65.1-65.1H1142z M918.9,527
			c0-26.1,21.2-47.5,47.3-47.5c26.2,0,47.4,21.3,47.4,47.5c0,15-6.9,27.8-17.9,37.1h-59C925.9,554.8,918.9,542,918.9,527
			 M1237.7,1296.2c0,22.1-17.9,40-40,40H731.6c-22.2,0-40.1-17.9-40.1-40V733.1c0-22.1,17.9-40,40.1-40h55.6
			c0,17.6,14.3,31.9,31.9,31.9h291c17.7,0,31.9-14.3,31.9-31.9h55.6c22.1,0,40.1,17.9,40.1,40L1237.7,1296.2z"/>
		<circle fill="#FFFFFF" cx="1238.1" cy="1340.9" r="140.8"/>
		<path class="c4-fill" d="M1249.4,1147.1c-100.2,0-181.4,81.2-181.4,181.4c0,100.2,81.2,181.4,181.4,181.4c100.2,0,181.4-81.2,181.4-181.4
			C1430.8,1228.3,1349.6,1147.1,1249.4,1147.1z M1222.3,1405.9l-64.4-62.4l26.4-25.6l38.5,37.4l109.8-103.3l26,26L1222.3,1405.9z"/>
	</g>
</g>
</svg>
