<?xml version="1.0" encoding="utf-8"?>
<!-- Generator: Adobe Illustrator 18.1.1, SVG Export Plug-In . SVG Version: 6.00 Build 0)  -->
<svg version="1.1" id="Layer_4" xmlns="http://www.w3.org/2000/svg" xmlns:xlink="http://www.w3.org/1999/xlink" x="0px" y="0px"
	 viewBox="0 0 2000 2000" enable-background="new 0 0 2000 2000" xml:space="preserve">
<g>
	<path class="c3-fill" fill="#808080" d="M880.1,698.1c0,0,32.8-21.2,12.9-59.5C893,638.5,860.3,660.5,880.1,698.1z"/>
	<path class="c3-fill" fill="#808080" d="M922.3,693.8c0,0-3.5,38.9-46.8,39C875.6,732.8,879.8,693.7,922.3,693.8z"/>
	<path class="c3-fill" fill="#808080" d="M870.4,731.7c0,0,12.9-36.9-26.5-54.9C843.9,676.8,831.6,714.2,870.4,731.7z"/>
	<path class="c3-fill" fill="#808080" d="M911.8,742.7c0,0-3.5,38.9-46.8,39C865,781.7,869.3,742.6,911.8,742.7z"/>
	<path class="c3-fill" fill="#808080" d="M859.8,780.6c0,0,12.9-36.9-26.5-54.9C833.3,725.7,821.1,763.1,859.8,780.6z"/>
	<path class="c3-fill" fill="#808080" d="M901,792.6c0,0-3.5,38.9-46.8,39C854.2,831.6,858.5,792.5,901,792.6z"/>
	<path class="c3-fill" fill="#808080" d="M849,830.5c0,0,12.9-36.9-26.5-54.9C822.5,775.6,810.3,813,849,830.5z"/>
	<path class="c3-fill" fill="#808080" d="M890.3,842.1c0,0-3.5,38.9-46.8,39C843.5,881.2,847.8,842.1,890.3,842.1z"/>
	<path class="c3-fill" fill="#808080" d="M838.3,880c0,0,12.9-36.9-26.5-54.9C811.8,825.2,799.6,862.6,838.3,880z"/>
	<path class="c3-fill" fill="#808080" d="M879.3,892.8c0,0-3.5,38.9-46.8,39C832.6,931.8,836.9,892.7,879.3,892.8z"/>
	<path class="c3-fill" fill="#808080" d="M827.4,930.7c0,0,12.9-36.9-26.5-54.9C800.9,875.8,788.7,913.2,827.4,930.7z"/>
	<g>
		<g>
			<path class="c3-fill" fill="#808080" d="M704.4,701c0,0-33.5-20.1-14.8-59.1C689.6,641.9,722.9,662.8,704.4,701z"/>
		</g>
		<g>
			<path class="c3-fill" fill="#808080" d="M662.1,698.1c0,0,4.8,38.8,48,37.5C710.1,735.6,704.5,696.6,662.1,698.1z"/>
		</g>
		<g>
			<path class="c3-fill" fill="#808080" d="M715.3,734.3c0,0-14.1-36.4,24.7-55.7C739.9,678.6,753.4,715.5,715.3,734.3z"/>
		</g>
		<g>
			<path class="c3-fill" fill="#808080" d="M674.2,746.6c0,0,4.8,38.8,48,37.5C722.3,784.1,716.7,745.1,674.2,746.6z"/>
		</g>
		<g>
			<path class="c3-fill" fill="#808080" d="M727.4,782.8c0,0-14.1-36.4,24.7-55.7C752.1,727.1,765.6,764,727.4,782.8z"/>
		</g>
		<g>
			<path class="c3-fill" fill="#808080" d="M686.7,796.1c0,0,4.8,38.8,48,37.5C734.7,833.6,729.1,794.7,686.7,796.1z"/>
		</g>
		<g>
			<path class="c3-fill" fill="#808080" d="M739.9,832.3c0,0-14.1-36.4,24.7-55.7C764.5,776.6,778,813.5,739.9,832.3z"/>
		</g>
		<g>
			<path class="c3-fill" fill="#808080" d="M699,845.3c0,0,4.8,38.8,48,37.5C747.1,882.8,741.5,843.8,699,845.3z"/>
		</g>
		<g>
			<path class="c3-fill" fill="#808080" d="M752.2,881.5c0,0-14.1-36.4,24.7-55.7C776.9,825.8,790.3,862.7,752.2,881.5z"/>
		</g>
		<g>
			<path class="c3-fill" fill="#808080" d="M711.6,895.5c0,0,4.8,38.8,48,37.5C759.7,933,754.1,894.1,711.6,895.5z"/>
		</g>
		<g>
			<path class="c3-fill" fill="#808080" d="M764.8,931.7c0,0-14.1-36.4,24.7-55.7C789.5,876,802.9,912.9,764.8,931.7z"/>
		</g>
	</g>
	<path class="c3-fill" fill="#808080" d="M828.2,938.6c-3.4-0.6-6.8,1.5-7.5,4.9l-22.6,107.1l-26.2-106.3c-0.8-3.4-4.2-5.5-7.7-4.6
		c-3.4,0.8-5.5,4.3-4.6,7.7l32.5,131.8l-17,80.5c-0.7,3.4,1.5,6.8,4.9,7.5c0.4,0.1,0.9,0.1,1.3,0.1c2.9,0,5.6-2,6.2-5l11.6-54.8
		l13.4,54.4c0.7,2.9,3.3,4.8,6.2,4.8c0.5,0,1-0.1,1.5-0.2c3.4-0.8,5.5-4.3,4.6-7.7l-19.7-79.9l28.1-132.8
		C833.9,942.7,831.7,939.3,828.2,938.6z"/>
	<path class="c4-fill" d="M1101.1,976c-2.9-4.9-6.5-9.4-10.7-13.6c-0.6-0.6-0.9-0.9-0.9-0.9v0l0,0c-24.7-24.3-62.8-26.7-90.3-8.1
		c-3.2-21.8-12-55.8-36.8-73.8c-4.1-3-10.1-2.2-13.1,1.7l-3.4,4.3c-1.6,2.1-2.3,4.7-2,7.3c0.4,2.6,1.8,4.9,3.9,6.4
		c8.6,6,28.7,26.7,34.6,57.5c-29-20-68.9-17-93.7,8.8c0,0-0.1,0.1-0.2,0.2c-5.6,5.8-10.1,12.3-13.4,19.2
		c-15.5,28.3-31.1,84.3,34.8,146.6c5.2,4.9,10.9,9.1,17.2,12.4c13.5,7.1,36.9,16.1,54.1,4.4c7.2-4.9,16.4-5.2,24-0.9
		c10.8,6,28.4,9.3,53.1-6.2c6.9-4.3,16.9-13,22.4-19C1140.5,1056.3,1117.8,1001.1,1101.1,976z M930,978.9
		c-1.7,0.7-42.5,17.6-33.7,64.2c0.5,2.6-1.2,5.1-3.8,5.6c-0.3,0.1-0.6,0.1-0.9,0.1c-2.2,0-4.2-1.6-4.7-3.9
		c-10.3-54.4,39-74.6,39.5-74.8c2.4-1,5.2,0.2,6.2,2.7C933.6,975.2,932.4,977.9,930,978.9z"/>
	<path class="c3-fill" fill="#808080" d="M1017.4,851.3c25.4-22.2,69.3-25.5,97.7-23.1c-4,40.5-17,59.8-39.3,79.4c-20.8,18.3-50.3,23.2-66.5,11.5
		c3.5-24.7,57.5-68.3,82.5-75.2c-23.2-0.5-81.5,36.4-93.8,64C991.2,886.3,999.9,866.6,1017.4,851.3z"/>
	<g>
		<path class="c3-fill" fill="#808080" d="M1004.8,1333.2c-12.2,10.2-28.9-5.4-19.6-18.3l180.2-250.4c17.6-28.6,56.9-33.9,81.5-11l0,0
			c24.6,22.9,22,62.5-5.2,82.1L1004.8,1333.2z"/>
	</g>
	<path class="c4-fill" d="M1386.3,986.6c1.4-1,2.7-2.1,3.9-3.4c13-13.9,10.9-37-4.7-51.5c-7.5-7-16.7-10.6-25.7-11.1c1.6-11.7-2.2-23.9-11.5-32.6
		c-15.2-14.1-39-13.2-53.2,2c-3.7,4-6.3,8.6-8,13.4c-10.5-7.4-24.3-6.9-32.3,1.7c-8.9,9.5-7.4,25.3,3.2,35.3
		c-5.6,1.7-10.9,4.6-15.1,9.1c-14,15.1-11.6,40,5.3,55.8c3.2,3,6.7,5.2,10.4,7.1c-7.9,12.8-16.5,24.4-23.3,32.9
		c3.5,1.8,6.8,4.1,9.9,6.7c10.9-11.9,20.6-24.4,28.3-35c2.2,0.3,4.3,0.4,6.4,0.3c0.9,2.2,2.1,4.4,3.4,6.5
		c-10.3,8.5-22.6,19.5-34.2,31.7c2.6,2.7,4.9,5.7,6.8,8.8c9.1-8.4,22.1-19.4,36.3-29.2c0.1,0.1,0.3,0.3,0.4,0.5
		c19.8,18.5,49.2,19.2,65.7,1.5c2.6-2.7,4.5-5.8,6.1-9c9.6,4.2,20.6,2.8,27.4-4.5c8.9-9.6,7.4-25.4-3.4-35.5
		C1387.7,987.6,1387,987.1,1386.3,986.6z"/>
	<path class="c4-fill" d="M1186.5,1093.6l-25.1-23.4l-4.6,6.4l24.4,22.7c1.3,1.3,3.6,1,5.1-0.6C1187.8,1097.1,1187.9,1094.8,1186.5,1093.6z"/>
	<path class="c4-fill" d="M1202.6,1168.2l-29.8-27.8c-1.3-1.2-3.6-1-5.1,0.6c-1.5,1.6-1.6,3.9-0.2,5.1l29.1,27.1L1202.6,1168.2z"/>
	<path class="c4-fill" d="M1100.9,1253.1l-18.9-17.6c-1.3-1.3-3.6-1-5.1,0.6c-1.5,1.6-1.6,3.9-0.2,5.1l18.1,16.9L1100.9,1253.1z"/>
	<path class="c4-fill" d="M1092.6,1165.8l18.8,17.5c1.3,1.2,3.6,1,5.1-0.6c1.5-1.6,1.6-3.9,0.2-5.1l-19.6-18.2L1092.6,1165.8z"/>
</g>
</svg>
