<?xml version="1.0" encoding="utf-8"?>
<!-- Generator: Adobe Illustrator 18.0.0, SVG Export Plug-In . SVG Version: 6.00 Build 0)  -->
<!DOCTYPE svg PUBLIC "-//W3C//DTD SVG 1.1//EN" "http://www.w3.org/Graphics/SVG/1.1/DTD/svg11.dtd">
<svg version="1.1" id="Layer_2" xmlns="http://www.w3.org/2000/svg" xmlns:xlink="http://www.w3.org/1999/xlink" x="0px" y="0px"
	 viewBox="0 0 2000 2000" enable-background="new 0 0 2000 2000" xml:space="preserve">
<g>
	<g>
		<path class="c4-fill" d="M705,1280.7c-8.1,0-16.3-0.6-24.4,0.1c-21.8,1.9-36-17.1-37.3-34.4c-4.7-60.1-9.1-120.2-13.6-180.3
			c-2.3-31.3-4.2-62.7-7.1-93.9c-2.3-24.6-15.8-41.9-36.9-54.9c-18.8-11.5-37.2-24.1-53.8-38.5c-19.2-16.6-19.3-42.5-2.8-59.7
			c16.2-16.9,41.3-17.3,59.6-0.3c37.2,34.7,80.9,50.4,131.5,45.9c39.5-3.5,73.2-19.9,101.4-47.7c12.8-12.6,27.9-16.7,44.8-10.7
			c16.2,5.8,25.3,18.2,27.2,35.3c1.4,13-2.5,25.1-12.6,33.3c-17.3,14.1-34.9,28.3-53.8,39.9c-24.3,14.9-37.3,34.9-39.2,63.4
			c-4.3,64.6-9.6,129.2-14.5,193.7c-1.8,23.8-3.5,47.5-5.3,71.3c-1.8,24.1-16.1,37.4-40.4,37.4
			C720.1,1280.7,712.6,1280.7,705,1280.7z"/>
		<path class="c4-fill" d="M705.1,854.9c-36.9-0.3-66.1-30.1-65.5-66.7c0.6-36.4,30.2-65.5,66.3-65.2c36.6,0.3,66.1,30.4,65.5,66.9
			C770.9,826.4,741.5,855.2,705.1,854.9z"/>
	</g>
	<g>
		<path class="c4-fill" d="M1294.3,1276.7c-8.1,0-16.3-0.6-24.4,0.1c-21.8,1.9-36-17.1-37.3-34.4c-4.7-60.1-9.1-120.2-13.6-180.3
			c-2.3-31.3-4.2-62.7-7.1-93.9c-2.3-24.6-15.8-41.9-36.9-54.9c-18.8-11.5-37.2-24.1-53.8-38.5c-19.2-16.6-19.3-42.5-2.8-59.7
			c16.2-16.9,41.3-17.3,59.6-0.3c37.2,34.7,80.9,50.4,131.5,45.9c39.5-3.5,73.2-19.9,101.4-47.7c12.8-12.6,27.9-16.7,44.8-10.7
			c16.2,5.8,25.3,18.2,27.2,35.3c1.4,13-2.5,25.1-12.6,33.3c-17.3,14.1-34.9,28.3-53.8,39.9c-24.3,14.9-37.3,34.9-39.2,63.4
			c-4.3,64.6-9.6,129.2-14.5,193.7c-1.8,23.8-3.5,47.5-5.3,71.3c-1.8,24.1-16.1,37.4-40.4,37.4
			C1309.5,1276.7,1301.9,1276.7,1294.3,1276.7z"/>
		<path class="c4-fill" d="M1294.4,850.9c-36.9-0.3-66.1-30.1-65.5-66.7c0.6-36.4,30.2-65.5,66.3-65.2c36.6,0.3,66.1,30.4,65.5,66.9
			C1360.2,822.4,1330.8,851.2,1294.4,850.9z"/>
	</g>
	<g>
		<path class="c3-fill" fill="#808080" d="M998.4,1276.7c-8.1,0-16.3-0.6-24.4,0.1c-21.8,1.9-36-17.1-37.3-34.4c-4.7-60.1-9.1-120.2-13.6-180.3
			c-2.3-31.3-4.2-62.7-7.1-93.9c-2.3-24.6-15.8-41.9-36.9-54.9c-18.8-11.5-37.2-24.1-53.8-38.5c-19.2-16.6-19.3-42.5-2.8-59.7
			c16.2-16.9,41.3-17.3,59.6-0.3c37.2,34.7,80.9,50.4,131.5,45.9c39.5-3.5,73.2-19.9,101.4-47.7c12.8-12.6,27.9-16.7,44.8-10.7
			c16.2,5.8,25.3,18.2,27.2,35.3c1.4,13-2.5,25.1-12.6,33.3c-17.3,14.1-34.9,28.3-53.8,39.9c-24.3,14.9-37.3,34.9-39.2,63.4
			c-4.3,64.6-9.6,129.2-14.5,193.7c-1.8,23.8-3.5,47.5-5.3,71.3c-1.8,24.1-16.1,37.4-40.4,37.4
			C1013.6,1276.7,1006,1276.7,998.4,1276.7z"/>
		<path class="c3-fill" fill="#808080" d="M998.6,850.9c-36.9-0.3-66.1-30.1-65.5-66.7c0.6-36.4,30.2-65.5,66.3-65.2c36.6,0.3,66.1,30.4,65.5,66.9
			C1064.3,822.4,1034.9,851.2,998.6,850.9z"/>
	</g>
</g>
</svg>
