<?xml version="1.0" encoding="utf-8"?>
<!-- Generator: Adobe Illustrator 18.1.1, SVG Export Plug-In . SVG Version: 6.00 Build 0)  -->
<!DOCTYPE svg PUBLIC "-//W3C//DTD SVG 1.1//EN" "http://www.w3.org/Graphics/SVG/1.1/DTD/svg11.dtd">
<svg version="1.1" id="Layer_2" xmlns="http://www.w3.org/2000/svg" xmlns:xlink="http://www.w3.org/1999/xlink" x="0px" y="0px"
	 viewBox="0 0 2000 2000" enable-background="new 0 0 2000 2000" xml:space="preserve">
<g>
	<circle class="c4-fill" cx="1005.2" cy="1019.3" r="70.5"/>
	<path fill="#808080" class="c3-fill" d="M1005.2,896.3c25.5,0,49.5,9,70.5,22.5c72-93,154.4-238.4,3-296.9c-55.5-13.5-96-13.5-151.4,0
		c-151.4,60-69,208.4,4.5,299.9C951.2,905.3,976.7,896.3,1005.2,896.3z M1002.2,675.9c0-3,3-7.5,7.5-7.5c3,0,7.5,3,7.5,7.5v182.9
		c0,3-3,7.5-7.5,7.5c-3,0-7.5-3-7.5-7.5V675.9z"/>
	<path fill="#808080" class="c3-fill" d="M891.2,1062.7c-106.4,36-253.4,113.9-179.9,238.4c31.5,42,87,72,106.4,79.5
		c140.9,31.5,170.9-127.4,173.9-241.4C945.2,1134.7,906.2,1103.2,891.2,1062.7z M904.7,1149.7l-106.4,145.4c-1.5,1.5-3,3-4.5,3
		c-1.5,0-3,0-3-1.5c-3-1.5-3-7.5-1.5-9l106.4-145.4c1.5-3,7.5-3,9-1.5C906.2,1142.2,906.2,1146.7,904.7,1149.7z"/>
	<path fill="#808080" class="c3-fill" d="M1369.5,843.8c-90-112.4-211.4-3-283.4,85.5c24,22.5,39,55.5,39,90c0,12-1.5,25.5-4.5,36
		c104.9,36,260.9,61.5,283.4-82.5C1405.5,921.8,1395,887.3,1369.5,843.8z M1318.5,926.3l-170.9,63h-1.5c-3,0-4.5-1.5-7.5-3
		c-1.5-3,0-7.5,3-9l170.9-63c3-1.5,7.5,0,9,3C1321.5,921.8,1321.5,924.8,1318.5,926.3z"/>
	<path fill="#808080" class="c3-fill" d="M1116.1,1064.2c-16.5,45-61.5,78-113.9,78h-1.5c-3,113.9,16.5,269.9,164.9,242.9c51-15,82.5-36,116.9-75
		C1368,1184.2,1225.6,1104.7,1116.1,1064.2z M1204.6,1289.1c-1.5,1.5-3,1.5-3,1.5c-1.5,0-3,0-4.5-1.5l-118.4-137.9
		c-1.5-3-1.5-7.5,0-9c3-1.5,7.5-1.5,9,0l118.4,137.9C1206.1,1281.6,1206.1,1287.6,1204.6,1289.1z"/>
	<path fill="#808080" class="c3-fill" d="M889.7,1056.7c-3-12-7.5-25.5-7.5-39c0-33,13.5-63,34.5-84c-61.5-91.5-167.9-197.9-269.9-100.5
		c-33,39-46.5,73.5-51,124.4C598.9,1109.2,777.3,1086.7,889.7,1056.7z M676.8,927.8c1.5-3,4.5-4.5,9-4.5l175.4,49.5
		c3,1.5,4.5,4.5,4.5,9c0,3-3,4.5-7.5,4.5h-1.5l-175.4-49.5C678.3,935.3,676.8,930.8,676.8,927.8z"/>
</g>
<g display="none">
	<path display="inline" d="M996,100.4c61.4,0,122.7,6.2,182.2,18.4c58,11.9,115,29.6,169.5,52.6c53.5,22.6,105.1,50.7,153.5,83.3
		c47.9,32.3,92.9,69.5,133.8,110.4c40.9,40.9,78.1,85.9,110.4,133.8c32.6,48.3,60.7,99.9,83.3,153.5c23,54.5,40.7,111.5,52.6,169.5
		c12.2,59.5,18.4,120.8,18.4,182.2s-6.2,122.7-18.4,182.2c-11.9,58-29.6,115-52.6,169.5c-22.6,53.5-50.7,105.1-83.3,153.5
		c-32.3,47.9-69.5,92.9-110.4,133.8c-40.9,40.9-85.9,78.1-133.8,110.4c-48.3,32.6-99.9,60.7-153.5,83.3
		c-54.5,23-111.5,40.7-169.5,52.6c-59.5,12.2-120.8,18.4-182.2,18.4s-122.7-6.2-182.2-18.4c-58-11.9-115-29.6-169.5-52.6
		c-53.5-22.6-105.1-50.7-153.5-83.3C443,1721,398,1683.9,357,1643c-40.9-40.9-78.1-85.9-110.4-133.8
		c-32.6-48.3-60.7-99.9-83.3-153.5c-23-54.5-40.7-111.5-52.6-169.5c-12.2-59.5-18.4-120.8-18.4-182.2s6.2-122.7,18.4-182.2
		c11.9-58,29.6-115,52.6-169.5c22.6-53.5,50.7-105.1,83.3-153.5C279,451,316.1,406,357,365.1C398,324.1,443,287,490.9,254.7
		c48.3-32.6,99.9-60.7,153.5-83.3c54.5-23,111.5-40.7,169.5-52.6C873.3,106.6,934.6,100.4,996,100.4 M996,0C441.5,0-8,449.5-8,1004
		S441.5,2008,996,2008s1004-449.5,1004-1004S1550.5,0,996,0L996,0z"/>
</g>
</svg>
