<?xml version="1.0" encoding="utf-8"?>
<!-- Generator: Adobe Illustrator 18.1.1, SVG Export Plug-In . SVG Version: 6.00 Build 0)  -->
<svg version="1.1" xmlns="http://www.w3.org/2000/svg" xmlns:xlink="http://www.w3.org/1999/xlink" x="0px" y="0px"
	 viewBox="0 0 2000 2000" enable-background="new 0 0 2000 2000" xml:space="preserve">
<g id="Layer_2">
</g>
<g id="Layer_3">
	<path class="c4-fill" d="M568.1,698.3c-7.6,0-13.8,6.2-13.8,13.8V740v26.1v88.8c0,1-0.2,2-0.3,3c-1.4,6.8-7.8,11.7-15.2,10.8
		c-7.1-0.8-12.1-7.5-12.1-14.6v-88v-36.6v-17.4c0-7.6-6.2-13.8-13.8-13.8h0c-7.6,0-13.8,6.2-13.8,13.8v17.4v36.6v88
		c0,7.1-5,13.8-12.1,14.6c-7.4,0.9-13.8-4.1-15.2-10.8c-0.1-1-0.3-2-0.3-3v-88.8V740v-27.8c0-7.6-6.2-13.8-13.8-13.8h0
		c-7.6,0-13.8,6.2-13.8,13.8v34.6v19.4v88.8c0,15.9,6.5,31.1,18.1,42l24.1,22.7c8.3,7.9,13,18.9,12.7,30.4l-8.4,354.5
		c-0.3,12.5,9.3,23.8,21.9,23.9c0.2,0,0.3,0,0.5,0c12.5-0.1,22.1-11.3,21.9-23.8L527,950c-0.3-11.5,4.3-22.5,12.7-30.4l24.1-22.7
		c11.6-10.9,18.1-26.1,18.1-42v-88.7v-19.4v-34.6C581.9,704.5,575.7,698.3,568.1,698.3L568.1,698.3z"/>
	<path class="c3-fill" fill="#808080" d="M512.8,1337.1L512.8,1337.1c-16.3,0-29.6-13.2-29.6-29.6V1059c0-16.3,13.2-29.6,29.6-29.6h0
		c16.3,0,29.6,13.2,29.6,29.6v248.6C542.3,1323.9,529.1,1337.1,512.8,1337.1z"/>
	<path class="c4-fill" d="M1469.6,704L1469.6,704L1469.6,704c-2.1-2.9-5.4-4.9-10.4-5.7c0,0-34.5-5.6-34.5,104.7l0,0c-0.5,10.1-0.4,16.8-0.4,16.8
		v170.2c0,5.7,4.7,10.4,10.4,10.4h10.7v62.4h27.6V766.1v-36.6v-11.2C1473,712.2,1472.1,707.4,1469.6,704z"/>
	<path class="c3-fill" fill="#808080" d="M1459.2,1337.1L1459.2,1337.1c-16.3,0-29.6-13.2-29.6-29.6v-237.8c0-16.3,13.2-29.6,29.6-29.6h0
		c16.3,0,29.6,13.2,29.6,29.6v237.8C1488.7,1323.9,1475.5,1337.1,1459.2,1337.1z"/>
	<circle class="c3-fill" fill="#231F20" cx="983.6" cy="1017.7" r="30.2"/>
	<rect x="969.2" y="846.5" fill="#231F20" width="28.5" height="157.4"/>
	<path class="c3-fill" fill="#231F20" d="M977.7,827.9L954,865c-3,4.7,0.4,10.9,6,10.9h23.5h0.2h23.6c5.6,0,9-6.2,6-10.9l-23.6-37.1
		C986.9,823.5,980.5,823.5,977.7,827.9z"/>

		<rect x="913.8" y="928.3" transform="matrix(0.4703 -0.8825 0.8825 0.4703 -385.5437 1345.5098)" fill="#231F20" width="28.5" height="131.2"/>
	<path class="c3-fill" fill="#231F20" d="M852.2,960.1l21.6,38.4c2.8,4.9,9.8,4.8,12.5-0.1l11.1-20.8l0.1-0.1l11.1-20.8c2.6-4.9-1.2-10.9-6.8-10.4
		l-43.9,3.3C852.7,949.9,849.7,955.6,852.2,960.1z"/>
	<g>
		<path class="c4-fill" d="M983.6,729.5c37.6,0,74.1,7.4,108.5,21.9c33.2,14,63,34.1,88.6,59.7c25.6,25.6,45.7,55.4,59.7,88.6
			c14.5,34.3,21.9,70.8,21.9,108.5s-7.4,74.1-21.9,108.5c-14,33.2-34.1,63-59.7,88.6c-25.6,25.6-55.4,45.7-88.6,59.7
			c-34.3,14.5-70.8,21.9-108.5,21.9s-74.1-7.4-108.5-21.9c-33.2-14-63-34.1-88.6-59.7c-25.6-25.6-45.7-55.4-59.7-88.6
			c-14.5-34.3-21.9-70.8-21.9-108.5s7.4-74.1,21.9-108.5c14-33.2,34.1-63,59.7-88.6c25.6-25.6,55.4-45.7,88.6-59.7
			C909.5,736.9,945.9,729.5,983.6,729.5 M983.6,666.9c-188.5,0-341.2,152.8-341.2,341.2s152.8,341.2,341.2,341.2
			c188.5,0,341.2-152.8,341.2-341.2S1172.1,666.9,983.6,666.9L983.6,666.9z"/>
	</g>
	<g>
		<path class="c4-fill" d="M983.6,729.5c37.6,0,74.1,7.4,108.5,21.9c33.2,14,63,34.1,88.6,59.7c25.6,25.6,45.7,55.4,59.7,88.6
			c14.5,34.3,21.9,70.8,21.9,108.5s-7.4,74.1-21.9,108.5c-14,33.2-34.1,63-59.7,88.6c-25.6,25.6-55.4,45.7-88.6,59.7
			c-34.3,14.5-70.8,21.9-108.5,21.9s-74.1-7.4-108.5-21.9c-33.2-14-63-34.1-88.6-59.7c-25.6-25.6-45.7-55.4-59.7-88.6
			c-14.5-34.3-21.9-70.8-21.9-108.5s7.4-74.1,21.9-108.5c14-33.2,34.1-63,59.7-88.6c25.6-25.6,55.4-45.7,88.6-59.7
			C909.5,736.9,945.9,729.5,983.6,729.5 M983.6,666.9c-188.5,0-341.2,152.8-341.2,341.2s152.8,341.2,341.2,341.2
			c188.5,0,341.2-152.8,341.2-341.2S1172.1,666.9,983.6,666.9L983.6,666.9z"/>
	</g>
	<path class="c3-fill" fill="#808080" d="M983.6,776.5C983.6,776.5,983.5,776.5,983.6,776.5l-0.1,20.4c0,0,0.1,0,0.1,0
		c116.5,0,211.3,94.8,211.3,211.3c0,116.5-94.8,211.3-211.3,211.3c0,0-0.1,0-0.1,0l0,20.4c0,0,0.1,0,0.1,0
		c127.9,0,231.7-103.7,231.7-231.7C1215.3,880.2,1111.5,776.5,983.6,776.5z"/>
	<path class="c3-fill" fill="#808080" d="M1203.4,1082.2c0,0,0-0.1,0-0.1l-19.3-6.5c0,0,0,0.1,0,0.1c-37.3,110.4-157.4,169.9-267.8,132.6
		c-110.4-37.3-169.9-157.4-132.6-267.8c0,0,0-0.1,0-0.1l-19.3-6.5c0,0,0,0.1,0,0.1c-40.9,121.2,24.1,252.7,145.4,293.6
		C1031,1268.5,1162.4,1203.5,1203.4,1082.2z"/>
</g>
</svg>
