<?xml version="1.0" encoding="utf-8"?>
<!-- Generator: Adobe Illustrator 19.1.0, SVG Export Plug-In . SVG Version: 6.00 Build 0)  -->
<svg version="1.1" id="Layer_5" xmlns="http://www.w3.org/2000/svg" xmlns:xlink="http://www.w3.org/1999/xlink" x="0px" y="0px"
	 viewBox="0 0 2000 2000" enable-background="new 0 0 2000 2000" xml:space="preserve">
<g>
	<path class="c4-fill" d="M815.3,726.5h113.1c2.2-21.6,20-38.6,42-39.1c-0.1-1.4-0.2-2.9-0.2-4.3c0-24.6,20-44.6,44.6-44.6c7.3,0,14.5,1.8,20.9,5.2
		c4.6-8.8,10.8-16.4,18-22.8c-4.9-16.4-19.9-28.5-38-28.5c-9.5,0-18.2,3.3-25,8.8c-12.1-29.4-41-50.1-74.8-50.1
		c-44.7,0-80.9,36.2-80.9,80.9c0,4,0.4,8,1,11.9h-20.7c-22.8,0-41.3,18.5-41.3,41.3C773.9,708,792.4,726.5,815.3,726.5z"/>
	<path class="c4-fill" d="M1041.2,664.6l-7.1-5.7c-5.6-4.5-12.3-6.9-19.5-6.9c-17.1,0-31,13.9-31,31c0,3.1,0.5,6.2,1.4,9.1l2.7,8.7h-16.2
		c-16.6,0-30,13.5-30,30v4.9c0,16.6,13.5,30,30,30h236c16.6,0,30-13.5,30-30v-4.9c0-16.6-13.5-30-30-30h-30l1.1-7.7
		c0.6-3.9,0.8-7.2,0.8-10.3c0-38.6-31.4-70-70-70c-28.5,0-53.9,17-64.8,43.4L1041.2,664.6z"/>
	<path class="c3-fill" fill="#808080" d="M669.5,1352.7c0,9.6,7.8,17.4,17.4,17.4h18.4c9.6,0,17.4-7.8,17.4-17.4v-45.5h-53.2V1352.7z"/>
	<path class="c3-fill" fill="#808080" d="M1274.5,1352.7c0,9.6,7.8,17.4,17.4,17.4h18.4c9.6,0,17.4-7.8,17.4-17.4v-45.5h-53.2V1352.7z"/>
	<path class="c4-fill" d="M638.9,1292.1c0,8.3,6.7,15.1,15.1,15.1h15.6h53.2h551.8h53.2h12.4c8.3,0,15.1-6.7,15.1-15.1v-127.8H638.9V1292.1z"/>
	<path class="c3-fill" fill="#808080" d="M1258.4,993.4h-67.4v14.3c0,8.1-6.6,14.7-14.7,14.7h-130.3c-8.1,0-14.7-6.6-14.7-14.7v-14.3h-69v14.3
		c0,8.1-6.6,14.7-14.7,14.7H817.4c-8.1,0-14.7-6.6-14.7-14.7v-14.3h-67l-90.3,149.3h703.3L1258.4,993.4z"/>
	<path class="c4-fill" d="M732.5,888v14.3v31.2v59.9h3.2h67v-44.2c0-8.1,6.6-14.7,14.7-14.7h130.3c8.1,0,14.7,6.6,14.7,14.7v44.2h69v-44.2
		c0-8.1,6.6-14.7,14.7-14.7h130.3c8.1,0,14.7,6.6,14.7,14.7v44.2h67.4v-59.9v-31.2V888C983.8,766.7,732.5,888,732.5,888z"/>
</g>
</svg>
