<?xml version="1.0" encoding="utf-8"?>
<!-- Generator: Adobe Illustrator 18.0.0, SVG Export Plug-In . SVG Version: 6.00 Build 0)  -->
<!DOCTYPE svg PUBLIC "-//W3C//DTD SVG 1.1//EN" "http://www.w3.org/Graphics/SVG/1.1/DTD/svg11.dtd">
<svg version="1.1" id="Layer_2" xmlns="http://www.w3.org/2000/svg" xmlns:xlink="http://www.w3.org/1999/xlink" x="0px" y="0px"
	 viewBox="0 0 2000 2000" enable-background="new 0 0 2000 2000" xml:space="preserve">
<g>
	<g>
		<path class="c4-fill" d="M1098.9,1043.2c-9.8-3.6-20.7,0.8-25.2,10.2c-19.2,40.3-42.3,77.7-68.6,112.6l0,64.1c19.7-22.4,38-46.1,54.7-71
			c-0.7,53.3,9.1,121.2,43.2,180.9c5.5,9.7,17.9,13,27.5,7.5c9.7-5.5,13-17.8,7.5-27.5c-62.1-108.7-27-251.3-26.6-252.7
			C1114.1,1057.3,1108.6,1046.8,1098.9,1043.2z"/>
		<path class="c4-fill" d="M1045,1281.9c-1.8-7.5-7.6-13.3-15.1-15c-7.6-1.7-15.3,1-20.2,7c-1.6,1.9-3.1,3.8-4.7,5.7l0,59.9c3.5-3.6,7.1-7.2,10.6-11
			c5,16.8,10.5,32.1,16.1,45.5c14.7-1,28.6-2.9,41.6-5.6C1065.5,1351.6,1054.9,1324.3,1045,1281.9z"/>
		<path class="c4-fill" d="M1181.1,1108.8c-2.3-34.3-1.6-74.5-0.8-117c2-114.2,4.3-243.6-52-315.2c-31.9-40.5-79.8-49.6-122.9-50.4l0,40.3
			c44.8,1.1,73.3,12.2,91.2,35c47.4,60.3,45.2,182.1,43.3,289.5c-0.8,43.4-1.5,84.4,0.9,120.4c8.8,133.2,39.4,196.4,40.7,199.1
			c0.3,0.6,0.8,1.1,1.1,1.6c10.8-10.6,20.3-22.4,28.8-35.2C1202.7,1251.9,1186.9,1196.7,1181.1,1108.8z"/>
		<path class="c4-fill" d="M1033.1,707.3c-5.8-2.4-15.7-4.8-27.7-5.9l0,40.5c5.8,0.8,10.2,1.9,12.3,2.7c40.7,16.8,41.1,70.3,38,123.7l-0.1,1.4
			c-1.9,32.5-12.4,83.8-50.4,149.3l0,73.3c71-98,88.2-175.2,90.7-220.2l0.1-1.4C1098.7,823.7,1103.7,736.5,1033.1,707.3z"/>
		<path class="c4-fill" d="M1255.9,1046.8c2.7-63.8,4.4-114.5,3.2-160.9c-12-55.1-32.3-104.6-58.8-145.8c22.6,97.3,20.9,172,15.3,305
			c-1.9,45.4,5.2,148.2,20.1,186c10.9-26.2,18.8-55.4,24.4-87C1256.6,1110.1,1254.8,1072.2,1255.9,1046.8z"/>
	</g>
	<g>
		<path class="c3-fill" fill="#808080" d="M740,1039.1c2.2-0.5,4.3-1.2,6.2-2.4c59.4-36.5,88.7-174.6,92.7-220.8c3.7-43.4,25.4-144.8,145.7-149.1
			c7.3-0.3,14.3-0.3,20.9-0.2l0-40.3c-7.6-0.1-15.2-0.1-22.4,0.2c-105.8,3.8-174.7,73.3-184.4,186c-4,46.8-28.5,142.6-53.5,167.4
			C741.4,995.5,739.5,1028.2,740,1039.1z"/>
		<path class="c3-fill" fill="#808080" d="M819,1279.5c4.7,0,9.3-1.8,13.2-4.9c73-58.9,137.9-133.8,173-182.3l0-73.3
			c-33.3,57.4-100.7,147.1-199.4,225.1c-8.7,6.9-9.3,20-2,28.4C807.8,1277.1,813.4,1279.5,819,1279.5z"/>
		<path class="c3-fill" fill="#808080" d="M1005,1279.5c-34.9,41.9-70.5,70.2-87.4,82.6c15.9,5.1,32.9,8.8,51.2,10.8c10.8-9.2,23.1-20.4,36.1-33.5
			L1005,1279.5z"/>
		<path class="c3-fill" fill="#808080" d="M761.8,1122.3c151.3-117,160.9-299.9,161.5-323.3c2.3-22.9,11-38.6,26.6-48c18.1-10.9,41.1-11.1,55.5-9.2
			l0-40.5c-22.1-2.1-51.4,0.1-76.3,15.1c-18.6,11.2-41.7,34.1-45.9,79.4c0,0.5-0.1,1.5-0.1,2c-0.4,18.4-8,181-139.8,287.7
			c1.4,14,3.3,27.6,5.5,40.9C753.3,1126.6,757.9,1125.3,761.8,1122.3z"/>
		<path class="c3-fill" fill="#808080" d="M1005.2,819.2l0.1-3.4c0.2-11.1-8.7-20.3-19.8-20.5c-0.1,0-0.2,0-0.3,0c-11,0-20,8.8-20.1,19.8l0,3.5
			c-1.2,75.1-2.8,178-194.7,348.3c-8.3,7.4-9.1,20.1-1.7,28.5c4,4.5,9.5,6.8,15.1,6.8c4.8,0,9.5-1.7,13.4-5.1
			C1002.1,1014.9,1003.9,897.1,1005.2,819.2z"/>
		<path class="c3-fill" fill="#808080" d="M1005.1,1230.2l0-64.1c-34.7,46-75.3,87.4-121.8,123.4c-14.3,11.1-30.5,19.3-47.7,24.6
			c11.4,10.8,24,20.3,37.8,28.4c12.2-5.8,23.9-12.8,34.6-21.1C943.6,1293.8,975.9,1263.3,1005.1,1230.2z"/>
	</g>
</g>
</svg>
