<?xml version="1.0" encoding="utf-8"?>
<!-- Generator: Adobe Illustrator 18.0.0, SVG Export Plug-In . SVG Version: 6.00 Build 0)  -->
<!DOCTYPE svg PUBLIC "-//W3C//DTD SVG 1.1//EN" "http://www.w3.org/Graphics/SVG/1.1/DTD/svg11.dtd">
<svg version="1.1" id="Layer_2" xmlns="http://www.w3.org/2000/svg" xmlns:xlink="http://www.w3.org/1999/xlink" x="0px" y="0px"
	 viewBox="0 0 2000 2000" enable-background="new 0 0 2000 2000" xml:space="preserve">
<g>
	<path class="c4-fill" d="M1283.6,603H837c-12.8-0.7-30,0-36.4,0c-3.1,0-6.1,1.1-8.5,3.2l-74.7,66.7c-8.7,7.8-24.9,20.9-24.9,43.1v660.4
		c0,11.5,9.4,20.9,20.9,20.9h491.3c11.5,0,20.9-9.4,20.9-20.9v-82.8h57.9c13.1,0,23.8-10.7,23.8-23.8v-643
		C1307.4,613.6,1296.7,603,1283.6,603z M795,662.6v32.5h-26L795,662.6z"/>
	<path class="c3-fill" fill="#808080" d="M1254.9,633.8H814.7c-5,0-9.9,2-13.5,5.5l-44.8,43.7c-6,5.8-5.3,10-2.7,12h451.2c11.5,0,20.9,9.4,20.9,20.9
		v646.4l42.2-58.4c4.2-3.8,6.5-9.2,6.5-14.9V653.9C1274.5,642.8,1265.7,633.8,1254.9,633.8z"/>
	<g>
		<g>
			<g>
				<path fill="#FFFFFF" d="M1012.4,1144c11.6-9.8-2-33.3,32.7-87.8c10.5-15.9,16-34.4,16-53.5c0-26.3-10.4-51.1-29.3-69.7
					c-61.7-60.8-173.9-19.9-173.9,69.7c0,19.1,5.5,37.6,15.9,53.4c34.4,54,21.6,77.6,32.4,87.6c0.2,0.2,0.3,0.4,0.3,0.7
					 M916.6,1148.3 M1026.6,1044.3L1026.6,1044.3c-32.1,50.3-28.3,77.2-29.9,82.9c-0.1,0.4-0.4,0.5-0.7,0.6
					c-3.5,0.2-11.9,0.4-22,0.4l-29.2,0c-10.1-0.1-18.5-0.2-22-0.4c-0.4,0-0.6-0.2-0.7-0.6c-1.6-5.6,2.1-32.7-29.9-82.8l-0.3-0.6
					c-4.6-7.3-8.4-15.1-10.2-23.5c-3.6-16.5-2.1-32.6,4.2-47.3c3.9-9.1,9.5-17.3,16.7-24.4c7.2-7.1,15.5-12.6,24.8-16.5
					c19.2-8,44.5-8.2,64.2,0c9.3,3.9,17.7,9.4,24.8,16.5c7.2,7.1,12.8,15.3,16.7,24.4c6.5,15.2,7.9,32,3.7,49.1
					C1034.9,1030,1031.2,1037.5,1026.6,1044.3z"/>
				<path fill="#FFFFFF" d="M994.7,1021.5c2.1-3.3,2.5-7.4,1.2-11.1s-4.2-6.6-7.9-7.9c-16.9-6-40.2-6-57.1,0
					c-3.7,1.3-6.6,4.2-7.9,7.9c-1.3,3.7-0.8,7.8,1.2,11.1c11.9,19.2,22.6,50.7,21.6,81.6c-0.2,6.6,4.9,12,11.5,12l4.1,0
					c6.6,0,11.7-5.5,11.5-12C972.1,1072.3,982.7,1040.7,994.7,1021.5z M972.2,1019.1c-3,6.3-5.4,14.2-7.5,21.9
					c-1.5,5.4-9.1,5.4-10.5,0c-2.1-7.7-4.5-15.6-7.5-21.9c-0.5-1.1-0.5-2.3,0-3.3c0.5-1,1.5-1.8,2.6-2.1c6.7-1.5,13.7-1.5,20.4,0
					c1.1,0.3,2.1,1,2.6,2.1C972.7,1016.8,972.7,1018,972.2,1019.1z"/>
			</g>
			<g>
				<path fill="#FFFFFF" d="M1010.5,1170.7h-101c-5,0-9-4-9-9c0-5,4-9,9-9h101c5,0,9,4,9,9
					C1019.5,1166.6,1015.5,1170.7,1010.5,1170.7z"/>
			</g>
			<g>
				<path fill="#FFFFFF" d="M1010.5,1197.6h-101c-5,0-9-4-9-9c0-5,4-9,9-9h101c5,0,9,4,9,9
					C1019.5,1193.5,1015.5,1197.6,1010.5,1197.6z"/>
			</g>
			<g>
				<path fill="#FFFFFF" d="M975.4,1223h-30.7c-5,0-9-4-9-9c0-5,4-9,9-9h30.7c5,0,9,4,9,9C984.4,1219,980.4,1223,975.4,1223z"/>
			</g>
		</g>
		<g>

				<line fill="none" stroke="#FFFFFF" stroke-width="9.159" stroke-linecap="round" stroke-miterlimit="10" x1="959.7" y1="872.3" x2="959.7" y2="824.5"/>

				<line fill="none" stroke="#FFFFFF" stroke-width="9.159" stroke-linecap="round" stroke-miterlimit="10" x1="1092.8" y1="991.6" x2="1140.6" y2="991.6"/>

				<line fill="none" stroke="#FFFFFF" stroke-width="9.159" stroke-linecap="round" stroke-miterlimit="10" x1="781" y1="991.6" x2="828.8" y2="991.6"/>

				<line fill="none" stroke="#FFFFFF" stroke-width="9.159" stroke-linecap="round" stroke-miterlimit="10" x1="829.6" y1="869" x2="863.5" y2="902.8"/>

				<line fill="none" stroke="#FFFFFF" stroke-width="9.159" stroke-linecap="round" stroke-miterlimit="10" x1="1090.4" y1="869" x2="1056.5" y2="902.8"/>

				<line fill="none" stroke="#FFFFFF" stroke-width="9.159" stroke-linecap="round" stroke-miterlimit="10" x1="1097.5" y1="1110" x2="1063.7" y2="1076.2"/>

				<line fill="none" stroke="#FFFFFF" stroke-width="9.159" stroke-linecap="round" stroke-miterlimit="10" x1="822.5" y1="1110" x2="856.3" y2="1076.2"/>
		</g>
	</g>
</g>
</svg>
