<?xml version="1.0" encoding="utf-8"?>
<!-- Generator: Adobe Illustrator 18.0.0, SVG Export Plug-In . SVG Version: 6.00 Build 0)  -->
<!DOCTYPE svg PUBLIC "-//W3C//DTD SVG 1.1//EN" "http://www.w3.org/Graphics/SVG/1.1/DTD/svg11.dtd">
<svg version="1.1" id="Layer_2" xmlns="http://www.w3.org/2000/svg" xmlns:xlink="http://www.w3.org/1999/xlink" x="0px" y="0px"
	 viewBox="0 0 2000 2000" enable-background="new 0 0 2000 2000" xml:space="preserve">
<g>
	<path class="c4-fill" d="M977.4,990.8c4.8-62.1,13.8-154.6,19.8-246.4c8.3,90.2,18.2,197.2,20.4,235c33.7-27.6,90.1-66.8,145-88.3
		c-23.2-93.4-65.7-195.1-165.8-266.2c-90.1,69.5-145.1,179.4-168.7,279.6C882.8,921.8,950.3,965.7,977.4,990.8z"/>
	<path class="c3-fill" fill="#808080" d="M1398.1,885.1c-112.3-2.2-283.1,43.1-391.8,157.2c28,24.4,47.8,53.9,57.9,92.4
		c56-65,139.3-135.2,220.7-147.9c-124.1,57.3-186.7,141.5-214.1,186.8c7.1,84.7-14.3,163.8-73.5,198.4c61.7,7.1,122,3.5,183.8-29
		C1315.5,1272.5,1406.9,1106.4,1398.1,885.1z"/>
	<path class="c4-fill" d="M982.8,1071.6C901,956.9,726,900.9,608.5,882.8c-23,168.5,10.8,259.1,82.3,360.4c66.7,94.5,193.5,138.8,270.9,107.3
		c9.6-103.7-164.5-303.7-259-356c94.6,20.3,280.7,201.6,303.6,325.7C1055.3,1239.2,1039.1,1150.7,982.8,1071.6z"/>
</g>
</svg>
