<?xml version="1.0" encoding="utf-8"?>
<!-- Generator: Adobe Illustrator 18.0.0, SVG Export Plug-In . SVG Version: 6.00 Build 0)  -->
<!DOCTYPE svg PUBLIC "-//W3C//DTD SVG 1.1//EN" "http://www.w3.org/Graphics/SVG/1.1/DTD/svg11.dtd">
<svg version="1.1" id="Layer_2" xmlns="http://www.w3.org/2000/svg" xmlns:xlink="http://www.w3.org/1999/xlink" x="0px" y="0px"
	 viewBox="0 0 2000 2000" enable-background="new 0 0 2000 2000" xml:space="preserve">
<g>
	<g>
		<path class="c3-fill" fill="#808080" d="M1191.7,811.7l-169-84.5c-7.1-3.6-14.9-5.3-22.7-5.3h0v213.6c0.5,0.8,1.1,1.7,1.6,2.5
			c34.7-52.6,110.1-61.7,110.1,10.5c0,73.5-110.9,140-111.6,140.5v189.2h0c7.4,0,14.8-1.6,21.7-4.9c33.4-15.8,71.9-37.8,103.9-80.7
			c32.8-44,57.5-100.6,73.6-168.4c12.1-51.1,19-107,20.4-165.9C1220.2,838.6,1209.3,820.5,1191.7,811.7z"/>
		<path class="c4-fill" d="M1000,1089c0,0-111.7-73.7-111.7-134.5c0-74.5,79.2-69.2,111.7-19.1V721.8c-7.8,0-15.5,1.8-22.7,5.3l-169.1,84.5
			c-17.6,8.8-28.5,26.9-28,46.5c1.4,56.4,7.8,110.1,19.1,159.7c15.7,69.2,40.4,127.2,73.3,172.2c32.6,44.6,71.7,67,105.7,83.1
			c6.9,3.3,14.3,4.9,21.7,4.9L1000,1089C1000,1089,1000,1089,1000,1089z"/>
	</g>
	<g>
		<path fill="none" d="M1271.8,1035.7c26.8-117.3,21.4-226.9,19.4-255L1000,635.1v730.7C1139.8,1324.5,1231.2,1213.5,1271.8,1035.7z
			"/>
		<path fill="none" d="M708.8,780.7c-2,28.1-7.4,137.7,19.4,255c40.6,177.8,132,288.8,271.8,330.2V635.1l0,0L708.8,780.7z"/>
		<path class="c4-fill" d="M728.2,1035.7c-26.8-117.3-21.4-226.9-19.4-255L1000,635.1l0,0v-77.7c-9.8,0-19.6,2.3-28.4,6.7L668.3,715.8
			c-19.6,9.8-32.6,28.6-34.7,50.4c-0.6,5.6-13.4,138,20.2,285.8c46.8,205.9,160.5,340.1,328.8,388.2c5.7,1.6,11.5,2.4,17.4,2.4h0
			v-76.7C860.2,1324.5,768.8,1213.5,728.2,1035.7z"/>
		<path class="c3-fill" fill="#808080" d="M1366.4,766.2c-2.2-21.8-15.2-40.6-34.7-50.4l-303.3-151.6c-8.8-4.4-18.6-6.7-28.4-6.7v77.7l291.2,145.6
			c2,28.1,7.4,137.7-19.4,255c-40.6,177.8-132,288.8-271.8,330.2v76.7c5.9,0,11.8-0.8,17.4-2.4c168.3-48.1,282-182.3,328.8-388.2
			C1379.8,904.1,1367,771.7,1366.4,766.2z"/>
	</g>
</g>
</svg>
