<?xml version="1.0" encoding="utf-8"?>
<!-- Generator: Adobe Illustrator 18.0.0, SVG Export Plug-In . SVG Version: 6.00 Build 0)  -->
<!DOCTYPE svg PUBLIC "-//W3C//DTD SVG 1.1//EN" "http://www.w3.org/Graphics/SVG/1.1/DTD/svg11.dtd">
<svg version="1.1" id="Layer_2" xmlns="http://www.w3.org/2000/svg" xmlns:xlink="http://www.w3.org/1999/xlink" x="0px" y="0px"
	 viewBox="0 0 2000 2000" enable-background="new 0 0 2000 2000" xml:space="preserve">
<g>
	<path class="c4-fill" d="M1318.4,888.5v-73c0-7.1-5.7-12.8-12.8-12.8H618.1c-7.1,0-12.8,5.7-12.8,12.8V1000v184.5c0,7.1,5.7,12.8,12.8,12.8h687.4
		c7.1,0,12.8-5.7,12.8-12.8v-73c0-7.1,5.7-12.8,12.8-12.8h50.7c7.1,0,12.8-5.7,12.8-12.8V1000v-85.9c0-7.1-5.7-12.8-12.8-12.8h-50.7
		C1324.1,901.3,1318.4,895.6,1318.4,888.5z M1260.8,1152.6h-598c-7.1,0-12.8-5.7-12.8-12.8V1000V860.2c0-7.1,5.7-12.8,12.8-12.8h598
		c7.1,0,12.8,5.7,12.8,12.8V1000v139.8C1273.7,1146.9,1267.9,1152.6,1260.8,1152.6z M1356.5,1020.2v27.2c0,7.1-5.7,12.8-12.8,12.8
		h-12.5c-7.1,0-12.8-5.7-12.8-12.8v-27.2V1000v-19.9v-27.2c0-7.1,5.7-12.8,12.8-12.8h12.5c7.1,0,12.8,5.7,12.8,12.8v27.2v19.9
		V1020.2z"/>
	<g>
		<path class="c3-fill" fill="#808080" d="M946.5,1019.2c0.2-2.1-1.5-3.9-3.6-3.9l-43.2,0.4c-2.9,0-4.6-3.3-2.9-5.7l84.7-114.9H711.3
			c-4.8,0-8.7,3.9-8.7,8.7v192.7c0,4.8,3.9,8.7,8.7,8.7h227.7c-0.4-0.6-0.6-1.3-0.5-2.2L946.5,1019.2z"/>
		<path class="c3-fill" fill="#808080" d="M1209.4,895.1H988c0.2,0.5,0.5,1,0.5,1.7l-5.7,85.2c-0.1,2.1,1.5,3.8,3.5,3.8h39.4c2.9,0,4.6,3.3,2.9,5.7
			L945,1105.1h264.4c4.8,0,8.7-3.9,8.7-8.7V903.8C1218.1,899,1214.2,895.1,1209.4,895.1z"/>
	</g>
</g>
</svg>
