<?xml version="1.0" encoding="utf-8"?>
<!-- Generator: Adobe Illustrator 18.0.0, SVG Export Plug-In . SVG Version: 6.00 Build 0)  -->
<!DOCTYPE svg PUBLIC "-//W3C//DTD SVG 1.1//EN" "http://www.w3.org/Graphics/SVG/1.1/DTD/svg11.dtd">
<svg version="1.1" id="Layer_2" xmlns="http://www.w3.org/2000/svg" xmlns:xlink="http://www.w3.org/1999/xlink" x="0px" y="0px"
	 viewBox="0 0 2000 2000" enable-background="new 0 0 2000 2000" xml:space="preserve">
<g>
	<g>
		<path class="c3-fill" fill="#808080" d="M1001.8,1348.1c-10.2,0-20.4-0.7-30.5,0.1c-27.3,2.3-44.9-21.4-46.6-42.9c-5.9-75-11.3-150.1-17-225.2
			c-2.9-39.1-5.2-78.3-8.9-117.3c-2.9-30.7-19.8-52.3-46.1-68.5c-23.4-14.4-46.4-30.1-67.2-48c-24-20.7-24.2-53-3.4-74.6
			c20.3-21.1,51.6-21.6,74.4-0.4c46.4,43.3,101,62.9,164.2,57.3c49.3-4.4,91.4-24.8,126.6-59.5c16-15.8,34.9-20.8,55.9-13.3
			c20.3,7.2,31.6,22.7,34,44.1c1.8,16.3-3.1,31.4-15.7,41.6c-21.6,17.6-43.5,35.3-67.2,49.9c-30.3,18.6-46.5,43.5-48.9,79.1
			c-5.4,80.7-12,161.3-18.1,241.9c-2.3,29.7-4.4,59.4-6.6,89c-2.2,30.1-20.1,46.7-50.4,46.7
			C1020.7,1348.1,1011.3,1348.1,1001.8,1348.1z"/>
		<path class="c3-fill" fill="#808080" d="M1002,816.3c-46-0.4-82.5-37.5-81.8-83.3c0.7-45.5,37.7-81.8,82.8-81.4c45.8,0.4,82.5,37.9,81.8,83.5
			C1084.1,780.7,1047.4,816.7,1002,816.3z"/>
	</g>
	<g>
		<path class="c4-fill" d="M712.1,1285c-6.1,0-12.2-0.4-18.3,0.1c-16.3,1.4-26.9-12.8-28-25.7c-3.5-45-6.8-90-10.2-135c-1.7-23.5-3.1-46.9-5.3-70.4
			c-1.8-18.4-11.9-31.4-27.7-41.1c-14.1-8.6-27.8-18.1-40.3-28.8c-14.4-12.4-14.5-31.8-2.1-44.7c12.2-12.7,30.9-12.9,44.6-0.2
			c27.8,26,60.6,37.7,98.5,34.4c29.6-2.6,54.8-14.9,75.9-35.7c9.6-9.5,20.9-12.5,33.5-8c12.2,4.3,19,13.6,20.4,26.4
			c1.1,9.8-1.9,18.8-9.4,25c-13,10.6-26.1,21.2-40.3,29.9c-18.2,11.2-27.9,26.1-29.3,47.4c-3.2,48.4-7.2,96.7-10.8,145.1
			c-1.4,17.8-2.6,35.6-4,53.4c-1.3,18.1-12.1,28-30.2,28C723.5,1285,717.8,1285,712.1,1285z"/>
		<path class="c4-fill" d="M712.2,966.1c-27.6-0.2-49.5-22.5-49-49.9c0.4-27.3,22.6-49.1,49.7-48.8c27.4,0.2,49.5,22.7,49.1,50.1
			C761.5,944.8,739.4,966.4,712.2,966.1z"/>
	</g>
	<g>
		<path class="c4-fill" d="M1287.3,1285c-6.1,0-12.2-0.4-18.3,0.1c-16.3,1.4-26.9-12.8-28-25.7c-3.5-45-6.8-90-10.2-135c-1.7-23.5-3.1-46.9-5.3-70.4
			c-1.8-18.4-11.9-31.4-27.7-41.1c-14.1-8.6-27.8-18.1-40.3-28.8c-14.4-12.4-14.5-31.8-2.1-44.7c12.2-12.7,30.9-12.9,44.6-0.2
			c27.8,26,60.6,37.7,98.5,34.4c29.6-2.6,54.8-14.9,75.9-35.7c9.6-9.5,20.9-12.5,33.5-8c12.2,4.3,19,13.6,20.4,26.4
			c1.1,9.8-1.9,18.8-9.4,25c-13,10.6-26.1,21.2-40.3,29.9c-18.2,11.2-27.9,26.1-29.3,47.4c-3.2,48.4-7.2,96.7-10.8,145.1
			c-1.4,17.8-2.6,35.6-4,53.4c-1.3,18.1-12.1,28-30.2,28C1298.7,1285,1293,1285,1287.3,1285z"/>
		<path class="c4-fill" d="M1287.4,966.1c-27.6-0.2-49.5-22.5-49-49.9c0.4-27.3,22.6-49.1,49.7-48.8c27.4,0.2,49.5,22.7,49.1,50.1
			C1336.7,944.8,1314.7,966.4,1287.4,966.1z"/>
	</g>
</g>
</svg>
