<?xml version="1.0" encoding="utf-8"?>
<!-- Generator: Adobe Illustrator 18.0.0, SVG Export Plug-In . SVG Version: 6.00 Build 0)  -->
<!DOCTYPE svg PUBLIC "-//W3C//DTD SVG 1.1//EN" "http://www.w3.org/Graphics/SVG/1.1/DTD/svg11.dtd">
<svg version="1.1" id="Layer_2" xmlns="http://www.w3.org/2000/svg" xmlns:xlink="http://www.w3.org/1999/xlink" x="0px" y="0px"
	 viewBox="0 0 2000 2000" enable-background="new 0 0 2000 2000" xml:space="preserve">
<g>
	<path class="c3-fill" fill="#808080" d="M1291.8,1371.3l-90.2-134.7c-15.1,20.1-33.1,37.8-53.5,52.4l135.4,90.7
		C1289,1383.3,1295.5,1376.8,1291.8,1371.3z"/>
	<path class="c4-fill" fill="#221F1F" d="M1529.3,1083.2l-316.6-62.6c-22.3-67.5-76.6-120.7-144.7-141.4l-63.4-320.6c-1-5.1-8.3-5.1-9.3,0
		l-63.5,321.1c-0.2,0.8-0.1,1.6,0.1,2.4c-64.1,22.6-114.7,74.2-136,138.8c-1.1-1-2.6-1.5-4.1-1.2l-321.1,63.5c-5.1,1-5.1,8.3,0,9.3
		l321.1,63.5c1.3,0.3,2.5,0,3.5-0.7c20.9,65.5,71.9,117.8,136.5,140.6c0,0,0,0,0,0l63.5,321.1c1,5.1,8.3,5.1,9.3,0l62.9-318.1
		c69.2-20.9,124.2-75.3,146-144.1l315.7-62.4C1534.4,1091.4,1534.4,1084.2,1529.3,1083.2z M1004.4,1273.3
		c-101.2,0-184.3-83.1-184.3-184.3s83.1-184.3,184.3-184.3s184.3,83.1,184.3,184.3S1105.6,1273.3,1004.4,1273.3z"/>
	<path class="c3-fill" fill="#808080" d="M1004.4,980.6c-59.8,0-108.4,48.6-108.4,108.4c0,59.8,48.6,108.4,108.4,108.4
		c59.8,0,108.4-48.6,108.4-108.4C1112.8,1029.2,1064.2,980.6,1004.4,980.6z M1004.4,1163.9c-41.3,0-75-33.6-75-75s33.6-75,75-75
		c41.3,0,75,33.6,75,75S1045.7,1163.9,1004.4,1163.9z"/>
	<path class="c3-fill" fill="#808080" d="M1051.9,512.4H1040c-3.5,0-6.7-1.6-8.9-4.3l-41.8-51.9c-1-1.3-2.3-1.6-3.1-1.6c-2,0-4.2,1.5-4.2,4.2v42.1
		c0,6.3-5.1,11.5-11.5,11.5h-13.5c-6.3,0-11.5-5.1-11.5-11.5V390.6c0-6.3,5.1-11.5,11.5-11.5h11.1c3.5,0,6.8,1.6,9,4.3l42.5,53.5
		c1,1.3,2.3,1.6,3.2,1.6c2,0,4.2-1.5,4.2-4.2v-43.8c0-6.3,5.1-11.5,11.5-11.5h13.5c6.3,0,11.5,5.1,11.5,11.5v110.4
		C1063.4,507.3,1058.2,512.4,1051.9,512.4z"/>
	<path class="c3-fill" fill="#808080" d="M1283.5,796l-137.3,91.9c20.8,14.6,39.1,32.3,54.5,52.5l91.2-136.1C1295.5,798.8,1289,792.3,1283.5,796z"/>
	<path class="c3-fill" fill="#808080" d="M858.8,891.3L716.5,796c-5.5-3.7-12.1,2.9-8.4,8.4l95.8,143C819.1,925.8,837.7,906.9,858.8,891.3z"/>
	<path class="c3-fill" fill="#808080" d="M803,1229.6l-94.9,141.6c-3.7,5.5,2.9,12.1,8.4,8.4l140.4-94.1C836.2,1269.9,818,1251,803,1229.6z"/>
</g>
</svg>
