<?xml version="1.0" encoding="utf-8"?>
<!-- Generator: Adobe Illustrator 18.0.0, SVG Export Plug-In . SVG Version: 6.00 Build 0)  -->
<!DOCTYPE svg PUBLIC "-//W3C//DTD SVG 1.1//EN" "http://www.w3.org/Graphics/SVG/1.1/DTD/svg11.dtd">
<svg version="1.1" id="Layer_2" xmlns="http://www.w3.org/2000/svg" xmlns:xlink="http://www.w3.org/1999/xlink" x="0px" y="0px"
	 viewBox="0 0 2000 2000" enable-background="new 0 0 2000 2000" xml:space="preserve">
<g>
	<path class="c3-fill" fill="#808080" d="M1000,1083.6c94.1,0,172.5-31.4,177.7-73.2c-13.9-38.3-29.6-81.9-43.6-123.7c-12.2,27.9-68,50.5-134.2,50.5
		s-122-20.9-132.4-50.5c-15.7,41.8-29.6,85.4-43.6,123.7C827.5,1050.5,905.9,1083.6,1000,1083.6z"/>
	<path class="c3-fill" fill="#808080" d="M1000,818.8c43.6,0,85.4-13.9,97.6-34.8c-15.7-47-31.4-87.1-40.1-111.5c-5.2-17.4-33.1-26.1-57.5-26.1
		s-52.3,8.7-57.5,26.1c-8.7,24.4-22.7,64.5-40.1,111.5C914.6,806.6,956.4,818.8,1000,818.8z"/>
	<path class="c4-fill" d="M1345,1122l-148.1-59.2l17.4,47c0,50.5-97.6,90.6-214.3,90.6s-214.3-40.1-214.3-90.6l17.4-47L655,1122
		c-41.8,17.4-43.6,47-3.5,68L928.6,1338c40.1,20.9,102.8,20.9,142.9,0l277.1-148.1C1388.6,1169,1386.8,1137.7,1345,1122z"/>
</g>
</svg>
