<?xml version="1.0" encoding="utf-8"?>
<!-- Generator: Adobe Illustrator 18.0.0, SVG Export Plug-In . SVG Version: 6.00 Build 0)  -->
<!DOCTYPE svg PUBLIC "-//W3C//DTD SVG 1.1//EN" "http://www.w3.org/Graphics/SVG/1.1/DTD/svg11.dtd">
<svg version="1.1" id="Layer_2" xmlns="http://www.w3.org/2000/svg" xmlns:xlink="http://www.w3.org/1999/xlink" x="0px" y="0px"
	 viewBox="0 0 2000 2000" enable-background="new 0 0 2000 2000" xml:space="preserve">
<g>
	<path class="c3-fill" fill="#808080" d="M1450.9,1070.4c0-99-109-179.2-243.5-179.2s-243.5,80.2-243.5,179.2c0,99,109,179.2,243.5,179.2
		c24.3,0,47.8-2.7,70-7.5l96.4,62.8c6.9,4.5,15.2-3.1,11.3-10.4l-40.4-76.1C1408.8,1186.1,1450.9,1131.9,1450.9,1070.4z
		 M1108.3,1107.6c-18.2,0-33-14.8-33-33c0-18.2,14.8-33,33-33c18.2,0,33,14.8,33,33C1141.2,1092.9,1126.5,1107.6,1108.3,1107.6z
		 M1212.9,1107.6c-18.2,0-33-14.8-33-33c0-18.2,14.8-33,33-33c18.2,0,33,14.8,33,33C1245.9,1092.9,1231.1,1107.6,1212.9,1107.6z
		 M1317.6,1107.6c-18.2,0-33-14.8-33-33c0-18.2,14.8-33,33-33s33,14.8,33,33C1350.6,1092.9,1335.8,1107.6,1317.6,1107.6z"/>
	<g>
		<path class="c4-fill" d="M935.3,1136.2c-19.8,3.2-40.4,5-61.5,5c-28,0-55.8-3-82.6-8.9c-5.5-1.2-11.3-0.3-16,2.8l-71.3,46.4
			c-3.7,2.4-8.2-1.7-6.1-5.6l23-43.3c2.6-4.9,3.1-10.7,1.4-16s-5.4-9.7-10.4-12.2c-75.9-38.2-121.2-100.3-121.2-166.2
			c0-111.9,127-202.9,283.2-202.9c116.1,0,216.1,50.4,259.7,122.2c14.1-2.9,28.6-5.3,43.5-6.5c-46.7-91.8-165-157.2-303.2-157.2
			c-179,0-324.6,109.6-324.6,244.4c0,76.1,46.5,147,125.4,193.1L616.3,1241c-3.7,7-3.9,15.6,0.5,22.2c4.1,6.1,10.7,9.3,17.3,9.3
			c3.9,0,7.8-1.1,11.3-3.4l145.2-94.6c27.1,5.4,55.1,8.1,83.2,8.1c28.5,0,56.1-2.8,82.5-8C947.8,1162.4,940.7,1149.6,935.3,1136.2z"
			/>
	</g>
</g>
</svg>
