<?xml version="1.0" encoding="utf-8"?>
<!-- Generator: Adobe Illustrator 18.1.1, SVG Export Plug-In . SVG Version: 6.00 Build 0)  -->
<!DOCTYPE svg PUBLIC "-//W3C//DTD SVG 1.1//EN" "http://www.w3.org/Graphics/SVG/1.1/DTD/svg11.dtd">
<svg version="1.1" id="Layer_2" xmlns="http://www.w3.org/2000/svg" xmlns:xlink="http://www.w3.org/1999/xlink" x="0px" y="0px"
	 viewBox="0 0 2000 2000" enable-background="new 0 0 2000 2000" xml:space="preserve">
<g display="none">
	<path display="inline" d="M1000,98.7c61.2,0,122.4,6.2,181.7,18.3c57.8,11.8,114.7,29.5,169,52.5c53.4,22.6,104.9,50.5,153.1,83.1
		c47.7,32.3,92.6,69.3,133.5,110.1c40.8,40.8,77.9,85.7,110.1,133.5c32.5,48.2,60.5,99.7,83.1,153.1c23,54.3,40.6,111.2,52.5,169
		c12.2,59.4,18.3,120.5,18.3,181.7s-6.2,122.4-18.3,181.7c-11.8,57.8-29.5,114.7-52.5,169c-22.6,53.4-50.5,104.9-83.1,153.1
		c-32.3,47.7-69.3,92.6-110.1,133.5c-40.8,40.8-85.7,77.9-133.5,110.1c-48.2,32.5-99.7,60.5-153.1,83.1
		c-54.3,23-111.2,40.6-169,52.5c-59.4,12.2-120.5,18.3-181.7,18.3s-122.4-6.2-181.7-18.3c-57.8-11.8-114.7-29.5-169-52.5
		c-53.4-22.6-104.9-50.5-153.1-83.1c-47.7-32.3-92.6-69.3-133.5-110.1c-40.8-40.8-77.9-85.7-110.1-133.5
		c-32.5-48.2-60.5-99.7-83.1-153.1c-23-54.3-40.6-111.2-52.5-169c-12.2-59.4-18.3-120.5-18.3-181.7s6.2-122.4,18.3-181.7
		c11.8-57.8,29.5-114.7,52.5-169c22.6-53.4,50.5-104.9,83.1-153.1c32.3-47.7,69.3-92.6,110.1-133.5c40.8-40.8,85.7-77.9,133.5-110.1
		c48.2-32.5,99.7-60.5,153.1-83.1c54.3-23,111.2-40.6,169-52.5C877.6,104.9,938.8,98.7,1000,98.7 M1000-1.4
		C446.9-1.4-1.4,446.9-1.4,1000S446.9,2001.4,1000,2001.4S2001.4,1553.1,2001.4,1000S1553.1-1.4,1000-1.4L1000-1.4z"/>
</g>
<g>
	<path fill="#808080" d="M1240.9,694.8v53.5c0,33.9-26.8,60.7-60.7,60.7s-60.7-26.8-60.7-60.7v-60.7H880.4v60.7
		c0,33.9-26.8,60.7-60.7,60.7s-60.7-26.8-60.7-60.7v-53.5c-46.4,16.1-80.3,60.7-80.3,112.4v401.6c0,66,53.5,121.4,121.4,121.4h401.6
		c66,0,119.6-53.5,119.6-121.4V807.3C1321.2,755.5,1287.3,710.9,1240.9,694.8z M1240.9,1208.8c0,21.4-17.8,39.3-39.3,39.3H800.1
		c-21.4,0-39.3-17.8-39.3-39.3V887.6h481.9v321.2H1240.9z"/>
	<rect x="1014.3" y="1050" fill="#808080" width="53.5" height="53.5"/>
	<rect x="1014.3" y="967.9" fill="#808080" width="53.5" height="53.5"/>
	<rect x="1096.4" y="1050" fill="#808080" width="53.5" height="53.5"/>
	<rect x="1096.4" y="967.9" fill="#808080" width="53.5" height="53.5"/>
	<rect x="930.4" y="1050" fill="#808080" width="53.5" height="53.5"/>
	<rect x="839.4" y="1050" fill="#808080" width="53.5" height="53.5"/>
	<rect x="1014.3" y="1132.1" fill="#808080" width="53.5" height="53.5"/>
	<rect x="1096.4" y="1132.1" fill="#808080" width="53.5" height="53.5"/>
	<rect x="930.4" y="1132.1" fill="#808080" width="53.5" height="53.5"/>
	<rect x="839.4" y="1132.1" fill="#808080" width="53.5" height="53.5"/>
	<path fill="#808080" d="M1199.9,687.7c-1.8-10.7-8.9-17.8-19.6-17.8s-17.8,7.1-19.6,17.8l0,0v1.8v57.1v3.6l0,0
		c1.8,10.7,8.9,17.8,19.6,17.8s17.8-7.1,19.6-17.8l0,0v-1.8v-57.1V687.7L1199.9,687.7z"/>
	<path fill="#808080" d="M834,687.7c-1.8-10.7-8.9-17.8-19.6-17.8c-10.7,0-17.8,7.1-19.6,17.8l0,0v1.8v57.1v3.6l0,0
		c1.8,10.7,8.9,17.8,19.6,17.8c10.7,0,17.8-7.1,19.6-17.8l0,0v-1.8v-57.1V687.7L834,687.7z"/>
</g>
</svg>
