<?xml version="1.0" encoding="utf-8"?>
<!-- Generator: Adobe Illustrator 19.1.0, SVG Export Plug-In . SVG Version: 6.00 Build 0)  -->
<svg version="1.1" xmlns="http://www.w3.org/2000/svg" xmlns:xlink="http://www.w3.org/1999/xlink" x="0px" y="0px"
	 viewBox="0 0 2000 2000" enable-background="new 0 0 2000 2000" xml:space="preserve">
<g id="Layer_3">
</g>
<g id="Layer_5">
	<g>
		<path class="c4-fill" fill="none" d="M1293.6,1163.2c-0.4-0.3-0.9-0.5-1.3-0.7c0.8-64.5-13-204.8-136.1-294.9c8.9-22.3,6.2-44.3-7.6-52.3
			c-3.5-2-7.5-3-11.7-3c-15,0-32.9,12.4-44.5,32.5c-1,1.7-1.9,3.4-2.7,5.1c-174.2,19.3-285.8,42.3-334.8,53.8
			c-4.3-5.9-9.8-11.5-16.4-16.5c-13.2-10-27.9-15.2-40.2-15.2c-9.7,0-18,3.2-22.9,9.8c-11.3,14.9-1.2,41.4,22.4,59.3
			c0.7,0.6,1.5,1,2.3,1.5c-20,72.3-48.4,255.8,121.3,389.4c-0.8,2-1.5,4.1-2.2,6.3c-8.6,28.3-1.5,57.2,16.7,61.2
			c1.9,0.4,3.7,0.6,5.5,0.6c30,0,45.4-54.9,45.8-60.5c207.2-45.3,317.5-93.7,367.9-120.8c1.5,1,3.1,2,4.8,3
			c12.1,7,24.9,10.5,35.9,10.5c12.3,0,22.5-4.3,27.4-12.8C1332.4,1203.2,1319.2,1178.1,1293.6,1163.2z M872.7,1226.7L872.7,1226.7
			c-1,23-3.5,43-6,58.2c-0.9,5.6-3.9,10-8,12.9c-4.9,3.4-11.2,4.5-17.1,2.8c-2.4-0.7-4.7-1.6-6.8-3.3c-5.2-4-10.1-8.1-14.9-12.2
			c-0.4-0.3-0.7-0.6-1.1-0.9c-18.8-16.4-34.3-33.6-47.1-51.3h0c0,0,0,0,0,0c-4-5.6-7.7-11.2-11.2-16.8c-0.2-0.3-0.4-0.7-0.6-1
			c-3.4-5.5-6.6-11.1-9.5-16.7c0,0,0,0,0-0.1c0,0,0,0,0,0c-6.3-12-11.5-24.1-15.8-36.1c0,0,0,0,0,0c0,0,0,0,0,0
			c-2.1-5.9-4-11.8-5.7-17.7c-0.2-0.6-0.3-1.3-0.5-1.9c-16.3-58.4-12.7-114-6-152.4c0.1-0.5,0.2-0.9,0.2-1.4
			c0.4-2.4,0.9-4.8,1.3-7.1c0.1-0.7,0.3-1.3,0.4-2c0.4-2,0.8-4,1.2-5.9c0.2-0.7,0.3-1.4,0.5-2.1c0.5-2.1,0.9-4.1,1.4-6
			c0.1-0.3,0.1-0.6,0.2-0.9c3.3-13.7,19.5-19.6,31.1-11.4c4.1,2.9,8,5.9,11.8,8.9h0c12.4,9.9,23.4,20.6,33.1,31.8c0,0,0,0,0,0
			c0,0,0,0.1,0.1,0.1c5.8,6.7,11.1,13.5,16,20.5c0,0.1,0.1,0.1,0.1,0.2c2.4,3.4,4.7,6.9,6.9,10.4c0.2,0.3,0.3,0.5,0.5,0.8
			c2.1,3.4,4.1,6.7,6,10.1c0,0,0,0,0,0.1c0,0,0,0,0,0c12.9,23,22,47.1,28.1,71.1c0,0.1,0,0.1,0,0.2c5.9,23,9.2,45.9,10.7,67.6l0,0
			c0,0,0,0,0,0.1c0.6,8.8,0.9,17.4,1,25.7c0,0.5,0,1.1,0,1.6C873.1,1211,873,1219,872.7,1226.7
			C872.7,1226.7,872.7,1226.7,872.7,1226.7z M1220,1040.1c-1.1,0.4-2.3,0.6-3.4,0.6c-4.5,0-8.7-2.8-10.2-7.3
			c-25.1-74.8-76.1-117.1-76.6-117.5c-4.6-3.8-5.3-10.5-1.5-15.1c3.8-4.6,10.5-5.3,15.1-1.5c2.3,1.9,56.4,46.7,83.4,127.4
			C1228.7,1032.1,1225.6,1038.2,1220,1040.1z"/>
		<path class="c4-fill" d="M938.2,618.5c7.7-4.1,16.3-6.3,25.1-6.3c29.4,0,53.4,24,53.4,53.4c0,1.7-0.1,3.5-0.3,5.2c22.5,0.5,41.3,15.5,48.1,36h92.9
			c24.1,0,43.7-19.6,43.7-43.7c0-24.1-19.6-43.7-43.7-43.7h-21.9c0.6-4.1,1-8.3,1-12.5c0-47.2-38.3-85.5-85.5-85.5
			c-35.7,0-66.3,21.9-79.1,53c-7.2-5.8-16.4-9.4-26.4-9.4c-15.2,0-28.5,8.2-35.9,20.3C921.2,594,931.1,605.2,938.2,618.5z"/>
		<path class="c4-fill" d="M732.1,765h283c19.9,0,36.1-16.2,36.1-36V723c0-19.9-16.2-36-36.1-36h-19.4l3.2-10.4c1.1-3.6,1.6-7.2,1.6-10.9
			c0-20.5-16.7-37.3-37.3-37.3c-8.6,0-16.7,2.9-23.4,8.3l-8.4,6.8l-4.1-10c-13-31.6-43.5-52.1-77.7-52.1c-46.3,0-84,37.7-84,84
			c0,3.7,0.3,7.6,1,12.3l1.4,9.2h-35.9c-19.9,0-36,16.2-36,36v5.9C696.1,748.8,712.2,765,732.1,765z"/>
		<path class="c4-fill" fill="#231F20" d="M726,971.8c0.5-2.1,0.9-4.1,1.4-6C726.9,967.7,726.5,969.7,726,971.8z"/>
		<path class="c4-fill" fill="#231F20" d="M724.3,979.7c0.4-2,0.8-4,1.2-5.9C725.1,975.8,724.7,977.7,724.3,979.7z"/>
		<path class="c4-fill" fill="#231F20" d="M827.1,1026.2c2.1,3.4,4.1,6.7,6,10.1C831.3,1032.9,829.2,1029.6,827.1,1026.2z"/>
		<path class="c4-fill" fill="#231F20" d="M819.7,1015c2.4,3.4,4.7,6.9,6.9,10.4C824.5,1021.9,822.1,1018.4,819.7,1015z"/>
		<path class="c4-fill" fill="#231F20" d="M803.6,994.3c5.8,6.7,11.1,13.5,16,20.5C814.7,1007.8,809.4,1001,803.6,994.3z"/>
		<path class="c4-fill" fill="#231F20" d="M734.6,1162.2c-2.1-5.9-4-11.8-5.7-17.7C730.6,1150.4,732.5,1156.3,734.6,1162.2z"/>
		<path class="c4-fill" fill="#231F20" d="M722.6,988.8c0.4-2.4,0.9-4.8,1.3-7.1C723.5,984,723,986.4,722.6,988.8z"/>
		<path class="c4-fill" fill="#231F20" d="M771.7,1232.9c12.8,17.7,28.3,34.9,47.1,51.3c-4.5-4-8.9-8-13.1-12.1c15.1,3.3,40.5,6.5,63.2-2.4
			c-0.7,5.5-1.5,10.6-2.2,15.2c-0.9,5.6-3.9,10-8,12.9c4.1-2.9,7.1-7.3,8-12.9c2.5-15.2,5-35.2,6-58.2
			C853,1232,819.1,1237.4,771.7,1232.9z"/>
		<path class="c4-fill" fill="#231F20" d="M759.9,1215.1c-3.4-5.5-6.6-11.1-9.5-16.7C753.3,1204,756.5,1209.6,759.9,1215.1z"/>
		<path class="c4-fill" fill="#231F20" d="M833.2,1088.4c7-2,14-3.8,20.8-5.5c2.8,8.2,5.3,16.4,7.4,24.7c-6.2-24-15.2-48.1-28.1-71.1
			c-64.1,19.1-99.8,41-114.8,51.9c-1.4-14-1.8-27.5-1.6-40.4c35.9-30.7,66.7-46.2,86.7-53.7c-9.7-11.2-20.7-21.9-33.1-31.8
			c-24,8.8-42.2,28.2-49.6,37c0.5-3.2,1-6.2,1.5-9.2c-6.6,38.4-10.2,94,6,152.4c-1.6-5.8-3.1-11.5-4.3-17.2
			C752.5,1113.3,790.5,1100.2,833.2,1088.4z"/>
		<path class="c4-fill" fill="#231F20" d="M873.1,1202.7c0.1,8.3-0.1,16.4-0.4,24.1C873,1219,873.1,1211,873.1,1202.7z"/>
		<path class="c4-fill" fill="#231F20" d="M819.9,1285.2c4.8,4.1,9.7,8.2,14.9,12.2c2.1,1.6,4.4,2.6,6.8,3.3c-2.4-0.7-4.7-1.6-6.8-3.3
			C829.6,1293.3,824.6,1289.3,819.9,1285.2z"/>
		<path class="c4-fill" fill="#231F20" d="M872.1,1175.4c0.6,8.8,0.9,17.4,1,25.7C873,1192.7,872.7,1184.2,872.1,1175.4z"/>
		<path class="c4-fill" fill="#231F20" d="M861.4,1107.7c2.1,8.2,3.9,16.4,5.3,24.6c-6.5,1.9-13.1,3.8-19.8,5.7c-42.5,11.8-81.8,20.1-112.3,24.3
			c4.3,12,9.5,24.1,15.8,36.1c20.8,0,61.8-3.4,121.7-23C870.6,1153.6,867.3,1130.7,861.4,1107.7z"/>
		<path class="c4-fill" fill="#231F20" d="M771.7,1232.9c-4-5.6-7.7-11.2-11.2-16.8C764,1221.7,767.7,1227.3,771.7,1232.9z"/>
		<path class="c3-fill" fill="#808080" d="M1324.4,1145.3c-2-67.9-21.5-198.3-131.7-290.1c4-29.1-6.1-55.2-28-67.8c-8.3-4.8-17.9-7.4-27.9-7.4
			c-24.5,0-49.3,14.9-66.7,39.6c-147.4,16.8-248.6,36.2-304.3,48.4c-2.6-2.3-5.2-4.5-8-6.6c-18.5-14-39.7-21.7-59.7-21.7
			c-20.4,0-37.7,8-48.7,22.6c-12.2,16.1-14.5,37.8-6.3,59.4c4.3,11.4,11.4,22.4,20.6,32.2c-19.5,85.8-32.5,257,120.9,389.7
			c-3.8,22.5-0.7,44.5,8.9,60.9c8.1,13.9,20.6,23.2,35.2,26.4c4.1,0.9,8.3,1.3,12.4,1.3c40,0,61.7-38.2,71.5-65.4
			c182-41.2,288.1-84.8,341.8-111.6c13.5,6,27.7,9.2,41.1,9.2c24.5,0,44.7-10.5,55.4-28.9
			C1367.2,1207.6,1355.4,1170.4,1324.4,1145.3z M1323,1219.4c-4.9,8.5-15.1,12.8-27.4,12.8c-11,0-23.8-3.5-35.9-10.5
			c-1.6-1-3.2-1.9-4.8-3c-50.3,27.1-160.7,75.4-367.9,120.8c-0.4,5.6-15.8,60.5-45.8,60.5c-1.8,0-3.6-0.2-5.5-0.6
			c-18.2-4-25.3-32.8-16.7-61.2c0.7-2.2,1.4-4.2,2.2-6.3C651.5,1198.4,680,1014.9,699.9,942.5c-0.7-0.5-1.5-0.9-2.3-1.5
			c-23.6-17.9-33.7-44.4-22.4-59.3c5-6.6,13.2-9.8,22.9-9.8c12.3,0,27,5.2,40.2,15.2c6.6,5,12.1,10.6,16.4,16.5
			c49-11.4,160.6-34.5,334.8-53.8c0.8-1.7,1.7-3.4,2.7-5.1c11.6-20,29.5-32.5,44.5-32.5c4.2,0,8.1,1,11.7,3c13.8,8,16.5,30,7.6,52.3
			c123.1,90.1,136.9,230.4,136.1,294.9c0.4,0.2,0.9,0.5,1.3,0.7C1319.2,1178.1,1332.4,1203.2,1323,1219.4z"/>
		<path class="c3-fill" fill="#808080" d="M866.7,1132.2c-1.5-8.1-3.2-16.4-5.3-24.6c0-0.1,0-0.1,0-0.2c-2.1-8.2-4.6-16.5-7.4-24.7
			c-6.8,1.8-13.8,3.6-20.8,5.5c-42.6,11.8-80.7,24.9-109,37c1.2,5.7,2.7,11.4,4.3,17.2c0.2,0.6,0.3,1.3,0.5,1.9
			c1.7,5.9,3.6,11.8,5.7,17.7c0,0,0,0,0,0c0,0,0,0,0,0c30.5-4.2,69.8-12.5,112.3-24.3C853.6,1136.1,860.2,1134.2,866.7,1132.2z"/>
		<path class="c3-fill" fill="#808080" d="M718.4,1088.3c15-10.9,50.7-32.8,114.8-51.9c0,0,0,0,0,0c0,0,0,0,0-0.1c-1.9-3.4-3.9-6.8-6-10.1
			c-0.2-0.3-0.3-0.5-0.5-0.8c-2.2-3.5-4.5-7-6.9-10.4c0-0.1-0.1-0.1-0.1-0.2c-4.9-7-10.2-13.8-16-20.5c0,0,0-0.1-0.1-0.1
			c0,0,0,0,0,0c-20,7.6-50.8,23-86.7,53.7C716.6,1060.8,717,1074.3,718.4,1088.3z"/>
		<path class="c3-fill" fill="#808080" d="M770.5,962.4L770.5,962.4c-3.8-3-7.7-6-11.8-8.9c-11.5-8.2-27.7-2.3-31.1,11.4c-0.1,0.3-0.1,0.6-0.2,0.9
			c-0.5,1.9-0.9,3.9-1.4,6c-0.2,0.7-0.3,1.4-0.5,2.1c-0.4,1.9-0.8,3.8-1.2,5.9c-0.1,0.7-0.3,1.3-0.4,2c-0.4,2.3-0.9,4.6-1.3,7.1
			c-0.1,0.5-0.2,0.9-0.2,1.4c-0.5,3-1,6-1.5,9.2C728.2,990.6,746.4,971.2,770.5,962.4z"/>
		<path class="c3-fill" fill="#808080" d="M873.1,1201.1c-0.1-8.3-0.4-16.9-1-25.7c0,0,0,0,0-0.1l0,0c-59.9,19.6-100.9,23-121.7,23c0,0,0,0,0,0
			c0,0,0,0,0,0.1c2.9,5.6,6.1,11.1,9.5,16.7c0.2,0.3,0.4,0.7,0.6,1c3.5,5.6,7.2,11.2,11.2,16.8c0,0,0,0,0,0h0
			c47.4,4.5,81.3-0.9,100.9-6.2l0,0c0,0,0,0,0,0c0.3-7.7,0.5-15.8,0.4-24.1C873.1,1202.2,873.1,1201.6,873.1,1201.1z"/>
		<path class="c3-fill" fill="#808080" d="M866.7,1284.9c0.8-4.6,1.5-9.8,2.2-15.2c-22.7,9-48.1,5.8-63.2,2.4c4.2,4.1,8.6,8.1,13.1,12.1
			c0.4,0.3,0.7,0.6,1.1,0.9c4.7,4.1,9.7,8.2,14.9,12.2c2.1,1.6,4.4,2.6,6.8,3.3c6,1.7,12.3,0.6,17.1-2.8
			C862.8,1294.9,865.8,1290.5,866.7,1284.9z"/>
		<path class="c3-fill" fill="#808080" d="M1143.3,899.1c-4.6-3.8-11.4-3-15.1,1.5c-3.8,4.6-3.1,11.4,1.5,15.1c0.5,0.4,51.6,42.7,76.6,117.5
			c1.5,4.5,5.7,7.3,10.2,7.3c1.1,0,2.3-0.2,3.4-0.6c5.6-1.9,8.7-8,6.8-13.6C1199.7,945.8,1145.6,901,1143.3,899.1z"/>
		<circle cx="1255.1" cy="735.6" r="28.8"/>
		<circle cx="1246.3" cy="816.5" r="17.2"/>
	</g>
</g>
</svg>
