<?xml version="1.0" encoding="utf-8"?>
<!-- Generator: Adobe Illustrator 19.1.0, SVG Export Plug-In . SVG Version: 6.00 Build 0)  -->
<svg version="1.1" xmlns="http://www.w3.org/2000/svg" xmlns:xlink="http://www.w3.org/1999/xlink" x="0px" y="0px"
	 viewBox="0 0 2000 2000" enable-background="new 0 0 2000 2000" xml:space="preserve">
<g id="Layer_3">
</g>
<g id="Layer_4">
	<g>
		<path class="c4-fill" fill="none" d="M1286.5,1138.4c-0.4-0.3-0.9-0.5-1.3-0.7c0.8-64.7-13.1-205.2-136.4-295.6c8.9-22.3,6.2-44.4-7.7-52.4
			c-3.5-2-7.5-3-11.7-3c-15,0-32.9,12.5-44.6,32.5c-1,1.7-1.9,3.4-2.7,5.1c-174.6,19.3-286.5,42.4-335.6,53.9
			c-4.3-5.9-9.8-11.6-16.4-16.6c-13.3-10-28-15.2-40.3-15.2c-9.7,0-18,3.2-23,9.8c-11.3,14.9-1.2,41.5,22.5,59.4
			c0.7,0.6,1.5,1,2.3,1.5c-20,72.5-48.6,256.4,121.6,390.3c-0.8,2-1.5,4.1-2.2,6.3c-8.7,28.4-1.5,57.3,16.7,61.3
			c1.9,0.4,3.7,0.6,5.5,0.6c30,0,45.5-55,45.9-60.6c207.6-45.5,318.2-93.9,368.7-121.1c1.5,1,3.1,2,4.8,3c12.2,7,24.9,10.5,36,10.5
			c12.3,0,22.6-4.3,27.5-12.8C1325.4,1178.5,1312.2,1153.3,1286.5,1138.4z M858.7,1260.4c-0.6,3.7-2.2,6.9-4.3,9.5
			c-3.3,3.9-7.9,6.3-12.9,7c-5,0.6-10.3-0.6-14.7-4c-5.2-4-10.1-8.1-14.9-12.2c-0.4-0.3-0.7-0.6-1-0.9
			c-18.8-16.4-34.4-33.7-47.2-51.4l0,0c0,0,0,0,0,0c-4-5.6-7.7-11.2-11.2-16.8c-0.2-0.3-0.4-0.7-0.6-1c-3.4-5.5-6.6-11.1-9.5-16.7
			c0,0,0,0,0-0.1c0,0,0,0,0,0c-6.3-12-11.5-24.1-15.8-36.2c0,0,0,0,0,0c0,0,0,0,0,0c-2.1-5.9-4-11.9-5.7-17.8
			c-0.2-0.6-0.3-1.2-0.5-1.9c-16.3-58.5-12.7-114.3-6.1-152.8c0.1-0.5,0.2-0.9,0.2-1.4c0.4-2.5,0.9-4.8,1.3-7.1
			c0.1-0.7,0.3-1.3,0.4-2c0.4-2,0.8-4,1.2-5.9c0.2-0.7,0.3-1.4,0.4-2.1c0.5-2.1,0.9-4.1,1.4-6.1c0.1-0.3,0.1-0.6,0.2-0.8
			c3.4-13.7,19.6-19.6,31.1-11.4c3.7,2.7,7.3,5.4,10.8,8.2c12.9,10.2,24.2,21.1,34.2,32.6l0,0c0,0,0,0.1,0.1,0.1
			c5.8,6.7,11.1,13.5,16,20.5c0,0.1,0.1,0.1,0.1,0.2c2.4,3.4,4.7,6.9,6.9,10.4c0.2,0.3,0.3,0.5,0.5,0.8c2.1,3.4,4.1,6.8,6.1,10.2
			c0,0,0,0,0,0l0,0c12.9,23,22,47.2,28.2,71.3c0,0,0,0.1,0,0.1c5.9,23,9.2,46,10.7,67.8l0,0c0,0,0,0,0,0c0.6,8.8,0.9,17.5,1,25.8
			c0,0.5,0,1,0,1.5C865.3,1211.1,862,1240.1,858.7,1260.4z M1212.7,1015c-1.1,0.4-2.3,0.6-3.4,0.6c-4.5,0-8.7-2.8-10.2-7.4
			c-25.1-75-76.3-117.4-76.8-117.8c-4.6-3.8-5.3-10.6-1.5-15.2c3.8-4.6,10.6-5.3,15.2-1.5c2.3,1.9,56.5,46.8,83.6,127.7
			C1221.4,1007,1218.4,1013.1,1212.7,1015z"/>
		<path class="c3-fill" fill="#231F20" d="M853.3,1082.7c2.1,8.2,3.9,16.5,5.4,24.6c-6.5,1.9-13.1,3.8-19.9,5.7c-42.6,11.8-82,20.1-112.5,24.4
			c4.3,12.1,9.5,24.2,15.8,36.2c20.8,0,61.9-3.4,122-23.1C862.5,1128.7,859.2,1105.8,853.3,1082.7z"/>
		<path class="c4-fill" fill="#231F20" d="M819,1001.1c2.1,3.4,4.1,6.8,6.1,10.2C823.2,1007.8,821.1,1004.4,819,1001.1z"/>
		<path class="c4-fill" fill="#231F20" d="M811.6,989.9c2.4,3.4,4.7,6.9,6.9,10.4C816.3,996.8,814,993.3,811.6,989.9z"/>
		<path class="c4-fill" fill="#231F20" d="M811.7,1260.6c4.8,4.1,9.7,8.2,14.9,12.2c4.5,3.5,9.8,4.7,14.7,4c-5,0.6-10.3-0.6-14.7-4
			C821.5,1268.8,816.5,1264.7,811.7,1260.6z"/>
		<path class="c4-fill" fill="#231F20" d="M825,1063.4c7.1-2,14-3.8,20.8-5.5c2.8,8.2,5.3,16.5,7.4,24.7c-6.2-24.1-15.2-48.2-28.2-71.3
			c-64.2,19.1-100.1,41.1-115.1,52c-1.4-14-1.8-27.6-1.6-40.5c36-30.8,66.9-46.3,86.9-53.8c-10-11.5-21.3-22.5-34.2-32.6
			c0.3,0.3,0.7,0.5,1,0.8c-24.1,8.8-42.3,28.2-49.7,37c0.5-3.2,1-6.3,1.5-9.2c-6.6,38.5-10.2,94.3,6.1,152.8
			c-1.6-5.8-3.1-11.5-4.3-17.3C744.2,1088.4,782.3,1075.2,825,1063.4z"/>
		<path class="c4-fill" fill="#231F20" d="M795.4,969.1c5.8,6.7,11.1,13.5,16,20.5C806.6,982.7,801.2,975.8,795.4,969.1z"/>
		<path fill="#231F20" d="M864.6,1202.1c-19.7,5.2-53.7,10.7-101.2,6.2c12.8,17.8,28.4,35,47.2,51.4c-4.6-4-9-8-13.2-12.1
			c15.1,3.3,40.6,6.5,63.3-2.5c-0.7,5.5-1.5,10.6-2.2,15.3c-0.6,3.7-2.2,6.9-4.3,9.5c2.2-2.6,3.7-5.8,4.3-9.5
			c3.3-20.3,6.6-49.3,6.4-82.4C865.1,1186.3,865,1194.3,864.6,1202.1z"/>
		<path class="c4-fill" fill="#231F20" d="M864,1150.5c0.6,8.8,0.9,17.5,1,25.8C865,1168,864.7,1159.4,864,1150.5z"/>
		<path class="c4-fill" fill="#231F20" d="M716,954.5c0.4-2,0.8-4,1.2-5.9C716.8,950.5,716.4,952.5,716,954.5z"/>
		<path class="c4-fill" fill="#231F20" d="M714.2,963.6c0.4-2.5,0.9-4.8,1.3-7.1C715.1,958.8,714.7,961.2,714.2,963.6z"/>
		<path class="c4-fill" fill="#231F20" d="M726.3,1137.4c-2.1-5.9-4-11.9-5.7-17.8C722.3,1125.5,724.2,1131.5,726.3,1137.4z"/>
		<path class="c4-fill" fill="#231F20" d="M751.6,1190.4c-3.4-5.5-6.6-11.1-9.5-16.7C745.1,1179.3,748.2,1184.8,751.6,1190.4z"/>
		<path class="c4-fill" fill="#231F20" d="M717.6,946.5c0.5-2.1,0.9-4.1,1.4-6.1C718.6,942.4,718.1,944.4,717.6,946.5z"/>
		<path class="c4-fill" fill="#231F20" d="M763.5,1208.2c-4-5.6-7.7-11.2-11.2-16.8C755.7,1197,759.4,1202.7,763.5,1208.2z"/>
		<path class="c3-fill" fill="#808080" d="M1317.4,1120.5c-2-68.1-21.5-198.8-132-290.8c4-29.1-6.1-55.3-28-68c-8.3-4.8-18-7.4-27.9-7.4
			c-24.5,0-49.4,15-66.8,39.7c-147.7,16.9-249.2,36.2-305,48.5c-2.6-2.3-5.2-4.5-8-6.7c-18.6-14-39.8-21.7-59.9-21.7
			c-20.4,0-37.8,8-48.8,22.6c-12.2,16.2-14.5,37.9-6.3,59.5c4.3,11.4,11.4,22.5,20.7,32.3c-19.5,86-32.6,257.5,121.1,390.6
			c-3.8,22.5-0.7,44.6,9,61c8.1,13.9,20.7,23.3,35.3,26.5c4.1,0.9,8.3,1.4,12.4,1.4c40.1,0,61.9-38.3,71.7-65.6
			c182.4-41.3,288.7-85,342.5-111.9c13.5,6,27.8,9.2,41.2,9.2c24.6,0,44.8-10.6,55.5-29C1360.3,1182.8,1348.5,1145.6,1317.4,1120.5z
			 M1316,1194.7c-4.9,8.5-15.2,12.8-27.5,12.8c-11.1,0-23.8-3.5-36-10.5c-1.6-1-3.2-2-4.8-3c-50.5,27.1-161,75.6-368.7,121.1
			c-0.4,5.6-15.9,60.6-45.9,60.6c-1.8,0-3.6-0.2-5.5-0.6c-18.3-4-25.4-32.9-16.7-61.3c0.7-2.2,1.4-4.2,2.2-6.3
			C643,1173.6,671.5,989.7,691.5,917.2c-0.7-0.5-1.5-0.9-2.3-1.5c-23.7-17.9-33.8-44.5-22.5-59.4c5-6.6,13.2-9.8,23-9.8
			c12.4,0,27.1,5.2,40.3,15.2c6.6,5,12.1,10.7,16.4,16.6c49.1-11.5,161-34.6,335.6-53.9c0.8-1.7,1.8-3.4,2.7-5.1
			c11.6-20.1,29.6-32.5,44.6-32.5c4.2,0,8.2,1,11.7,3c13.9,8,16.6,30.1,7.7,52.4c123.3,90.3,137.2,230.9,136.4,295.6
			c0.4,0.2,0.9,0.5,1.3,0.7C1312.2,1153.3,1325.4,1178.5,1316,1194.7z"/>
		<path class="c3-fill" fill="#808080" d="M858.7,1107.4c-1.5-8.2-3.3-16.4-5.4-24.6c0,0,0-0.1,0-0.1c-2.1-8.3-4.6-16.5-7.4-24.7
			c-6.9,1.8-13.8,3.6-20.8,5.5c-42.7,11.8-80.9,25-109.3,37.1c1.2,5.7,2.7,11.5,4.3,17.3c0.2,0.6,0.3,1.2,0.5,1.9
			c1.7,5.9,3.6,11.8,5.7,17.8c0,0,0,0,0,0c0,0,0,0,0,0c30.6-4.3,69.9-12.6,112.5-24.4C845.6,1111.2,852.2,1109.3,858.7,1107.4z"/>
		<path class="c3-fill" fill="#808080" d="M710,1063.4c15-10.9,50.9-32.9,115.1-52l0,0c0,0,0,0,0,0c-1.9-3.4-4-6.8-6.1-10.2
			c-0.2-0.3-0.3-0.5-0.5-0.8c-2.2-3.5-4.5-7-6.9-10.4c0-0.1-0.1-0.1-0.1-0.2c-4.9-7-10.3-13.9-16-20.5c0,0-0.1-0.1-0.1-0.1l0,0
			c-20,7.6-50.9,23-86.9,53.8C708.2,1035.7,708.6,1049.3,710,1063.4z"/>
		<path class="c3-fill" fill="#808080" d="M762.2,937.2c-0.3-0.3-0.7-0.5-1-0.8c-3.5-2.8-7.1-5.5-10.8-8.2c-11.5-8.2-27.8-2.3-31.1,11.4
			c-0.1,0.3-0.1,0.6-0.2,0.8c-0.5,1.9-0.9,3.9-1.4,6.1c-0.2,0.7-0.3,1.4-0.4,2.1c-0.4,1.9-0.8,3.9-1.2,5.9c-0.1,0.7-0.3,1.3-0.4,2
			c-0.4,2.3-0.9,4.7-1.3,7.1c-0.1,0.5-0.2,0.9-0.2,1.4c-0.5,3-1,6.1-1.5,9.2C719.9,965.4,738.1,946,762.2,937.2z"/>
		<path class="c3-fill" fill="#808080" d="M864.6,1202.1c0.3-7.7,0.5-15.8,0.4-24.1c0-0.5,0-1,0-1.5c-0.1-8.4-0.4-17-1-25.8c0,0,0,0,0,0l0,0
			c-60,19.7-101.1,23.1-122,23.1c0,0,0,0,0,0c0,0,0,0,0,0.1c2.9,5.6,6.1,11.2,9.5,16.7c0.2,0.3,0.4,0.7,0.6,1
			c3.5,5.6,7.2,11.3,11.2,16.8c0,0,0,0,0,0l0,0C811,1212.7,845,1207.3,864.6,1202.1z"/>
		<path class="c3-fill" fill="#808080" d="M860.9,1245.1c-22.7,9-48.3,5.8-63.3,2.5c4.2,4.1,8.6,8.1,13.2,12.1c0.3,0.3,0.7,0.6,1,0.9
			c4.8,4.1,9.7,8.2,14.9,12.2c4.5,3.5,9.8,4.7,14.7,4c5-0.6,9.7-3.1,12.9-7c2.2-2.6,3.7-5.8,4.3-9.5
			C859.4,1255.7,860.2,1250.6,860.9,1245.1z"/>
		<path class="c4-fill" d="M983.9,689.9h109.9c1.9,0,3.5-1.6,3.5-3.5v-23.8c0-1.9-1.6-3.5-3.5-3.5h-58.3c-3.1,0-4.7-3.6-2.6-5.9l63.5-69.9
			c0.6-0.7,0.9-1.5,0.9-2.4v-22c0-1.9-1.6-3.5-3.5-3.5H986.1c-1.9,0-3.5,1.6-3.5,3.5v23.8c0,1.9,1.6,3.5,3.5,3.5h55.8
			c3.1,0,4.7,3.6,2.6,5.9L981.2,662c-0.6,0.6-0.9,1.5-0.9,2.4v22C980.3,688.3,981.9,689.9,983.9,689.9z"/>
		<path class="c4-fill" d="M1136,623.8v20.5c0,1.6,1.3,2.9,2.9,2.9h34.4c2.5,0,3.9,3,2.2,4.9l-40.3,44.5c-0.5,0.5-0.8,1.2-0.8,2v18
			c0,1.6,1.3,2.9,2.9,2.9h80.5c1.6,0,2.9-1.3,2.9-2.9V696c0-1.6-1.3-2.9-2.9-2.9h-36.1c-2.5,0-3.9-3-2.2-4.9l40.5-44.6l0.6-0.7
			v-19.2c0-1.6-1.3-2.9-2.9-2.9h-78.9C1137.3,620.9,1136,622.2,1136,623.8z"/>
		<path class="c4-fill" d="M1228.1,827.7h66.5c1.5,0,2.7-1.2,2.7-2.7v-17.1c0-1.5-1.2-2.7-2.7-2.7h-28.2c-2.3,0-3.6-2.8-2-4.5l32.2-35.4
			c0.5-0.5,0.7-1.1,0.7-1.8v-15c0-1.5-1.2-2.7-2.7-2.7h-65.2c-1.5,0-2.7,1.2-2.7,2.7v17.2c0,1.5,1.2,2.7,2.7,2.7h26.8
			c2.3,0,3.6,2.8,2,4.5l-32.1,35.4c-0.4,0.5-0.7,1.1-0.7,1.8v15C1225.5,826.5,1226.7,827.7,1228.1,827.7z"/>
		<path class="c3-fill" fill="#808080" d="M1135.9,873.7c-4.6-3.8-11.4-3.1-15.2,1.5c-3.8,4.6-3.1,11.4,1.5,15.2c0.5,0.4,51.7,42.8,76.8,117.8
			c1.5,4.5,5.7,7.4,10.2,7.4c1.1,0,2.3-0.2,3.4-0.6c5.7-1.9,8.7-8,6.8-13.7C1192.5,920.5,1138.2,875.6,1135.9,873.7z"/>
		<path class="c3-fill" fill="#808080" d="M873.2,763.7h5.3c0-37.1,29.2-65,65-65v-5.3c-35.8,0-65-27.9-65-65h-5.3c0,34.5-27.9,65-65,65v5.3
			C844.1,698.7,873.2,726.5,873.2,763.7z"/>
		<path class="c3-fill" fill="#808080" d="M1285.2,712.3h3c0-21.2,16.6-37.1,37.1-37.1v-3c-20.4,0-37.1-15.9-37.1-37.1h-3
			c0,19.7-15.9,37.1-37.1,37.1v3C1268.5,675.3,1285.2,691.1,1285.2,712.3z"/>
		<path class="c3-fill" fill="#808080" d="M1162.8,587.2h2.5c0-17.5,13.8-30.6,30.6-30.6V554c-16.9,0-30.6-13.1-30.6-30.6h-2.5
			c0,16.3-13.1,30.6-30.6,30.6v2.5C1149.1,556.5,1162.8,569.7,1162.8,587.2z"/>
	</g>
</g>
</svg>
