<?xml version="1.0" encoding="utf-8"?>
<!-- Generator: Adobe Illustrator 19.1.0, SVG Export Plug-In . SVG Version: 6.00 Build 0)  -->
<svg version="1.1" xmlns="http://www.w3.org/2000/svg" xmlns:xlink="http://www.w3.org/1999/xlink" x="0px" y="0px"
	 viewBox="0 0 2000 2000" enable-background="new 0 0 2000 2000" xml:space="preserve">
<g id="Layer_3">
</g>
<g id="Layer_4">
	<g>
		<path class="c4-fill" fill="none" d="M1248.7,1001.9c0-137.9-112.2-250.1-250.1-250.1c-137.9,0-250.1,112.2-250.1,250.1S860.7,1252,998.6,1252
			C1136.5,1252,1248.7,1139.8,1248.7,1001.9z M1093.7,889.7l9.9-30l9.6,30.1l31.6,0.1l-25.6,18.5l9.6,30.1l-25.5-18.7l-25.6,18.5
			l9.9-30l-25.5-18.7L1093.7,889.7z M1053.8,979.8l17.7,26.1l30.3-8.8l-19.4,24.9l17.7,26.1l-29.7-10.7l-19.4,24.9l1-31.6
			l-29.7-10.7l30.3-8.8L1053.8,979.8z M958.4,899.6l29.8,10.5l19.2-25.1l-0.8,31.6l29.8,10.5l-30.3,9l-0.8,31.6l-17.9-26l-30.3,9
			l19.2-25.1L958.4,899.6z M1002.7,1193.2c-104,0-186.9-83.9-186.9-186.9c0-79.5,51.3-147.8,121.6-174.1
			c-30.6,30.4-49.5,72.5-49.5,119c0,92.7,75.1,167.8,167.8,167.8c48.8,0,92.7-21,123.3-54.3
			C1154,1139.3,1084.8,1193.2,1002.7,1193.2z"/>
		<path class="c3-fill" fill="#808080" d="M1014.8,687.3c0-0.1,0-0.3,0-0.4l0-61.9l15.4,0c9,0,16.2-7.3,16.2-16.2c0-9-7.3-16.2-16.2-16.2l-27.8,0
			c-1.2-0.3-2.5-0.5-3.8-0.5c-1.3,0-2.6,0.2-3.8,0.5l-27.9,0c-9,0-16.2,7.3-16.2,16.2c0,9,7.3,16.2,16.2,16.2l15.4,0l0,61.9
			c0,0.1,0,0.3,0,0.4c5.4-0.3,10.8-0.4,16.2-0.4C1004,686.9,1009.4,687,1014.8,687.3z"/>
		<path class="c3-fill" fill="#808080" d="M774.7,1303.9c-7.8,12.7-3.9,29.4,8.9,37.2c4.4,2.7,9.3,4,14.2,4c9.1,0,18-4.6,23.1-12.9l31.6-51.4
			c-16.1-8.4-31.3-18.2-45.6-29.2L774.7,1303.9z"/>
		<path class="c3-fill" fill="#808080" d="M1193.3,1249.5c-14.2,11.1-29.2,21.2-45.2,29.8l32.6,53c5.1,8.3,14,12.9,23.1,12.9c4.8,0,9.7-1.3,14.2-4
			c12.7-7.8,16.7-24.5,8.9-37.2L1193.3,1249.5z"/>
		<path class="c4-fill" d="M1313.6,1001.9c0-168.5-132.4-306.2-298.8-314.6c-5.4-0.3-10.8-0.4-16.2-0.4c-5.4,0-10.8,0.1-16.2,0.4
			c-166.5,8.4-298.8,146.1-298.8,314.6c0,101.8,48.3,192.2,123.2,249.8c14.3,11,29.5,20.7,45.6,29.2c43.7,23,93.4,36,146.2,36
			c54.1,0,105-13.7,149.5-37.7c16-8.6,31-18.6,45.2-29.8C1266.5,1191.8,1313.6,1102.4,1313.6,1001.9z M748.5,1001.9
			c0-137.9,112.2-250.1,250.1-250.1c137.9,0,250.1,112.2,250.1,250.1S1136.5,1252,998.6,1252C860.7,1252,748.5,1139.8,748.5,1001.9z
			"/>
		<path class="c3-fill" fill="#808080" d="M725.7,760.2l172.8-117.9c-32.3-47.4-96.9-59.6-144.3-27.3l-1.3,0.9C705.6,648.2,693.4,712.8,725.7,760.2
			L725.7,760.2z"/>
		<path class="c3-fill" fill="#808080" d="M1247.4,615.9l-1.3-0.9c-47.4-32.3-112-20.1-144.3,27.3l172.8,117.9C1307,712.8,1294.7,648.2,1247.4,615.9
			z"/>
		<polygon points="1077.7,938.2 1103.4,919.7 1128.8,938.4 1119.2,908.3 1144.8,889.9 1113.2,889.7 1103.6,859.7 1093.7,889.7 
			1062.1,889.5 1087.6,908.2 		"/>
		<polygon points="1052.1,1030.8 1051.1,1062.4 1070.5,1037.5 1100.2,1048.2 1082.5,1022.1 1101.9,997.1 1071.5,1005.9 
			1053.8,979.8 1052.8,1011.3 1022.4,1020.1 		"/>
		<polygon points="987.4,941.7 1005.3,967.7 1006.1,936.1 1036.3,927.1 1006.6,916.6 1007.3,885 988.2,910.1 958.4,899.6 
			976.3,925.6 957.1,950.7 		"/>
		<path class="c3-fill" fill="#808080" d="M1055.7,1119c-92.7,0-167.8-75.1-167.8-167.8c0-46.5,18.9-88.6,49.5-119
			c-70.3,26.2-121.6,94.5-121.6,174.1c0,103,83,186.9,186.9,186.9c82.1,0,151.3-53.9,176.3-128.6
			C1148.3,1098,1104.5,1119,1055.7,1119z"/>
	</g>
</g>
</svg>
