<?xml version="1.0" encoding="utf-8"?>
<!-- Generator: Adobe Illustrator 19.1.0, SVG Export Plug-In . SVG Version: 6.00 Build 0)  -->
<svg version="1.1" id="Layer_5" xmlns="http://www.w3.org/2000/svg" xmlns:xlink="http://www.w3.org/1999/xlink" x="0px" y="0px"
	 viewBox="0 0 2000 2000" enable-background="new 0 0 2000 2000" xml:space="preserve">
<g>
	<path class="c3-fill" fill="#808080" d="M1370.3,1220.3c-1,0.4-2,0.7-3.1,1c-0.1,0-0.2,0.1-0.3,0.1c-1.2,0.2-2.4,0.4-3.6,0.4h-35.7v69.1
		c0,11.9,9.7,21.6,21.6,21.6s21.6-9.7,21.6-21.6v-70.7c-0.1,0-0.2,0.1-0.3,0.2C1370.4,1220.3,1370.4,1220.3,1370.3,1220.3z"/>
	<g>
		<path class="c3-fill" fill="#808080" d="M865.1,1222.5c-0.3-0.1-0.5-0.2-0.8-0.2c-0.9-0.2-1.8-0.5-2.7-0.9c-0.4-0.2-0.7-0.4-1.1-0.6
			c-0.7-0.4-1.4-0.8-2.1-1.2c-0.4-0.3-0.7-0.6-1.1-0.9c-0.6-0.5-1.1-1-1.6-1.6c-0.2-0.2-0.3-0.3-0.5-0.5l-4.3-5.1v81.1
			c0,11.9,9.7,21.6,21.6,21.6c11.9,0,21.6-9.7,21.6-21.6v-69.7h-25.4C867.5,1222.9,866.3,1222.8,865.1,1222.5z"/>
		<path class="c3-fill" fill="#808080" d="M662.6,986.9c-2.7-3.2-4.1-7.2-4.1-11.3v-31.3v-82.5c0-0.4,0.2-0.8,0.2-1.1c0.1-1,0.2-2,0.5-3
			c0.2-0.7,0.4-1.5,0.7-2.2c0.1-0.4,0.2-0.8,0.3-1.1c0.2-0.5,0.6-0.9,0.9-1.4c0.4-0.7,0.8-1.3,1.3-1.9c0.6-0.8,1.3-1.4,2-2.1
			c0.5-0.5,1.1-1,1.7-1.4c0.8-0.6,1.8-1,2.7-1.5c0.5-0.2,0.9-0.6,1.4-0.8c0.2-0.1,0.3,0,0.5-0.1c1-0.3,2-0.5,3.1-0.6
			c0.7-0.1,1.3-0.3,2-0.3c0.1,0,0.2-0.1,0.4-0.1h25.4H718l-0.8-0.8c-2.1-1.9-3.3-4.7-3.3-7.5v-24.4c0-5.6,4.6-10.2,10.2-10.2h113.4
			c2.7,0,5.3,1.1,7.2,3l39.9,39.9h39.2l-0.8-0.8c-2.1-1.9-3.3-4.7-3.3-7.5v-24.4c0-5.6,4.6-10.2,10.2-10.2h105.7
			c2.7,0,5.3,1.1,7.2,3l37.4,37.4l2.5,2.5h31.6c0.4,0,0.7,0.2,1.1,0.2c1.4,0.1,2.7,0.3,4,0.7c0.6,0.2,1.2,0.3,1.7,0.5
			c0.8,0.3,1.5,0.8,2.3,1.3V701.4c0-11.9-9.7-21.6-21.6-21.6c-11.9,0-21.6,9.7-21.6,21.6v35.3H701.4v-35.3
			c0-11.9-9.7-21.6-21.6-21.6c-11.9,0-21.6,9.7-21.6,21.6v161v79.9v149.2c0,11.9,9.7,21.6,21.6,21.6c11.9,0,21.6-9.7,21.6-21.6
			v-16.3v-42.1L662.6,986.9z"/>
		<path class="c4-fill" d="M1384.4,1087.9c0-0.1-0.1-0.2-0.1-0.3c0-0.2-0.1-0.4-0.2-0.6c-0.2-0.9-0.5-1.7-0.8-2.5c-0.1-0.3-0.4-0.6-0.5-1
			c-0.1-0.1-0.1-0.2-0.2-0.4c-0.2-0.3-0.3-0.6-0.5-0.9c-0.2-0.3-0.3-0.6-0.5-0.9c-0.3-0.4-0.6-0.7-0.9-1c-0.5-0.6-0.9-1.1-1.5-1.6
			c-0.1-0.1-0.2-0.2-0.3-0.3l-164.3-149h-52.3h0h-30.9h-35.1H755.8h0H723v15.6v59.2v54.6l128,152.6l4.3,5.1c0.2,0.2,0.3,0.3,0.5,0.5
			c0.5,0.6,1.1,1.1,1.6,1.6c0.4,0.3,0.7,0.6,1.1,0.9c0.6,0.5,1.3,0.9,2.1,1.2c0.4,0.2,0.7,0.4,1.1,0.6c0.9,0.4,1.8,0.7,2.7,0.9
			c0.3,0.1,0.5,0.2,0.8,0.2c1.2,0.3,2.4,0.4,3.7,0.4h25.4h437.4h35.7c1.2,0,2.4-0.1,3.6-0.4c0.1,0,0.2-0.1,0.3-0.1
			c1.1-0.2,2.1-0.6,3.1-1c0,0,0.1,0,0.1,0c0.1,0,0.2-0.1,0.3-0.2c0,0,0,0,0.1,0c1.3-0.6,2.4-1.3,3.5-2.2c0.3-0.2,0.6-0.5,0.9-0.7
			c1.1-1,2.1-2.1,2.9-3.3c0.1-0.1,0.2-0.3,0.2-0.5c0.7-1.1,1.2-2.3,1.7-3.6c0.1-0.4,0.2-0.7,0.3-1.1c0.4-1.5,0.7-3,0.7-4.5v-113.8
			C1384.8,1090.3,1384.7,1089.1,1384.4,1087.9z M1262.6,1086.7c-0.5,5.5-5,9.9-10.6,9.9h-30.8H886.3h-11.8c-2.9,0-5.7-1.2-7.7-3.3
			l-79.3-82c-4.1-4.3-4-11.1,0.3-15.2c4.3-4.1,11.1-4,15.2,0.3l67,69.2l8.2,8.5l1,1.1h318.4h52.3h2.3c6,0,10.8,4.8,10.8,10.8
			C1262.8,1086.1,1262.6,1086.4,1262.6,1086.7z"/>
		<path class="c4-fill" d="M1119.1,845.2c-1.3-0.4-2.6-0.7-4-0.7c-0.4,0-0.7-0.2-1.1-0.2h-31.6l14.4,14.4l1.7,1.7c6.2,6.2,4.3,15.8-2.1,20
			c-2,1.3-4.3,2.1-7.1,2.1H969.5c-2.5,0-5-0.9-6.9-2.7l-0.5-0.4l-38.5-35.1h-39.2l16.1,16.1c5.8,5.8,4.5,14.5-0.9,19
			c-2.2,1.9-4.9,3.1-8.3,3.1H763.9c-2.5,0-5-0.9-6.9-2.7l-0.5-0.4L718,844.2h-16.5h-25.4c-0.1,0-0.2,0.1-0.4,0.1
			c-0.7,0-1.3,0.2-2,0.3c-1.1,0.1-2.1,0.3-3.1,0.6c-0.2,0.1-0.4,0-0.5,0.1c-0.5,0.2-0.9,0.5-1.4,0.8c-0.9,0.4-1.9,0.9-2.7,1.5
			c-0.6,0.4-1.1,0.9-1.7,1.4c-0.7,0.7-1.4,1.3-2,2.1c-0.5,0.6-0.9,1.3-1.3,1.9c-0.3,0.5-0.7,0.9-0.9,1.4c-0.2,0.4-0.2,0.8-0.3,1.1
			c-0.3,0.7-0.5,1.4-0.7,2.2c-0.2,1-0.4,2-0.5,3c0,0.4-0.2,0.8-0.2,1.1v82.5v31.3c0,4.1,1.5,8.1,4.1,11.3l38.8,46.3v-54.6v-36.2
			v-20.7v-2.3v-0.7c0-6,4.8-10.8,10.8-10.8h25.5h0h358.8h35.1h7.1h0h52.3l-65.2-59.1c-0.8-0.7-1.8-1.2-2.7-1.8
			c-0.7-0.5-1.5-0.9-2.3-1.3C1120.3,845.5,1119.7,845.4,1119.1,845.2z"/>
		<path class="c3-fill" fill="#808080" d="M1252,1075h-2.3h-52.3H879.1l-1-1.1l-8.2-8.5l-67-69.2c-4.1-4.3-10.9-4.4-15.2-0.3
			c-4.3,4.1-4.4,11-0.3,15.2l79.3,82c2,2.1,4.8,3.3,7.7,3.3h11.8h334.9h30.8c5.6,0,10.1-4.4,10.6-9.9c0-0.3,0.2-0.6,0.2-0.9
			C1262.8,1079.9,1258,1075,1252,1075z"/>
	</g>
</g>
</svg>
