<?xml version="1.0" encoding="utf-8"?>
<!-- Generator: Adobe Illustrator 19.1.0, SVG Export Plug-In . SVG Version: 6.00 Build 0)  -->
<svg version="1.1" xmlns="http://www.w3.org/2000/svg" xmlns:xlink="http://www.w3.org/1999/xlink" x="0px" y="0px"
	 viewBox="0 0 2000 2000" enable-background="new 0 0 2000 2000" xml:space="preserve">
<g id="Layer_3">
</g>
<g id="Layer_4">
	<g>
		<path class="c3-fill" fill="#808080" d="M1311.5,1174.3c0.2-65.7-14.5-191.4-117.2-283.3c4.6-28.1-4.5-53.7-25.4-66.8c-8.6-5.4-18.7-8.2-29.2-8.2
			c-23.1,0-46.9,13.6-64.1,36c-141.5,11.4-239.2,26.6-293.3,36.5c-2.3-2.2-4.6-4.3-7.1-6.3c-18.1-14.7-40-23.1-60-23.1
			c-18.9,0-35.3,7.3-46.1,20.6c-19.6,24.2-14.6,61.1,10.4,89.8c-21.5,82.3-39.2,246.3,103.6,379.1c-4.2,21.6-1.9,42.8,6.9,59
			c7.5,13.9,19.6,23.6,33.9,27.2c4.6,1.2,9.4,1.8,14,1.8c37.7,0,59.6-35.1,69.9-60.8c175.6-33.6,278.9-71.9,331.6-96
			c13.7,6.6,28.2,10.1,42,10.1c22.8,0,42-9.7,52.6-26.6C1350.7,1236.4,1340.7,1199.8,1311.5,1174.3z M1306.5,1246.1
			c-4.8,7.6-14,11.5-25.1,11.5c-11,0-23.8-3.8-35.9-11.3c-1.5-1-3-2-4.5-3c-49.3,24.4-157.1,67.4-357.9,104.2
			c-0.5,5.3-16.9,56.7-45.2,56.7c-2,0-4-0.2-6.1-0.8c-17.4-4.4-23.3-32.4-14.1-59.4c0.7-2,1.5-4,2.3-6
			C661,1204,694.4,1028.3,716,959.4c-0.7-0.5-1.4-0.9-2.1-1.5c-22.2-18-31-43.8-19.6-57.8c4.7-5.8,12.2-8.7,21-8.7
			c12.2,0,26.7,5.5,39.6,15.9c6.2,5,11.3,10.6,15.2,16.4c47.5-9.4,155.7-28,323.9-40.8c0.9-1.6,1.8-3.2,2.8-4.8
			c11.6-18.5,28.7-29.8,43-29.8c4.4,0,8.4,1.1,12,3.3c13.1,8.2,14.9,29.5,5.6,50.6c115.5,90.7,124.2,226.1,121.3,288.2
			c0.4,0.2,0.8,0.5,1.3,0.7C1304.1,1206.2,1316,1230.9,1306.5,1246.1z"/>
		<path class="c4-fill" fill="#231F20" d="M738.2,996c0.5-1.9,0.9-3.8,1.4-5.6C739.1,992.2,738.7,994,738.2,996z"/>
		<path class="c4-fill" fill="#231F20" d="M736.3,1004.6c0.5-2.3,1-4.5,1.5-6.7C737.3,1000.1,736.8,1002.3,736.3,1004.6z"/>
		<path class="c4-fill" fill="#231F20" d="M740.1,988.4c0.5-2,1-3.9,1.5-5.7C741.1,984.5,740.6,986.4,740.1,988.4z"/>
		<path class="c4-fill" fill="#231F20" d="M814,1012.6c5.3,6.6,10.3,13.4,14.8,20.3C824.3,1026,819.4,1019.2,814,1012.6z"/>
		<path class="c4-fill" fill="#231F20" d="M742.2,1171.9c-1.8-5.8-3.4-11.5-4.9-17.2C738.7,1160.4,740.3,1166.1,742.2,1171.9z"/>
		<path class="c4-fill" fill="#231F20" d="M764.8,1223.6c-3.1-5.4-5.9-10.9-8.6-16.3C758.8,1212.7,761.7,1218.2,764.8,1223.6z"/>
		<path class="c4-fill" fill="#231F20" d="M828.9,1033c2.2,3.4,4.3,6.8,6.3,10.3C833.2,1039.8,831.1,1036.4,828.9,1033z"/>
		<path class="c4-fill" fill="#231F20" d="M775.6,1241.1c11.7,17.5,26.1,34.6,43.7,50.9c-4.3-4-8.3-8-12.3-12.1c14.4,3.7,38.8,7.6,60.9-0.3
			c-0.9,5.3-1.8,10.2-2.6,14.6c-1.1,5.3-4.1,9.5-8.1,12.1c4-2.6,7.1-6.8,8.1-12.1c3.8-19.4,8-47.1,8.8-78.9
			c-0.2,8-0.6,15.7-1.2,23.1C853.8,1242.9,821.1,1247,775.6,1241.1z"/>
		<path class="c4-fill" fill="#231F20" d="M874,1189c0.3,8.5,0.3,16.8,0.1,24.8C874.3,1205.8,874.3,1197.5,874,1189z"/>
		<path class="c4-fill" fill="#231F20" d="M820.2,1293c4.5,4.1,9.1,8.2,13.9,12.2c4.2,3.5,9.2,4.8,14,4.4c-4.8,0.4-9.8-0.9-14-4.4
			C829.3,1301.2,824.6,1297.1,820.2,1293z"/>
		<path class="c4-fill" fill="#231F20" d="M839.4,1104.1c6.8-1.6,13.6-3.2,20.2-4.6c2.5,8,4.5,16,6.3,24c-5.2-23.3-13.1-46.8-24.8-69.3
			c-62.3,16.3-97.4,36.2-112.2,46.2c-0.9-13.5-0.8-26.6-0.2-38.9c35.6-28.4,65.7-42.3,85.2-48.9c-9-11.1-19.2-21.7-30.8-31.7
			c-23.4,7.7-41.6,25.7-48.9,33.9c0.6-3,1.1-5.9,1.7-8.8c-7.6,36.7-12.9,90.1,0.9,146.8c-1.4-5.6-2.6-11.2-3.6-16.7
			C760.9,1125.4,798,1114,839.4,1104.1z"/>
		<path class="c4-fill" fill="#231F20" d="M775.6,1241.1c-3.7-5.5-7.1-11-10.2-16.5C768.5,1230.1,771.9,1235.6,775.6,1241.1z"/>
		<path class="c4-fill" fill="#231F20" d="M835.6,1044.1c1.9,3.3,3.7,6.6,5.5,10C839.4,1050.7,837.5,1047.4,835.6,1044.1z"/>
		<path class="c4-fill" fill="#231F20" d="M874,1189c-0.7-21-3.2-43.1-8.1-65.4c1.8,8,3.2,15.9,4.3,23.8c-6.3,1.6-12.7,3.3-19.3,4.8
			c-41.3,9.9-79.3,16.7-108.8,19.7c3.7,11.7,8.4,23.5,14,35.2C776.2,1207.8,815.7,1205.9,874,1189z"/>
		<path class="c3-fill" fill="#808080" d="M870.3,1147.4c-1.2-7.9-2.6-15.8-4.3-23.8c0-0.1,0-0.1,0-0.2c-1.8-8-3.9-16-6.3-24
			c-6.6,1.5-13.4,3-20.2,4.6c-41.4,10-78.5,21.4-106.1,32.1c1,5.5,2.2,11.1,3.6,16.7c0.1,0.6,0.3,1.2,0.4,1.8
			c1.4,5.7,3,11.5,4.9,17.2c0,0,0,0,0,0h0c29.5-3.1,67.6-9.8,108.8-19.7C857.5,1150.6,864,1149,870.3,1147.4z"/>
		<path class="c3-fill" fill="#808080" d="M729,1100.3c14.8-10,49.9-29.9,112.2-46.2l0,0c0,0,0,0,0,0c-1.7-3.3-3.6-6.7-5.5-10
			c-0.2-0.3-0.3-0.5-0.4-0.8c-2-3.5-4.1-6.9-6.3-10.3c0,0-0.1-0.1-0.1-0.1c-4.5-6.9-9.4-13.7-14.8-20.3c0,0,0,0,0-0.1h0
			c-19.5,6.6-49.6,20.5-85.2,48.9C728.1,1073.7,728.1,1086.8,729,1100.3z"/>
		<path class="c3-fill" fill="#808080" d="M783.2,980.8L783.2,980.8c-3.6-3-7.3-6-11.1-9c-10.8-8.2-26.6-3.1-30.3,9.9c-0.1,0.3-0.2,0.6-0.2,0.8
			c-0.5,1.8-1,3.7-1.5,5.7c-0.2,0.6-0.3,1.3-0.5,2c-0.5,1.8-0.9,3.7-1.4,5.6c-0.2,0.6-0.3,1.3-0.5,2c-0.5,2.2-1,4.4-1.5,6.7
			c-0.1,0.5-0.2,1-0.3,1.4c-0.6,2.8-1.2,5.7-1.7,8.8C741.6,1006.6,759.8,988.5,783.2,980.8z"/>
		<path class="c3-fill" fill="#808080" d="M874,1189L874,1189c-58.3,16.9-97.8,18.9-117.8,18.2c0,0,0,0,0,0c0,0,0,0,0,0.1c2.6,5.5,5.5,10.9,8.6,16.3
			c0.2,0.3,0.4,0.6,0.5,1c3.2,5.5,6.6,11.1,10.2,16.5c0,0,0,0,0,0c0,0,0,0,0,0c45.5,5.9,78.2,1.7,97.3-2.6c0.6-7.4,1-15.2,1.2-23.1
			c0-0.5,0-1,0-1.5C874.3,1205.8,874.3,1197.5,874,1189C874,1189,874,1189,874,1189z"/>
		<path class="c3-fill" fill="#808080" d="M865.3,1294.3c0.9-4.4,1.8-9.3,2.6-14.6c-22.1,7.9-46.5,4-60.9,0.3c3.9,4.1,8,8.1,12.3,12.1
			c0.3,0.3,0.6,0.6,0.9,0.9c4.4,4.1,9.1,8.2,13.9,12.2c4.2,3.5,9.2,4.8,14,4.4c3.2-0.3,6.3-1.4,9-3.1
			C861.2,1303.8,864.2,1299.6,865.3,1294.3z"/>
		<path class="c3-fill" fill="#808080" d="M1144.3,931.7c-4.5-3.9-11.3-3.4-15.2,1c-3.9,4.5-3.5,11.3,1,15.2c0.5,0.4,48.1,42.7,69.8,115.4
			c1.4,4.7,5.7,7.7,10.3,7.7c1,0,2.1-0.1,3.1-0.5c5.7-1.7,9-7.7,7.3-13.4C1197.2,978.6,1146.4,933.6,1144.3,931.7z"/>
		<path class="c4-fill" d="M1177.3,639.4h-11.3c1.7-5.6,2.6-11.5,2.6-17.7c0-33.4-27-60.4-60.4-60.4c-14.4,0-27.6,5-37.9,13.4
			c-18.4-44.6-62.2-76-113.4-76c-67.8,0-122.7,54.9-122.7,122.7c0,6.1,0.6,12.1,1.5,18h-35.4c-4.7,0-9.3,0.6-13.7,1.7
			c-43.4,7.3-76.5,44.9-76.5,90.4c0,48.5,37.7,88.2,85.4,91.5c2.1,0.1,149.2,0.3,149.2,0.3c32.6,0,59-26.1,59.7-58.5h173
			c32.5,0,58.8-26.3,58.8-58.8v-7.9C1236,665.7,1209.7,639.4,1177.3,639.4z M847.9,764.8l1,1.6l-4-1.6l-27.6-11.2l-9.4,11.2
			l-12.5,14.9l1.1-15l1.4-18.9l-31.6-12.8l33.1-8.2l2.4-34l18,28.9l33.1-8.2l-21.9,26.1L847.9,764.8z M992.5,581.6l7-21.7l7,21.7
			h22.8l-18.4,13.4l7,21.7l-18.4-13.4l-18.4,13.4l7-21.7l-18.4-13.4H992.5z M965.3,715.4c-47.6,0-85.6-38.4-85.6-85.6
			c0-38.8,26.7-71.8,62.2-81.8c-6.3,11.3-10.4,24.2-10.4,38.4c0,42.6,34.7,77.7,77.7,77.7c14.2,0,27.1-4.2,38-10.9
			C1036.7,689.1,1004.2,715.4,965.3,715.4z M1132.9,711.1l-6,24l-9.3-23l-24.7,1.7l19-15.9l-9.3-23l21,13.1l19-15.9l-6,24l21,13.1
			L1132.9,711.1z"/>
		<circle cx="1273.6" cy="800.7" r="30.7"/>
		<circle cx="1263.5" cy="885.3" r="20.6"/>
	</g>
</g>
</svg>
