<?xml version="1.0" encoding="utf-8"?>
<!-- Generator: Adobe Illustrator 19.1.0, SVG Export Plug-In . SVG Version: 6.00 Build 0)  -->
<svg version="1.1" id="Layer_4" xmlns="http://www.w3.org/2000/svg" xmlns:xlink="http://www.w3.org/1999/xlink" x="0px" y="0px"
	 viewBox="0 0 2000 2000" enable-background="new 0 0 2000 2000" xml:space="preserve">
<g>
	<g>
		<path class="c4-fill" d="M988.5,1462.6c-191.9,0-361.5-115.2-432.2-293.6c-3.3-8.3,0.8-17.7,9.1-20.9c8.3-3.3,17.7,0.8,20.9,9.1
			c65.7,166,223.6,273.2,402.1,273.2c177.4,0,334.8-106.3,401.1-270.7c3.3-8.3,12.7-12.2,21-8.9c8.3,3.3,12.3,12.7,8.9,21
			C1348.3,1348.4,1179.1,1462.6,988.5,1462.6z"/>
	</g>
	<g>
		<path class="c4-fill" d="M1385.1,804.5c-5.8,0-11.4-3.1-14.3-8.6c-75.3-142-221.7-230.2-382.3-230.2c-158.7,0-304.4,86.7-380.2,226.3
			c-4.3,7.8-14.1,10.7-21.9,6.5c-7.8-4.3-10.7-14.1-6.5-21.9c81.5-150,238-243.2,408.6-243.2c172.6,0,330,94.8,410.8,247.4
			c4.2,7.9,1.2,17.6-6.7,21.8C1390.2,803.9,1387.6,804.5,1385.1,804.5z"/>
	</g>
	<g>
		<path class="c4-fill" d="M987.1,822.3c96.4,0,174.9,78.4,174.9,174.8S1083.5,1172,987.1,1172s-174.8-78.4-174.8-174.8S890.6,822.3,987.1,822.3
			 M987.1,779.3c-120.3,0-217.9,97.5-217.9,217.9c0,120.3,97.5,217.9,217.9,217.9c120.3,0,217.9-97.6,217.9-217.9
			C1204.9,876.9,1107.4,779.3,987.1,779.3L987.1,779.3z"/>
	</g>
	<g>
		<path class="c4-fill" d="M988.5,1020.5h-70.6c-8.9,0-16.1-7.2-16.1-16.1s7.2-16.1,16.1-16.1h54.5v-77.5c0-8.9,7.2-16.1,16.1-16.1
			c8.9,0,16.1,7.2,16.1,16.1v93.6C1004.6,1013.3,997.4,1020.5,988.5,1020.5z"/>
	</g>
	<g>
		<circle class="c3-fill" fill="#808080" cx="569.6" cy="967.9" r="74.3"/>
	</g>
	<g>
		<path class="c3-fill" fill="#808080" d="M691.4,1030.1c-1.7,0-3.4-0.3-5-1l-19.1-7.6c-6.9-2.8-10.3-10.6-7.5-17.5c2.8-6.9,10.6-10.3,17.5-7.5
			l19.1,7.6c6.9,2.8,10.3,10.6,7.5,17.5C701.8,1026.9,696.7,1030.1,691.4,1030.1z"/>
	</g>
	<g>
		<path class="c3-fill" fill="#808080" d="M466.8,940.2c-1.7,0-3.4-0.3-5-1l-19.1-7.6c-6.9-2.8-10.3-10.6-7.5-17.5c2.8-6.9,10.6-10.3,17.5-7.5
			l19.1,7.6c6.9,2.8,10.3,10.6,7.5,17.5C477.2,937,472.2,940.2,466.8,940.2z"/>
	</g>
	<g>
		<path class="c3-fill" fill="#808080" d="M671.3,937.8c-5.2,0-10.2-3.1-12.4-8.2c-2.9-6.8,0.3-14.7,7.1-17.7l18.9-8.1c6.9-2.9,14.7,0.3,17.7,7.1
			c2.9,6.8-0.3,14.7-7.1,17.7l-18.9,8.1C674.8,937.4,673.1,937.8,671.3,937.8z"/>
	</g>
	<g>
		<path class="c3-fill" fill="#808080" d="M448.9,1032.9c-5.2,0-10.2-3.1-12.4-8.2c-2.9-6.8,0.2-14.7,7.1-17.7l18.9-8.1c6.8-2.9,14.7,0.3,17.7,7.1
			c2.9,6.8-0.2,14.7-7.1,17.7l-18.9,8.1C452.5,1032.6,450.7,1032.9,448.9,1032.9z"/>
	</g>
	<g>
		<path class="c3-fill" fill="#808080" d="M613.4,879.7c-1.8,0-3.6-0.3-5.3-1.1c-6.8-2.9-10-10.9-7-17.7l8.2-18.9c2.9-6.8,10.8-10,17.7-7
			c6.8,2.9,10,10.9,7,17.7l-8.2,18.9C623.6,876.7,618.6,879.7,613.4,879.7z"/>
	</g>
	<g>
		<path class="c3-fill" fill="#808080" d="M517.5,1101.8c-1.8,0-3.6-0.3-5.3-1.1c-6.8-2.9-10-10.9-7-17.7l8.2-18.9c2.9-6.8,10.9-10,17.7-7
			c6.8,2.9,10,10.9,7,17.7l-8.2,18.9C527.7,1098.8,522.7,1101.8,517.5,1101.8z"/>
	</g>
	<g>
		<path class="c3-fill" fill="#808080" d="M524.9,880.1c-5.2,0-10.1-3-12.3-8l-8.3-18.8c-3-6.8,0.1-14.7,6.9-17.7c6.8-3,14.7,0.1,17.7,6.9l8.3,18.8
			c3,6.8-0.1,14.7-6.9,17.7C528.5,879.7,526.7,880.1,524.9,880.1z"/>
	</g>
	<g>
		<path class="c3-fill" fill="#808080" d="M622.6,1101.4c-5.2,0-10.1-3-12.3-8l-8.3-18.8c-3-6.8,0.1-14.7,6.9-17.7c6.8-3,14.7,0.1,17.7,6.9l8.3,18.8
			c3,6.8-0.1,14.7-6.9,17.7C626.2,1101,624.4,1101.4,622.6,1101.4z"/>
	</g>
	<g id="moon_x5F_fill_20_">
		<g>
			<g>
				<path class="c3-fill" fill="#808080" d="M1347.7,1041.2c53.1-23,77.1-84.9,54.3-137.4c-7.6-17.5-19.7-31.3-33.5-41.8
					c49.2-6.6,99.8,19.8,120.6,67.7c25.3,58.2-1,126-59.8,151.5c-47.9,20.8-102.2,5.8-134.3-32.9
					C1312,1050.5,1330.2,1048.8,1347.7,1041.2z"/>
			</g>
		</g>
	</g>
</g>
</svg>
