<?xml version="1.0" encoding="utf-8"?>
<!-- Generator: Adobe Illustrator 18.0.0, SVG Export Plug-In . SVG Version: 6.00 Build 0)  -->
<!DOCTYPE svg PUBLIC "-//W3C//DTD SVG 1.1//EN" "http://www.w3.org/Graphics/SVG/1.1/DTD/svg11.dtd">
<svg version="1.1" id="Layer_2" xmlns="http://www.w3.org/2000/svg" xmlns:xlink="http://www.w3.org/1999/xlink" x="0px" y="0px"
	 viewBox="256 346 100 100" enable-background="new 256 346 100 100" xml:space="preserve">
<path class="c4-fill" d="M314.5,399v0.2c1.3,0,2.3,1.1,2.3,2.3h0.2c0-1.3,1.1-2.3,2.3-2.3V399c-1.3,0-2.3-1.1-2.3-2.3h-0.2
	C316.8,397.9,315.8,399,314.5,399"/>
<path class="c4-fill" d="M312.4,388.7v-0.4c-2.7,0-4.9-2.1-4.9-4.9h-0.4c0,2.6-2.1,4.9-4.9,4.9v0.4c2.7,0,4.9,2.1,4.9,4.9h0.4
	C307.5,390.8,309.7,388.7,312.4,388.7"/>
<path class="c4-fill" d="M315.5,370.6v-0.2c-1.5,0-2.6-1.2-2.6-2.6h-0.2c0,1.5-1.2,2.6-2.6,2.6v0.2c1.5,0,2.6,1.2,2.6,2.6h0.2
	C312.8,371.8,314,370.6,315.5,370.6"/>
<path class="c4-fill" d="M324.5,380.5v-0.3c-2.2,0-4.1-1.8-4.1-4h-0.3c0,2.2-1.8,4-4.1,4v0.3c2.2,0,4.1,1.8,4.1,4h0.3
	C320.4,382.3,322.3,380.5,324.5,380.5"/>
<g id="moon_x5F_fill">
	<g>
		<path class="c3-fill" fill="#808080" d="M311.3,409.1c-10.3,0-18.6-8.4-18.6-18.6c0-3.4,1-6.5,2.5-9.2c-8.5,2.4-14.9,10.3-14.9,19.6
			c0,11.3,9.1,20.5,20.5,20.5c9.3,0,17.1-6.3,19.6-14.9C317.8,408.1,314.7,409.1,311.3,409.1z"/>
	</g>
</g>
</svg>
