<?xml version="1.0" encoding="utf-8"?>
<!-- Generator: Adobe Illustrator 18.1.1, SVG Export Plug-In . SVG Version: 6.00 Build 0)  -->
<!DOCTYPE svg PUBLIC "-//W3C//DTD SVG 1.1//EN" "http://www.w3.org/Graphics/SVG/1.1/DTD/svg11.dtd">
<svg version="1.1" id="Layer_2" xmlns="http://www.w3.org/2000/svg" xmlns:xlink="http://www.w3.org/1999/xlink" x="0px" y="0px"
	 viewBox="0 0 2000 2000" enable-background="new 0 0 2000 2000" xml:space="preserve">
<g>
	<path class="c3-fill" fill="#808080" d="M1218.1,759c-56,0-104.7,30.6-130.8,75.8l-145.4-87.6c14.6-20.3,23.3-45.2,23.3-72.1
		c0-68.4-55.5-123.9-123.9-123.9c-68.4,0-123.9,55.5-123.9,123.9S772.9,799,841.3,799c35.2,0,66.9-14.7,89.4-38.3l148.7,89.6
		c-7.8,18.3-12.2,38.4-12.2,59.5c0,31.7,9.8,61.1,26.6,85.4l-91.4,91.4c-22.6-9.5-47.4-14.8-73.4-14.8
		c-104.1,0-188.5,84.4-188.5,188.5c0,104.1,84.4,188.5,188.5,188.5c104.1,0,188.5-84.4,188.5-188.5c0-71.5-39.8-133.8-98.6-165.7
		l85.6-85.6c27.7,31.6,68.2,51.7,113.5,51.7c83.3,0,150.8-67.5,150.8-150.8C1368.9,826.6,1301.4,759,1218.1,759z M841.3,791.1
		c-63.9,0-116-52-116-116s52-116,116-116s116,52,116,116S905.2,791.1,841.3,791.1z M1101,1260.3c0,94.8-77.1,171.9-171.9,171.9
		c-94.8,0-171.9-77.1-171.9-171.9s77.1-171.9,171.9-171.9C1023.9,1088.4,1101,1165.5,1101,1260.3z M1218.1,1049.1
		c-76.8,0-139.3-62.5-139.3-139.3s62.5-139.3,139.3-139.3c76.8,0,139.3,62.5,139.3,139.3S1294.9,1049.1,1218.1,1049.1z"/>
	<path class="c4-fill" d="M1218.1,779.2c-72.1,0-130.6,58.5-130.6,130.6s58.5,130.6,130.6,130.6s130.6-58.5,130.6-130.6S1290.2,779.2,1218.1,779.2z
		 M1211.4,830.2c23.2-3.7,44.9,12.2,48.5,35.3c3.7,23.2-12.2,44.9-35.3,48.5c-23.1,3.6-44.9-12.2-48.5-35.3
		C1172.5,855.6,1188.3,833.8,1211.4,830.2z M1296.4,934.6c-8.1,21.5-24.1,37.8-43.4,46.6c-10.7,4.9-22.4,7.4-34.4,7.5
		c-1.5,0-2.9,0-4.4,0c-0.2,0-0.4,0-0.7-0.1c-9.8-0.4-19.4-2.4-28.4-6.2c-19.7-8.2-36.3-23.8-45.1-45c-4.9-12,0.7-25.8,12.8-30.8
		c12-5,25.8,0.7,30.8,12.8c3.8,9.2,20.2,19.3,20.2,19.1c0.7,0.3,10.1,3,14.1,3.1c4.3-0.1,14.2-3.3,14.9-3.6c0,0.2,16-10.5,19.5-19.8
		c4.5-12.2,18.1-18.4,30.3-13.8C1294.7,908.8,1301,922.4,1296.4,934.6z"/>
	<path class="c4-fill" d="M841.3,567.8c-59.3,0-107.3,48-107.3,107.3s48,107.3,107.3,107.3c59.3,0,107.3-48,107.3-107.3
		C948.6,615.9,900.6,567.8,841.3,567.8z M835.9,609.7c19-3,36.9,10,39.8,29c3,19-10,36.9-29,39.9c-19,3-36.9-10-39.9-29
		C803.9,630.5,816.9,612.7,835.9,609.7z M905.7,695.5c-6.6,17.7-19.8,31-35.7,38.3c-8.8,4-18.4,6.1-28.3,6.1c-1.2,0-2.4,0-3.7,0
		c-0.2,0-0.3,0-0.5-0.1c-8.1-0.3-16-2-23.3-5.1c-16.2-6.7-29.8-19.6-37-37c-4.1-9.9,0.6-21.2,10.5-25.3c9.9-4.1,21.2,0.6,25.3,10.5
		c3.1,7.5,16.5,15.9,16.5,15.7c0.6,0.2,8.3,2.5,11.6,2.5c3.6-0.1,11.7-2.7,12.3-3c0,0.2,13.1-8.6,16-16.3
		c3.8-10,14.9-15.1,24.9-11.4C904.3,674.3,909.4,685.4,905.7,695.5z"/>
	<path class="c4-fill" d="M929.1,1097.1c-90.1,0-163.2,73.1-163.2,163.2c0,90.1,73.1,163.2,163.2,163.2c90.2,0,163.3-73.1,163.3-163.2
		S1019.2,1097.1,929.1,1097.1z M920.8,1160.7c29-4.6,56.1,15.2,60.7,44.1c4.6,29-15.2,56.1-44.2,60.7c-28.9,4.6-56.1-15.2-60.7-44.2
		C872.1,1192.4,891.9,1165.3,920.8,1160.7z M1027,1291.2c-10.1,26.9-30,47.2-54.3,58.2c-13.4,6.1-28.1,9.3-43,9.3
		c-1.8,0-3.7,0-5.5,0c-0.3,0-0.5,0-0.9-0.1c-12.2-0.5-24.3-3.1-35.5-7.7c-24.6-10.2-45.3-29.8-56.3-56.3c-6.2-15,0.9-32.3,16-38.5
		c15-6.2,32.2,0.9,38.5,15.9c4.7,11.5,25.2,24.1,25.2,23.9c0.9,0.4,12.7,3.7,17.7,3.8c5.4-0.1,17.7-4.1,18.6-4.5
		c0,0.3,20-13.1,24.3-24.7c5.7-15.2,22.6-23,37.9-17.3C1024.9,1259,1032.6,1276,1027,1291.2z"/>
</g>
</svg>
