<?xml version="1.0" encoding="utf-8"?>
<!-- Generator: Adobe Illustrator 18.1.1, SVG Export Plug-In . SVG Version: 6.00 Build 0)  -->
<!DOCTYPE svg PUBLIC "-//W3C//DTD SVG 1.1//EN" "http://www.w3.org/Graphics/SVG/1.1/DTD/svg11.dtd">
<svg version="1.1" id="Layer_2" xmlns="http://www.w3.org/2000/svg" xmlns:xlink="http://www.w3.org/1999/xlink" x="0px" y="0px"
	 viewBox="0 0 2000 2000" enable-background="new 0 0 2000 2000" xml:space="preserve">
<g>
	<g>
		<path class="c3-fill" fill="#808080" d="M1117.9,716c-78.3,0-141.7,46.7-141.7,104.3c0,57.6,63.4,104.3,141.7,104.3c14.2,0,27.8-1.5,40.7-4.4
			l54.3,29.5l-15.1-43.3c37.3-18.8,61.8-50.3,61.8-86.1C1259.6,762.7,1196.1,716,1117.9,716z"/>
		<g>
			<path class="c4-fill" d="M959.6,858.6c-11.5,1.8-23.5,2.9-35.8,2.9c-16.3,0-32.6-1.8-48.2-5.2c-3.2-0.7-6.5-0.1-9.2,1.7l-49.6,32.3l17.9-33.7
				c1.5-2.9,1.8-6.2,0.8-9.3s-3.2-5.7-6.1-7.1c-44.1-22.2-70.5-58.4-70.5-96.7c0-65.1,73.9-118.1,164.8-118.1
				c67.6,0,125.7,29.3,151.1,71.1c8.2-1.7,16.6-3.1,25.3-3.8c-27.2-53.4-96-91.5-176.4-91.5c-104.2,0-188.9,63.8-188.9,142.2
				c0,44.3,27,85.5,72.9,112.4l-34.2,64.4c-2.6,4.9-1.5,10.8,2.5,14.6c2.3,2.1,5.2,3.2,8.1,3.2c2.3,0,4.6-0.6,6.6-2l84.5-55
				c15.8,3.1,32,4.7,48.4,4.7c16.6,0,32.7-1.6,48-4.7C966.9,873.8,962.8,866.4,959.6,858.6z"/>
		</g>
	</g>
	<path class="c4-fill" d="M1438.7,1165.1c17.3-127-71.7-189.6-178.9-189.6c-93.2,0-155,70.1-155,164.1c0,4.1,2.5,6.6,3.3,17.3
		c0,10.7-26.4,65.9-28.9,73.4c-2.5,8.2-0.8,22.3,10.7,22.3l0,0h0.8c14,0,15.7,9.9,8.2,14c-3.3,2.5,0,13.2,2.5,15.7
		c2.5,1.6,16.5,6.6,17.3,7.4s-5.8,4.1-7.4,8.2c-1.6,4.1,0,10.7,2.5,13.2s4.1,2.5,12.4,8.2c9.1,6.6,0.8,26.4,0.8,31.3
		c0,5.8,8.2,25.6,28,25.6c9.9,0,22.3-2.5,33-6.6c10.7-3.3,22.3,3.3,23.9,14l0,0c2.5,11.5,13.2,18.1,25.6,14
		c165.7-52.8,138.5-26.4,129.4-93.2c-0.8-4.1,0.8-9.1,2.5-13.2C1392.5,1258.2,1434.6,1210.4,1438.7,1165.1z"/>
	<path class="c3-fill" fill="#808080" d="M630.5,1291.2c1.6,4.1,3.3,9.1,2.5,13.2c-9.1,66.8-36.3,40.4,129.4,93.2c12.4,4.1,23.1-2.5,25.6-14l0,0
		c1.6-10.7,13.2-17.3,23.9-14c10.7,4.1,23.1,6.6,33,6.6c19.8,0,28-19.8,28-25.6c0-4.9-8.2-24.7,0.8-31.3c8.2-5.8,9.9-5.8,12.4-8.2
		s4.1-9.1,2.5-13.2c-1.6-4.1-8.2-7.4-7.4-8.2c0.8-0.8,14.8-5.8,17.3-7.4c2.5-2.5,5.8-13.2,2.5-15.7c-7.4-4.1-5.8-14,8.2-14h0.8l0,0
		c11.5,0,13.2-14,10.7-22.3c-2.5-7.4-28.9-62.7-28.9-73.4c0.8-10.7,3.3-13.2,3.3-17.3c0-94-61.8-164.1-155-164.1
		c-107.2,0-196.2,62.7-178.9,189.6C565.4,1210.4,607.5,1258.2,630.5,1291.2z"/>
</g>
</svg>
