<?xml version="1.0" encoding="utf-8"?>
<!-- Generator: Adobe Illustrator 18.1.1, SVG Export Plug-In . SVG Version: 6.00 Build 0)  -->
<!DOCTYPE svg PUBLIC "-//W3C//DTD SVG 1.1//EN" "http://www.w3.org/Graphics/SVG/1.1/DTD/svg11.dtd">
<svg version="1.1" id="Layer_2" xmlns="http://www.w3.org/2000/svg" xmlns:xlink="http://www.w3.org/1999/xlink" x="0px" y="0px"
	 viewBox="0 0 2000 2000" enable-background="new 0 0 2000 2000" xml:space="preserve">
<g>
	<polygon class="c4-fill" points="1185.4,806.8 1262.8,850.4 1196.2,716.4 1196.2,716.4 1134.5,839.9 	"/>
</g>
<g>
	<polygon class="c4-fill" points="778.9,851.8 832.4,875.8 777.7,765.7 704,895.4 	"/>
</g>
<line fill="#FFFFFF" x1="1040.2" y1="957.4" x2="1040.2" y2="957.4"/>
<path fill="#FFFFFF" d="M1063.8,933.9"/>
<path class="c3-fill" fill="#808080" d="M1207.8,1235.5c32.8-20.5,66.7-41.8,66.7-72.3c0-12.2-5.4-22.8-16.6-32.2c-9.7-8.2-23.5-15.4-42.2-21.9
	c-34.3-11.9-79.5-19.2-119.4-25.8c-6.5-1.1-12.5-2-18.4-2.8c-18.8-2.8-35-5.2-54.5-11l-0.5-0.1c-12.3-3.2-21.8-12.5-25.4-24.7
	c-3.6-12.2-0.5-25.1,8.1-34.5c2.6-2.9,5.5-5.8,8.2-8.6l0.1-0.1c14-14.4,27.1-28,27.1-44.1v-0.8h-9.9v0.8c0,6.2-3.9,12.7-12.3,20.7
	c-7.5,7.2-17.7,14.5-28.4,22.2c-25,18-53.4,38.4-53.4,62.2c0,16.7,8.9,29.4,27.1,38.8c16,8.2,37.2,13,57.8,17.6
	c16.2,3.6,29.1,6.8,39.5,10.4c12.4,4.2,20.4,15.5,20.4,28.6c0,13.1-8,24.3-20.4,28.6l-0.7,0.2c-17.9,6.1-41.3,12.1-66.1,18.6
	c-41.5,10.8-88.5,23-125,38.9c-42.3,18.5-62.8,38.9-62.8,62.3v0.8h335.1v-0.8C1141.9,1276.8,1175.4,1255.8,1207.8,1235.5z"/>
<path class="c4-fill" d="M1523.3,1024.9l-111.4-201.5c-10.1-19.5-29.8-31.5-51.8-31.5c-19.7,0-37.6,9.7-48.4,25.7l-63.2-127.2
	c-9.9-20-30-32.4-52.3-32.4c-22.2,0-42.3,12.4-52.2,32.3l-108.7,217.4L994,824.2c-9.9-20-30-32.4-52.3-32.4
	c-22.2,0-42.2,12.4-52.2,32.3l-1.4,2.8l-0.9,3.1l-4.5,15.4l-52.5-105.7c-9.9-20-30-32.4-52.3-32.4c-21.6,0-41,11.6-51.2,30.4
	L613.2,918.9c-10.6-10.1-24.8-15.9-40.1-15.9c-22.2,0-42.3,12.4-52.2,32.3l0,0.1l0,0.1l-45,90.9l-25.5,51.5h57.4h409
	c-1.3-5.4-1.8-10.6-1.8-15.3c0-7.2,1.4-14,3.9-20.3H507.9l45-90.9c4.2-8.4,12.2-12.5,20.3-12.5c8.1,0,16.2,4.2,20.3,12.6l0.4,0.8
	c4.2,8.4,12.2,12.6,20.3,12.6c8.1,0,16.1-4.2,20.3-12.5l123-196.8c4.2-8.4,12.2-12.5,20.3-12.5c8.1,0,16.2,4.2,20.3,12.6l74.5,150
	c3.7,7.3,8.4,10.7,13.3,10.7c6.3,0,12.7-5.5,17.4-14.9l18-61.3c4.2-8.4,12.2-12.5,20.3-12.5c8.1,0,16.2,4.2,20.3,12.6l44.1,88.7h0
	c1,2.3,2.6,5.9,4.9,9.9l4,8.1c4.2,8.4,12.2,12.6,20.3,12.6c8.1,0,16.1-4.2,20.3-12.5l5-10c2.6-4.5,4-8,4-8L1176,706.1
	c4.2-8.4,12.2-12.5,20.3-12.5c8.1,0,16.2,4.2,20.3,12.6l74.5,150c4.2,8.4,12.2,12.6,20.3,12.6c8.1,0,16.1-4.2,20.3-12.5l8.1-16.2
	c4.2-8.4,12.2-12.5,20.3-12.5c8.1,0,16.2,4.2,20.3,12.6l111.7,202.1h-471.9c1.8,3,4.7,5.1,8.3,6.1l0.1,0c0.3,0.1,0.6,0.2,1,0.3
	c18,5.3,33.6,7.7,51.6,10.3c5.9,0.9,12.1,1.8,18.7,2.9c27.7,4.5,58,9.5,85.9,16.1h306.5h60.5L1523.3,1024.9z"/>
</svg>
