<?xml version="1.0" encoding="utf-8"?>
<!-- Generator: Adobe Illustrator 18.1.1, SVG Export Plug-In . SVG Version: 6.00 Build 0)  -->
<!DOCTYPE svg PUBLIC "-//W3C//DTD SVG 1.1//EN" "http://www.w3.org/Graphics/SVG/1.1/DTD/svg11.dtd">
<svg version="1.1" id="Layer_2" xmlns="http://www.w3.org/2000/svg" xmlns:xlink="http://www.w3.org/1999/xlink" x="0px" y="0px"
	 viewBox="0 0 2000 2000" enable-background="new 0 0 2000 2000" xml:space="preserve">
<g>
	<g>
		<path class="c3-fill" fill="#808080" d="M1332.4,959.9c32.1-235.4-133-351.6-331.7-351.6c-172.7,0-287.4,129.9-287.4,304.2
			c0,7.6,4.6,12.2,6.1,32.1c0,19.9-48.9,122.3-53.5,136c-4.6,15.3-1.5,41.3,19.9,41.3l0,0h1.5c26,0,29,18.3,15.3,26
			c-6.1,4.6,0,24.5,4.6,29c4.6,3.1,30.6,12.2,32.1,13.8c1.5,1.5-10.7,7.6-13.8,15.3s0,19.9,4.6,24.5c4.6,4.6,7.6,4.6,22.9,15.3
			c16.8,12.2,1.5,48.9,1.5,58.1c0,10.7,15.3,47.4,52,47.4c18.3,0,41.3-4.6,61.1-12.2c19.9-6.1,41.3,6.1,44.3,26l0,0
			c4.6,21.4,24.5,33.6,47.4,26c307.3-97.8,256.8-48.9,240-172.7c-1.5-7.6,1.5-16.8,4.6-24.5
			C1246.8,1132.6,1324.8,1043.9,1332.4,959.9z M1132.2,1088.3c-7.6,3.1-18.3,4.6-26,4.6c-1.5,0-3.1,0-4.6,0
			c-36.7,0-70.3-18.3-90.2-48.9c0,0-1.5,0-1.5-1.5c0,0,0,0-1.5,0c-1.5,0-3.1,0-4.6,0c-26,0-53.5-10.7-74.9-29l-3.1-3.1l-1.5-1.5
			c-4.6-6.1-10.7-12.2-13.8-19.9c-29-3.1-53.5-16.8-71.8-36.7c-22.9-24.5-36.7-56.6-35.2-93.2c1.5-42.8,24.5-85.6,61.1-110.1
			c22.9-33.6,61.1-55,103.9-56.6c1.5,0,3.1,0,4.6,0c4.6,0,7.6,0,13.8,0c16.8-6.1,33.6-12.2,50.4-12.2c1.5,0,3.1,0,6.1,0
			c24.5,0,52,6.1,73.4,19.9c55,4.6,105.5,39.7,126.9,91.7c21.4,24.5,35.2,58.1,36.7,91.7l0,0l0,0v1.5c0,7.6,0,15.3-1.5,21.4
			c-1.5,6.1-1.5,13.8-3.1,19.9c-1.5,6.1-3.1,13.8-6.1,19.9c-1.5,4.6-3.1,7.6-6.1,13.8v6.1
			C1248.3,1036.3,1197.9,1083.7,1132.2,1088.3z"/>
		<g>
			<path class="c3-fill" fill="#808080" d="M959.4,936.9c-3.1,10.7-1.5,22.9,7.6,32.1c9.2,9.2,21.4,13.8,35.2,13.8h1.5c4.6,0,10.7-1.5,15.3-3.1
				c6.1,4.6,17.6,12.2,29,12.2c28.6,0,45.9-13.8,53.5-18.3c10.7-6.1,15.3-18.3,16.8-19.9c0,0,1.5,0,3.1,0s1.5,0,3.1,0
				c7.6,4.6,18.3,6.1,29,6.1c7.6,0,16.8-1.5,26-4.6c7.6-3.1,16.8-7.6,21.4-16.8c1.4-2.7,2.7-5.4,4.1-10.3c0.3-1.2,0.8-2.4,1.3-3.5
				c1.1-2.6,2-5.8,2.2-9.1c0.1-1,0.3-2,0.6-2.9c1-3,1-7.1,1-12.4c0-4.6,0-7.6,0-13.8V885c-1.5-24.5-12.2-47.4-29-61.1
				c-12.2-38.2-48.9-65.7-90.2-65.7l0,0c-1.5,0-3.1,0-3.1,0l0,0c-15.3-12.2-33.6-19.9-53.5-19.9c-1.5,0-1.5,0-3.1,0
				c-16.8,0-32.1,6.1-42.8,15.3c-6.1-1.5-15.3-3.1-21.4-3.1c-1.5,0-1.5,0-3.1,0c-29,1.5-50.4,18.3-61.1,41.3
				c-24.5,12.2-44.3,38.2-44.3,68.8c0,35.2,21.4,70.3,70.3,70.3c4.6,0,12.2,0,16.8-1.5l0,0c6.1-21.4,22.9-30.6,33.6-33.6
				c-7.6-21.4-30.6-61.1-53.5-61.1h-1.5c-1.2,0-2.3,0.1-3.5,0.4c-15.3,3.7-20.8,16.9-17.9,28.6c1.5,10.7,10.7,19.9,24.5,19.9
				c1.5,0,3.1,0,6.1,0h2.9c2.5,0,4.7,1.9,4.7,4.4c0,3.1-1.5,6.2-4.6,7.8c-3.1,0-4.6,0-7.6,0c-22.9,0-35.2-15.3-38.2-32.1
				c-3.1-18.4,6.1-38.3,32.2-42.8c5-0.9,10.2-0.6,16.7,1.6c3.1-13.8,10.7-22.9,21.4-30.6c10.7-6.1,21.4-7.6,32.1-7.6
				c6.1,0,12.2,0,15.3,1.5c7.6-13.8,21.4-19.9,36.7-19.9c6.1,0,13.8,1.5,19.9,3.1c12.3,4.1,19.7,11.8,26.6,18.9
				c1.5,1.5,2.9,3.1,4.1,4.8c2.5,3.4,4.8,6.1,6,9.9c6.1-1.5,15.3-3.1,22.9-3.1c10.7,0,21.4,1.5,30.6,7.6
				c10.7,6.1,21.4,21.4,19.9,50.4c4.6,4.6,16.8,15.3,16.8,30.6c0,10.7-4.6,21.4-13.8,29c-6.1,4.6-16.8,10.7-32.1,10.7
				c-4.6,0-10.7,0-16.8-1.5l0,0c-1,0-1.9-0.1-2.9-0.4c-3.8-1.1-15.3-4.2-27.7-4.2c-13.4,0-28.2,2.9-38.8,15.6
				c-0.6,0.7-1.2,1.4-1.8,2c-0.6,0.6-1.1,1.2-1.5,1.8c-2.2,3.3-5.1,6-8.3,8.2c-5.6,3.8-11.1,5.9-15.3,5.9c0,0,0,0-1.5,0
				c-1.5,0-1.5,0-3.1,0c-13.8-1.5-21.4-16.8-21.4-16.8c-1.5-3.1,0-6.1,3.1-7.6c1.5,0,1.5,0,3.1,0c3.1,0,4.6,1.5,6.1,3.1
				c0,0,4,6.6,10.6,10c1,0.5,2,0.7,3.1,0.7l0,0c4.2,0,11-2.6,16.8-10.1c1.3-1.7,2.7-3.4,4.3-4.9c2.4-2.3,5.2-4.7,9.5-8
				c10.7-6.1,22.9-12.2,38.2-12.2c1.5,0,1.5,0,3.1,0c14.1,0,24.4,3.9,28.2,4.5c0.6,0.1,1.3,0.2,1.9,0.4c4.4,1.2,9.9,1.2,12.7,1.2
				c12.2,0,18.3-3.1,22.9-6.1c4.6-4.6,7.6-12.2,7.6-18.3c0-13.8-13.8-21.4-13.8-21.4c-1.5-1.5-3.1-3.1-3.1-6.1
				c1.5-19.9-3.1-33.6-13.8-39.7c-6.1-4.6-15.3-6.1-22.9-6.1c-10.7,0-19.9,3.1-26,6.1c-16.8,10.7-16.8,26-15.3,33.6l0,0
				c24.5,0,39.7,16.8,39.7,16.8c1.5,3.1,1.5,6.1,0,10.7c-1.5,1.5-3.1,1.5-4.6,1.5c-1.5,0-3.1,0-4.6-1.5c0,0-12.2-12.2-30.6-12.2
				h-1.5c-1.5,0-3.1,0-4.6,0c-15.3,1.5-21.4,10.7-21.4,10.7c-1.5,1.5-3.1,3.1-4.6,3.1c0,0,0,0-1.5,0s-3.1,0-4.6-1.5
				c0,0-6.1-4.6-15.3-4.6c-3.1,0-7.6,0-15.3,3.1c-16.8,7.6-18.3,22.9-18.3,24.5c0,3.1-1.5,6.1-4.6,6.1
				C986.9,907.9,965.5,914,959.4,936.9z"/>
			<path class="c4-fill" d="M1089.4,808.5L1089.4,808.5L1089.4,808.5c-0.5-1-1-2-1.5-3c-4.9-9.7-12.2-18.1-21.4-24c-2-1.3-4.1-2.5-6.2-3.5
				c-4.6-1.5-12.2-3.1-16.8-3.1c-12.2,0-21.4,4.6-29,15.3l-3.1,6.1l-6.1-1.5c-3.1,0-7.6-1.5-13.8-1.5c-10.7,0-18.3,1.5-24.5,6.1
				c-7.6,4.6-13.8,12.2-16.8,22.9l-1.5,4.6c19.9,12.2,33.6,39.7,39.7,55c3.1-6.1,10.7-15.3,19.9-19.9c6.1-3.1,13.8-3.1,18.3-3.1
				c7.6,0,15.3,1.5,18.3,4.6c3.1-3.1,12.2-10.7,24.5-12.2v-1.5C1064.9,834.5,1074.1,819.2,1089.4,808.5z"/>
		</g>
	</g>
	<path class="c3-fill" fill="#808080" d="M1100.2,1042.4c-0.1,0-0.2,0-0.3,0c-19.8-0.1-39.6-12.3-48.8-30.6l-1-2.1c-1-2.1,0.1-4.6,2.4-5.2l1.5-0.4
		c0.1,0,0.2-0.1,0.4-0.1c22.8-3.1,41.1-12.2,53.3-19.8c4.9-3,9.6-9.1,12-12.6c1-1.5,3-2,4.6-1.2l0,0c0.1,0.1,0.2,0.1,0.3,0.1
		c7.6,3,16.7,4.5,25.8,4.5c9.1,0,19.8-1.1,30.2-4.5c3.8-1.3,15.8-6.7,15.8-6.7c2.6-1.1,5.4,1,5,3.9l-0.6,4.3
		c-4.6,38.2-35.2,67.3-73.4,68.8h-3.1h-2.3c-0.5,0-1,0.1-1.4,0.3C1114.6,1043.7,1101.6,1042.6,1100.2,1042.4z"/>
</g>
</svg>
