<?xml version="1.0" encoding="utf-8"?>
<!-- Generator: Adobe Illustrator 18.1.1, SVG Export Plug-In . SVG Version: 6.00 Build 0)  -->
<!DOCTYPE svg PUBLIC "-//W3C//DTD SVG 1.1//EN" "http://www.w3.org/Graphics/SVG/1.1/DTD/svg11.dtd">
<svg version="1.1" id="Layer_2" xmlns="http://www.w3.org/2000/svg" xmlns:xlink="http://www.w3.org/1999/xlink" x="0px" y="0px"
	 viewBox="0 0 2000 2000" enable-background="new 0 0 2000 2000" xml:space="preserve">
<g>
	<path class="c3-fill" fill="#808080" d="M1280,994c3,81.1-25.5,157.7-85.6,213.3l-67.6-51.1c42.1-37.6,73.6-102.1,70.6-157.7
		c-4.5-102.1-87.1-181.8-187.8-183.3l-40.6,1.5l37.6,85.6c1.5,3,0,6-1.5,9c-3,1.5-6,1.5-9,0L818.9,785.2c-1.5-1.5-3-3-3-6
		c0-1.5,1.5-4.5,3-6l166.7-139.7c1.5-1.5,3-1.5,4.5-1.5c1.5,0,3,0,4.5,1.5c3,1.5,4.5,6,3,9l-30,88.6l28.5-1.5l0,0
		c10.5,0,21,0,31.5,0c7.5,0,15,1.5,21,3C1173.4,750.6,1274,858.8,1280,994z"/>
	<path class="c4-fill" d="M1000.6,1088.6c-3-1.5-6-1.5-9,0s-3,6-3,9l34.5,87.1h-39.1c-100.6-6-180.3-88.6-180.3-190.8c0-52.6,25.5-106.7,63.1-142.7
		l-67.6-49.6c-46.6,48.1-79.6,117.2-79.6,192.3c0,133.7,96.1,246.4,225.3,271.9c6,1.5,13.5,3,21,3c10.5,1.5,21,1.5,31.5,1.5l0,0
		h28.5l-34.5,87.1c-1.5,3,0,6,3,9c1.5,1.5,3,1.5,4.5,1.5c1.5,0,3,0,4.5-1.5l172.7-133.7c1.5-1.5,3-3,3-6c0-3-1.5-4.5-3-6
		L1000.6,1088.6z"/>
</g>
</svg>
