<?xml version="1.0" encoding="utf-8"?>
<!-- Generator: Adobe Illustrator 18.1.1, SVG Export Plug-In . SVG Version: 6.00 Build 0)  -->
<!DOCTYPE svg PUBLIC "-//W3C//DTD SVG 1.1//EN" "http://www.w3.org/Graphics/SVG/1.1/DTD/svg11.dtd">
<svg version="1.1" id="Layer_2" xmlns="http://www.w3.org/2000/svg" xmlns:xlink="http://www.w3.org/1999/xlink" x="0px" y="0px"
	 viewBox="0 0 2000 2000" enable-background="new 0 0 2000 2000" xml:space="preserve">
<g>
	<path class="c4-fill" d="M1327,1264c-32-14-70-20-112-20c-102,0-198,38-228,52v-186l14,14V844c52-44,114-66,186-70l14-24c-84,0-158,26-216,76
		c-60-50-132-76-218-76c-80,0-142,24-142,24l-8,2l-4,530h320c12,10,30,18,50,18s38-6,50-18h324c0,0-4-372-4-400l-30,56L1327,1264
		L1327,1264z M981,1296c-30-12-132-50-232-50c-40,0-76,6-106,18V796c18-6,66-20,126-20c78,0,146,24,200,70v280l14-14
		C981,1110,981,1296,981,1296z"/>
	<rect x="677" y="866" class="c3-fill" fill="#808080" width="262" height="20"/>
	<rect x="677" y="908" class="c3-fill" fill="#808080" width="262" height="20"/>
	<rect x="677" y="950" class="c3-fill" fill="#808080" width="262" height="20"/>
	<rect x="677" y="992" class="c3-fill" fill="#808080" width="262" height="20"/>
	<rect x="677" y="1032" class="c3-fill" fill="#808080" width="210" height="20"/>
	<path class="c4-fill" d="M1547,704l-22,22l-128-130l22-22c24-24,62-24,86,0l42,42C1571,642,1571,680,1547,704"/>
	<path class="c3-fill" fill="#808080" d="M1249,960c-6,6-6,16,0,22c6,6,16,6,22,0l236-236l-22-22L1249,960z"/>
	<path class="c3-fill" fill="#808080" d="M1141,854c-6,6-6,16,0,22s16,6,22,0l236-236l-22-22L1141,854z"/>
	<path class="c3-fill" fill="#808080" d="M1419,660l-236,236c-12,12-12,30,0,42c12,12,30,12,42,0l236-236L1419,660z"/>
	<path class="c4-fill" d="M1227,1002c-8-6-12-16-12-26c-4,0-6,0-10,0c-16,0-32-6-42-18c-12-12-18-26-18-42c0-2,0-6,0-8c-10-2-18-6-26-12c0,0,0-2-2-2
		l-36,148L1227,1002C1227,1004,1227,1004,1227,1002"/>
</g>
</svg>
