<?xml version="1.0" encoding="utf-8"?>
<!-- Generator: Adobe Illustrator 18.1.1, SVG Export Plug-In . SVG Version: 6.00 Build 0)  -->
<!DOCTYPE svg PUBLIC "-//W3C//DTD SVG 1.1//EN" "http://www.w3.org/Graphics/SVG/1.1/DTD/svg11.dtd">
<svg version="1.1" id="Layer_2" xmlns="http://www.w3.org/2000/svg" xmlns:xlink="http://www.w3.org/1999/xlink" x="0px" y="0px"
	 viewBox="0 0 2000 2000" enable-background="new 0 0 2000 2000" xml:space="preserve">
<path class="c4-fill" d="M1048.1,1379.5c0.1,0,0.2,0,0.2,0c0.1,0,0.1,0,0.2,0c0.7,0,1.4,0,2,0.1c1,0,1.9,0.1,2.9,0.1c43.6,0,91.7-16.1,128.7-43
	c39.7-28.9,61.5-65.6,61.5-103.5v-425c0-20-16.3-36.3-36.3-36.3s-36.3,16.3-36.3,36.3v163.6c0,7.6-6.2,13.8-13.8,13.8
	c-7.6,0-13.8-6.2-13.8-13.8V716.5c0-20-16.3-36.3-36.3-36.3c-20,0-36.3,16.3-36.3,36.3v255.2c0,7.6-6.2,13.8-13.8,13.8
	c-7.6,0-13.8-6.2-13.8-13.8l0-315.1c0-20-16.3-36.3-36.3-36.3c-20,0-36.3,16.3-36.3,36.3v315.1c0,7.6-6.2,13.8-13.8,13.8
	c-7.6,0-13.8-6.2-13.8-13.8V738.5c0-20-16.3-36.3-36.3-36.3c-20,0-36.3,16.3-36.3,36.3v378.3c0,3.1-2.1,5.9-5.1,6.7
	c-3,0.8-6.2-0.4-7.9-3.1c-41-67.2-73.5-75.7-84.2-78.5c-5.4-1.4-11.7-2.2-17.7-2.2c-11.6,0-20,2.9-22.4,7.8
	c-2.8,5.6,0.8,15.9,10.4,28.8c0,0,0,0.1,0.1,0.1c40,56.2,74.8,138.7,93.5,183c4.3,10.1,7.6,18.1,10.1,23.4
	c12.5,27.3,39.2,52,75.1,69.5c36.1,17.6,80.2,27.3,124.1,27.3l0.2,0C1047.2,1379.5,1047.6,1379.5,1048.1,1379.5z"/>
<path class="c3-fill" fill="#808080" d="M1207.3,740.8c-11.9,0-23.1,3.1-32.9,8.6v-32.9c0-37.1-30.2-67.3-67.3-67.3c-11.9,0-23.1,3.1-32.9,8.6l0-1.2
	c-0.1-37.1-30.2-67.3-67.3-67.3c-37.1,0-67.3,30.2-67.3,67.3v23.1c-9.7-5.5-20.9-8.6-32.9-8.6c-37.1,0-67.3,30.2-67.3,67.3v308.1
	c-3.5-3.3-6.9-6.5-10.5-9.4c-15.3-12.6-30.9-20.8-47.8-25.2c-7.9-2.1-17-3.2-25.5-3.2c-32.7,0-45.4,15.5-50.1,24.8
	c-8.6,17-4.2,37.6,13,61c38,53.4,71.9,133.7,90.1,176.9c4.4,10.3,7.8,18.5,10.4,24.2c8,17.6,20.2,34,36.3,48.7
	c15,13.8,32.9,25.8,53.5,35.8c20,9.7,42,17.3,65.2,22.5c23.6,5.2,48,7.9,72.5,7.9c1,0,1.8,0,2.5-0.1c0.1,0,0.2,0,0.3,0
	c1.2,0,2.5,0.1,4,0.1c24.8,0,51.4-4.5,76.9-13.1c25.2-8.4,49.4-20.8,70-35.8c22.3-16.2,40-34.9,52.7-55.5
	c14.3-23.2,21.6-47.8,21.6-73v-425C1274.6,771,1244.4,740.8,1207.3,740.8z M1257.6,1233.1c0,42.5-23.9,83.3-67.3,114.8
	c-39.3,28.6-90.5,45.7-136.9,45.7c-1.1,0-2.3,0-3.4-0.1c-0.5,0-1,0-1.5-0.1l-0.1,0c-0.4,0-1,0.1-1.8,0.1c-96.6,0-183.8-43.2-212-105
	c-2.5-5.5-5.9-13.6-10.2-23.8c-18.5-43.8-52.9-125.3-92-180.2c-13.2-17.9-17.1-32.5-11.6-43.4c5-10,17.4-15.4,34.9-15.4
	c7.1,0,14.6,0.9,21.2,2.6c28,7.3,54.1,28.6,79.6,64.8V738.5c0-27.7,22.6-50.3,50.3-50.3c25.5,0,46.6,19,49.9,43.6v-75.1
	c0-27.7,22.6-50.3,50.3-50.3c27.7,0,50.3,22.5,50.3,50.3l0,53.2c3.3-24.6,24.4-43.6,49.8-43.6c27.7,0,50.3,22.6,50.3,50.3v84.9
	c3.3-24.6,24.4-43.6,49.9-43.6c27.7,0,50.3,22.6,50.3,50.3V1233.1z"/>
</svg>
