<?xml version="1.0" encoding="utf-8"?>
<!-- Generator: Adobe Illustrator 18.1.1, SVG Export Plug-In . SVG Version: 6.00 Build 0)  -->
<!DOCTYPE svg PUBLIC "-//W3C//DTD SVG 1.1//EN" "http://www.w3.org/Graphics/SVG/1.1/DTD/svg11.dtd">
<svg version="1.1" id="Layer_2" xmlns="http://www.w3.org/2000/svg" xmlns:xlink="http://www.w3.org/1999/xlink" x="0px" y="0px"
	 viewBox="0 0 2000 2000" enable-background="new 0 0 2000 2000" xml:space="preserve">
<g>
	<path class="c4-fill" d="M1080.3,557.7L1080.3,557.7c-74.2-33.9-161.8-1.2-195.6,72.9l-49.9,109.3c-33.9,74.2-1.2,161.8,72.9,195.6l0,0
		c74.2,33.9,161.8,1.2,195.6-72.9l49.9-109.3C1187.2,679.2,1154.5,591.6,1080.3,557.7z M1034.1,835c-16.8,36.8-60.2,53-97,36.2l0,0
		c-36.8-16.8-53-60.2-36.2-97L954,658.3c16.8-36.8,60.2-53,97-36.2l0,0c36.8,16.8,53,60.2,36.2,97L1034.1,835z"/>
	<path class="c4-fill" d="M1080.3,1064.4L1080.3,1064.4c-74.2-33.9-161.8-1.2-195.6,72.9l-49.9,109.3c-33.9,74.2-1.2,161.8,72.9,195.6l0,0
		c74.2,33.9,161.8,1.2,195.6-72.9l49.9-109.3C1187.2,1185.9,1154.5,1098.3,1080.3,1064.4z M1034.1,1341.7
		c-16.8,36.8-60.2,53-97,36.2l0,0c-36.8-16.8-53-60.2-36.2-97L954,1165c16.8-36.8,60.2-53,97-36.2l0,0c36.8,16.8,53,60.2,36.2,97
		L1034.1,1341.7z"/>
	<path class="c3-fill" fill="#808080" d="M1144.9,870.6l75.7-122c0.6-1,2-1.3,3-0.6l20.7,14.5c1,0.7,1.2,2.2,0.4,3.2l-96.4,107.6
		C1146.5,875.1,1143.5,872.8,1144.9,870.6z"/>
	<path class="c3-fill" fill="#808080" d="M1152.4,896.5l82.2-48.8c0.8-0.5,1.8-0.2,2.2,0.6l8.5,14.8c0.5,0.9,0.1,2-0.8,2.3l-90.7,34
		C1152,900.1,1150.7,897.5,1152.4,896.5z"/>
	<path class="c3-fill" fill="#808080" d="M822.9,1075.9l-150.8,43.3c-0.6,0.2-1.2-0.2-1.3-0.8l-6.2-26.9c-0.1-0.6,0.3-1.2,0.9-1.3l157-16.3
		C823.8,1073.7,824.2,1075.6,822.9,1075.9z"/>
	<path class="c3-fill" fill="#808080" d="M829.2,1056.3l-100.4-20.4c-0.6-0.1-0.9-0.7-0.8-1.3l3.9-17.9c0.1-0.6,0.8-1,1.4-0.8l96.5,38.3
		C831,1054.7,830.5,1056.5,829.2,1056.3z"/>
	<g>
		<path class="c3-fill" fill="#808080" d="M883.3,1140.5l1.4-3.1c11.6-25.3,29.4-45.7,50.8-60.3l-8.1-24.2l-63.4,45l3.2,9.5
			C871.2,1119.3,876.7,1130.3,883.3,1140.5z"/>
		<path class="c3-fill" fill="#808080" d="M1040.3,1129.9c-19.1,9.2-39.5,9.3-57.3,2.8c-12.3,7.3-22.7,18.3-29.1,32.4l-12.6,27.7
			c33.8,16.9,74.1,20.8,112.7,7.9c77.3-25.9,119-109.5,93.2-186.9l-15.1-40.5l-80-8.9l24.8,74.2
			C1088.8,1073.8,1073.9,1113.7,1040.3,1129.9z"/>
	</g>
	<g>
		<path class="c3-fill" fill="#808080" d="M896.1,929.5c-23.8-13.5-42.5-32.9-55.3-55.5c-19.9,35.1-25.5,78.2-11.7,119.5l14.2,42.5
			c15.6-8.1,39.3-20.4,66.9-34.8l-11.6-34.8C894.4,954,893.8,941.4,896.1,929.5z"/>
		<path class="c3-fill" fill="#808080" d="M1108.3,897.8c-26.7-76-109.4-116.8-186.1-91.2c-9.4,3.1-18.2,7.2-26.5,11.9c4.4,22.4,19,42.5,41.4,52.7
			c2.4,1.1,4.8,1.9,7.2,2.7c0.1,0,0.2-0.1,0.3-0.1c38.3-12.8,79.8,7.8,92.6,46.2l4.2,12.7l5.8,18.4l71.7-14.8L1108.3,897.8z"/>
	</g>
</g>
</svg>
