<?xml version="1.0" encoding="utf-8"?>
<!-- Generator: Adobe Illustrator 18.1.1, SVG Export Plug-In . SVG Version: 6.00 Build 0)  -->
<!DOCTYPE svg PUBLIC "-//W3C//DTD SVG 1.1//EN" "http://www.w3.org/Graphics/SVG/1.1/DTD/svg11.dtd">
<svg version="1.1" id="Layer_2" xmlns="http://www.w3.org/2000/svg" xmlns:xlink="http://www.w3.org/1999/xlink" x="0px" y="0px"
	 viewBox="0 0 2000 2000" enable-background="new 0 0 2000 2000" xml:space="preserve">
<g>
	<g>
		<path class="c3-fill" fill="#808080" d="M1025.7,857.8l-149.9,211.9h-60.6L561,1368H1439L1025.7,857.8z M816.8,1145.4h60.6l149.9-211.9
			l319.4,392.1l-669.1-1.5L816.8,1145.4z"/>
		<path class="c4-fill" d="M1027.3,972.8l115.1,142.3c0,0-110.5-37.8-112-37.8c-1.5,0-98.4,37.8-98.4,37.8L1027.3,972.8z"/>
	</g>
	<g>
		<path class="c4-fill" d="M1025.7,877.3c-5.4,0-9.7-4.4-9.7-9.7V652.1c0-5.4,4.4-9.7,9.7-9.7c5.4,0,9.7,4.4,9.7,9.7v215.4
			C1035.5,872.9,1031.1,877.3,1025.7,877.3z"/>
	</g>
	<path class="c4-fill" d="M1135.6,768.9c-13.4,2.9-13.4,21.8,0.1,24.2c6.1,1.1,12.6,1.7,19.1,1.7c29.6,0,55-13.9,68.6-31.8
		c-26.4-36.2-21.1-95.8-7-117.7c-26.7,29.4-48.7,43.5-62.1,36c-1,16.8-1.6,67.5-2.1,76.4C1152.2,762.9,1145.2,766.8,1135.6,768.9z"
		/>
	<path class="c3-fill" fill="#808080" d="M1050,641.1c27.3-9.1,80.2-14.8,102.5,0c6.8,38.8,0,83.2,0,115.4c-10.2-20.7-78.3-17.4-102.5-6V641.1z"/>
</g>
</svg>
