<?xml version="1.0" encoding="utf-8"?>
<!-- Generator: Adobe Illustrator 18.1.1, SVG Export Plug-In . SVG Version: 6.00 Build 0)  -->
<!DOCTYPE svg PUBLIC "-//W3C//DTD SVG 1.1//EN" "http://www.w3.org/Graphics/SVG/1.1/DTD/svg11.dtd">
<svg version="1.1" id="Layer_2" xmlns="http://www.w3.org/2000/svg" xmlns:xlink="http://www.w3.org/1999/xlink" x="0px" y="0px"
	 viewBox="0 0 2000 2000" enable-background="new 0 0 2000 2000" xml:space="preserve">
<g>
	<g>
		<path class="c4-fill" d="M924.2,860.8c19.8,23.1,16.5,57.7-8.2,77.4c-23.1,19.8-56,4.9-75.8-18.1c-33-41.2-47.8-82.4-42.8-130.2
			c4.9-49.4,28-95.6,69.2-130.2c8.2-6.6,18.1-13.2,26.4-18.1c-3.3,39.5,14.8,77.4,46.1,98.9c-1.6,1.6-3.3,1.6-3.3,3.3
			c-18.1,14.8-28,34.6-29.7,56C902.8,821.2,909.4,842.6,924.2,860.8L924.2,860.8z"/>
		<circle class="c4-fill" cx="1003.3" cy="649.9" r="98.9"/>
		<path class="c4-fill" d="M1118.6,663c8.2,6.6,16.5,14.8,23.1,23.1c33,41.2,47.8,92.3,42.8,140.1c-4.9,49.4-29.7,85.7-69.2,120.3
			c-23.1,19.8-57.7,24.7-75.8,1.6c-19.8-23.1-16.5-57.7,8.2-77.4c18.1-14.8,28-34.6,29.7-56c1.6-21.4-3.3-42.8-18.1-61
			c-1.6-1.6-1.6-3.3-3.3-3.3C1087.3,735.5,1113.7,702.6,1118.6,663z"/>
	</g>
	<g>
		<path class="c4-fill" d="M1070.9,1142.5c-19.8-23.1-18.1-57.7,4.9-77.4c23.1-19.8,57.7-18.1,77.4,4.9c34.6,39.5,51.1,90.6,47.8,140.1
			c-3.3,49.4-24.7,97.2-64.3,131.8c-8.2,6.6-16.5,13.2-26.4,19.8c1.6-41.2-18.1-77.4-49.4-97.2c1.6-1.6,3.3-1.6,3.3-3.3
			c16.5-14.8,26.4-36.2,28-57.7C1092.3,1180.4,1085.7,1159,1070.9,1142.5L1070.9,1142.5z M888,1346.8c-8.2-6.6-16.5-14.8-23.1-23.1
			c-34.6-39.5-51.1-90.6-47.8-138.4c3.3-49.4,24.7-97.2,64.3-131.8c23.1-19.8,57.7-18.1,77.4,4.9c19.8,23.1,18.1,57.7-4.9,77.4
			c-16.5,14.8-26.4,36.2-28,57.7s4.9,42.8,21.4,61c1.6,1.6,1.6,3.3,3.3,3.3C916,1272.7,891.3,1305.6,888,1346.8z"/>
		<circle class="c4-fill" cx="998.4" cy="1351.8" r="97.2"/>
		<path class="c4-fill" d="M888,1343.5c-8.2-6.6-16.5-14.8-23.1-23.1c-34.6-39.5-51.1-90.6-47.8-138.4c3.3-49.4,26.4-85.7,65.9-121.9
			c23.1-19.8,56-28,75.8-6.6c19.8,23.1,18.1,57.7-4.9,77.4c-16.5,14.8-26.4,36.2-28,57.7c-1.6,21.4,4.9,42.8,21.4,61
			c1.6,1.6,1.6,3.3,3.3,3.3C916,1269.4,891.3,1302.4,888,1343.5z"/>
	</g>
	<g>
		<circle class="c3-fill" fill="#808080" cx="650.7" cy="1032.1" r="98.9"/>
		<path class="c3-fill" fill="#808080" d="M876.4,1056.8c18.1-24.7,51.1-29.7,75.8-11.5c24.7,18.1,29.7,51.1,11.5,75.8
			c-31.3,42.8-77.4,69.2-125.2,77.4c-49.4,8.2-100.5-3.3-143.4-34.6c-8.2-6.6-16.5-13.2-24.7-21.4c39.5-6.6,70.9-34.6,84-69.2
			c1.6,1.6,3.3,1.6,3.3,3.3c18.1,13.2,41.2,18.1,62.6,14.8C841.8,1086.5,861.6,1075,876.4,1056.8L876.4,1056.8z M635.9,921.7
			c39.5-4.9,79.1,11.5,102.2,41.2c1.6-1.6,1.6-3.3,3.3-4.9c13.2-18.1,33-29.7,54.4-33c21.4-3.3,42.8,1.6,62.6,14.8
			C883,958,916,953,934.1,928.3c18.1-24.7,11.5-57.7-11.5-75.8c-42.8-31.3-93.9-42.8-143.4-34.6c-47.8,8.2-93.9,34.6-125.2,77.4
			C645.7,903.6,640.8,913.5,635.9,921.7z"/>
	</g>
	<g>
		<circle class="c3-fill" fill="#808080" cx="1349.3" cy="969.5" r="98.9"/>
		<path class="c3-fill" fill="#808080" d="M1123.6,946.4c-18.1,24.7-51.1,29.7-75.8,13.2c-24.7-18.1-29.7-51.1-13.2-75.8
			c31.3-42.8,75.8-69.2,125.2-77.4c47.8-8.2,100.5,3.3,143.4,33c8.2,6.6,16.5,13.2,24.7,21.4c-39.5,6.6-70.9,34.6-84,70.9
			c-1.6-1.6-3.3-1.6-3.3-3.3c-18.1-13.2-41.2-18.1-62.6-14.8C1158.2,916.8,1138.4,928.3,1123.6,946.4L1123.6,946.4z M1364.1,1079.9
			c-39.5,6.6-79.1-9.9-102.2-39.5c-1.6,1.6-1.6,3.3-3.3,4.9c-13.2,18.1-33,29.7-54.4,33s-42.8-1.6-62.6-14.8
			c-24.7-18.1-57.7-11.5-75.8,13.2s-11.5,57.7,13.2,75.8c42.8,31.3,93.9,41.2,143.4,34.6c47.8-8.2,93.9-34.6,125.2-77.4
			C1354.3,1098,1359.2,1088.2,1364.1,1079.9z"/>
	</g>
</g>
</svg>
