<?xml version="1.0" encoding="utf-8"?>
<!-- Generator: Adobe Illustrator 18.1.1, SVG Export Plug-In . SVG Version: 6.00 Build 0)  -->
<!DOCTYPE svg PUBLIC "-//W3C//DTD SVG 1.1//EN" "http://www.w3.org/Graphics/SVG/1.1/DTD/svg11.dtd">
<svg version="1.1" id="Layer_2" xmlns="http://www.w3.org/2000/svg" xmlns:xlink="http://www.w3.org/1999/xlink" x="0px" y="0px"
	 viewBox="0 0 2000 2000" enable-background="new 0 0 2000 2000" xml:space="preserve">
<g>
	<path class="c4-fill" d="M1374.2,768h-303.6c-39,0-70.6,31.6-70.6,70.6c0-39-31.6-70.6-70.6-70.6H625.8c-10.1,0-18.2,8.2-18.2,18.2v447.2
		c0,10.1,8.2,18.2,18.2,18.2h303.6c22.7,0,42.9,8.6,55.8,23.4c7.9,9.1,21.7,9.1,29.6,0c12.9-14.8,33.1-23.4,55.8-23.4h303.6
		c10.1,0,18.2-8.2,18.2-18.2V786.2C1392.4,776.2,1384.2,768,1374.2,768z"/>
	<path class="c3-fill" fill="#808080" d="M1179.1,888.4c-49.6,0-89.8,40.2-89.8,89.8c0,49.6,40.2,89.8,89.8,89.8c49.6,0,89.8-40.2,89.8-89.8
		C1269,928.6,1228.7,888.4,1179.1,888.4z M1161.8,1020.2l-35-33.9l14.3-13.9l20.9,20.3l59.6-56.1l14.1,14.1L1161.8,1020.2z"/>
	
		<line class="c3-stroke" fill="none" stroke="#808080" stroke-width="9.2216" stroke-linecap="round" stroke-miterlimit="10" x1="718.1" y1="821.5" x2="918.6" y2="821.5"/>
	
		<line class="c3-stroke" fill="none" stroke="#808080" stroke-width="9.2216" stroke-linecap="round" stroke-miterlimit="10" x1="718.1" y1="881.7" x2="918.6" y2="881.7"/>
	
		<line class="c3-stroke" fill="none" stroke="#808080" stroke-width="9.2216" stroke-linecap="round" stroke-miterlimit="10" x1="718.1" y1="939.5" x2="918.6" y2="939.5"/>
	
		<line class="c3-stroke" fill="none" stroke="#808080" stroke-width="9.2216" stroke-linecap="round" stroke-miterlimit="10" x1="718.1" y1="998.7" x2="918.6" y2="998.7"/>
	
		<line class="c3-stroke" fill="none" stroke="#808080" stroke-width="9.2216" stroke-linecap="round" stroke-miterlimit="10" x1="718.1" y1="1058.9" x2="918.6" y2="1058.9"/>
	
		<line class="c3-stroke" fill="none" stroke="#808080" stroke-width="9.2216" stroke-linecap="round" stroke-miterlimit="10" x1="718.1" y1="1116.7" x2="918.6" y2="1116.7"/>
	<circle class="c3-fill" fill="#808080" cx="998" cy="1232.1" r="10.4"/>
	<g>
		<path fill="#FFFFFF" d="M988.8,1224.1c-10.7-9-29.6-18.7-61.4-18.7H658c-5,0-9-4-9-9V749.3c0-5,4-9,9-9h269.5
			c33.8,0,61.4,27.5,61.4,61.4V1224.1z"/>
		<path class="c3-fill" fill="#808080" d="M927.4,749.5c28.8,0,52.2,23.4,52.2,52.2v405.5c-12.3-6.2-29.2-10.9-52.2-10.9H658.2V749.5H927.4
			 M927.4,731.1H658c-10.1,0-18.2,8.2-18.2,18.2v447.2c0,10.1,8.2,18.2,18.2,18.2h269.5c23.6,0,48.8,6.2,62.1,23.4
			c1.9,2.4,5,2.8,6.9,2.8c1,0,1.6-0.1,1.6-0.1v-26.1v-413C998,762.7,966.4,731.1,927.4,731.1L927.4,731.1z"/>
	</g>
	<g>
		<path fill="#FFFFFF" d="M998,1224.1c-10.7-9-29.6-18.7-61.4-18.7H658c-5,0-9-4-9-9V749.3c0-5,4-9,9-9h278.7
			c33.8,0,61.4,27.5,61.4,61.4V1224.1z"/>
		<path class="c3-fill" fill="#808080" d="M936.6,749.5c28.8,0,52.2,23.4,52.2,52.2v405.5c-12.3-6.2-29.2-10.9-52.2-10.9H658.2V749.5H936.6
			 M936.6,731.1H658c-10.1,0-18.2,8.2-18.2,18.2v447.2c0,10.1,8.2,18.2,18.2,18.2h278.7c23.6,0,48.8,6.2,62.1,23.4
			c0.4,0.6,1,0.8,1.5,0.8c2.9,0,7-6.8,7-6.8v-17.4v-413C1007.2,762.7,975.6,731.1,936.6,731.1L936.6,731.1z"/>
	</g>
	<circle class="c3-fill" fill="#808080" cx="999.6" cy="1231.2" r="10.4"/>
	<g>
		<path fill="#FFFFFF" d="M1008.9,800.8c0-33.8,27.5-61.4,61.4-61.4h269.5c5,0,9,4,9,9v447.2c0,5-4,9-9,9h-269.5
			c-31.8,0-50.7,9.6-61.4,18.7V800.8z"/>
		<path class="c3-fill" fill="#808080" d="M1339.5,748.6v446.7h-269.2c-23,0-39.9,4.7-52.2,10.9V800.8c0-28.8,23.4-52.2,52.2-52.2H1339.5
			 M1339.7,730.2h-269.5c-39,0-70.6,31.6-70.6,70.6v413v26.1c0,0,0.6,0.1,1.6,0.1c1.9,0,5-0.4,6.9-2.8
			c13.4-17.2,38.5-23.4,62.1-23.4h269.5c10.1,0,18.2-8.2,18.2-18.2V748.4C1357.9,738.3,1349.8,730.2,1339.7,730.2L1339.7,730.2z"/>
	</g>
	<g>
		<path fill="#FFFFFF" d="M999.6,800.8c0-33.8,27.5-61.4,61.4-61.4h278.7c5,0,9,4,9,9v447.2c0,5-4,9-9,9H1061
			c-31.8,0-50.7,9.6-61.4,18.7V800.8z"/>
		<path class="c3-fill" fill="#808080" d="M1339.5,748.6v446.7H1061c-23,0-39.9,4.7-52.2,10.9V800.8c0-28.8,23.4-52.2,52.2-52.2H1339.5
			 M1339.7,730.2H1061c-39,0-70.6,31.6-70.6,70.6v413v17.4c0,0,4,6.8,7,6.8c0.6,0,1.1-0.2,1.5-0.8c13.4-17.2,38.5-23.4,62.1-23.4
			h278.7c10.1,0,18.2-8.2,18.2-18.2V748.4C1357.9,738.3,1349.8,730.2,1339.7,730.2L1339.7,730.2z"/>
	</g>
	
		<line class="c3-stroke" fill="none" stroke="#808080" stroke-width="9.2216" stroke-linecap="round" stroke-miterlimit="10" x1="722.7" y1="826.6" x2="923.1" y2="826.6"/>
	
		<line class="c3-stroke" fill="none" stroke="#808080" stroke-width="9.2216" stroke-linecap="round" stroke-miterlimit="10" x1="722.7" y1="886.7" x2="923.1" y2="886.7"/>
	
		<line class="c3-stroke" fill="none" stroke="#808080" stroke-width="9.2216" stroke-linecap="round" stroke-miterlimit="10" x1="722.7" y1="944.5" x2="923.1" y2="944.5"/>
	
		<line class="c3-stroke" fill="none" stroke="#808080" stroke-width="9.2216" stroke-linecap="round" stroke-miterlimit="10" x1="722.7" y1="1003.7" x2="923.1" y2="1003.7"/>
	
		<line class="c3-stroke" fill="none" stroke="#808080" stroke-width="9.2216" stroke-linecap="round" stroke-miterlimit="10" x1="722.7" y1="1063.9" x2="923.1" y2="1063.9"/>
	
		<line class="c3-stroke" fill="none" stroke="#808080" stroke-width="9.2216" stroke-linecap="round" stroke-miterlimit="10" x1="722.7" y1="1121.7" x2="923.1" y2="1121.7"/>
	<path class="c3-fill" fill="#808080" d="M1174.2,881.7c-49.6,0-89.8,40.2-89.8,89.8c0,49.6,40.2,89.8,89.8,89.8c49.6,0,89.8-40.2,89.8-89.8
		C1264,921.9,1223.8,881.7,1174.2,881.7z M1156.8,1013.5l-35-33.9l14.3-13.9l20.9,20.3l59.6-56.1l14.1,14.1L1156.8,1013.5z"/>
</g>
</svg>
