<?xml version="1.0" encoding="utf-8"?>
<!-- Generator: Adobe Illustrator 18.1.1, SVG Export Plug-In . SVG Version: 6.00 Build 0)  -->
<!DOCTYPE svg PUBLIC "-//W3C//DTD SVG 1.1//EN" "http://www.w3.org/Graphics/SVG/1.1/DTD/svg11.dtd">
<svg version="1.1" id="Layer_2" xmlns="http://www.w3.org/2000/svg" xmlns:xlink="http://www.w3.org/1999/xlink" x="0px" y="0px"
	 viewBox="0 0 2000 2000" enable-background="new 0 0 2000 2000" xml:space="preserve">
<g>
	<path class="c4-fill" d="M1179,863.8c-11,3.6-22.7,5.7-35.1,5.7h-128.1c-29.5,0-58.3-11-82.5-28.8c-71.5,13.7-121.7,46.7-126.6,90
		c-6.4,57.7,69.6,115,177.3,139.6c17.4,3.9,35.6,7.2,54.5,9.2c18.6,2.1,36.9,3.1,54.6,3.1c36.9,0,71-4.5,100.5-12.4
		c59.2-15.9,99.5-46.2,103.8-84.7C1302.4,939.1,1254.2,892.9,1179,863.8z M1097.9,1063.9c-25.7,0-44.5-2.6-46.5-2.9l1.2-8.5
		c1.3,0.2,131.5,18.2,185.6-43.4l6.4,5.7C1208.3,1056.1,1142.5,1063.9,1097.9,1063.9z"/>
	<path class="c3-fill" fill="#808080" d="M1200.1,1090.4h-6.2c-29.9,7.6-63.9,11.8-100.9,11.8c-18.6,0-37.8-1.6-56.8-3.8c-17-1.9-33.5-4.7-49.5-8.1
		h-42.6c-80.8,0-146.3,66.6-146.3,150.6c0,78.7,57.5,142.2,131.3,149.8c4.9,0.5,9.9,0.8,15,0.8h256c5.1,0,10-0.3,15-0.8
		c73.7-7.6,131.3-71.1,131.3-149.8C1346.3,1157,1280.8,1090.4,1200.1,1090.4z M1281.8,1308c-40.4,36.7-134.1,44.4-205.7,44.4
		c-49.1,0-87.7-3.6-91.5-4l0.8-8.5c2.3,0.2,225.3,21.1,290.6-38.2c11.7-10.6,17.4-22.8,17.4-37.2h8.6
		C1301.9,1281.2,1295.2,1295.9,1281.8,1308z"/>
	<path class="c3-fill" fill="#808080" d="M1143.9,608.4h-128.1c-64.5,0-126.7,42.2-126.7,106.6v7.7c0,35,18.5,69.3,45.6,93.4
		c4.8,4.2,9.7,8.1,15,11.7c4.7,3.2,9.5,5.9,14.4,8.4c16.2,8.3,33.9,13.2,51.7,13.2H1134h9.9c6.7,0,13.1-0.8,19.2-2.1
		c6.4-1.3,12.6-3.3,18.4-5.9c42.7-18.6,69-68,69-118.8v-7.6C1250.5,650.6,1208.3,608.4,1143.9,608.4z M1136.4,828.9
		c-3.5,0-7.2-0.1-11-0.4l0.6-8.6c73.6,5.4,80.2-45.5,80.5-47.7l8.5,1C1215,773.9,1207.9,828.9,1136.4,828.9z"/>
	<g>
		<path class="c4-fill" d="M668.8,1001.8c-57.8-33-111.3-35.2-125.1-35.2l233.7,137.9l-0.7,1.2c4.5,0.1,7.1,0,7.1,0S736.1,1040.2,668.8,1001.8z"/>
		<path class="c4-fill" d="M544,971.7c12.5,16,54.9,66.8,111,98.8c48.6,27.8,94.1,33.7,115.6,34.9L544,971.7z"/>
	</g>
	<g>
		<path class="c4-fill" d="M578.7,1238.8c20.5,1.3,67,0.8,112.7-22.8c58.2-30.1,94-86.8,97.3-92.1L578.7,1238.8z"/>
		<path class="c4-fill" d="M782.1,1122.6c-17.8-1.5-67.7-2.8-116.7,22.6c-61.1,31.6-97.6,92.6-97.6,92.6s1.1,0.2,3.2,0.4L782.1,1122.6z"/>
	</g>
	<g>
		<path class="c4-fill" d="M631.1,675.8c-2-2.4-3.1-3.7-3.1-3.7s4.8,110.8,48.9,226.7c37.6,99,91.4,169.7,106.4,188.3L631.1,675.8z"/>
		<path class="c4-fill" d="M786.9,1084.7c-1.9-26.3-11-120.8-48.4-219.3c-32.7-86.2-77.8-150.9-98.9-178.5L786.9,1084.7z"/>
	</g>
</g>
</svg>
