<?xml version="1.0" encoding="utf-8"?>
<!-- Generator: Adobe Illustrator 18.1.1, SVG Export Plug-In . SVG Version: 6.00 Build 0)  -->
<!DOCTYPE svg PUBLIC "-//W3C//DTD SVG 1.1//EN" "http://www.w3.org/Graphics/SVG/1.1/DTD/svg11.dtd">
<svg version="1.1" id="Layer_2" xmlns="http://www.w3.org/2000/svg" xmlns:xlink="http://www.w3.org/1999/xlink" x="0px" y="0px"
	 viewBox="0 0 2000 2000" enable-background="new 0 0 2000 2000" xml:space="preserve">
<g>
	<path class="c4-fill" d="M1161.2,916.2l-144.2-282.6c-11.4-22.4-43.4-22.4-54.8,0L826.9,898.9c-65.7,128.8,27.8,281.6,172.5,281.6h0
		C1135.1,1180.5,1222.9,1037.1,1161.2,916.2z M1138.1,1019.9c-14.1,51-48,76.8-74,89.4c-28,13.6-52.5,15.2-53.5,15.3
		c-0.1,0-0.2,0-0.4,0c-3.2,0-5.9-2.5-6.1-5.8c-0.2-3.4,2.4-6.3,5.8-6.5c0.3,0,23.5-1.6,49.3-14.2c34.3-16.8,56.8-44.2,67.2-81.4
		c0.9-3.3,4.3-5.2,7.5-4.3C1137,1013.2,1139,1016.6,1138.1,1019.9z"/>
	<g>
		<g>
			<path class="c3-fill" fill="#808080" d="M854.6,1357.3c-27.2,9.4-57,7.3-82.9-5.2c-40.1-19.3-79.9-41.8-110.5-72.5c-35.3-35.3-75.5-90-73.9-143
				c0-59.4,3.2-110.8,4.8-126.9c6.4-32.1,41.8-27.3,40.2,0c0,24.1-1.6,78.7,4.8,110.8c-9.6,16.1-4.8,45,12.9,62.7
				c17.7,17.7,98,98,98,98s1.6-14.5-4.8-22.5c0,0-72.3-72.3-81.9-81.9c-11.2-11.2-20.9-36.9,0-57.8c22.5-22.5,48.2-8,57.8,0
				c6.4,8,51.4,51.4,70.7,70.7c0,0,46.6,8,72.3,33.7c20.9,20.9,28.9,43.4,32.1,53C907.1,1325.7,883.7,1347.2,854.6,1357.3z"/>
			<path class="c3-fill" fill="#808080" d="M664.3,1099.8c3.2-12.9-1.6-73.9-9.6-91.6c-6.4-14.5-16.1-8-16.1-8s6.4,93.2,8,101.2
				C653,1106.2,662.7,1104.6,664.3,1099.8z"/>
			<path class="c3-fill" fill="#808080" d="M693.2,1088.5c3.2-12.9-1.6-54.6-9.6-69.1c-6.4-14.5-16.1-8-16.1-8s6.4,72.3,8,80.3
				C680.3,1096.5,691.6,1094.9,693.2,1088.5z"/>
		</g>
		<g>
			<path class="c3-fill" fill="#808080" d="M1106.3,1305.3c-1.6-19.2,2.7-38.3,12.4-54.9c4.9-8.4,11.3-17.3,19.4-25.4c25.7-25.7,72.3-35.3,72.3-35.3
				c20.9-20.9,64.3-64.3,70.7-70.7c9.6-9.6,33.7-22.5,57.8,0c20.9,19.3,9.6,46.6,0,57.8l-81.9,81.9c-6.4,8-4.8,22.5-4.8,22.5
				s80.3-80.3,98-98c17.7-17.7,20.9-46.6,12.9-62.7c6.4-33.7,4.8-86.7,4.8-110.8c0-28.9,35.3-32.1,40.2,0
				c3.2,16.1,4.8,67.5,4.8,126.9c0,53-38.6,106-73.9,143c-31.1,31.1-75.8,48.6-114.7,70.3c-23.7,13.2-51.7,16.9-77.8,9.4
				C1121.2,1352,1109,1337.6,1106.3,1305.3z"/>
			<path class="c3-fill" fill="#808080" d="M1353.4,1101.4c0-8,8-101.2,8-101.2s-11.2-6.4-16.1,8c-6.4,16.1-12.9,78.7-9.6,91.6
				C1337.4,1104.6,1347,1106.2,1353.4,1101.4z"/>
			<path class="c3-fill" fill="#808080" d="M1324.5,1091.7c0-8,8-80.3,8-80.3s-11.2-6.4-16.1,8c-6.4,16.1-12.9,57.8-9.6,69.1
				C1308.5,1094.9,1319.7,1096.5,1324.5,1091.7z"/>
		</g>
	</g>
</g>
</svg>
