<?xml version="1.0" encoding="utf-8"?>
<!-- Generator: Adobe Illustrator 18.1.1, SVG Export Plug-In . SVG Version: 6.00 Build 0)  -->
<!DOCTYPE svg PUBLIC "-//W3C//DTD SVG 1.1//EN" "http://www.w3.org/Graphics/SVG/1.1/DTD/svg11.dtd">
<svg version="1.1" id="Layer_2" xmlns="http://www.w3.org/2000/svg" xmlns:xlink="http://www.w3.org/1999/xlink" x="0px" y="0px"
	 viewBox="0 0 2000 2000" enable-background="new 0 0 2000 2000" xml:space="preserve">
<g>
	<path class="c3-fill" fill="#808080" d="M1196.8,833.2c-11.5-49.1-49.8-82.2-85.4-73.8c-2.3,0.5-4.4,1.2-6.6,2L991,796.6
		c-35.7,8.4-55.2,55-43.7,104.1c11.5,49.1,49.8,82.2,85.4,73.8c2.3-0.5,4.4-1.2,6.6-2l113.8-35.2
		C1188.7,928.9,1208.3,882.3,1196.8,833.2z"/>
	<path fill="none" stroke="#FFFFFF" stroke-width="19.4051" stroke-miterlimit="10" d="M1074.2,986.4
		c43.7-10.2,67.7-67.4,53.6-127.6c-14.1-60.2-61-100.8-104.7-90.5c-2.8,0.6-5.4,1.5-8,2.5"/>
	<path class="c4-fill" d="M1119.9,858.4c-14.1-60.2-61-100.8-104.7-90.5c-2.8,0.6-5.4,1.5-8,2.5L675.9,873.3c-43.7,10.2-67.7,67.4-53.6,127.6
		c14.1,60.2,61,100.8,104.7,90.5c2.8-0.6,5.4-1.5,8-2.5L1066.3,986C1110,975.8,1134,918.7,1119.9,858.4z"/>
	<path class="c4-fill" d="M689.1,873.8c-43.7,10.2-67.7,67.4-53.6,127.6c14.1,60.2,61,100.8,104.7,90.5c2.8-0.6,5.4-1.5,8-2.5"/>
	<path class="c3-fill" fill="#808080" d="M905.7,927.9c-17-72.6-73.5-121.4-126.2-109.1c-3.3,0.8-6.6,1.8-9.7,3l-168.1,52
		c-52.7,12.3-81.6,81.2-64.6,153.8c17,72.6,73.5,121.4,126.2,109.1c3.3-0.8,6.6-1.8,9.7-3l168.1-52
		C893.8,1069.4,922.7,1000.5,905.7,927.9z"/>
	<ellipse class="c4-fill" transform="matrix(0.9736 -0.2281 0.2281 0.9736 -213.0013 170.225)" cx="629.9" cy="1006.6" rx="78.7" ry="108.4"/>
	<g>
		<path class="c4-fill" d="M1054.4,925.4l-77-28.7c-6.8-2.5-13.7-2.3-19.8,0.1l0,0l-173.2,48.8l118.2,130.4l178.9-50.9l3-53.4
			C1085.7,951.3,1073.5,932.5,1054.4,925.4z"/>
		<line x1="784.4" y1="945.5" x2="902.7" y2="1075.9"/>
		<path fill="#FFFFFF" d="M902.7,1075.9l-144.7-54l2.8-49.6c1.1-18.9,20.1-31.3,37.8-24.7l77,28.7c19.1,7.1,31.3,25.8,30.1,46.1
			L902.7,1075.9z"/>
	</g>
	<path class="c3-fill" fill="#808080" d="M1462.4,964.5c-11.5-49.1-49.8-82.2-85.4-73.8c-2.3,0.5-4.4,1.2-6.6,2l-113.8,35.2
		c-35.7,8.4-55.2,55-43.7,104.1c11.5,49.1,49.8,82.2,85.4,73.8c2.3-0.5,4.4-1.2,6.6-2l113.8-35.2
		C1454.3,1060.2,1473.9,1013.6,1462.4,964.5z"/>
	<path fill="none" stroke="#FFFFFF" stroke-width="19.4051" stroke-miterlimit="10" d="M1339.8,1117.7
		c43.7-10.2,67.7-67.4,53.6-127.6c-14.1-60.2-61-100.8-104.7-90.5c-2.8,0.6-5.4,1.5-8,2.5"/>
	<path class="c4-fill" d="M1385.5,989.8c-14.1-60.2-61-100.8-104.7-90.5c-2.8,0.6-5.4,1.5-8,2.5l-331.3,102.9c-43.7,10.2-67.7,67.4-53.6,127.6
		c14.1,60.2,61,100.8,104.7,90.5c2.8-0.6,5.4-1.5,8-2.5l331.3-102.9C1375.6,1107.1,1399.6,1050,1385.5,989.8z"/>
	<path class="c4-fill" d="M954.7,1005.1c-43.7,10.2-67.7,67.4-53.6,127.6c14.1,60.2,61,100.8,104.7,90.5c2.8-0.6,5.4-1.5,8-2.5"/>
	<path class="c3-fill" fill="#808080" d="M1171.3,1059.3c-17-72.6-73.5-121.4-126.2-109.1c-3.3,0.8-6.6,1.8-9.7,3l-168.1,52
		c-52.7,12.3-81.6,81.2-64.6,153.8c17,72.6,73.5,121.4,126.2,109.1c3.3-0.8,6.6-1.8,9.7-3l168.1-52
		C1159.4,1200.7,1188.3,1131.9,1171.3,1059.3z"/>
	<ellipse class="c4-fill" transform="matrix(0.9736 -0.2281 0.2281 0.9736 -235.9574 234.2779)" cx="895.5" cy="1137.9" rx="78.7" ry="108.4"/>
	<path class="c3-fill" fill="#808080" d="M689.8,885.1c42.3-9.9,87.7,29.3,101.3,87.6s-9.6,113.6-51.9,123.5"/>
	<g>
		<path fill="#FFFFFF" d="M604.2,1061.9c-1.4,0-2.8-0.6-3.7-1.8c-0.5-0.6-11.4-14-17.4-35.5c-5.6-19.9-7.9-50.6,12.9-84.1
			c1.4-2.3,4.4-3,6.7-1.6c2.3,1.4,3,4.4,1.6,6.7c-15.1,24.4-19.1,50-11.9,76c5.5,19.6,15.6,32.2,15.7,32.3c1.7,2.1,1.4,5.1-0.7,6.8
			C606.4,1061.5,605.3,1061.9,604.2,1061.9z"/>
	</g>
	<g>
		<path fill="#FFFFFF" d="M866.7,1191.7c-1.4,0-2.8-0.6-3.7-1.8c-0.5-0.6-11.4-14-17.4-35.5c-5.6-19.9-7.9-50.6,12.9-84.1
			c1.4-2.3,4.4-3,6.7-1.6c2.3,1.4,3,4.4,1.6,6.7c-15.1,24.4-19.1,50-11.9,76c5.5,19.6,15.6,32.2,15.7,32.3c1.7,2.1,1.4,5.1-0.7,6.8
			C868.9,1191.3,867.8,1191.7,866.7,1191.7z"/>
	</g>
</g>
</svg>
