<?xml version="1.0" encoding="utf-8"?>
<!-- Generator: Adobe Illustrator 18.1.1, SVG Export Plug-In . SVG Version: 6.00 Build 0)  -->
<!DOCTYPE svg PUBLIC "-//W3C//DTD SVG 1.1//EN" "http://www.w3.org/Graphics/SVG/1.1/DTD/svg11.dtd">
<svg version="1.1" id="Layer_2" xmlns="http://www.w3.org/2000/svg" xmlns:xlink="http://www.w3.org/1999/xlink" x="0px" y="0px"
	 viewBox="0 0 2000 2000" enable-background="new 0 0 2000 2000" xml:space="preserve">
<g>
	<path class="c3-fill" fill="#808080" d="M1237,838H761c-90,0-162,72-162,162s72,162,162,162h478c90,0,162-72,162-162S1327,838,1237,838z M999,1130
		c0,4-4,8-8,8H769c-76,0-136-62-136-136c0-76,62-136,136-136h222c4,0,8,4,8,8C999,870,999,1130,999,1130z"/>
	<path class="c4-fill" d="M1233,882h-200v234h202c64,0,116-52,116-116C1351,936,1297,882,1233,882z M1321,998L1321,998c-4,0-6-2-6-4
		c-2-36-14-76-74-76c-2,0-6,0-8,0s-6-2-6-4s2-6,4-6c78-4,90,46,94,82C1327,994,1325,996,1321,998z"/>
</g>
</svg>
