<?xml version="1.0" encoding="utf-8"?>
<!-- Generator: Adobe Illustrator 18.1.1, SVG Export Plug-In . SVG Version: 6.00 Build 0)  -->
<!DOCTYPE svg PUBLIC "-//W3C//DTD SVG 1.1//EN" "http://www.w3.org/Graphics/SVG/1.1/DTD/svg11.dtd">
<svg version="1.1" id="Layer_2" xmlns="http://www.w3.org/2000/svg" xmlns:xlink="http://www.w3.org/1999/xlink" x="0px" y="0px"
	 viewBox="0 0 2000 2000" enable-background="new 0 0 2000 2000" xml:space="preserve">
<g>
	<g>
		<path class="c4-fill" fill="#060606" d="M892.8,941.4c-5.3-5.3-10.8-3.6-12.1,3.8c0,0,4.3,13.5-4.1,21.9c-16.4,16.4-43,16.4-59.4,0
			c-16.4-16.4-10.6-36.8,5.8-53.2c8.4-8.4,16.9-9.9,16.9-9.9c7.4-1.3,9.1-6.8,3.8-12.1l-63.9-64.3c-5.3-5.3-14-5.3-19.4,0
			l-63.9,63.9c-5.3,5.3-10.3,3.6-11.1-3.9c0,0-1.2-11.4-10.6-20.9c-16.4-16.4-43-16.4-59.4,0c-16.4,16.4-16.4,43,0,59.4
			c9.4,9.4,20.9,10.6,20.9,10.6c7.5,0.8,9.3,5.8,3.9,11.1l-56.1,56.1c-5.3,5.3-5.3,14,0,19.4l61.2,61.2c5.3,5.3,3.5,10.1-4,10.7
			c0,0-12.5,0.9-22.3,10.8c-16.4,16.4-16.4,43,0,59.4c16.4,16.4,43,16.4,59.4,0c9.8-9.8,10.8-22.3,10.8-22.3c0.6-7.5,5.4-9.3,10.7-4
			l60.5,60.5c5.3,5.3,14,5.3,19.4,0l60-60.4c5.3-5.3,3.6-10.8-3.8-12.1c0,0-9-1-17.3-9.4c-16.4-16.4-22.1-37-5.7-53.4
			c16.4-16.4,37.8-10.4,54.2,6.1c8.4,8.4,9.9,16.9,9.9,16.9c1.3,7.4,6.8,9.1,12.1,3.8l66.9-67.7c5.3-5.3,5.3-14,0-19.4L892.8,941.4z
			"/>
	</g>
	<path class="c3-fill" fill="#808080" d="M975.9,632.9c-5.3-5.3-14-5.3-19.4,0l-62.8,62.8c-5.3,5.3-9.8,3.5-9.9-4c0,0-0.3-14.9-10.9-25.5
		c-16.4-16.4-43-16.4-59.4,0c-16.4,16.4-16.4,43,0,59.4c10.6,10.6,25.5,10.9,25.5,10.9c7.5,0.1,9.3,4.6,4,9.9l-62.8,62.8
		c-5.3,5.3-5.3,14,0,19.4l61.2,61.2c5.3,5.3,3.5,10.1-4,10.7c0,0-12.5,0.9-22.3,10.8c-16.4,16.4-16.4,43,0,59.4
		c16.4,16.4,43,16.4,59.4,0c9.8-9.8,10.8-22.3,10.8-22.3c0.6-7.5,5.4-9.3,10.7-4l60.5,60.5c5.3,5.3,14,5.3,19.4,0l58.5-58.5
		c5.3-5.3,10.6-3.6,11.7,3.9c0,0,1.4,9.4,10.1,18.2c16.4,16.4,43,16.4,59.4,0c16.4-16.4,16.4-43,0-59.4
		c-8.7-8.7-18.2-10.1-18.2-10.1c-7.4-1.1-9.2-6.4-3.9-11.7l58.5-58.5c5.3-5.3,5.3-14,0-19.4L975.9,632.9z"/>
	<path class="c3-fill" fill="#808080" d="M1089.8,1139.7c-5.3-5.3-3.6-10.6,3.9-11.7c0,0,9.7-1.4,18.5-10.2c16.4-16.4,16.4-43,0-59.4
		c-16.4-16.4-43-16.4-59.4,0c-8.8,8.8-10.2,18.5-10.2,18.5c-1.1,7.5-6.3,9.2-11.7,3.9l-56.7-56.7c-5.3-5.3-14-5.3-19.4,0l-60,60
		c-5.3,5.3-10.3,3.6-11.1-3.9c0,0-1.2-11.4-10.6-20.9c-16.4-16.4-43-16.4-59.4,0c-16.4,16.4-16.4,43,0,59.4
		c9.4,9.4,20.9,10.6,20.9,10.6c7.5,0.8,9.3,5.8,3.9,11.1l-60,60c-5.3,5.3-5.3,14,0,19.4l176.3,176.3c5.3,5.3,14,5.3,19.4,0
		l176.3-176.3c5.3-5.3,5.3-14,0-19.4L1089.8,1139.7z"/>
	<g>
		<path class="c4-fill" fill="#060606" d="M1198.8,1093.6c5.4,5.2,9.9,3.3,9.9-4.2c0,0,0-14.9,10.4-25.7c16-16.8,42.6-17.3,59.4-1.3
			c16.8,16,17.4,42.6,1.3,59.4c-10.4,10.9-25.2,11.5-25.2,11.5c-7.5,0.3-9.2,4.8-3.8,10l63.1,60.4c5.4,5.2,14.2,5,19.4-0.4
			l63.2-66.1c5.2-5.4,3.3-9.9-4.2-9.9c0,0-14.9,0-25.7-10.3c-16.8-16-17.4-42.6-1.3-59.4c16-16.8,42.6-17.3,59.4-1.3
			c10.9,10.4,11.5,25.2,11.5,25.2c0.3,7.5,4.8,9.2,10,3.8l59.5-62.1c5.2-5.4,5-14.2-0.4-19.4l-180.1-172.3c-5.4-5.2-14.2-5-19.4,0.4
			l-58,60.6c-5.2,5.4-3.3,10.1,4.2,10.4c0,0,13.1,0.5,23.3,10.3c16.8,16,17.3,42.6,1.3,59.4c-16,16.8-42.6,17.4-59.4,1.3
			c-10.2-9.8-11.3-22.8-11.3-22.8c-0.6-7.5-5.4-9.2-10.6-3.8l-61.8,64.6c-5.2,5.4-5,14.2,0.4,19.4L1198.8,1093.6z"/>
	</g>
</g>
</svg>
