<?xml version="1.0" encoding="utf-8"?>
<!-- Generator: Adobe Illustrator 18.1.1, SVG Export Plug-In . SVG Version: 6.00 Build 0)  -->
<!DOCTYPE svg PUBLIC "-//W3C//DTD SVG 1.1//EN" "http://www.w3.org/Graphics/SVG/1.1/DTD/svg11.dtd">
<svg version="1.1" id="Layer_2" xmlns="http://www.w3.org/2000/svg" xmlns:xlink="http://www.w3.org/1999/xlink" x="0px" y="0px"
	 viewBox="0 0 2000 2000" enable-background="new 0 0 2000 2000" xml:space="preserve">
<g>
	<g>
		<path class="c3-fill" fill="#808080" d="M811.5,854.3c-11.7,11.7-20,30-20,50c0,18.3,6.7,35,20,50c26.7,26.7,70.1,26.7,96.8,0L1035,827.6l0,0
			c21.7-21.7,83.4-25,106.8-3.3l105.1,105.1c20,20,75.1,75.1,75.1,75.1l10,10c10,10,18.3,25,18.3,40c0,16.7-5,30-18.3,40
			c-10,10-25,18.3-40,18.3s-30-5-40-18.3l-23.4-23.4l-6.7-6.7l-145.1-145.1c-5-5-13.3,3.3-8.3,8.3l145.1,145.1l0,0l30,30
			c23.4,23.4,23.4,58.4,0,81.7s-60.1,23.4-81.7,0l-28.4-28.4l0,0l-146.8-146.8c-5-5-13.3,3.3-8.3,8.3l148.5,146.8l0,0l26.7,26.7
			c10,10,18.3,25,18.3,40c0,16.7-5,30-18.3,40c-13.3,13.3-33.4,20-51.7,16.7c1.7-20-5-40-20-56.7c-13.3-13.3-31.7-21.7-50-21.7
			c-5,0-11.7,0-18.3,1.7c13.3-26.7,10-61.7-11.7-83.4c-13.3-13.3-31.7-21.7-50-21.7c-11.7,0-25,3.3-35,8.3c-5,3.3-8.3,6.7-8.3,6.7
			c1.7-6.7,0-16.7,0-16.7c0-18.3-6.7-35-21.7-50c-23.4-23.4-56.7-26.7-83.4-11.7c1.7-5,1.7-11.7,1.7-18.3c0-20-6.7-36.7-21.7-50
			c-13.3-13.3-31.7-21.7-50-21.7c-20,0-36.7,6.7-50,21.7l-23.4,23.4c-1.7,1.7-3.3,3.3-5,5c-33.4-88.4-13.3-193.5,58.4-265.2
			c0,0,105.1-123.4,273.6-58.4C986.6,687.5,968.3,687.5,811.5,854.3z"/>
	</g>
	<g>
		<path class="c4-fill" d="M1070,1324.7c23.4-23.4,23.4-60.1,0-81.7c-10-10-25-18.3-40-18.3s-30,5-40,18.3l-46.7,46.7c-23.4,23.4-23.4,60.1,0,81.7
			c10,10,25,18.3,40,18.3c16.7,0,30-5,40-18.3L1070,1324.7z"/>
		<path class="c4-fill" d="M734.8,976.1c-16.7,0-30,5-40,18.3l-23.4,23.4c-10,10-18.3,25-18.3,40c0,16.7,5,30,18.3,40c10,10,25,18.3,40,18.3
			s30-5,40-18.3l23.4-23.4c10-10,18.3-25,18.3-40s-5-30-18.3-40C764.8,981.1,749.8,976.1,734.8,976.1z"/>
		<path class="c4-fill" d="M761.4,1187.9c23.4,23.4,60.1,23.4,81.7,0l33.4-33.4c23.4-23.4,23.4-60.1,0-81.7c-23.4-23.4-60.1-23.4-81.7,0l-33.4,33.4
			C739.8,1127.9,739.8,1166.2,761.4,1187.9z"/>
		<path class="c4-fill" d="M934.9,1281.3l56.7-56.7c23.4-23.4,23.4-58.4,0-81.7c-10-10-25-18.3-40-18.3c-16.7,0-30,5-40,18.3l-56.7,55
			c-10,10-18.3,25-18.3,40c0,16.7,5,30,18.3,40C876.5,1301.4,913.2,1301.4,934.9,1281.3z"/>
	</g>
	<path class="c4-fill" d="M1298.6,739.2c-11.7-11.7-25-23.4-38.4-31.7c-50-31.7-108.4-46.7-165.1-40c-1.7,0-3.3,0-3.3,0c-6.7,1.7-16.7,1.7-23.4,3.3
		c-1.7,0-1.7,0-3.3,0c-8.3,1.7-16.7,3.3-25,6.7c0,0,0,0-1.7,0c-35,11.7-66.7,31.7-95.1,60.1L818.2,862.7
		c-8.3,10-13.3,23.4-13.3,36.7c0,16.7,5,30,16.7,40c21.7,21.7,58.4,21.7,80.1,0l126.8-126.8l0,0c26.7-26.7,90.1-33.4,121.8-5
		l106.8,106.8l63.4,63.4l0,0l11.7,11.7l10,10c5,5,8.3,10,10,16.7C1392,924.4,1375.3,815.9,1298.6,739.2z"/>
</g>
</svg>
