<?xml version="1.0" encoding="utf-8"?>
<!-- Generator: Adobe Illustrator 17.0.2, SVG Export Plug-In . SVG Version: 6.00 Build 0)  -->
<!DOCTYPE svg PUBLIC "-//W3C//DTD SVG 1.1//EN" "http://www.w3.org/Graphics/SVG/1.1/DTD/svg11.dtd">
<svg version="1.1" id="Layer_2" xmlns="http://www.w3.org/2000/svg" xmlns:xlink="http://www.w3.org/1999/xlink" x="0px" y="0px"
	 width="100px" height="100px" viewBox="0 0 100 100" enable-background="new 0 0 100 100" xml:space="preserve">
<g>
	<path fill="#808080" class="c3-fill" d="M65.104,51.922c-1.668,1.346-3.57,1.983-5.541,1.86c-0.117,0.412-0.351,0.976-0.814,1.63
		c-0.942,1.328-2.469,2.555-4.549,3.663c1.247,1.328,3.213,1.855,5.028,1.18c0.614-0.229,1.15-0.575,1.596-1.001
		c0.242-0.062,0.485-0.136,0.723-0.226c3.253-1.211,5.064-4.588,4.418-7.886C65.713,51.397,65.426,51.661,65.104,51.922"/>
	<path fill="#808080" class="c3-fill" d="M65.794,45.063c-0.08-0.42-0.201-0.827-0.34-1.231c-0.017-0.048-0.032-0.099-0.052-0.148
		c-0.836-2.244-2.491-3.949-4.515-4.91c-2.228-3.116-6.328-4.534-10.177-3.303c-0.143,0.043-0.287,0.094-0.429,0.146
		c-0.01,0.004-0.019,0.007-0.029,0.012c-1.804-0.732-3.876-0.819-5.842-0.085c-1.476,0.55-2.693,1.486-3.583,2.652
		c-0.814-0.003-1.641,0.14-2.446,0.438c-2.506,0.935-4.157,3.153-4.486,5.63c-1.913,1.871-2.945,4.892-2.127,7.621
		c1.104,3.685,4.904,6.266,9.998,3.685c0.008,0.023,0.02,0.045,0.028,0.068c0.039-2.152,1.263-3.506,1.994-4.127
		c-1.472-1.802-4.923-5.199-7.174-3.956c-1.472,0.813-1.581,2.25-1.061,3.24c0.552,1.046,1.852,1.727,3.518,0.894
		c0.319-0.162,0.711-0.032,0.871,0.289c0.161,0.322,0.033,0.712-0.29,0.873c-2.438,1.221-4.43,0.105-5.249-1.451
		c-0.831-1.581-0.556-3.801,1.583-4.982c0.429-0.238,0.974-0.419,1.643-0.429c-0.09-1.344,0.261-2.487,1.052-3.395
		c1.232-1.42,3.191-1.847,4.116-1.976c0.528-2.03,2.326-3.26,4.814-3.248c1.301,0.006,2.462,0.539,3.312,1.085
		c0.442,0.285,0.803,0.573,1.055,0.795c1.362-1.003,3.332-1.667,5.078-1.197c1.171,0.317,2.685,1.264,3.372,3.959
		c0.649,0.261,1.951,0.936,2.421,2.295c0.338,0.981,0.188,2.122-0.4,3.048c-0.545,0.859-1.709,1.938-4.164,2.199
		c-0.033,0.003-0.064,0.003-0.096,0.003c-0.044-0.002-4.535-0.137-5.958,3.151c-0.079,0.184-0.163,0.357-0.248,0.522
		c-0.503,0.963-1.113,1.583-1.816,1.843c-0.131,0.049-0.266,0.086-0.404,0.11c-1.358,0.237-2.414-0.868-2.46-0.916
		c-0.245-0.263-0.231-0.672,0.03-0.919c0.259-0.245,0.669-0.233,0.916,0.027c0.016,0.017,0.638,0.646,1.295,0.527
		c0.535-0.099,1.052-0.688,1.494-1.709c0.203-0.47,0.465-0.903,0.776-1.296c0.828-1.046,2.028-1.812,3.538-2.248
		c1.372-0.398,2.569-0.399,2.836-0.392c1.91-0.214,2.774-0.985,3.163-1.597c0.379-0.596,0.479-1.315,0.268-1.927
		c-0.398-1.147-1.901-1.597-1.916-1.6c-0.232-0.065-0.409-0.253-0.46-0.489c-0.405-1.87-1.256-2.991-2.527-3.335
		c-1.602-0.433-3.618,0.464-4.64,1.582c-1.226,1.34-0.684,2.924-0.415,3.504c2.304-0.747,4.109,0.308,4.185,0.354
		c0.31,0.185,0.409,0.584,0.224,0.892c-0.184,0.307-0.579,0.408-0.889,0.226c-0.061-0.036-1.487-0.847-3.295-0.172
		c-0.155,0.056-0.3,0.117-0.433,0.181c-1.357,0.641-1.67,1.522-1.698,1.608c-0.043,0.183-0.157,0.33-0.321,0.417
		c-0.17,0.087-0.357,0.089-0.533,0.021c-0.094-0.032-1.386-0.445-2.737,0.768c-1.381,1.237-0.909,2.71-0.891,2.773
		c0.101,0.294-0.013,0.61-0.282,0.769c-0.077,0.045-1.947,1.215-1.898,3.61c0.022,1.013,0.601,2.134,1.661,2.739
		c1.206,0.49,2.597,0.549,3.913,0.057c0.483-0.18,0.924-0.421,1.319-0.713c0.732,0.297,1.544,0.409,2.354,0.304
		c0.984-0.071,2.313-0.821,2.675-1.056c1.364-0.89,2.115-1.766,2.579-2.384c0.72-0.962,0.78-1.633,0.786-1.707
		c-0.011-0.192,0.065-0.366,0.207-0.496c0.145-0.131,0.341-0.179,0.535-0.152c1.834,0.263,3.562-0.24,5.129-1.496
		c0.721-0.574,1.264-1.293,1.478-2.199c0.096-0.398,0.159-0.8,0.191-1.208c0.034-0.41,0.049-0.822,0.027-1.233
		C65.927,45.882,65.872,45.469,65.794,45.063"/>
	<path class="c4-fill" d="M47.606,38.667c-2.021-0.011-3.377,0.978-3.623,2.642c-0.047,0.309-0.304,0.541-0.614,0.553
		c-0.022,0.003-2.457,0.139-3.709,1.586c-0.587,0.68-0.825,1.531-0.72,2.603c0.003,0.041,0.002,0.082,0,0.12
		c0.907,0.262,1.975,0.823,3.209,1.845c0.722,0.596,1.358,1.232,1.854,1.769c0.169-0.658,0.541-1.391,1.295-2.068
		c1.352-1.21,2.708-1.257,3.464-1.155c0.263-0.455,0.772-1.099,1.706-1.639c-0.514-1.11-0.882-3.117,0.544-4.789
		C50.37,39.592,49.068,38.674,47.606,38.667"/>
</g>
<line class="c4-stroke" fill="none" stroke="#000000" stroke-width="0.75" stroke-linecap="round" stroke-miterlimit="10" x1="50" y1="24.044" x2="50" y2="14.751"/>
<line class="c4-stroke" fill="none" stroke="#000000" stroke-width="0.75" stroke-linecap="round" stroke-miterlimit="10" x1="68.379" y1="32.65" x2="74.949" y2="26.079"/>
<line class="c4-stroke" fill="none" stroke="#000000" stroke-width="0.75" stroke-linecap="round" stroke-miterlimit="10" x1="73.594" y1="47.638" x2="82.886" y2="47.638"/>
<line class="c4-stroke" fill="none" stroke="#000000" stroke-width="0.75" stroke-linecap="round" stroke-miterlimit="10" x1="68.273" y1="64.663" x2="74.843" y2="71.233"/>
<line class="c4-stroke" fill="none" stroke="#000000" stroke-width="0.75" stroke-linecap="round" stroke-miterlimit="10" x1="50" y1="71.233" x2="50" y2="80.525"/>
<line class="c4-stroke" fill="none" stroke="#000000" stroke-width="0.75" stroke-linecap="round" stroke-miterlimit="10" x1="31.621" y1="62.626" x2="25.05" y2="69.196"/>
<line class="c4-stroke" fill="none" stroke="#000000" stroke-width="0.75" stroke-linecap="round" stroke-miterlimit="10" x1="26.404" y1="47.638" x2="17.114" y2="47.638"/>
<line class="c4-stroke" fill="none" stroke="#000000" stroke-width="0.75" stroke-linecap="round" stroke-miterlimit="10" x1="32.974" y1="30.614" x2="26.404" y2="24.044"/>
</svg>
