<?xml version="1.0" encoding="utf-8"?>
<!-- Generator: Adobe Illustrator 18.1.1, SVG Export Plug-In . SVG Version: 6.00 Build 0)  -->
<svg version="1.1" id="Layer_2" xmlns="http://www.w3.org/2000/svg" xmlns:xlink="http://www.w3.org/1999/xlink" x="0px" y="0px"
	 viewBox="0 0 2000 2000" enable-background="new 0 0 2000 2000" xml:space="preserve">
<g>
	<path class="c4-fill" d="M856.9,605.4l8.7-14c3.6-5.9,11.3-7.7,17.3-4.2c110.6,63.1,120.6,235.7,120.6,235.7l-18.9,2.4
		c-11.7-130.3-92.1-185.5-123.1-202.1C855.2,619.7,853.1,611.6,856.9,605.4z"/>
	<path class="c3-fill" fill="#808080" d="M987.9,816.7c-86.5-73-216.2-69.3-296.6,11.2c0,0-0.2,0.2-0.7,0.7c-17.3,17.1-31.1,36.4-41.4,57
		c-25.8,44.7-52,112.9-41.8,195.8h386.3V818.8C991.6,818.8,989.6,818.2,987.9,816.7z"/>
	<path class="c4-fill" d="M1330,872.1c-8.6-14.8-19-28.7-31.3-41.5c-1.7-1.8-2.6-2.8-2.6-2.8l0,0l0,0c-80.5-82.5-212.1-86.3-296.8-11.3
		c-1.6,1.4-3.6,2.2-5.6,2.2v262.6h386.2C1391.1,989.8,1357.9,916,1330,872.1z"/>
	<path class="c4-fill" d="M607.4,1081.4c9,73.2,46.4,157.8,137.6,247.7c15.2,15,33.2,26.6,51,38.3c116.8,76.6,180.3,14.4,197.6,5.6v-291.6H607.4z"/>
	<path class="c3-fill" fill="#808080" d="M1381,1081.4c-9,73.2-46.4,157.8-137.6,247.7c-15.2,15-33.2,26.6-51,38.3c-116.8,76.6-180.3,14.4-197.6,5.6
		v-291.6H1381z"/>
	<path class="c3-fill" fill="#808080" d="M1039.4,574.6c58.6-45.4,155.2-47.1,217.1-38.4c-14,88.4-44.7,128.9-96.1,169.1
		c-47.9,37.5-118.5,40.6-152.7,13c10.9-53.7,128.8-128,184.4-140.1c-50.7-4.1-171.9,59-202.2,118
		C977.5,648,999.1,605.9,1039.4,574.6z"/>
	<ellipse fill="#808080" cx="1145.4" cy="1041" rx="50.9" ry="48.7"/>
	<ellipse cx="952.6" cy="942.7" rx="50.9" ry="48.7"/>
	<ellipse fill="#808080" cx="858.1" cy="1119" rx="50.9" ry="48.7"/>
	<ellipse cx="1036.4" cy="1223" rx="50.9" ry="48.7"/>
</g>
</svg>
