<?xml version="1.0" encoding="utf-8"?>
<!-- Generator: Adobe Illustrator 18.1.1, SVG Export Plug-In . SVG Version: 6.00 Build 0)  -->
<svg version="1.1" id="Layer_2" xmlns="http://www.w3.org/2000/svg" xmlns:xlink="http://www.w3.org/1999/xlink" x="0px" y="0px"
	 viewBox="0 0 2000 2000" enable-background="new 0 0 2000 2000" xml:space="preserve">
<g>
	<path class="c4-fill" d="M568.2,708.9c-7.5,0-13.6,6.1-13.6,13.6V750v25.8v87.5c0,1-0.2,2-0.3,3c-1.4,6.7-7.7,11.6-15,10.7
		c-7-0.8-11.9-7.4-11.9-14.4v-86.8v-36.1v-17.2c0-7.5-6.1-13.6-13.6-13.6h0c-7.5,0-13.6,6.1-13.6,13.6v17.2v36.1v86.8
		c0,7-5,13.6-11.9,14.4c-7.3,0.9-13.6-4-15-10.7c-0.1-1-0.3-2-0.3-3v-87.5V750v-27.5c0-7.5-6.1-13.6-13.6-13.6h0
		c-7.5,0-13.6,6.1-13.6,13.6v34.1v19.1v87.5c0,15.7,6.5,30.7,17.9,41.4l23.7,22.4c8.2,7.8,12.8,18.7,12.5,30l-2,83.2
		c4.6-3,10.1-4.8,16-4.8h0c5.8,0,11.2,1.7,15.8,4.6l-1.7-83c-0.3-11.3,4.3-22.2,12.5-30l23.7-22.4c11.4-10.8,17.9-25.8,17.9-41.4
		v-87.5v-19.1v-34.1C581.8,715,575.7,708.9,568.2,708.9z"/>
	<path class="c3-fill" fill="#808080" d="M529.5,1040.2c-4.5-2.9-10-4.6-15.8-4.6h0c-5.9,0-11.4,1.8-16,4.8c-7.9,5.2-13.1,14.2-13.1,24.3v245.2
		c0,16.1,13.1,29.1,29.1,29.1h0c16.1,0,29.1-13.1,29.1-29.1v-245.2C542.8,1054.4,537.5,1045.4,529.5,1040.2z"/>
	<path class="c4-fill" d="M1463.1,1046.1c4.9,0,9.6,1.2,13.6,3.4V775.8v-36.1v-11.1c0-6-0.9-10.7-3.3-14.1v0h0c-2.1-2.9-5.3-4.8-10.3-5.6
		c0,0-34.1-5.6-34.1,103.3l0,0c-0.5,10-0.4,16.6-0.4,16.6v167.8c0,5.7,4.6,10.3,10.3,10.3h10.5v42.7
		C1453.5,1047.3,1458.2,1046.1,1463.1,1046.1L1463.1,1046.1z"/>
	<path class="c3-fill" fill="#808080" d="M1476.7,1049.5c-4.1-2.2-8.7-3.4-13.6-3.4h0c-4.9,0-9.6,1.2-13.6,3.4c-9.2,4.9-15.5,14.6-15.5,25.8v234.6
		c0,16.1,13.1,29.1,29.1,29.1h0c16.1,0,29.1-13.1,29.1-29.1v-234.6C1492.2,1064.1,1486,1054.4,1476.7,1049.5z"/>
	<path class="c3-fill" fill="none" d="M987.3,658.3c95.1,0,181.2,38.6,243.6,100.9C1168.6,696.9,1082.5,658.3,987.3,658.3
		c-104,0-197.3,46.1-260.5,119C790,704.5,883.3,658.3,987.3,658.3z"/>
	<path class="c3-fill" fill="none" d="M987.3,1347.3c-139.5,0-259.6-82.9-313.8-202.1C727.7,1264.4,847.9,1347.3,987.3,1347.3
		c190.3,0,344.5-154.2,344.5-344.5c0,0,0,0,0,0C1331.8,1193.1,1177.6,1347.3,987.3,1347.3z"/>
	<path class="c3-fill" fill="none" d="M987.3,694.3c-170.1,0-308.5,138.4-308.5,308.5s138.4,308.5,308.5,308.5s308.5-138.4,308.5-308.5
		S1157.4,694.3,987.3,694.3z M990.4,892.7l23.2-2.1c1.2-0.1,2.2-1,2.4-2.1l5-23.8c0.5-2.6,4.1-2.9,5.1-0.4l9,22.5
		c0.4,1.1,1.6,1.8,2.7,1.7l22.9-2.1c2.5-0.2,3.9,2.9,2.1,4.6l-17.5,16.7c-0.8,0.8-1.1,1.9-0.6,3l8.2,20.5c1,2.4-1.7,4.7-3.9,3.3
		l-17.5-10.8c-1-0.6-2.4-0.5-3.3,0.3l-18.1,17.2c-1.9,1.8-5,0.1-4.5-2.5l5.4-25.6c0.2-1.1-0.3-2.3-1.2-2.8l-20.4-12.6
		C987.1,896.4,987.9,893,990.4,892.7z M964.2,1011l25-10.3c2.9-1.2,5.7,2,4.1,4.7l-13,21.6c-0.8,1.3-0.6,2.9,0.5,4l21.3,22
		c2.3,2.3,0.2,6.2-3,5.5l-31.4-6.2c-1.4-0.3-2.8,0.3-3.5,1.5l-15.1,25.2c-1.6,2.7-5.8,1.8-6.1-1.4l-2.9-28.4
		c-0.1-1.4-1.2-2.6-2.6-2.9l-29.2-5.8c-3.2-0.6-3.6-5-0.6-6.3l27.5-11.3c1.3-0.6,2.2-1.9,2-3.4l-2.8-28c-0.3-3.1,3.5-4.9,5.7-2.6
		l20.6,21.3C961.5,1011.2,962.9,1011.5,964.2,1011z M811.3,857.8h43.6c2.1,0,4-1.4,4.6-3.5l11.8-39.6c1.3-4.4,7.4-4.7,9.1-0.4
		l16.1,40.4c0.7,1.8,2.5,3,4.5,3h39.7c4.7,0,6.6,5.9,2.9,8.7L914,888.6c-1.8,1.3-2.4,3.6-1.6,5.7L929,936c1.8,4.4-3.2,8.5-7.2,5.8
		l-39.1-26c-1.7-1.1-3.9-1.1-5.6,0.1l-34.6,25.7c-3.7,2.8-8.9-0.8-7.5-5.3l12-40.2c0.6-2-0.2-4.2-2-5.4l-36.4-24.2
		C804.7,864,806.5,857.8,811.3,857.8z M1244.8,1020.3c-8.4,128.1-112.6,232.3-240.7,240.7c-132.9,8.7-246.1-83-271-206.7
		c-1.1-5.3,6.6-7.7,8.7-2.7c37,86.9,127.5,145.6,230.1,134.8c103.7-10.9,187.4-94.6,198.3-198.3C1181,885.4,1122.3,795,1035.4,758
		c-5-2.1-2.6-9.8,2.7-8.7C1161.8,774.2,1253.5,887.3,1244.8,1020.3z"/>
	<path class="c4-fill" d="M724.2,780.5c-50.7,60-81.3,137.6-81.3,222.3c0,50.8,11,99,30.7,142.4c-19.7-43.4-30.7-91.6-30.7-142.4
		C642.9,918.1,673.4,840.5,724.2,780.5z"/>
	<path class="c4-fill" d="M1230.9,759.2c62.3,62.3,100.9,148.5,100.9,243.6v0C1331.8,907.7,1293.3,821.6,1230.9,759.2z"/>
	<path class="c4-fill" d="M987.3,658.3c-104,0-197.3,46.1-260.5,119c-0.9,1-1.8,2.1-2.7,3.1c-50.7,60-81.3,137.6-81.3,222.3c0,50.8,11,99,30.7,142.4
		c54.2,119.2,174.3,202.1,313.8,202.1c190.3,0,344.5-154.2,344.5-344.5c0-95.1-38.6-181.2-100.9-243.6
		C1168.6,696.9,1082.5,658.3,987.3,658.3z M987.3,1311.3c-170.1,0-308.5-138.4-308.5-308.5s138.4-308.5,308.5-308.5
		s308.5,138.4,308.5,308.5S1157.4,1311.3,987.3,1311.3z"/>
	<path class="c3-fill" fill="#808080" d="M1038.1,749.2c-5.3-1.1-7.7,6.6-2.7,8.7c86.9,37,145.6,127.5,134.8,230.1
		c-10.9,103.7-94.6,187.4-198.3,198.3c-102.7,10.8-193.1-47.9-230.1-134.8c-2.1-5-9.8-2.6-8.7,2.7c24.9,123.7,138.1,215.5,271,206.7
		c128.1-8.4,232.3-112.6,240.7-240.7C1253.5,887.3,1161.8,774.2,1038.1,749.2z"/>
	<path class="c3-fill" fill="#808080" d="M808.6,866.7l36.4,24.2c1.8,1.2,2.6,3.4,2,5.4l-12,40.2c-1.3,4.5,3.8,8,7.5,5.3l34.6-25.7
		c1.6-1.2,3.9-1.3,5.6-0.1l39.1,26c4,2.6,8.9-1.4,7.2-5.8l-16.6-41.7c-0.8-2-0.2-4.4,1.6-5.7l29.7-22.1c3.7-2.8,1.8-8.7-2.9-8.7
		h-39.7c-2,0-3.8-1.2-4.5-3l-16.1-40.4c-1.7-4.3-7.8-4-9.1,0.4l-11.8,39.6c-0.6,2.1-2.5,3.5-4.6,3.5h-43.6
		C806.5,857.8,804.7,864,808.6,866.7z"/>
	<path class="c3-fill" fill="#808080" d="M934.3,991.6l2.8,28c0.1,1.5-0.7,2.8-2,3.4l-27.5,11.3c-3,1.2-2.6,5.7,0.6,6.3l29.2,5.8
		c1.4,0.3,2.5,1.5,2.6,2.9l2.9,28.4c0.3,3.2,4.5,4.1,6.1,1.4l15.1-25.2c0.7-1.2,2.1-1.8,3.5-1.5l31.4,6.2c3.2,0.6,5.3-3.2,3-5.5
		l-21.3-22c-1-1.1-1.2-2.7-0.5-4l13-21.6c1.6-2.7-1.1-6-4.1-4.7l-25,10.3c-1.2,0.5-2.7,0.2-3.6-0.8L939.9,989
		C937.7,986.7,933.9,988.5,934.3,991.6z"/>
	<path class="c3-fill" fill="#808080" d="M989.3,897.7l20.4,12.6c1,0.6,1.5,1.7,1.2,2.8l-5.4,25.6c-0.5,2.6,2.6,4.3,4.5,2.5l18.1-17.2
		c0.9-0.8,2.2-1,3.3-0.3l17.5,10.8c2.2,1.4,4.9-0.9,3.9-3.3l-8.2-20.5c-0.4-1-0.2-2.2,0.6-3l17.5-16.7c1.9-1.8,0.4-4.9-2.1-4.6
		l-22.9,2.1c-1.2,0.1-2.3-0.6-2.7-1.7l-9-22.5c-1-2.5-4.6-2.2-5.1,0.4l-5,23.8c-0.2,1.2-1.2,2-2.4,2.1l-23.2,2.1
		C987.9,893,987.1,896.4,989.3,897.7z"/>
</g>
</svg>
