<?xml version="1.0" encoding="utf-8"?>
<!-- Generator: Adobe Illustrator 17.0.2, SVG Export Plug-In . SVG Version: 6.00 Build 0)  -->
<!DOCTYPE svg PUBLIC "-//W3C//DTD SVG 1.1//EN" "http://www.w3.org/Graphics/SVG/1.1/DTD/svg11.dtd">
<svg version="1.1" id="Layer_2" xmlns="http://www.w3.org/2000/svg" xmlns:xlink="http://www.w3.org/1999/xlink" x="0px" y="0px"
	 width="100px" height="100px" viewBox="0 0 100 100" enable-background="new 0 0 100 100" xml:space="preserve">
<g>
	<path fill="#808080" class="c3-fill" d="M69.221,50.734c0.237,5.582-1.816,10.77-5.935,14.554l-4.615-3.461c2.864-2.632,4.955-6.966,4.79-10.848
		c-0.299-6.982-6.019-12.457-12.916-12.569l-2.818,0.12l2.63,5.904c0.086,0.198,0.032,0.43-0.135,0.568
		c-0.169,0.137-0.405,0.147-0.583,0.021l-12.182-8.565c-0.122-0.086-0.198-0.223-0.204-0.374c-0.006-0.149,0.057-0.294,0.172-0.39
		l11.408-9.571c0.083-0.071,0.185-0.107,0.288-0.112c0.104-0.004,0.206,0.023,0.295,0.084c0.178,0.122,0.253,0.351,0.182,0.555
		l-2.116,6.105l2.041-0.082l-0.001-0.029c0.729-0.031,1.449-0.017,2.161,0.035c0.472,0.028,1,0.075,1.4,0.152
		C61.881,34.126,68.828,41.529,69.221,50.734z"/>
	<path class="c4-fill" d="M50.08,57.174c-0.171-0.133-0.409-0.133-0.584-0.002c-0.171,0.13-0.237,0.36-0.157,0.561l2.375,6.011h-2.82
		c-6.886-0.406-12.368-6.121-12.368-13.108c0-3.637,1.922-7.496,4.557-10.003l-4.613-3.46c-3.79,3.606-5.708,8.233-5.708,13.464
		c0,9.213,6.623,16.905,15.36,18.571c0.398,0.093,0.923,0.164,1.392,0.212c0.71,0.082,1.429,0.127,2.159,0.127v-0.03l2.042,0.006
		l-2.375,6.01c-0.08,0.202-0.014,0.432,0.16,0.562c0.085,0.064,0.188,0.097,0.289,0.097c0.104,0,0.207-0.033,0.293-0.1l11.806-9.078
		c0.118-0.09,0.188-0.231,0.188-0.382c0-0.15-0.069-0.29-0.188-0.381L50.08,57.174z"/>
</g>
</svg>
