<?xml version="1.0" encoding="utf-8"?>
<!-- Generator: Adobe Illustrator 18.0.0, SVG Export Plug-In . SVG Version: 6.00 Build 0)  -->
<!DOCTYPE svg PUBLIC "-//W3C//DTD SVG 1.1//EN" "http://www.w3.org/Graphics/SVG/1.1/DTD/svg11.dtd">
<svg version="1.1" id="Layer_2" xmlns="http://www.w3.org/2000/svg" xmlns:xlink="http://www.w3.org/1999/xlink" x="0px" y="0px"
	 viewBox="256 346 100 100" enable-background="new 256 346 100 100" xml:space="preserve">
<g>
	<path fill="#808080" class="c3-fill" d="M312.8,400.5c2.5,0.6,4.9,1.1,7.3,1.9c2,0.6,3.9,1.6,5.3,3.1c1.7,1.7,1.8,3.8,0.2,5.4
		c-1.4,1.6-3.1,2.5-5,3.1c-5,1.9-10.1,2.3-15.4,2.1c-3.8-0.2-7.5-0.6-11.1-2.1c-1.5-0.5-2.8-1.3-4.1-2.2c-3-2.3-3-5.2,0.1-7.4
		c2.3-1.8,5.1-2.6,7.8-3.2c0.4-0.1,0.7-0.1,1.1-0.2c0.5-0.1,1,0,1-0.8c0-0.7,0-1.3-0.8-1.5c-3.3-1-6.2-2.8-8.3-5.6
		c-4.1-5.4-3.7-12.2,1.1-17.1c7.1-7.3,20.7-7.1,27.6,0.4c5.2,5.6,4.7,13.9-1.3,18.9c-1.4,1.1-2.9,2-4.4,2.8
		C312.8,398.9,312.7,398.8,312.8,400.5z M307.4,375c-4.7,0-8.1,1-10.9,3c-5.5,4.1-5.9,10.9-0.6,15.4c2.5,2.2,5.5,3.2,8.8,3.6
		c4.6,0.4,8.8-0.6,12.3-3.7c4.8-4.1,4.8-10.3,0.1-14.5C314.1,376.1,310.4,375.1,307.4,375z M307.8,414.7c0.8-0.1,2.1-0.1,3.4-0.3
		c3.2-0.4,6.5-1.3,9-3.4c1.9-1.7,1.9-3.9,0-5.6c-1.6-1.5-3.4-2.2-5.4-2.8c-4.2-1.1-8.4-1.3-12.5-0.6c-2.9,0.5-5.7,1.3-8,3.3
		c-1.8,1.6-1.9,3.7-0.3,5.3c0.5,0.5,1.3,1,1.9,1.5C299.3,414.2,303.3,414.7,307.8,414.7z"/>
	<path class="c4-fill" d="M326.6,410.8c0.3,1.5,0,2.5-0.8,3.4c-1.4,1.6-3.1,2.4-4.9,3.1c-4.7,1.8-9.5,2.3-14.5,2.2c-4.2-0.1-8.3-0.5-12.1-2.1
		c-1.7-0.6-3.2-1.6-4.7-2.7c-1.3-0.9-2-2.2-1.5-4.1c1.5,2.7,4,3.9,6.6,4.7c6,2,12.1,2.4,18.4,1.6c2.1-0.3,4.1-0.7,6.1-1.3
		C322,414.9,324.8,413.7,326.6,410.8z"/>
	<g>
		<line fill="none" x1="295.2" y1="385.3" x2="302" y2="378.5"/>
		<path class="c4-fill" d="M295.2,385.8c-0.1,0-0.2,0-0.3-0.1c-0.2-0.2-0.2-0.4,0-0.6l6.8-6.8c0.2-0.2,0.4-0.2,0.6,0c0.2,0.2,0.2,0.4,0,0.6l-6.8,6.8
			C295.5,385.7,295.3,385.8,295.2,385.8z"/>
	</g>
	<g>
		<line fill="none" x1="297.5" y1="385.7" x2="302.7" y2="380.7"/>
		<path class="c4-fill" d="M297.5,386.2c-0.1,0-0.2,0-0.3-0.1c-0.2-0.2-0.2-0.4,0-0.6l5-5c0.2-0.2,0.4-0.2,0.6,0c0.2,0.2,0.2,0.4,0,0.6l-5,5
			C297.8,386.2,297.6,386.2,297.5,386.2z"/>
	</g>
</g>
</svg>
