<?xml version="1.0" encoding="utf-8"?>
<!-- Generator: Adobe Illustrator 18.0.0, SVG Export Plug-In . SVG Version: 6.00 Build 0)  -->
<!DOCTYPE svg PUBLIC "-//W3C//DTD SVG 1.1//EN" "http://www.w3.org/Graphics/SVG/1.1/DTD/svg11.dtd">
<svg version="1.1" id="Layer_2" xmlns="http://www.w3.org/2000/svg" xmlns:xlink="http://www.w3.org/1999/xlink" x="0px" y="0px"
	 viewBox="256 346 100 100" enable-background="new 256 346 100 100" xml:space="preserve">
<g>
	<path fill="#808080" class="c3-fill" d="M320.7,375.3c-4-4-10.5-4.1-14.7-0.3c-4.1-3.9-10.7-3.8-14.7,0.3c-4.1,4.1-4.1,10.9,0,15
		c1.3,1.2,12.4,12.2,12.4,12.2c1.3,1.3,3.5,1.3,4.8,0c0,0,12.2-12.1,12.3-12.2C324.9,386.2,324.9,379.4,320.7,375.3z M298.5,375.2
		L298.5,375.2L298.5,375.2c-5.2,0-6.8,5-6.8,5c-0.1,0.2-0.2,0.3-0.4,0.3h-0.1c-0.2-0.1-0.3-0.3-0.2-0.5c0-0.1,1.9-5.6,7.5-5.6
		c0.2,0,0.4,0.2,0.4,0.4C298.8,375,298.7,375.2,298.5,375.2z"/>
	<g>
		<g>
			<path class="c4-fill" d="M293.7,413.5c-3.1-1.4-6.4-3-8.8-5.4c-2.2-2.2-4.7-5.6-4.6-8.9c0-3.7,0.2-6.9,0.3-7.9c0.4-2,2.6-1.7,2.5,0
				c0,1.5-0.1,4.9,0.3,6.9c-0.6,1-0.3,2.8,0.8,3.9s6.1,6.1,6.1,6.1s0.1-0.9-0.3-1.4c0,0-4.5-4.5-5.1-5.1c-0.7-0.7-1.3-2.3,0-3.6
				c1.4-1.4,3-0.5,3.6,0c0.4,0.5,3.2,3.2,4.4,4.4c0,0,2.9,0.5,4.5,2.1c1.3,1.3,1.8,2.7,2,3.3C300.7,412.8,296.2,413.3,293.7,413.5z"
				/>
			<path class="c4-fill" d="M285.1,396.9c0.2-0.8-0.1-4.6-0.6-5.7c-0.4-0.9-1-0.5-1-0.5s0.4,5.8,0.5,6.3C284.4,397.3,285,397.2,285.1,396.9z"/>
			<path class="c4-fill" d="M286.9,396.2c0.2-0.8-0.1-3.4-0.6-4.3c-0.4-0.9-1-0.5-1-0.5s0.4,4.5,0.5,5C286.1,396.7,286.8,396.6,286.9,396.2z"/>
		</g>
		<g>
			<path class="c4-fill" d="M312.6,408c0.2-0.6,0.8-2.1,2-3.3c1.6-1.6,4.5-2.2,4.5-2.2c1.3-1.3,4-4,4.4-4.4c0.6-0.6,2.1-1.4,3.6,0
				c1.3,1.2,0.6,2.9,0,3.6c-0.7,0.7-5.1,5.1-5.1,5.1c-0.4,0.5-0.3,1.4-0.3,1.4s5-5,6.1-6.1s1.3-2.9,0.8-3.9c0.4-2.1,0.3-5.4,0.3-6.9
				c0-1.8,2.2-2,2.5,0c0.2,1,0.3,4.2,0.3,7.9c0,3.3-2.4,6.6-4.6,8.9c-2.4,2.4-6.1,3.5-8.8,5.4C313.9,413.2,312.4,412.6,312.6,408z"
				/>
			<path class="c4-fill" d="M328,397c0-0.5,0.5-6.3,0.5-6.3s-0.7-0.4-1,0.5c-0.4,1-0.8,4.9-0.6,5.7C327,397.2,327.6,397.3,328,397z"/>
			<path class="c4-fill" d="M326.2,396.4c0-0.5,0.5-5,0.5-5s-0.7-0.4-1,0.5c-0.4,1-0.8,3.6-0.6,4.3C325.2,396.6,325.9,396.7,326.2,396.4z"/>
		</g>
	</g>
</g>
</svg>
