<?xml version="1.0" encoding="utf-8"?>
<!-- Generator: Adobe Illustrator 17.0.2, SVG Export Plug-In . SVG Version: 6.00 Build 0)  -->
<!DOCTYPE svg PUBLIC "-//W3C//DTD SVG 1.1//EN" "http://www.w3.org/Graphics/SVG/1.1/DTD/svg11.dtd">
<svg version="1.1" id="Layer_2" xmlns="http://www.w3.org/2000/svg" xmlns:xlink="http://www.w3.org/1999/xlink" x="0px" y="0px"
	 width="100px" height="100px" viewBox="0 0 100 100" enable-background="new 0 0 100 100" xml:space="preserve">
<path class="c4-fill" d="M47.104,29.572c0.375,0.12,0.83,0.353,1.218,0.808c0.847,0.988,1.139,2.726,0.874,5.052c0.812,0.16,1.848-0.033,2.438-0.521
	c0.009-0.008,0.021-0.013,0.028-0.02c0.179-2.683-0.333-4.748-1.553-6.135c-0.685-0.776-1.505-1.225-2.25-1.469
	c-0.79-0.261-1.594,0.362-1.554,1.194v0.023C46.331,28.992,46.641,29.424,47.104,29.572"/>
<path class="c4-fill" d="M48.562,36.089c-1.76-1.195-3.806-1.827-5.918-1.827c-4.483,0-8.376,2.586-10.411,6.912
	c-1.259,2.673-4.516,12.416,6.359,25.558c1.384,1.673,3.232,2.593,5.204,2.593c2.097,0,4.028-0.99,5.298-2.718
	c0.078-0.107,0.451-0.309,0.993-0.309l0.086-29.891C49.711,36.396,48.874,36.302,48.562,36.089z M49.061,51.89
	c-0.144,1.9-1.949,3.685-3.703,2.985c-1.754-0.699-1.815-3.182-0.652-4.649c0.719-0.907,1.725-1.757,2.521-2.36
	c0.602-0.456,1.475-0.111,1.602,0.633C48.997,49.468,49.149,50.75,49.061,51.89z"/>
<g>
	<path class="c4-fill" d="M61.678,21.941c-0.409-0.324-0.931-0.482-1.474-0.397c-6.672,1.015-8.111,6.773-8.392,8.514
		c-0.068,0.418,0.009,0.842,0.208,1.209L61.678,21.941z"/>
	<path class="c4-fill" d="M62.17,22.508l-9.666,9.334c0.333,0.267,0.747,0.421,1.184,0.427l0.131,0.001c6.714,0,8.259-6.541,8.57-8.543
		C62.456,23.303,62.375,22.876,62.17,22.508z"/>
</g>
<g>
	<path fill="#9ACC6B" class="c3-fill" d="M49.094,66.607c0.08-0.109,0.452-0.309,0.994-0.309C49.546,66.298,49.173,66.499,49.094,66.607
		C49.095,66.607,49.094,66.607,49.094,66.607z"/>
	<path fill="#808080" class="c3-fill" d="M67.931,41.732c-1.919-4.405-5.86-7.196-10.542-7.467c-2.275-0.131-4.272,0.422-5.677,1.582
		c-0.386,0.318-0.96,0.509-1.539,0.56c0,0,0,0,0,0l-0.086,29.891c0.413,0,0.644,0.124,0.68,0.167c1.247,1.791,3.266,2.86,5.398,2.86
		c1.972,0,3.819-0.922,5.203-2.594C68.528,58.081,70.981,48.736,67.931,41.732z M54.76,54.875c-1.755,0.699-3.56-1.085-3.704-2.985
		c-0.087-1.14,0.065-2.421,0.232-3.392c0.128-0.743,1-1.087,1.602-0.633c0.798,0.604,1.805,1.453,2.522,2.36
		C56.574,51.695,56.515,54.176,54.76,54.875z"/>
</g>
</svg>
