<?xml version="1.0" encoding="utf-8"?>
<!-- Generator: Adobe Illustrator 17.0.2, SVG Export Plug-In . SVG Version: 6.00 Build 0)  -->
<!DOCTYPE svg PUBLIC "-//W3C//DTD SVG 1.1//EN" "http://www.w3.org/Graphics/SVG/1.1/DTD/svg11.dtd">
<svg version="1.1" id="Layer_2" xmlns="http://www.w3.org/2000/svg" xmlns:xlink="http://www.w3.org/1999/xlink" x="0px" y="0px"
	 width="100px" height="100px" viewBox="0 0 100 100" enable-background="new 0 0 100 100" xml:space="preserve">
<path fill="#9ACC6B" class="c3-fill" d="M42.229,56.544"/>
<path class="c4-fill" d="M46.715,55.474c0.168,0.224,0.38,0.428,0.681,0.428c0.296,0,0.554-0.172,0.675-0.422l1.499-0.307c0-0.01,0-0.019,0-0.028
	c0-0.199-0.026-0.392-0.077-0.576l-1.1,0.221l0.826-0.83c-0.169-0.257-0.389-0.477-0.647-0.642l-0.942,0.95l-0.391-1.291
	c-0.266-0.025-0.774,0.118-0.866,0.281l0.431,1.426c-0.043,0.054-0.078,0.115-0.104,0.18C46.699,54.866,46.543,55.244,46.715,55.474
	z"/>
<path fill="#808080" class="c3-fill" d="M41.323,35.645c0,0,2.212-1.535,4.604-1.805c2.391-0.271-1.88-1.053-8.664-0.902
	C37.262,32.938,36.044,34.157,41.323,35.645"/>
<path class="c4-fill" d="M35.881,53.322l7.312-3.781c0.455,0.813,0.757,1.442,0.969,2.375c0.295-0.025,1.301-0.179,1.617-0.206
	c-0.142-0.664-0.346-1.313-0.613-1.944c-0.545-1.287-1.323-2.442-2.315-3.434c-0.653-0.652-1.376-1.213-2.161-1.675l-0.809,1.321
	c1.4,0.839,2.473,1.881,3.312,3.281l-8.062,4.145C35.353,53.378,35.601,53.352,35.881,53.322"/>
<path class="c4-fill" d="M43.1,58.322c-0.839,1.398-1.857,2.448-3.256,3.288l-4.084-6.428c2.535,0.76,4.347,1.463,5.751,1.849
	c2.786,0.768,3.798,0.913,5.448,1.264c0.21,0.044,0.438-0.007,0.67-0.02c0.747-0.042,1.326-0.352,1.767-0.7
	c0.661-0.52,1.106-1.63,0.991-2.581c-0.114-0.957-0.505-1.664-1.114-2.179c-0.472-0.399-1.404-0.817-2.271-0.757
	c-8.583,0.594-10.4,0.983-10.992,1.075c-0.008-0.006-0.014-0.013-0.021-0.02l6.414-12.936L45.899,51.7
	c0.3-0.024,0.609-0.05,0.928-0.077l-3.662-12.07H59.58l0.062,0.25l0.473,1.859L49.67,52.105c-0.195,0.195-0.195,0.512,0,0.707
	c0.098,0.098,0.225,0.146,0.353,0.146c0.095,0,0.185-0.036,0.268-0.089c0.001,0.002,0.004,0.004,0.005,0.006l0.027-0.027
	c0.018-0.013,0.038-0.02,0.055-0.036l10.024-10.024l2.212,8.709l1.364,1.65c-0.025,0.024-0.039,0.058-0.062,0.084l-6.822-4.164
	c0.839-1.398,1.431-2.073,2.83-2.913l1.398,2.113l-0.274-1.083l-0.791-1.196c0.173-0.098,0.477-0.361,0.656-0.448l-0.636-1.388
	c-1.163,0.535-2.214,1.267-3.125,2.18c-0.993,0.992-1.773,2.147-2.316,3.434c-0.563,1.333-0.85,2.747-0.85,4.206
	s0.286,2.873,0.85,4.205c0.544,1.288,1.323,2.443,2.316,3.435c0.99,0.992,2.146,1.771,3.433,2.315
	c1.333,0.564,2.748,0.85,4.207,0.85c1.457,0,2.872-0.286,4.205-0.85c1.286-0.544,2.441-1.322,3.435-2.315
	c0.992-0.992,1.771-2.147,2.315-3.435c0.564-1.332,0.849-2.747,0.849-4.205s-0.284-2.873-0.849-4.206
	c-0.544-1.287-1.322-2.442-2.315-3.434c-0.993-0.992-2.148-1.771-3.435-2.315c-1.333-0.564-2.748-0.85-4.205-0.85
	c-0.954,0-1.818,0.163-2.723,0.405l0.354,1.25c0.458-0.094,1.385-0.281,2.239-0.094l-0.023,8.099
	c-0.018,0.003-0.037,0.002-0.055,0.005l-1.09-1.558l-2.968-11.692l-0.009-0.042h0.291c0.281,0,0.51-0.273,0.51-0.609
	c0-0.336-0.229-0.609-0.51-0.609h-0.554l-0.432-1.917h2.611c0.075,0.084,0.182,0.141,0.303,0.15
	c0.007,0.001,0.798,0.069,1.564,0.411c0.932,0.415,1.402,1.035,1.402,1.843c0,0.365-0.128,0.665-0.39,0.919
	c-0.406,0.389-1.129,0.665-2.094,0.8c-0.769,0.107-1.413,0.083-1.413,0.083c-0.258-0.011-0.471,0.185-0.482,0.436
	c-0.01,0.252,0.187,0.463,0.437,0.474c0.01,0,0.09,0.003,0.221,0.003c0.273,0,0.775-0.013,1.346-0.092
	c1.181-0.163,2.06-0.514,2.615-1.047c0.445-0.428,0.67-0.958,0.67-1.576c0-0.669-0.215-1.257-0.639-1.749
	c-0.326-0.377-0.771-0.692-1.325-0.936c-0.905-0.398-1.801-0.474-1.839-0.477c-0.147-0.012-0.284,0.048-0.377,0.15h-3.586
	c-0.168,0-0.303,0.136-0.303,0.303c0,0.168,0.135,0.304,0.303,0.304h0.018l0.449,1.917H42.991l-0.53-2.439l-1.188,0.258l0.475,2.181
	h-0.733c-0.281,0-0.51,0.273-0.51,0.609c0,0.336,0.229,0.609,0.51,0.609h0.319c0.02,0.002,0.037,0.012,0.058,0.012h0.303
	l-6.332,12.772v-1.025l-0.352-6.371c1.148,0.018,2.252,0.233,3.275,0.612l0.76-1.672c-1.224-0.465-2.513-0.701-3.836-0.701
	c-1.458,0-2.873,0.286-4.207,0.85c-1.285,0.544-2.442,1.323-3.433,2.315c-0.992,0.992-1.772,2.147-2.315,3.434
	c-0.563,1.333-0.851,2.747-0.851,4.206s0.287,2.873,0.851,4.205c0.543,1.288,1.323,2.443,2.315,3.435
	c0.99,0.992,2.147,1.771,3.433,2.315c1.334,0.564,2.749,0.85,4.207,0.85s2.874-0.286,4.205-0.85
	c1.287-0.544,2.442-1.322,3.435-2.315c0.893-0.894,1.614-1.921,2.146-3.057c-0.296-0.059-0.593-0.148-0.909-0.217
	c-0.644-0.142-0.531-0.194-0.738-0.11 M34.655,44.986l0.562,7.073l0.081,0.965c-0.093,0.011-0.469-0.063-0.552-0.029l-3.985-6.901
	C32.024,45.388,33.114,45.009,34.655,44.986z M30.459,46.233l3.984,6.902c-0.072,0.056-0.138,0.121-0.194,0.194l-6.9-3.984
	C28.114,48.069,29.184,46.998,30.459,46.233z M27.208,49.521l6.903,3.985c-0.035,0.083-0.059,0.172-0.071,0.265H26.07
	C26.093,52.231,26.503,50.784,27.208,49.521z M26.101,53.986h7.971c0.013,0.093,0.036,0.182,0.071,0.266l-6.903,3.984
	C26.535,56.974,26.125,55.526,26.101,53.986z M27.288,58.478l7.154-4.13c0.059,0.075,0.127,0.143,0.201,0.201l-4.131,7.156
	C29.19,60.911,28.081,59.8,27.288,58.478z M30.699,61.851l4.029-6.902c0.083,0.035,0.373,0.017,0.466,0.029l-0.406,8
	C33.247,62.955,31.961,62.557,30.699,61.851z M39.694,61.697c-1.384,0.774-2.973,1.225-4.661,1.25l0.331-7.827
	c0.008-0.001,0.016-0.003,0.023-0.004L39.694,61.697z M36.359,54.134h7.773c0.033-0.099,0.07-0.197,0.111-0.292h-7.43
	c-0.219,0.029-0.359,0.05-0.445,0.063c-0.011-0.18-0.062-0.348-0.143-0.497c0.781-0.111,3.272-0.415,10.308-1
	c-1.048,0.268-1.864,1.124-2.074,2.194l0.305-0.025c0.259-1.124,1.268-1.964,2.468-1.964c1.396,0,2.532,1.136,2.532,2.532
	c0,1.396-1.137,2.532-2.532,2.532c-1.082,0-2.009-0.683-2.37-1.641l-0.303,0.025c0.241,0.699,0.748,1.275,1.4,1.605l-4.7-1.121
	c-1.418-0.311-2.842-0.891-5.36-1.641C36.144,54.724,36.314,54.45,36.359,54.134z M56.924,49.158l6.759,4.35l0.055-0.003
	c-0.044,0.099-0.082,0.203-0.097,0.315h-7.969C55.698,52.13,56.151,50.542,56.924,49.158z M55.683,54.167h8.05
	c0.012,0.094,0.036,0.184,0.072,0.269l-6.971,4.023C56.124,57.185,55.707,55.723,55.683,54.167z M56.975,58.701l6.969-4.024
	c0.057,0.073,0.123,0.139,0.196,0.196l-4.022,6.97C58.83,61.07,57.748,59.988,56.975,58.701z M64.651,63.134
	c-1.556-0.023-3.019-0.438-4.293-1.151l4.025-6.97c0.084,0.035,0.174,0.059,0.267,0.071V63.134z M72.606,49.354l-6.969,4.023
	c-0.058-0.074-0.123-0.139-0.197-0.196l4.024-6.97C70.751,46.985,71.833,48.066,72.606,49.354z M69.1,46.009L65.234,52.9
	c-0.091-0.037-0.193-0.045-0.293-0.058l-0.017-8.103C66.631,44.916,67.6,45.259,69.1,46.009z M64.929,63.134v-8.049
	c0.095-0.013,0.185-0.037,0.269-0.072l4.022,6.97C67.949,62.696,66.486,63.111,64.929,63.134z M69.464,61.843l-4.024-6.97
	c0.074-0.057,0.14-0.123,0.197-0.196l6.969,4.024C71.833,59.988,70.751,61.07,69.464,61.843z M72.747,58.458l-6.969-4.023
	c0.034-0.084,0.058-0.174,0.069-0.269h8.051C73.875,55.723,73.459,57.185,72.747,58.458z M65.847,53.888
	c-0.012-0.093-0.035-0.184-0.069-0.268l6.969-4.024c0.713,1.274,1.128,2.737,1.151,4.292H65.847z"/>
<circle fill="#808080" class="c3-fill" cx="35.147" cy="53.947" r="1.264"/>
<circle fill="#808080" class="c3-fill" cx="64.777" cy="53.968" r="1.292"/>
</svg>
