<?xml version="1.0" encoding="utf-8"?>
<!-- Generator: Adobe Illustrator 17.0.2, SVG Export Plug-In . SVG Version: 6.00 Build 0)  -->
<!DOCTYPE svg PUBLIC "-//W3C//DTD SVG 1.1//EN" "http://www.w3.org/Graphics/SVG/1.1/DTD/svg11.dtd">
<svg version="1.1" id="Layer_2" xmlns="http://www.w3.org/2000/svg" xmlns:xlink="http://www.w3.org/1999/xlink" x="0px" y="0px"
	 width="100px" height="100px" viewBox="0 0 100 100" enable-background="new 0 0 100 100" xml:space="preserve">
<path class="c4-fill" d="M63.44,25.94c-0.012-0.015-0.023-0.027-0.037-0.041c-0.443-0.442-1.178-0.43-1.627,0.018l-0.529,0.528
	c0.605,0.39,1.142,0.89,1.571,1.487c1.865,2.594,3.092,5.557,3.753,9.059c0.262,1.382-0.021,2.802-0.779,3.998
	c0.742,1.179,1.027,2.595,0.781,3.984c-0.58,3.285-1.842,6.333-3.75,9.061c-0.812,1.162-2.02,1.965-3.389,2.274
	c-0.32,1.393-1.117,2.576-2.261,3.377c-2.732,1.909-5.78,3.17-9.062,3.75c-0.323,0.057-0.653,0.085-0.982,0.085
	c-1.065,0-2.106-0.304-3.002-0.866c-1.172,0.735-2.617,1.021-3.985,0.78c-3.282-0.58-6.33-1.841-9.061-3.748
	c-0.604-0.423-1.112-0.961-1.508-1.577l-0.825,0.826c-0.449,0.449-0.462,1.184-0.019,1.627c0.012,0.014,0.026,0.025,0.039,0.037
	c9.639,8.747,24.545,8.472,33.842-0.828C71.907,50.476,72.181,35.576,63.44,25.94z"/>
<path fill="#666666" class="c3-fill" d="M63.67,42.29c-0.525-0.626-1.294-0.956-2.109-0.956h-9.557c-1.127,0-2.095,0.618-2.527,1.66
	c-0.431,1.042-0.204,2.17,0.593,2.967l6.756,6.747c0.518,0.521,1.209,0.804,1.946,0.804c0.892,0,1.726-0.434,2.231-1.159
	c1.659-2.373,2.757-5.026,3.262-7.885C64.405,43.682,64.188,42.906,63.67,42.29z M55.454,45.304
	c-0.229,0.561-0.781,0.819-1.373,0.819c-0.475,0-0.975-0.167-1.352-0.479c-0.01-0.008-0.02-0.016-0.029-0.024
	c-0.98-0.827-0.338-2.462,0.9-2.462c0.041,0,0.082,0.002,0.123,0.005c0.021,0.002,0.041,0.004,0.062,0.006
	C54.862,43.275,55.868,44.296,55.454,45.304z"/>
<path fill="#666666" class="c3-fill" d="M64.267,37.426c-0.506-2.861-1.603-5.466-3.262-7.838c-0.807-1.151-2.514-1.464-3.716-0.695l-7.326,7.286
	l-0.069,0.082c-0.672,0.824-0.804,1.747-0.346,2.713c0.453,0.954,1.395,1.359,2.457,1.359h9.557c0.816,0,1.585-0.169,2.11-0.795
	C64.189,38.922,64.406,38.213,64.267,37.426z M53.503,38.734c-0.014,0.002-0.026,0.003-0.039,0.004
	c-0.041,0.003-0.082,0.005-0.121,0.005c-1.24,0-1.873-1.639-0.892-2.466c0.017-0.015,0.032-0.026,0.048-0.04
	c0.377-0.309,0.871-0.475,1.342-0.475c0.578,0,1.117,0.252,1.349,0.806C55.61,37.573,54.598,38.632,53.503,38.734z"/>
<path fill="#666666" class="c3-fill" d="M56.437,54.099l-6.763-6.756c-0.518-0.52-1.102-0.806-1.824-0.806c-1.515,0-2.649,1.229-2.649,2.738v9.557
	c0,1.514,1.123,2.746,2.624,2.746c0.153,0,0.26-0.013,0.421-0.041c2.86-0.506,5.488-1.603,7.86-3.261
	c0.657-0.46,1.062-1.186,1.132-1.99C57.308,55.472,57.013,54.675,56.437,54.099z M49.183,52.617
	c-0.159,0.065-0.319,0.097-0.478,0.097c-0.84,0-1.603-0.863-1.689-1.784c-0.001-0.013-0.002-0.026-0.003-0.038
	c-0.075-0.885,0.674-1.494,1.433-1.494c0.373,0,0.748,0.147,1.028,0.482c0.015,0.017,0.027,0.032,0.04,0.048
	C50.2,50.762,50.19,52.196,49.183,52.617z"/>
<path fill="#666666" class="c3-fill" d="M41.573,46.538c-0.55,0-1.021,0.168-1.478,0.487l-7.331,7.35l-0.112,0.156
	c-0.812,1.229-0.491,2.909,0.705,3.746c2.371,1.658,5.028,2.755,7.88,3.259c0.162,0.03,0.202,0.043,0.359,0.043
	c1.501,0,2.603-1.232,2.603-2.747v-9.557C44.2,47.766,43.088,46.538,41.573,46.538z M42.584,50.663
	c-0.091,0.906-0.829,1.764-1.663,1.764c-0.156,0-0.314-0.031-0.475-0.096c-1.008-0.413-1.041-1.878-0.338-2.725
	c0.008-0.01,0.017-0.02,0.024-0.029c0.28-0.331,0.651-0.477,1.022-0.477c0.759,0,1.51,0.613,1.434,1.5
	C42.587,50.622,42.586,50.642,42.584,50.663z"/>
</svg>
