<?xml version="1.0" encoding="utf-8"?>
<!-- Generator: Adobe Illustrator 15.0.2, SVG Export Plug-In . SVG Version: 6.00 Build 0)  -->
<!DOCTYPE svg PUBLIC "-//W3C//DTD SVG 1.1//EN" "http://www.w3.org/Graphics/SVG/1.1/DTD/svg11.dtd">
<svg version="1.1" id="Layer_1" xmlns="http://www.w3.org/2000/svg" xmlns:xlink="http://www.w3.org/1999/xlink" x="0px" y="0px"
	 width="135px" height="135px" viewBox="0 0 135 135" enable-background="new 0 0 135 135" xml:space="preserve">
<g>
	<path fill="#888888" d="M49.2,65.321c0.476,0,0.943,0.033,1.401,0.086c1.663-3.153,4.669-5.503,8.276-6.311
		c0.031-0.281,0.09-0.554,0.135-0.83c-0.868-0.559-1.836-0.979-2.879-1.212c-0.82-7.159-6.895-12.721-14.273-12.721
		c-6.227,0-11.525,3.959-13.521,9.491c-1.481-0.578-3.092-0.902-4.781-0.902c-7.225,0-13.08,5.857-13.08,13.079
		c0,7.227,5.855,13.082,13.08,13.082h13.48c-0.061-0.49-0.101-0.987-0.101-1.495C36.938,70.814,42.427,65.321,49.2,65.321z"/>
	<path fill="#888888" d="M106.261,55.233c-2.355,0-4.607,0.453-6.677,1.264c-2.787-7.73-10.182-13.255-18.876-13.255
		c-10.01,0-18.285,7.341-19.792,16.929c-0.043,0.277-0.102,0.55-0.134,0.831c-3.607,0.809-6.613,3.156-8.275,6.311
		c-0.46-0.053-0.927-0.088-1.4-0.088c-6.775,0-12.265,5.494-12.265,12.27c0,0.507,0.04,1.004,0.101,1.495
		c0.738,6.064,5.896,10.769,12.164,10.769h55.154c10.086,0,18.261-8.177,18.261-18.264
		C124.521,63.412,116.347,55.233,106.261,55.233z"/>
</g>
<g>
	<path fill="#888888" d="M536.489,91.679l-3.424-0.495l5.039-4.516c0.471-0.423,0.511-1.148,0.089-1.62
		c-0.137-0.153-0.309-0.243-0.489-0.304l1.123-1.204l-15.945,0.667l0.084-0.223c0.03-0.08,0.027-0.163,0.039-0.245
		c0.074-0.521-0.195-1.043-0.707-1.236c-0.598-0.225-1.257,0.077-1.48,0.669l-6.464,17.114c-0.171,0.452-0.04,0.965,0.329,1.279
		s0.896,0.362,1.315,0.122l5.714-3.279l-10.122,21.141c-0.247,0.516-0.074,1.139,0.405,1.455c0.146,0.095,0.304,0.154,0.465,0.177
		c0.377,0.054,0.77-0.081,1.033-0.383l23.698-27.229c0.276-0.317,0.356-0.759,0.21-1.153S536.905,91.739,536.489,91.679z"/>
	<path fill="#888888" d="M493.06,60.613c0.474,0,0.939,0.034,1.396,0.087c1.656-3.14,4.648-5.479,8.239-6.282
		c0.033-0.281,0.091-0.552,0.134-0.828c-0.863-0.556-1.827-0.972-2.865-1.205c-0.815-7.129-6.864-12.666-14.21-12.666
		c-6.199,0-11.475,3.94-13.463,9.45c-1.475-0.577-3.078-0.9-4.76-0.9c-7.192,0-13.021,5.833-13.021,13.023
		c0,7.194,5.829,13.025,13.021,13.025h13.42c-0.06-0.489-0.1-0.983-0.1-1.489C480.851,66.084,486.315,60.613,493.06,60.613z"/>
	<path fill="#888888" d="M549.87,50.571c-2.346,0-4.587,0.451-6.646,1.258c-2.775-7.696-10.139-13.197-18.793-13.197
		c-9.967,0-18.207,7.309-19.705,16.855c-0.044,0.274-0.103,0.546-0.135,0.827c-3.59,0.804-6.584,3.142-8.24,6.282
		c-0.456-0.053-0.92-0.087-1.395-0.087c-6.744,0-12.209,5.471-12.209,12.216c0,0.505,0.041,0.999,0.1,1.487
		c0.735,6.039,5.87,10.722,12.109,10.722h54.914c10.041,0,18.181-8.14,18.181-18.184C568.051,58.713,559.911,50.571,549.87,50.571z"
		/>
</g>
<g>
	<circle fill="#888888" cx="-258" cy="67.501" r="20.413"/>
	<path class="c4-fill" d="M-258,41.277c-1.657,0-3-1.344-3-3v-18.25c0-1.657,1.343-3,3-3s3,1.343,3,3v18.25
		C-255,39.934-256.343,41.277-258,41.277z"/>
	<path fill="#888888" d="M-258,117.973c-1.657,0-3-1.343-3-3v-18.25c0-1.656,1.343-3,3-3s3,1.344,3,3v18.25
		C-255,116.63-256.343,117.973-258,117.973z"/>
	<path fill="#888888" d="M-287.223,70.5h-18.25c-1.657,0-3-1.344-3-3s1.343-3,3-3h18.25c1.657,0,3,1.344,3,3
		S-285.566,70.5-287.223,70.5z"/>
	<path fill="#888888" d="M-210.526,70.5h-18.25c-1.657,0-3-1.344-3-3s1.343-3,3-3h18.25c1.656,0,3,1.344,3,3
		S-208.87,70.5-210.526,70.5z"/>
	<path fill="#888888" d="M-278.664,49.836c-0.768,0-1.536-0.293-2.122-0.879l-12.904-12.905c-1.171-1.171-1.171-3.07,0-4.242
		c1.171-1.172,3.071-1.172,4.243,0.001l12.904,12.904c1.171,1.171,1.171,3.071,0,4.242
		C-277.128,49.543-277.896,49.836-278.664,49.836z"/>
	<path fill="#888888" d="M-224.432,104.069c-0.769,0-1.536-0.294-2.122-0.88l-12.904-12.905c-1.171-1.172-1.171-3.07,0.001-4.242
		c1.171-1.172,3.071-1.172,4.243,0l12.904,12.905c1.171,1.172,1.171,3.071-0.001,4.243
		C-222.896,103.775-223.664,104.069-224.432,104.069z"/>
	<path fill="#888888" d="M-291.568,104.068c-0.768,0-1.536-0.294-2.121-0.879c-1.172-1.171-1.172-3.071,0-4.243l12.904-12.904
		c1.172-1.172,3.072-1.172,4.243,0c1.172,1.172,1.172,3.07,0,4.242l-12.904,12.904
		C-290.033,103.774-290.801,104.068-291.568,104.068z"/>
	<path fill="#888888" d="M-237.336,49.836c-0.768,0-1.536-0.293-2.121-0.879c-1.172-1.171-1.172-3.071-0.001-4.242l12.904-12.904
		c1.172-1.173,3.072-1.173,4.243-0.001c1.172,1.172,1.172,3.071,0.001,4.242l-12.904,12.905
		C-235.8,49.543-236.568,49.836-237.336,49.836z"/>
</g>
<g>
	<path fill="#888888" d="M-130.321,45.82c-1.686,0-3.053-1.367-3.053-3.051V24.201c0-1.686,1.367-3.053,3.053-3.053
		c1.685,0,3.053,1.367,3.053,3.053V42.77C-127.268,44.453-128.636,45.82-130.321,45.82z"/>
	<path fill="#888888" d="M-160.053,75.553h-18.566c-1.686,0-3.053-1.369-3.053-3.055c0-1.684,1.367-3.051,3.053-3.051h18.566
		c1.687,0,3.053,1.367,3.053,3.051C-157,74.184-158.367,75.553-160.053,75.553z"/>
	<path fill="#888888" d="M-151.344,54.528c-0.782,0-1.562-0.298-2.159-0.896l-13.128-13.128c-1.192-1.191-1.192-3.125,0-4.315
		c1.191-1.192,3.125-1.192,4.316,0l13.129,13.128c1.191,1.192,1.191,3.125,0,4.317C-149.782,54.23-150.563,54.528-151.344,54.528z"
		/>
	<path fill="#888888" d="M-164.473,109.703c-0.781,0-1.562-0.299-2.158-0.893c-1.192-1.191-1.192-3.125,0-4.318l13.128-13.129
		c1.192-1.191,3.126-1.191,4.317,0c1.191,1.193,1.191,3.125,0,4.316l-13.129,13.129
		C-162.911,109.404-163.692,109.703-164.473,109.703z"/>
	<path fill="#888888" d="M-109.298,54.528c-0.781,0-1.562-0.298-2.158-0.894c-1.193-1.192-1.193-3.125,0-4.317l13.129-13.128
		c1.191-1.192,3.123-1.192,4.316,0c1.191,1.191,1.191,3.124,0,4.315l-13.129,13.128C-107.735,54.23-108.517,54.528-109.298,54.528z"
		/>
	<path fill="#888888" d="M-132.268,86.338c0.478,0,0.951,0.033,1.416,0.088c1.686-3.195,4.728-5.574,8.385-6.395
		c0.799-6.977,5.126-12.879,11.156-15.876c-3.213-7.312-10.51-12.424-19.009-12.424c-11.47,0-20.768,9.299-20.768,20.769
		c0,7.467,3.955,13.996,9.871,17.654C-138.957,87.807-135.786,86.338-132.268,86.338z"/>
	<path fill="#888888" d="M-73.737,76.855c-2.385,0-4.666,0.457-6.76,1.279c-2.824-7.83-10.32-13.43-19.123-13.43
		c-3.242,0-6.309,0.764-9.027,2.114c-6.029,2.998-10.357,8.9-11.156,15.876c-3.656,0.818-6.7,3.199-8.385,6.395
		c-0.465-0.055-0.939-0.088-1.416-0.088c-3.52,0-6.688,1.467-8.948,3.816c-2.151,2.234-3.479,5.264-3.479,8.609
		c0,6.863,5.562,12.424,12.428,12.424h55.867c10.221,0,18.5-8.283,18.5-18.498C-55.237,85.137-63.517,76.855-73.737,76.855z"/>
</g>
</svg>
