<?xml version="1.0" encoding="utf-8"?>
<!-- Generator: Adobe Illustrator 15.0.2, SVG Export Plug-In . SVG Version: 6.00 Build 0)  -->
<!DOCTYPE svg PUBLIC "-//W3C//DTD SVG 1.1//EN" "http://www.w3.org/Graphics/SVG/1.1/DTD/svg11.dtd">
<svg version="1.1" id="Layer_1" xmlns="http://www.w3.org/2000/svg" xmlns:xlink="http://www.w3.org/1999/xlink" x="0px" y="0px"
	 width="135px" height="135px" viewBox="0 0 135 135" enable-background="new 0 0 135 135" xml:space="preserve">
<path class="c3-fill" d="M114.019,49.541c-2.129-1.584-5.133-1.158-6.718,0.972c-0.026,0.038-2.812,3.604-7.647,5.367
	c-5.312,1.937-11.166,1.008-17.428-2.733c0.924,0.173,1.879,0.267,2.85,0.267c8.533,0,15.452-6.917,15.452-15.448
	c0-8.533-6.919-15.452-15.452-15.452s-15.451,6.918-15.451,15.452c0,1.956,0.37,3.826,1.031,5.547
	c-5.738-2.728-11.414-3.703-16.951-2.901c-10.873,1.572-16.951,9.589-17.203,9.93c-1.589,2.131-1.158,5.157,0.971,6.744
	c0.869,0.646,1.879,0.959,2.881,0.959c1.461,0,2.9-0.665,3.838-1.93c0.029-0.036,2.812-3.602,7.651-5.364
	c4.767-1.738,9.964-1.178,15.503,1.656c-5.432,17.701-10.088,22.214-10.088,22.214c-1.467,2.547-7.038,8.382-10.331,7.065
	c-2.514-1.006-3.421-2.229-4.673-3.922c-1.453-1.977-3.451-4.687-7.729-5.636c-8.738-1.938-14.119,9.803-15.107,12.175
	c-1.021,2.452,0.141,5.267,2.591,6.289c2.454,1.022,5.27-0.137,6.292-2.591c1.125-2.696,3.271-5.794,4.409-6.411
	c0.465,0.153,0.767,0.473,1.807,1.883c1.504,2.04,3.778,5.12,8.835,7.145c1.564,0.626,3.102,0.899,4.589,0.899
	c6.249,0,11.698-4.836,14.958-8.879c0.123,0.017,0.242,0.034,0.365,0.045c2.932,0.22,10.749,2.366,10.992,5.902
	c0.178,2.701-0.533,4.047-1.521,5.906c-1.15,2.171-2.722,5.145-1.729,9.409c1.76,7.549,11.677,8.384,15.972,8.384
	c0.664,0,1.201-0.021,1.542-0.039c2.649-0.141,4.678-2.398,4.542-5.048c-0.133-2.649-2.403-4.688-5.041-4.558
	c-2.986,0.146-6.649-0.438-7.697-1.2c-0.064-0.487,0.098-0.893,0.916-2.443c1.184-2.24,2.978-5.623,2.611-11.06
	c-0.332-4.911-3.268-8.312-6.889-10.611c2.914-4.344,5.219-9.523,6.615-13.041c3.512,1.334,7,2.003,10.438,2.003
	c1.266,0,2.522-0.089,3.775-0.272c10.876-1.572,16.955-9.59,17.211-9.93C116.583,54.155,116.153,51.128,114.019,49.541z"/>
<path class="c3-fill" d="M-15.047,40.723c-2.539-0.773-5.223,0.646-5.994,3.187c-0.018,0.043-1.432,4.341-5.381,7.634
	c-4.35,3.622-10.17,4.725-17.326,3.323c0.924-0.151,1.854-0.384,2.77-0.715c8.029-2.884,12.201-11.733,9.316-19.762
	c-2.885-8.03-11.729-12.203-19.764-9.317c-8.03,2.884-12.201,11.732-9.321,19.763c0.668,1.843,1.645,3.478,2.85,4.874
	c-6.322-0.624-11.996,0.375-16.93,3.001c-9.705,5.154-12.717,14.756-12.84,15.162c-0.771,2.543,0.656,5.245,3.195,6.02
	c1.035,0.311,2.092,0.264,3.033-0.072c1.376-0.494,2.51-1.609,2.965-3.115c0.013-0.045,1.428-4.341,5.381-7.634
	c3.902-3.247,8.984-4.479,15.157-3.685c0.869,18.495-1.985,24.317-1.985,24.317c-0.52,2.893-3.791,10.271-7.336,10.143
	c-2.709-0.096-3.971-0.943-5.721-2.115c-2.041-1.365-4.836-3.236-9.182-2.686c-8.877,1.127-9.973,13.996-10.101,16.564
	c-0.128,2.652,1.913,4.91,4.563,5.041c2.653,0.135,4.911-1.91,5.047-4.564c0.141-2.918,1.117-6.557,1.981-7.521
	c0.495-0.016,0.882,0.186,2.335,1.16c2.108,1.412,5.287,3.541,10.735,3.738c1.683,0.057,3.216-0.203,4.618-0.705
	c5.883-2.115,9.377-8.508,11.076-13.418c0.119-0.021,0.238-0.045,0.358-0.08c2.837-0.785,10.914-1.406,12.337,1.84
	c1.086,2.482,0.869,3.988,0.57,6.072c-0.344,2.43-0.826,5.762,1.555,9.439c4.205,6.508,13.82,3.943,17.863,2.49
	c0.627-0.225,1.121-0.424,1.436-0.557c2.449-1.027,3.596-3.84,2.574-6.289c-1.027-2.445-3.848-3.598-6.289-2.584
	c-2.76,1.148-6.406,1.84-7.65,1.477c-0.227-0.439-0.213-0.873,0.037-2.611c0.359-2.508,0.9-6.299-1.281-11.291
	c-1.973-4.51-5.883-6.719-10.072-7.66c1.279-5.07,1.693-10.725,1.82-14.508c3.758,0.066,7.264-0.481,10.496-1.645
	c1.193-0.426,2.344-0.937,3.461-1.529c9.703-5.159,12.715-14.757,12.836-15.161C-11.078,44.199-12.504,41.496-15.047,40.723z"/>
<g>
	<path class="c3-fill" d="M261.759,50.982c-1.887-1.871-4.92-1.869-6.791,0.019c-0.029,0.03-3.284,3.174-8.324,4.24
		c-5.534,1.171-11.196-0.571-16.87-5.151c0.895,0.297,1.818,0.526,2.786,0.66c8.444,1.201,16.266-4.677,17.463-13.125
		c1.196-8.448-4.679-16.266-13.131-17.465c-8.447-1.199-16.266,4.68-17.462,13.128c-0.277,1.937-0.18,3.838,0.238,5.638
		c-5.3-3.504-10.783-5.267-16.376-5.253c-10.986,0.033-18.131,7.117-18.43,7.417c-1.87,1.886-1.87,4.944,0.018,6.814
		c0.771,0.763,1.725,1.209,2.718,1.35c1.444,0.208,2.966-0.249,4.073-1.369c0.033-0.032,3.288-3.172,8.324-4.236
		c4.972-1.053,10.037,0.234,15.119,3.816c-7.86,16.759-13.104,20.577-13.104,20.577c-1.815,2.317-8.149,7.312-11.226,5.547
		c-2.348-1.351-3.072-2.688-4.073-4.541c-1.163-2.159-2.765-5.121-6.862-6.663c-8.376-3.148-15.35,7.72-16.662,9.933
		c-1.355,2.283-0.605,5.236,1.684,6.59c2.283,1.357,5.23,0.604,6.59-1.68c1.491-2.514,4.051-5.278,5.266-5.73
		c0.439,0.22,0.694,0.575,1.525,2.121c1.201,2.229,3.02,5.599,7.745,8.312c1.456,0.84,2.939,1.325,4.418,1.533
		c6.19,0.878,12.26-3.144,16.057-6.692c0.118,0.036,0.229,0.07,0.349,0.096c2.876,0.628,10.318,3.849,10.059,7.385
		c-0.2,2.706-1.095,3.937-2.334,5.639c-1.44,1.987-3.417,4.71-3.034,9.072c0.682,7.722,10.382,9.938,14.635,10.542
		c0.664,0.094,1.188,0.146,1.532,0.179c2.642,0.232,4.972-1.72,5.211-4.36c0.238-2.642-1.722-4.976-4.354-5.223
		c-2.979-0.273-6.523-1.363-7.452-2.265c0-0.492,0.214-0.874,1.248-2.292c1.487-2.051,3.736-5.15,4.142-10.584
		c0.362-4.908-2.071-8.687-5.334-11.474c3.498-3.889,6.501-8.697,8.375-11.983c3.299,1.812,6.655,2.967,10.06,3.451
		c1.252,0.175,2.509,0.264,3.774,0.26c10.986-0.029,18.131-7.115,18.429-7.417C263.646,55.909,263.646,52.853,261.759,50.982z"/>
	<path class="c2-fill" d="M179.584,45.18h-29.702c-0.809,0-1.465-0.654-1.465-1.461s0.656-1.459,1.465-1.459h29.702
		c0.806,0,1.462,0.652,1.462,1.459S180.39,45.18,179.584,45.18z"/>
	<path class="c2-fill" d="M168.571,51.536h-29.706c-0.81,0-1.461-0.654-1.461-1.461c0-0.807,0.651-1.459,1.461-1.459h29.706
		c0.806,0,1.457,0.652,1.457,1.459C170.028,50.882,169.377,51.536,168.571,51.536z"/>
	<path class="c2-fill" d="M174.276,59.871h-29.707c-0.805,0-1.461-0.654-1.461-1.461c0-0.806,0.656-1.46,1.461-1.46h29.707
		c0.805,0,1.461,0.654,1.461,1.46C175.737,59.217,175.081,59.871,174.276,59.871z"/>
</g>
<g>
	<path class="c3-fill" d="M-177.733,84.943l0.009,0.017l0.008-0.017C-177.724,84.943-177.728,84.943-177.733,84.943z"/>
	<path class="c3-fill" d="M-146.79,70.259c-1.59-6.468-6.744-17.237-23.394-20.858c4.716-2.646,7.907-7.689,7.907-13.483
		c0-8.531-6.914-15.447-15.448-15.447c-8.533,0-15.452,6.916-15.452,15.447c0,5.794,3.187,10.838,7.907,13.483
		c-16.648,3.621-21.809,14.391-23.393,20.858c-0.631,2.579,0.945,5.185,3.523,5.816c0.387,0.096,0.775,0.141,1.15,0.141
		c2.164,0,4.128-1.47,4.668-3.665c1.641-6.676,6.383-11.123,14.127-13.275c-0.043,1.389-0.516,4.089-2.914,8.033
		c-3.663,6.013-3.395,16.834-3.395,16.834c0.008,4.627,0.707,10.467,2.633,17.784c-1.082,1.331-3.328,3.231-7.145,2.957
		c-2.654-0.19-4.95,1.803-5.138,4.453c-0.188,2.649,1.802,4.95,4.456,5.142c0.498,0.036,0.984,0.052,1.465,0.052
		c8.977,0,14.208-6.077,15.934-9.846c0.473-1.039,0.562-2.215,0.247-3.313c-2.155-7.588-2.82-13.19-2.82-17.229
		c0,0,1.683,0.817,4.146,0.817l-0.009-0.017c0,0,0.009,0,0.017,0l-0.008,0.017c2.458,0,4.141-0.817,4.141-0.817
		c0.004,4.038-0.664,9.641-2.82,17.229c-0.311,1.099-0.227,2.274,0.251,3.313c1.722,3.769,6.952,9.846,15.934,9.846
		c0.477,0,0.967-0.016,1.462-0.052c2.653-0.191,4.643-2.492,4.455-5.142c-0.188-2.65-2.483-4.644-5.142-4.453
		c-3.813,0.274-6.054-1.626-7.14-2.957c1.925-7.317,2.628-13.157,2.637-17.784c0,0,0.268-10.821-3.396-16.834
		c-2.403-3.944-2.872-6.645-2.919-8.033c7.746,2.154,12.492,6.602,14.131,13.275c0.537,2.195,2.502,3.665,4.666,3.665
		c0.379,0,0.766-0.045,1.146-0.141C-147.736,75.443-146.156,72.838-146.79,70.259z"/>
</g>
</svg>
