<?xml version="1.0" encoding="utf-8"?>
<!-- Generator: Adobe Illustrator 15.0.2, SVG Export Plug-In . SVG Version: 6.00 Build 0)  -->
<!DOCTYPE svg PUBLIC "-//W3C//DTD SVG 1.1//EN" "http://www.w3.org/Graphics/SVG/1.1/DTD/svg11.dtd">
<svg version="1.1" id="Layer_1" xmlns="http://www.w3.org/2000/svg" xmlns:xlink="http://www.w3.org/1999/xlink" x="0px" y="0px"
	 width="135px" height="135px" viewBox="0 0 135 135" enable-background="new 0 0 135 135" xml:space="preserve">
<g>
	<path class="c2-fill" d="M-224.109,35.549c-4.148-1.628-8.661-2.533-13.387-2.533c-5.269,0-10.274,1.12-14.802,3.122
		c-12.87,5.688-21.854,18.558-21.854,33.534c0,20.245,16.411,36.656,36.656,36.656s36.656-16.411,36.656-36.656
		C-200.84,54.154-210.488,40.897-224.109,35.549z"/>
	<g>
		<circle class="c4-fill" cx="-228.75" cy="60.112" r="4.26"/>
		<circle class="c4-fill" cx="-246.242" cy="60.112" r="4.26"/>
		<path class="c4-fill" d="M-212.744,72.206c-3.481,10.771-13.428,18.009-24.752,18.009s-21.271-7.238-24.752-18.009
			c-0.314-0.977,0.221-2.023,1.197-2.34c0.978-0.315,2.024,0.222,2.339,1.196c2.983,9.233,11.51,15.437,21.216,15.437
			c9.707,0,18.233-6.203,21.216-15.437c0.316-0.975,1.363-1.512,2.339-1.196C-212.965,70.183-212.43,71.229-212.744,72.206z"/>
	</g>
</g>
<g>
	<path class="c2-fill" d="M-130.192,35.549c-4.148-1.628-8.661-2.533-13.387-2.533c-5.269,0-10.274,1.12-14.802,3.122
		c-12.87,5.688-21.854,18.558-21.854,33.534c0,20.245,16.412,36.656,36.656,36.656c20.245,0,36.657-16.411,36.657-36.656
		C-106.922,54.154-116.571,40.897-130.192,35.549z"/>
	<g>
		<circle class="c4-fill" cx="-134.833" cy="60.112" r="4.26"/>
		<circle class="c4-fill" cx="-152.325" cy="60.112" r="4.26"/>
	</g>
	<path class="c4-stroke" stroke-width="3" stroke-linecap="round" stroke-linejoin="round" stroke-miterlimit="10" d="
		M-161.594,78.903c0,0,8.809,6.718,32.196,6.718"/>
</g>
<g>
	<path class="c2-fill" d="M89.163,89.654c-0.364,0-0.7,0.106-0.992,0.278v-0.278c0-2.469-1.072-4.684-2.77-6.226v3.637
		c0,0.376-0.304,0.682-0.682,0.682c-0.377,0-0.682-0.306-0.682-0.682v-4.647c-1.074-0.641-2.299-1.048-3.611-1.153v5.801
		c0,0.376-0.304,0.682-0.681,0.682c-0.376,0-0.681-0.306-0.681-0.682v-5.801c-1.312,0.105-2.537,0.513-3.611,1.153v4.647
		c0,0.376-0.305,0.682-0.682,0.682c-0.376,0-0.682-0.306-0.682-0.682v-3.637c-1.695,1.542-2.769,3.757-2.769,6.226v16.518v8.437
		h16.849v-12.907v-5.3h0.992c1.076,0,1.95-0.872,1.95-1.948v-2.849C91.113,90.526,90.239,89.654,89.163,89.654z"/>
	<path class="c2-fill" d="M60.491,87.065c0,0.376-0.306,0.682-0.682,0.682s-0.681-0.306-0.681-0.682v-4.647
		c-1.075-0.641-2.299-1.048-3.611-1.153v5.801c0,0.376-0.305,0.682-0.681,0.682c-0.378,0-0.682-0.306-0.682-0.682v-5.801
		c-1.312,0.105-2.536,0.513-3.61,1.153v4.647c0,0.376-0.306,0.682-0.682,0.682c-0.378,0-0.683-0.306-0.683-0.682v-3.637
		c-1.696,1.542-2.769,3.757-2.769,6.226v0.278c-0.292-0.172-0.628-0.278-0.992-0.278c-1.076,0-1.95,0.872-1.95,1.95v2.849
		c0,1.076,0.874,1.948,1.95,1.948h0.992v5.3v12.907h16.849v-8.437V89.654c0-2.469-1.074-4.684-2.77-6.226V87.065z"/>
	<path class="c2-fill" d="M67.5,20.392c-21.034,0-38.086,17.052-38.086,38.085c0,12.147,5.7,22.949,14.556,29.919
		c0.606-5.35,5.34-9.527,11.072-9.527c6.144,0,11.142,4.795,11.142,10.691v6.969c0.438,0.017,0.875,0.033,1.316,0.033
		c0.442,0,0.881-0.017,1.318-0.033v-6.969c0-5.896,4.998-10.691,11.142-10.691c5.732,0,10.465,4.178,11.07,9.527
		c8.857-6.971,14.556-17.772,14.556-29.919C105.586,37.443,88.534,20.392,67.5,20.392z"/>
	<g>
		<g>
			<circle class="c4-fill" cx="58.093" cy="49.542" r="4.742"/>
			<path class="c4-fill" d="M51.688,39.639c-0.882-1.075-0.069-1.866-0.069-1.866s-2.174,1.649-1.468,3.273
				C50.859,42.671,52.568,40.713,51.688,39.639z"/>
			<circle class="c4-fill" cx="77.562" cy="49.542" r="4.742"/>
			<path class="c4-fill" d="M49.134,44.615c-1.998-2.44-0.156-4.231-0.156-4.231s-4.936,3.738-3.328,7.426
				C47.256,51.496,51.131,47.054,49.134,44.615z"/>
			<path class="c4-fill" d="M87.554,59.201c1.012-2.325-2.1-4.682-2.1-4.682s1.161,1.131-0.098,2.668
				C84.099,58.723,86.54,61.525,87.554,59.201z"/>
		</g>

			<line class="c4-stroke" stroke-width="2" stroke-linecap="round" stroke-linejoin="round" stroke-miterlimit="10" x1="79.606" y1="71.805" x2="55.395" y2="71.805"/>
	</g>
</g>
<g>
	<g>
		<path class="c4-fill" d="M498.139,80.559c0.814-1.87-1.688-3.765-1.688-3.765s0.935,0.91-0.078,2.146
			C495.36,80.175,497.324,82.428,498.139,80.559z"/>
		<path class="c2-fill" d="M506.949,72.727c0-3.986,1.868-7.645,4.971-10.499c-2.104-3.593-4.799-6.794-7.955-9.474
			c-3.462,1.36-7.389,2.133-11.554,2.133c-9.319,0-17.468-3.854-21.817-9.564c-6.615,1.794-12.485,5.392-17.057,10.231
			c0.221,0.876,0.346,1.777,0.346,2.7c0,5.107-3.557,9.576-8.855,12.062c-0.979,3.307-1.514,6.808-1.514,10.431
			c0,20.277,16.438,36.713,36.713,36.713c18.355,0,33.562-13.471,36.279-31.065C510.744,83.428,506.949,78.407,506.949,72.727z"/>
		<path class="c4-fill" d="M547.822,72.727c0-7.611-8.484-13.781-18.952-13.781c-10.466,0-18.952,6.17-18.952,13.781
			c0,7.612,8.486,13.782,18.952,13.782c2.928,0,5.7-0.483,8.175-1.346l5.789,3.008l-2.487-4.479
			C544.89,81.174,547.822,77.2,547.822,72.727z M524.05,79.033h-3.229v-2.954h3.229V79.033z M524.05,69.11l-0.827,5.533h-1.575
			l-0.826-5.533v-3.189h3.229V69.11z M529.919,79.033h-3.228v-2.954h3.228V79.033z M529.919,69.11l-0.827,5.533h-1.574l-0.826-5.533
			v-3.189h3.228V69.11z M535.789,79.033h-3.229v-2.954h3.229V79.033z M535.789,69.11l-0.827,5.533h-1.575l-0.826-5.533v-3.189h3.229
			V69.11z"/>
		<path class="c4-fill" d="M515.137,35.845c0-5.303-3.477-10.013-8.859-12.998l2.947-5.307l-6.861,3.562
			c-2.935-1.02-6.22-1.594-9.69-1.594c-12.405,0-22.464,7.313-22.464,16.336c0,9.021,10.059,16.336,22.464,16.336
			C505.079,52.181,515.137,44.865,515.137,35.845z M487.795,43.381h-3.702v-3.386h3.702V43.381z M487.795,32.004l-0.949,6.343
			h-1.805l-0.948-6.343v-3.657h3.702V32.004z M494.524,43.381h-3.701v-3.386h3.701V43.381z M494.524,32.004l-0.947,6.343h-1.807
			l-0.947-6.343v-3.657h3.701V32.004z M501.254,43.381h-3.701v-3.386h3.701V43.381z M501.254,32.004l-0.948,6.343H498.5
			l-0.947-6.343v-3.657h3.701V32.004z"/>
		<path class="c4-fill" d="M435.712,46.819c-8.685,0-15.726,5.12-15.726,11.435c0,3.714,2.434,7.011,6.203,9.1l-2.064,3.715
			l4.805-2.493c2.053,0.715,4.353,1.115,6.782,1.115c8.685,0,15.726-5.12,15.726-11.437
			C451.438,51.939,444.396,46.819,435.712,46.819z M432.939,63.76h-2.536v-2.318h2.536V63.76z M432.939,55.968l-0.65,4.345h-1.236
			l-0.649-4.345v-2.504h2.536V55.968z M437.548,63.76h-2.535v-2.318h2.535V63.76z M437.548,55.968l-0.649,4.345h-1.236l-0.649-4.345
			v-2.504h2.535V55.968z M442.156,63.76h-2.535v-2.318h2.535V63.76z M442.156,55.968l-0.649,4.345h-1.236l-0.649-4.345v-2.504h2.535
			V55.968z"/>
	</g>
	<g>
		<path class="c4-fill" d="M500.506,77.554c1.204-1.469,0.094-2.553,0.094-2.553s2.977,2.256,2.008,4.479
			S499.303,79.023,500.506,77.554z"/>
		<circle class="c4-fill" cx="490.801" cy="70.259" r="4.742"/>
		<circle class="c4-fill" cx="471.333" cy="70.259" r="4.742"/>
		<path class="c4-fill" d="M466.143,57.94c0,0-1.156,1.127,0.1,2.657c1.252,1.53-1.18,4.319-2.188,2.006
			C463.047,60.288,466.143,57.94,466.143,57.94z"/>
		<path class="c4-fill" d="M462.18,60.672c0,0-2.021,1.967,0.17,4.643c2.191,2.677-2.06,7.549-3.823,3.506
			C456.766,64.773,462.18,60.672,462.18,60.672z"/>
		<path class="c4-fill" d="M503.964,99.025c-0.221,0.024-0.437,0.013-0.643-0.032c-0.782-0.172-1.407-0.819-1.509-1.658
			c-0.037-0.294-0.964-7.036-7.312-8.425l-0.259-0.057c-6.409-1.401-10.12,4.536-10.155,4.596c-0.21,0.341-5.218,8.348-14.296,6.36
			l-0.257-0.057c-9.078-1.985-10.286-11.352-10.334-11.749c-0.125-1.062,0.635-2.027,1.698-2.152c1.06-0.123,2.022,0.631,2.151,1.69
			c0.037,0.294,0.964,7.034,7.312,8.425l0.257,0.056c6.411,1.402,10.12-4.535,10.158-4.595c0.208-0.341,5.216-8.347,14.294-6.362
			l0.259,0.057c9.078,1.987,10.285,11.352,10.332,11.75C505.786,97.936,505.027,98.897,503.964,99.025z"/>
	</g>
</g>
</svg>
